<?xml version="1.0" encoding="utf-8" standalone="no"?>
<!DOCTYPE svg PUBLIC "-//W3C//DTD SVG 1.1//EN"
  "http://www.w3.org/Graphics/SVG/1.1/DTD/svg11.dtd">
<svg xmlns:xlink="http://www.w3.org/1999/xlink" width="254.846995pt" height="327.632625pt" viewBox="0 0 254.846995 327.632625" xmlns="http://www.w3.org/2000/svg" version="1.1">
 <metadata>
  <rdf:RDF xmlns:dc="http://purl.org/dc/elements/1.1/" xmlns:cc="http://creativecommons.org/ns#" xmlns:rdf="http://www.w3.org/1999/02/22-rdf-syntax-ns#">
   <cc:Work>
    <dc:type rdf:resource="http://purl.org/dc/dcmitype/StillImage"/>
    <dc:date>2026-02-26T15:07:07.321601</dc:date>
    <dc:format>image/svg+xml</dc:format>
    <dc:creator>
     <cc:Agent>
      <dc:title>Matplotlib v3.10.8, https://matplotlib.org/</dc:title>
     </cc:Agent>
    </dc:creator>
   </cc:Work>
  </rdf:RDF>
 </metadata>
 <defs>
  <style type="text/css">*{stroke-linejoin: round; stroke-linecap: butt}</style>
 </defs>
 <g id="figure_1">
  <g id="patch_1">
   <path d="M 0 327.632625 
L 254.846995 327.632625 
L 254.846995 0 
L 0 0 
z
" style="fill: #ffffff"/>
  </g>
  <g id="axes_1">
   <g id="patch_2">
    <path d="M 27.17875 304.976375 
L 245.400027 304.976375 
L 245.400027 27.776375 
L 27.17875 27.776375 
z
" style="fill: #ffffff"/>
   </g>
   <g id="patch_3">
    <path d="M 41.923431 45.469992 
L 41.923431 263.691269 
L 47.821303 287.282758 
L 53.719176 263.691269 
L 53.719176 45.469992 
L 100.902154 45.469992 
L 100.902154 263.691269 
L 106.800027 287.282758 
L 112.697899 263.691269 
L 112.697899 45.469992 
L 159.880878 45.469992 
L 159.880878 263.691269 
L 165.77875 287.282758 
L 171.676622 263.691269 
L 171.676622 45.469992 
L 218.859601 45.469992 
L 218.859601 263.691269 
L 224.757473 287.282758 
L 230.655346 263.691269 
L 230.655346 45.469992 
z
" clip-path="url(#p2a9785f569)" style="fill: #e8f5e9; opacity: 0.7; stroke: #388e3c; stroke-width: 1.8; stroke-linejoin: miter"/>
   </g>
   <g id="matplotlib.axis_1">
    <g id="xtick_1">
     <g id="line2d_1">
      <defs>
       <path id="m3728ce5116" d="M 0 0 
L 0 3 
" style="stroke: #616161; stroke-width: 0.5"/>
      </defs>
      <g>
       <use xlink:href="#m3728ce5116" x="47.821303" y="304.976375" style="fill: #616161; stroke: #616161; stroke-width: 0.5"/>
      </g>
     </g>
     <g id="text_1">
      <!-- 0 -->
      <g style="fill: #616161" transform="translate(46.153022 314.271063) scale(0.06 -0.06)">
       <defs>
        <path id="ArialMT-30" d="M 266 2259 
Q 266 3072 433 3567 
Q 600 4063 929 4331 
Q 1259 4600 1759 4600 
Q 2128 4600 2406 4451 
Q 2684 4303 2865 4023 
Q 3047 3744 3150 3342 
Q 3253 2941 3253 2259 
Q 3253 1453 3087 958 
Q 2922 463 2592 192 
Q 2263 -78 1759 -78 
Q 1097 -78 719 397 
Q 266 969 266 2259 
z
M 844 2259 
Q 844 1131 1108 757 
Q 1372 384 1759 384 
Q 2147 384 2411 759 
Q 2675 1134 2675 2259 
Q 2675 3391 2411 3762 
Q 2147 4134 1753 4134 
Q 1366 4134 1134 3806 
Q 844 3388 844 2259 
z
" transform="scale(0.015625)"/>
       </defs>
       <use xlink:href="#ArialMT-30"/>
      </g>
     </g>
    </g>
    <g id="xtick_2">
     <g id="line2d_2">
      <g>
       <use xlink:href="#m3728ce5116" x="77.310665" y="304.976375" style="fill: #616161; stroke: #616161; stroke-width: 0.5"/>
      </g>
     </g>
     <g id="text_2">
      <!-- 100 -->
      <g style="fill: #616161" transform="translate(72.305821 314.271063) scale(0.06 -0.06)">
       <defs>
        <path id="ArialMT-31" d="M 2384 0 
L 1822 0 
L 1822 3584 
Q 1619 3391 1289 3197 
Q 959 3003 697 2906 
L 697 3450 
Q 1169 3672 1522 3987 
Q 1875 4303 2022 4600 
L 2384 4600 
L 2384 0 
z
" transform="scale(0.015625)"/>
       </defs>
       <use xlink:href="#ArialMT-31"/>
       <use xlink:href="#ArialMT-30" transform="translate(55.615234 0)"/>
       <use xlink:href="#ArialMT-30" transform="translate(111.230469 0)"/>
      </g>
     </g>
    </g>
    <g id="xtick_3">
     <g id="line2d_3">
      <g>
       <use xlink:href="#m3728ce5116" x="106.800027" y="304.976375" style="fill: #616161; stroke: #616161; stroke-width: 0.5"/>
      </g>
     </g>
     <g id="text_3">
      <!-- 200 -->
      <g style="fill: #616161" transform="translate(101.795183 314.271063) scale(0.06 -0.06)">
       <defs>
        <path id="ArialMT-32" d="M 3222 541 
L 3222 0 
L 194 0 
Q 188 203 259 391 
Q 375 700 629 1000 
Q 884 1300 1366 1694 
Q 2113 2306 2375 2664 
Q 2638 3022 2638 3341 
Q 2638 3675 2398 3904 
Q 2159 4134 1775 4134 
Q 1369 4134 1125 3890 
Q 881 3647 878 3216 
L 300 3275 
Q 359 3922 746 4261 
Q 1134 4600 1788 4600 
Q 2447 4600 2831 4234 
Q 3216 3869 3216 3328 
Q 3216 3053 3103 2787 
Q 2991 2522 2730 2228 
Q 2469 1934 1863 1422 
Q 1356 997 1212 845 
Q 1069 694 975 541 
L 3222 541 
z
" transform="scale(0.015625)"/>
       </defs>
       <use xlink:href="#ArialMT-32"/>
       <use xlink:href="#ArialMT-30" transform="translate(55.615234 0)"/>
       <use xlink:href="#ArialMT-30" transform="translate(111.230469 0)"/>
      </g>
     </g>
    </g>
    <g id="xtick_4">
     <g id="line2d_4">
      <g>
       <use xlink:href="#m3728ce5116" x="136.289388" y="304.976375" style="fill: #616161; stroke: #616161; stroke-width: 0.5"/>
      </g>
     </g>
     <g id="text_4">
      <!-- 300 -->
      <g style="fill: #616161" transform="translate(131.284545 314.271063) scale(0.06 -0.06)">
       <defs>
        <path id="ArialMT-33" d="M 269 1209 
L 831 1284 
Q 928 806 1161 595 
Q 1394 384 1728 384 
Q 2125 384 2398 659 
Q 2672 934 2672 1341 
Q 2672 1728 2419 1979 
Q 2166 2231 1775 2231 
Q 1616 2231 1378 2169 
L 1441 2663 
Q 1497 2656 1531 2656 
Q 1891 2656 2178 2843 
Q 2466 3031 2466 3422 
Q 2466 3731 2256 3934 
Q 2047 4138 1716 4138 
Q 1388 4138 1169 3931 
Q 950 3725 888 3313 
L 325 3413 
Q 428 3978 793 4289 
Q 1159 4600 1703 4600 
Q 2078 4600 2393 4439 
Q 2709 4278 2876 4000 
Q 3044 3722 3044 3409 
Q 3044 3113 2884 2869 
Q 2725 2625 2413 2481 
Q 2819 2388 3044 2092 
Q 3269 1797 3269 1353 
Q 3269 753 2831 336 
Q 2394 -81 1725 -81 
Q 1122 -81 723 278 
Q 325 638 269 1209 
z
" transform="scale(0.015625)"/>
       </defs>
       <use xlink:href="#ArialMT-33"/>
       <use xlink:href="#ArialMT-30" transform="translate(55.615234 0)"/>
       <use xlink:href="#ArialMT-30" transform="translate(111.230469 0)"/>
      </g>
     </g>
    </g>
    <g id="xtick_5">
     <g id="line2d_5">
      <g>
       <use xlink:href="#m3728ce5116" x="165.77875" y="304.976375" style="fill: #616161; stroke: #616161; stroke-width: 0.5"/>
      </g>
     </g>
     <g id="text_5">
      <!-- 400 -->
      <g style="fill: #616161" transform="translate(160.773906 314.271063) scale(0.06 -0.06)">
       <defs>
        <path id="ArialMT-34" d="M 2069 0 
L 2069 1097 
L 81 1097 
L 81 1613 
L 2172 4581 
L 2631 4581 
L 2631 1613 
L 3250 1613 
L 3250 1097 
L 2631 1097 
L 2631 0 
L 2069 0 
z
M 2069 1613 
L 2069 3678 
L 634 1613 
L 2069 1613 
z
" transform="scale(0.015625)"/>
       </defs>
       <use xlink:href="#ArialMT-34"/>
       <use xlink:href="#ArialMT-30" transform="translate(55.615234 0)"/>
       <use xlink:href="#ArialMT-30" transform="translate(111.230469 0)"/>
      </g>
     </g>
    </g>
    <g id="xtick_6">
     <g id="line2d_6">
      <g>
       <use xlink:href="#m3728ce5116" x="195.268112" y="304.976375" style="fill: #616161; stroke: #616161; stroke-width: 0.5"/>
      </g>
     </g>
     <g id="text_6">
      <!-- 500 -->
      <g style="fill: #616161" transform="translate(190.263268 314.271063) scale(0.06 -0.06)">
       <defs>
        <path id="ArialMT-35" d="M 266 1200 
L 856 1250 
Q 922 819 1161 601 
Q 1400 384 1738 384 
Q 2144 384 2425 690 
Q 2706 997 2706 1503 
Q 2706 1984 2436 2262 
Q 2166 2541 1728 2541 
Q 1456 2541 1237 2417 
Q 1019 2294 894 2097 
L 366 2166 
L 809 4519 
L 3088 4519 
L 3088 3981 
L 1259 3981 
L 1013 2750 
Q 1425 3038 1878 3038 
Q 2478 3038 2890 2622 
Q 3303 2206 3303 1553 
Q 3303 931 2941 478 
Q 2500 -78 1738 -78 
Q 1113 -78 717 272 
Q 322 622 266 1200 
z
" transform="scale(0.015625)"/>
       </defs>
       <use xlink:href="#ArialMT-35"/>
       <use xlink:href="#ArialMT-30" transform="translate(55.615234 0)"/>
       <use xlink:href="#ArialMT-30" transform="translate(111.230469 0)"/>
      </g>
     </g>
    </g>
    <g id="xtick_7">
     <g id="line2d_7">
      <g>
       <use xlink:href="#m3728ce5116" x="224.757473" y="304.976375" style="fill: #616161; stroke: #616161; stroke-width: 0.5"/>
      </g>
     </g>
     <g id="text_7">
      <!-- 600 -->
      <g style="fill: #616161" transform="translate(219.75263 314.271063) scale(0.06 -0.06)">
       <defs>
        <path id="ArialMT-36" d="M 3184 3459 
L 2625 3416 
Q 2550 3747 2413 3897 
Q 2184 4138 1850 4138 
Q 1581 4138 1378 3988 
Q 1113 3794 959 3422 
Q 806 3050 800 2363 
Q 1003 2672 1297 2822 
Q 1591 2972 1913 2972 
Q 2475 2972 2870 2558 
Q 3266 2144 3266 1488 
Q 3266 1056 3080 686 
Q 2894 316 2569 119 
Q 2244 -78 1831 -78 
Q 1128 -78 684 439 
Q 241 956 241 2144 
Q 241 3472 731 4075 
Q 1159 4600 1884 4600 
Q 2425 4600 2770 4297 
Q 3116 3994 3184 3459 
z
M 888 1484 
Q 888 1194 1011 928 
Q 1134 663 1356 523 
Q 1578 384 1822 384 
Q 2178 384 2434 671 
Q 2691 959 2691 1453 
Q 2691 1928 2437 2201 
Q 2184 2475 1800 2475 
Q 1419 2475 1153 2201 
Q 888 1928 888 1484 
z
" transform="scale(0.015625)"/>
       </defs>
       <use xlink:href="#ArialMT-36"/>
       <use xlink:href="#ArialMT-30" transform="translate(55.615234 0)"/>
       <use xlink:href="#ArialMT-30" transform="translate(111.230469 0)"/>
      </g>
     </g>
    </g>
    <g id="text_8">
     <!-- x (μm) -->
     <g style="fill: #616161" transform="translate(126.303998 322.559344) scale(0.07 -0.07)">
      <defs>
       <path id="ArialMT-78" d="M 47 0 
L 1259 1725 
L 138 3319 
L 841 3319 
L 1350 2541 
Q 1494 2319 1581 2169 
Q 1719 2375 1834 2534 
L 2394 3319 
L 3066 3319 
L 1919 1756 
L 3153 0 
L 2463 0 
L 1781 1031 
L 1600 1309 
L 728 0 
L 47 0 
z
" transform="scale(0.015625)"/>
       <path id="ArialMT-20" transform="scale(0.015625)"/>
       <path id="ArialMT-28" d="M 1497 -1347 
Q 1031 -759 709 28 
Q 388 816 388 1659 
Q 388 2403 628 3084 
Q 909 3875 1497 4659 
L 1900 4659 
Q 1522 4009 1400 3731 
Q 1209 3300 1100 2831 
Q 966 2247 966 1656 
Q 966 153 1900 -1347 
L 1497 -1347 
z
" transform="scale(0.015625)"/>
       <path id="ArialMT-3bc" d="M 3181 3319 
L 3181 0 
L 2678 0 
L 2678 394 
Q 2516 144 2356 50 
Q 2138 -78 1847 -78 
Q 1588 -78 1388 25 
Q 1238 103 1056 334 
L 1056 -1272 
L 500 -1272 
L 500 3319 
L 1056 3319 
L 1056 1913 
Q 1056 1147 1137 920 
Q 1219 694 1401 562 
Q 1584 431 1822 431 
Q 2072 431 2269 568 
Q 2466 706 2547 923 
Q 2628 1141 2628 1903 
L 2628 3319 
L 3181 3319 
z
" transform="scale(0.015625)"/>
       <path id="ArialMT-6d" d="M 422 0 
L 422 3319 
L 925 3319 
L 925 2853 
Q 1081 3097 1340 3245 
Q 1600 3394 1931 3394 
Q 2300 3394 2536 3241 
Q 2772 3088 2869 2813 
Q 3263 3394 3894 3394 
Q 4388 3394 4653 3120 
Q 4919 2847 4919 2278 
L 4919 0 
L 4359 0 
L 4359 2091 
Q 4359 2428 4304 2576 
Q 4250 2725 4106 2815 
Q 3963 2906 3769 2906 
Q 3419 2906 3187 2673 
Q 2956 2441 2956 1928 
L 2956 0 
L 2394 0 
L 2394 2156 
Q 2394 2531 2256 2718 
Q 2119 2906 1806 2906 
Q 1569 2906 1367 2781 
Q 1166 2656 1075 2415 
Q 984 2175 984 1722 
L 984 0 
L 422 0 
z
" transform="scale(0.015625)"/>
       <path id="ArialMT-29" d="M 791 -1347 
L 388 -1347 
Q 1322 153 1322 1656 
Q 1322 2244 1188 2822 
Q 1081 3291 891 3722 
Q 769 4003 388 4659 
L 791 4659 
Q 1378 3875 1659 3084 
Q 1900 2403 1900 1659 
Q 1900 816 1576 28 
Q 1253 -759 791 -1347 
z
" transform="scale(0.015625)"/>
      </defs>
      <use xlink:href="#ArialMT-78"/>
      <use xlink:href="#ArialMT-20" transform="translate(50 0)"/>
      <use xlink:href="#ArialMT-28" transform="translate(77.783203 0)"/>
      <use xlink:href="#ArialMT-3bc" transform="translate(111.083984 0)"/>
      <use xlink:href="#ArialMT-6d" transform="translate(168.701172 0)"/>
      <use xlink:href="#ArialMT-29" transform="translate(252.001953 0)"/>
     </g>
    </g>
   </g>
   <g id="matplotlib.axis_2">
    <g id="ytick_1">
     <g id="line2d_8">
      <defs>
       <path id="mdc1021b5ec" d="M 0 0 
L -3 0 
" style="stroke: #616161; stroke-width: 0.5"/>
      </defs>
      <g>
       <use xlink:href="#mdc1021b5ec" x="27.17875" y="257.793396" style="fill: #616161; stroke: #616161; stroke-width: 0.5"/>
      </g>
     </g>
     <g id="text_9">
      <!-- 0 -->
      <g style="fill: #616161" transform="translate(18.842188 259.94074) scale(0.06 -0.06)">
       <use xlink:href="#ArialMT-30"/>
      </g>
     </g>
    </g>
    <g id="ytick_2">
     <g id="line2d_9">
      <g>
       <use xlink:href="#mdc1021b5ec" x="27.17875" y="198.814673" style="fill: #616161; stroke: #616161; stroke-width: 0.5"/>
      </g>
     </g>
     <g id="text_10">
      <!-- 200 -->
      <g style="fill: #616161" transform="translate(12.169063 200.962017) scale(0.06 -0.06)">
       <use xlink:href="#ArialMT-32"/>
       <use xlink:href="#ArialMT-30" transform="translate(55.615234 0)"/>
       <use xlink:href="#ArialMT-30" transform="translate(111.230469 0)"/>
      </g>
     </g>
    </g>
    <g id="ytick_3">
     <g id="line2d_10">
      <g>
       <use xlink:href="#mdc1021b5ec" x="27.17875" y="139.835949" style="fill: #616161; stroke: #616161; stroke-width: 0.5"/>
      </g>
     </g>
     <g id="text_11">
      <!-- 400 -->
      <g style="fill: #616161" transform="translate(12.169063 141.983293) scale(0.06 -0.06)">
       <use xlink:href="#ArialMT-34"/>
       <use xlink:href="#ArialMT-30" transform="translate(55.615234 0)"/>
       <use xlink:href="#ArialMT-30" transform="translate(111.230469 0)"/>
      </g>
     </g>
    </g>
    <g id="ytick_4">
     <g id="line2d_11">
      <g>
       <use xlink:href="#mdc1021b5ec" x="27.17875" y="80.857226" style="fill: #616161; stroke: #616161; stroke-width: 0.5"/>
      </g>
     </g>
     <g id="text_12">
      <!-- 600 -->
      <g style="fill: #616161" transform="translate(12.169063 83.00457) scale(0.06 -0.06)">
       <use xlink:href="#ArialMT-36"/>
       <use xlink:href="#ArialMT-30" transform="translate(55.615234 0)"/>
       <use xlink:href="#ArialMT-30" transform="translate(111.230469 0)"/>
      </g>
     </g>
    </g>
    <g id="text_13">
     <!-- y (μm) -->
     <g style="fill: #616161" transform="translate(8.695781 176.361766) rotate(-90) scale(0.07 -0.07)">
      <defs>
       <path id="ArialMT-79" d="M 397 -1278 
L 334 -750 
Q 519 -800 656 -800 
Q 844 -800 956 -737 
Q 1069 -675 1141 -563 
Q 1194 -478 1313 -144 
Q 1328 -97 1363 -6 
L 103 3319 
L 709 3319 
L 1400 1397 
Q 1534 1031 1641 628 
Q 1738 1016 1872 1384 
L 2581 3319 
L 3144 3319 
L 1881 -56 
Q 1678 -603 1566 -809 
Q 1416 -1088 1222 -1217 
Q 1028 -1347 759 -1347 
Q 597 -1347 397 -1278 
z
" transform="scale(0.015625)"/>
      </defs>
      <use xlink:href="#ArialMT-79"/>
      <use xlink:href="#ArialMT-20" transform="translate(50 0)"/>
      <use xlink:href="#ArialMT-28" transform="translate(77.783203 0)"/>
      <use xlink:href="#ArialMT-3bc" transform="translate(111.083984 0)"/>
      <use xlink:href="#ArialMT-6d" transform="translate(168.701172 0)"/>
      <use xlink:href="#ArialMT-29" transform="translate(252.001953 0)"/>
     </g>
    </g>
   </g>
   <g id="patch_4">
    <path d="M 47.821303 260.005098 
C 48.407853 260.005098 48.970459 259.77206 49.385213 259.357306 
C 49.799966 258.942552 50.033005 258.379947 50.033005 257.793396 
C 50.033005 257.206846 49.799966 256.64424 49.385213 256.229487 
C 48.970459 255.814733 48.407853 255.581694 47.821303 255.581694 
C 47.234753 255.581694 46.672147 255.814733 46.257394 256.229487 
C 45.84264 256.64424 45.609601 257.206846 45.609601 257.793396 
C 45.609601 258.379947 45.84264 258.942552 46.257394 259.357306 
C 46.672147 259.77206 47.234753 260.005098 47.821303 260.005098 
z
" clip-path="url(#p2a9785f569)" style="fill: #fce4ec; stroke: #c2185b; stroke-width: 0.6; stroke-linejoin: miter"/>
   </g>
   <g id="patch_5">
    <path d="M 47.821303 230.515737 
C 48.407853 230.515737 48.970459 230.282698 49.385213 229.867944 
C 49.799966 229.45319 50.033005 228.890585 50.033005 228.304035 
C 50.033005 227.717484 49.799966 227.154879 49.385213 226.740125 
C 48.970459 226.325371 48.407853 226.092332 47.821303 226.092332 
C 47.234753 226.092332 46.672147 226.325371 46.257394 226.740125 
C 45.84264 227.154879 45.609601 227.717484 45.609601 228.304035 
C 45.609601 228.890585 45.84264 229.45319 46.257394 229.867944 
C 46.672147 230.282698 47.234753 230.515737 47.821303 230.515737 
z
" clip-path="url(#p2a9785f569)" style="fill: #fce4ec; stroke: #c2185b; stroke-width: 0.6; stroke-linejoin: miter"/>
   </g>
   <g id="patch_6">
    <path d="M 47.821303 201.026375 
C 48.407853 201.026375 48.970459 200.793336 49.385213 200.378582 
C 49.799966 199.963829 50.033005 199.401223 50.033005 198.814673 
C 50.033005 198.228123 49.799966 197.665517 49.385213 197.250763 
C 48.970459 196.83601 48.407853 196.602971 47.821303 196.602971 
C 47.234753 196.602971 46.672147 196.83601 46.257394 197.250763 
C 45.84264 197.665517 45.609601 198.228123 45.609601 198.814673 
C 45.609601 199.401223 45.84264 199.963829 46.257394 200.378582 
C 46.672147 200.793336 47.234753 201.026375 47.821303 201.026375 
z
" clip-path="url(#p2a9785f569)" style="fill: #fce4ec; stroke: #c2185b; stroke-width: 0.6; stroke-linejoin: miter"/>
   </g>
   <g id="patch_7">
    <path d="M 47.821303 171.537013 
C 48.407853 171.537013 48.970459 171.303974 49.385213 170.889221 
C 49.799966 170.474467 50.033005 169.911861 50.033005 169.325311 
C 50.033005 168.738761 49.799966 168.176155 49.385213 167.761402 
C 48.970459 167.346648 48.407853 167.113609 47.821303 167.113609 
C 47.234753 167.113609 46.672147 167.346648 46.257394 167.761402 
C 45.84264 168.176155 45.609601 168.738761 45.609601 169.325311 
C 45.609601 169.911861 45.84264 170.474467 46.257394 170.889221 
C 46.672147 171.303974 47.234753 171.537013 47.821303 171.537013 
z
" clip-path="url(#p2a9785f569)" style="fill: #fce4ec; stroke: #c2185b; stroke-width: 0.6; stroke-linejoin: miter"/>
   </g>
   <g id="patch_8">
    <path d="M 47.821303 142.047652 
C 48.407853 142.047652 48.970459 141.814613 49.385213 141.399859 
C 49.799966 140.985105 50.033005 140.4225 50.033005 139.835949 
C 50.033005 139.249399 49.799966 138.686794 49.385213 138.27204 
C 48.970459 137.857286 48.407853 137.624247 47.821303 137.624247 
C 47.234753 137.624247 46.672147 137.857286 46.257394 138.27204 
C 45.84264 138.686794 45.609601 139.249399 45.609601 139.835949 
C 45.609601 140.4225 45.84264 140.985105 46.257394 141.399859 
C 46.672147 141.814613 47.234753 142.047652 47.821303 142.047652 
z
" clip-path="url(#p2a9785f569)" style="fill: #fce4ec; stroke: #c2185b; stroke-width: 0.6; stroke-linejoin: miter"/>
   </g>
   <g id="patch_9">
    <path d="M 47.821303 112.55829 
C 48.407853 112.55829 48.970459 112.325251 49.385213 111.910497 
C 49.799966 111.495744 50.033005 110.933138 50.033005 110.346588 
C 50.033005 109.760038 49.799966 109.197432 49.385213 108.782678 
C 48.970459 108.367925 48.407853 108.134886 47.821303 108.134886 
C 47.234753 108.134886 46.672147 108.367925 46.257394 108.782678 
C 45.84264 109.197432 45.609601 109.760038 45.609601 110.346588 
C 45.609601 110.933138 45.84264 111.495744 46.257394 111.910497 
C 46.672147 112.325251 47.234753 112.55829 47.821303 112.55829 
z
" clip-path="url(#p2a9785f569)" style="fill: #fce4ec; stroke: #c2185b; stroke-width: 0.6; stroke-linejoin: miter"/>
   </g>
   <g id="patch_10">
    <path d="M 47.821303 83.068928 
C 48.407853 83.068928 48.970459 82.835889 49.385213 82.421136 
C 49.799966 82.006382 50.033005 81.443776 50.033005 80.857226 
C 50.033005 80.270676 49.799966 79.70807 49.385213 79.293316 
C 48.970459 78.878563 48.407853 78.645524 47.821303 78.645524 
C 47.234753 78.645524 46.672147 78.878563 46.257394 79.293316 
C 45.84264 79.70807 45.609601 80.270676 45.609601 80.857226 
C 45.609601 81.443776 45.84264 82.006382 46.257394 82.421136 
C 46.672147 82.835889 47.234753 83.068928 47.821303 83.068928 
z
" clip-path="url(#p2a9785f569)" style="fill: #fce4ec; stroke: #c2185b; stroke-width: 0.6; stroke-linejoin: miter"/>
   </g>
   <g id="patch_11">
    <path d="M 47.821303 53.579566 
C 48.407853 53.579566 48.970459 53.346528 49.385213 52.931774 
C 49.799966 52.51702 50.033005 51.954415 50.033005 51.367864 
C 50.033005 50.781314 49.799966 50.218708 49.385213 49.803955 
C 48.970459 49.389201 48.407853 49.156162 47.821303 49.156162 
C 47.234753 49.156162 46.672147 49.389201 46.257394 49.803955 
C 45.84264 50.218708 45.609601 50.781314 45.609601 51.367864 
C 45.609601 51.954415 45.84264 52.51702 46.257394 52.931774 
C 46.672147 53.346528 47.234753 53.579566 47.821303 53.579566 
z
" clip-path="url(#p2a9785f569)" style="fill: #fce4ec; stroke: #c2185b; stroke-width: 0.6; stroke-linejoin: miter"/>
   </g>
   <g id="patch_12">
    <path d="M 106.800027 260.005098 
C 107.386577 260.005098 107.949183 259.77206 108.363936 259.357306 
C 108.77869 258.942552 109.011729 258.379947 109.011729 257.793396 
C 109.011729 257.206846 108.77869 256.64424 108.363936 256.229487 
C 107.949183 255.814733 107.386577 255.581694 106.800027 255.581694 
C 106.213476 255.581694 105.650871 255.814733 105.236117 256.229487 
C 104.821363 256.64424 104.588324 257.206846 104.588324 257.793396 
C 104.588324 258.379947 104.821363 258.942552 105.236117 259.357306 
C 105.650871 259.77206 106.213476 260.005098 106.800027 260.005098 
z
" clip-path="url(#p2a9785f569)" style="fill: #fce4ec; stroke: #c2185b; stroke-width: 0.6; stroke-linejoin: miter"/>
   </g>
   <g id="patch_13">
    <path d="M 106.800027 230.515737 
C 107.386577 230.515737 107.949183 230.282698 108.363936 229.867944 
C 108.77869 229.45319 109.011729 228.890585 109.011729 228.304035 
C 109.011729 227.717484 108.77869 227.154879 108.363936 226.740125 
C 107.949183 226.325371 107.386577 226.092332 106.800027 226.092332 
C 106.213476 226.092332 105.650871 226.325371 105.236117 226.740125 
C 104.821363 227.154879 104.588324 227.717484 104.588324 228.304035 
C 104.588324 228.890585 104.821363 229.45319 105.236117 229.867944 
C 105.650871 230.282698 106.213476 230.515737 106.800027 230.515737 
z
" clip-path="url(#p2a9785f569)" style="fill: #fce4ec; stroke: #c2185b; stroke-width: 0.6; stroke-linejoin: miter"/>
   </g>
   <g id="patch_14">
    <path d="M 106.800027 201.026375 
C 107.386577 201.026375 107.949183 200.793336 108.363936 200.378582 
C 108.77869 199.963829 109.011729 199.401223 109.011729 198.814673 
C 109.011729 198.228123 108.77869 197.665517 108.363936 197.250763 
C 107.949183 196.83601 107.386577 196.602971 106.800027 196.602971 
C 106.213476 196.602971 105.650871 196.83601 105.236117 197.250763 
C 104.821363 197.665517 104.588324 198.228123 104.588324 198.814673 
C 104.588324 199.401223 104.821363 199.963829 105.236117 200.378582 
C 105.650871 200.793336 106.213476 201.026375 106.800027 201.026375 
z
" clip-path="url(#p2a9785f569)" style="fill: #fce4ec; stroke: #c2185b; stroke-width: 0.6; stroke-linejoin: miter"/>
   </g>
   <g id="patch_15">
    <path d="M 106.800027 171.537013 
C 107.386577 171.537013 107.949183 171.303974 108.363936 170.889221 
C 108.77869 170.474467 109.011729 169.911861 109.011729 169.325311 
C 109.011729 168.738761 108.77869 168.176155 108.363936 167.761402 
C 107.949183 167.346648 107.386577 167.113609 106.800027 167.113609 
C 106.213476 167.113609 105.650871 167.346648 105.236117 167.761402 
C 104.821363 168.176155 104.588324 168.738761 104.588324 169.325311 
C 104.588324 169.911861 104.821363 170.474467 105.236117 170.889221 
C 105.650871 171.303974 106.213476 171.537013 106.800027 171.537013 
z
" clip-path="url(#p2a9785f569)" style="fill: #fce4ec; stroke: #c2185b; stroke-width: 0.6; stroke-linejoin: miter"/>
   </g>
   <g id="patch_16">
    <path d="M 106.800027 142.047652 
C 107.386577 142.047652 107.949183 141.814613 108.363936 141.399859 
C 108.77869 140.985105 109.011729 140.4225 109.011729 139.835949 
C 109.011729 139.249399 108.77869 138.686794 108.363936 138.27204 
C 107.949183 137.857286 107.386577 137.624247 106.800027 137.624247 
C 106.213476 137.624247 105.650871 137.857286 105.236117 138.27204 
C 104.821363 138.686794 104.588324 139.249399 104.588324 139.835949 
C 104.588324 140.4225 104.821363 140.985105 105.236117 141.399859 
C 105.650871 141.814613 106.213476 142.047652 106.800027 142.047652 
z
" clip-path="url(#p2a9785f569)" style="fill: #fce4ec; stroke: #c2185b; stroke-width: 0.6; stroke-linejoin: miter"/>
   </g>
   <g id="patch_17">
    <path d="M 106.800027 112.55829 
C 107.386577 112.55829 107.949183 112.325251 108.363936 111.910497 
C 108.77869 111.495744 109.011729 110.933138 109.011729 110.346588 
C 109.011729 109.760038 108.77869 109.197432 108.363936 108.782678 
C 107.949183 108.367925 107.386577 108.134886 106.800027 108.134886 
C 106.213476 108.134886 105.650871 108.367925 105.236117 108.782678 
C 104.821363 109.197432 104.588324 109.760038 104.588324 110.346588 
C 104.588324 110.933138 104.821363 111.495744 105.236117 111.910497 
C 105.650871 112.325251 106.213476 112.55829 106.800027 112.55829 
z
" clip-path="url(#p2a9785f569)" style="fill: #fce4ec; stroke: #c2185b; stroke-width: 0.6; stroke-linejoin: miter"/>
   </g>
   <g id="patch_18">
    <path d="M 106.800027 83.068928 
C 107.386577 83.068928 107.949183 82.835889 108.363936 82.421136 
C 108.77869 82.006382 109.011729 81.443776 109.011729 80.857226 
C 109.011729 80.270676 108.77869 79.70807 108.363936 79.293316 
C 107.949183 78.878563 107.386577 78.645524 106.800027 78.645524 
C 106.213476 78.645524 105.650871 78.878563 105.236117 79.293316 
C 104.821363 79.70807 104.588324 80.270676 104.588324 80.857226 
C 104.588324 81.443776 104.821363 82.006382 105.236117 82.421136 
C 105.650871 82.835889 106.213476 83.068928 106.800027 83.068928 
z
" clip-path="url(#p2a9785f569)" style="fill: #fce4ec; stroke: #c2185b; stroke-width: 0.6; stroke-linejoin: miter"/>
   </g>
   <g id="patch_19">
    <path d="M 106.800027 53.579566 
C 107.386577 53.579566 107.949183 53.346528 108.363936 52.931774 
C 108.77869 52.51702 109.011729 51.954415 109.011729 51.367864 
C 109.011729 50.781314 108.77869 50.218708 108.363936 49.803955 
C 107.949183 49.389201 107.386577 49.156162 106.800027 49.156162 
C 106.213476 49.156162 105.650871 49.389201 105.236117 49.803955 
C 104.821363 50.218708 104.588324 50.781314 104.588324 51.367864 
C 104.588324 51.954415 104.821363 52.51702 105.236117 52.931774 
C 105.650871 53.346528 106.213476 53.579566 106.800027 53.579566 
z
" clip-path="url(#p2a9785f569)" style="fill: #fce4ec; stroke: #c2185b; stroke-width: 0.6; stroke-linejoin: miter"/>
   </g>
   <g id="patch_20">
    <path d="M 165.77875 260.005098 
C 166.3653 260.005098 166.927906 259.77206 167.34266 259.357306 
C 167.757413 258.942552 167.990452 258.379947 167.990452 257.793396 
C 167.990452 257.206846 167.757413 256.64424 167.34266 256.229487 
C 166.927906 255.814733 166.3653 255.581694 165.77875 255.581694 
C 165.1922 255.581694 164.629594 255.814733 164.21484 256.229487 
C 163.800087 256.64424 163.567048 257.206846 163.567048 257.793396 
C 163.567048 258.379947 163.800087 258.942552 164.21484 259.357306 
C 164.629594 259.77206 165.1922 260.005098 165.77875 260.005098 
z
" clip-path="url(#p2a9785f569)" style="fill: #fce4ec; stroke: #c2185b; stroke-width: 0.6; stroke-linejoin: miter"/>
   </g>
   <g id="patch_21">
    <path d="M 165.77875 230.515737 
C 166.3653 230.515737 166.927906 230.282698 167.34266 229.867944 
C 167.757413 229.45319 167.990452 228.890585 167.990452 228.304035 
C 167.990452 227.717484 167.757413 227.154879 167.34266 226.740125 
C 166.927906 226.325371 166.3653 226.092332 165.77875 226.092332 
C 165.1922 226.092332 164.629594 226.325371 164.21484 226.740125 
C 163.800087 227.154879 163.567048 227.717484 163.567048 228.304035 
C 163.567048 228.890585 163.800087 229.45319 164.21484 229.867944 
C 164.629594 230.282698 165.1922 230.515737 165.77875 230.515737 
z
" clip-path="url(#p2a9785f569)" style="fill: #fce4ec; stroke: #c2185b; stroke-width: 0.6; stroke-linejoin: miter"/>
   </g>
   <g id="patch_22">
    <path d="M 165.77875 201.026375 
C 166.3653 201.026375 166.927906 200.793336 167.34266 200.378582 
C 167.757413 199.963829 167.990452 199.401223 167.990452 198.814673 
C 167.990452 198.228123 167.757413 197.665517 167.34266 197.250763 
C 166.927906 196.83601 166.3653 196.602971 165.77875 196.602971 
C 165.1922 196.602971 164.629594 196.83601 164.21484 197.250763 
C 163.800087 197.665517 163.567048 198.228123 163.567048 198.814673 
C 163.567048 199.401223 163.800087 199.963829 164.21484 200.378582 
C 164.629594 200.793336 165.1922 201.026375 165.77875 201.026375 
z
" clip-path="url(#p2a9785f569)" style="fill: #fce4ec; stroke: #c2185b; stroke-width: 0.6; stroke-linejoin: miter"/>
   </g>
   <g id="patch_23">
    <path d="M 165.77875 171.537013 
C 166.3653 171.537013 166.927906 171.303974 167.34266 170.889221 
C 167.757413 170.474467 167.990452 169.911861 167.990452 169.325311 
C 167.990452 168.738761 167.757413 168.176155 167.34266 167.761402 
C 166.927906 167.346648 166.3653 167.113609 165.77875 167.113609 
C 165.1922 167.113609 164.629594 167.346648 164.21484 167.761402 
C 163.800087 168.176155 163.567048 168.738761 163.567048 169.325311 
C 163.567048 169.911861 163.800087 170.474467 164.21484 170.889221 
C 164.629594 171.303974 165.1922 171.537013 165.77875 171.537013 
z
" clip-path="url(#p2a9785f569)" style="fill: #fce4ec; stroke: #c2185b; stroke-width: 0.6; stroke-linejoin: miter"/>
   </g>
   <g id="patch_24">
    <path d="M 165.77875 142.047652 
C 166.3653 142.047652 166.927906 141.814613 167.34266 141.399859 
C 167.757413 140.985105 167.990452 140.4225 167.990452 139.835949 
C 167.990452 139.249399 167.757413 138.686794 167.34266 138.27204 
C 166.927906 137.857286 166.3653 137.624247 165.77875 137.624247 
C 165.1922 137.624247 164.629594 137.857286 164.21484 138.27204 
C 163.800087 138.686794 163.567048 139.249399 163.567048 139.835949 
C 163.567048 140.4225 163.800087 140.985105 164.21484 141.399859 
C 164.629594 141.814613 165.1922 142.047652 165.77875 142.047652 
z
" clip-path="url(#p2a9785f569)" style="fill: #fce4ec; stroke: #c2185b; stroke-width: 0.6; stroke-linejoin: miter"/>
   </g>
   <g id="patch_25">
    <path d="M 165.77875 112.55829 
C 166.3653 112.55829 166.927906 112.325251 167.34266 111.910497 
C 167.757413 111.495744 167.990452 110.933138 167.990452 110.346588 
C 167.990452 109.760038 167.757413 109.197432 167.34266 108.782678 
C 166.927906 108.367925 166.3653 108.134886 165.77875 108.134886 
C 165.1922 108.134886 164.629594 108.367925 164.21484 108.782678 
C 163.800087 109.197432 163.567048 109.760038 163.567048 110.346588 
C 163.567048 110.933138 163.800087 111.495744 164.21484 111.910497 
C 164.629594 112.325251 165.1922 112.55829 165.77875 112.55829 
z
" clip-path="url(#p2a9785f569)" style="fill: #fce4ec; stroke: #c2185b; stroke-width: 0.6; stroke-linejoin: miter"/>
   </g>
   <g id="patch_26">
    <path d="M 165.77875 83.068928 
C 166.3653 83.068928 166.927906 82.835889 167.34266 82.421136 
C 167.757413 82.006382 167.990452 81.443776 167.990452 80.857226 
C 167.990452 80.270676 167.757413 79.70807 167.34266 79.293316 
C 166.927906 78.878563 166.3653 78.645524 165.77875 78.645524 
C 165.1922 78.645524 164.629594 78.878563 164.21484 79.293316 
C 163.800087 79.70807 163.567048 80.270676 163.567048 80.857226 
C 163.567048 81.443776 163.800087 82.006382 164.21484 82.421136 
C 164.629594 82.835889 165.1922 83.068928 165.77875 83.068928 
z
" clip-path="url(#p2a9785f569)" style="fill: #fce4ec; stroke: #c2185b; stroke-width: 0.6; stroke-linejoin: miter"/>
   </g>
   <g id="patch_27">
    <path d="M 165.77875 53.579566 
C 166.3653 53.579566 166.927906 53.346528 167.34266 52.931774 
C 167.757413 52.51702 167.990452 51.954415 167.990452 51.367864 
C 167.990452 50.781314 167.757413 50.218708 167.34266 49.803955 
C 166.927906 49.389201 166.3653 49.156162 165.77875 49.156162 
C 165.1922 49.156162 164.629594 49.389201 164.21484 49.803955 
C 163.800087 50.218708 163.567048 50.781314 163.567048 51.367864 
C 163.567048 51.954415 163.800087 52.51702 164.21484 52.931774 
C 164.629594 53.346528 165.1922 53.579566 165.77875 53.579566 
z
" clip-path="url(#p2a9785f569)" style="fill: #fce4ec; stroke: #c2185b; stroke-width: 0.6; stroke-linejoin: miter"/>
   </g>
   <g id="patch_28">
    <path d="M 224.757473 260.005098 
C 225.344024 260.005098 225.906629 259.77206 226.321383 259.357306 
C 226.736137 258.942552 226.969176 258.379947 226.969176 257.793396 
C 226.969176 257.206846 226.736137 256.64424 226.321383 256.229487 
C 225.906629 255.814733 225.344024 255.581694 224.757473 255.581694 
C 224.170923 255.581694 223.608317 255.814733 223.193564 256.229487 
C 222.77881 256.64424 222.545771 257.206846 222.545771 257.793396 
C 222.545771 258.379947 222.77881 258.942552 223.193564 259.357306 
C 223.608317 259.77206 224.170923 260.005098 224.757473 260.005098 
z
" clip-path="url(#p2a9785f569)" style="fill: #fce4ec; stroke: #c2185b; stroke-width: 0.6; stroke-linejoin: miter"/>
   </g>
   <g id="patch_29">
    <path d="M 224.757473 230.515737 
C 225.344024 230.515737 225.906629 230.282698 226.321383 229.867944 
C 226.736137 229.45319 226.969176 228.890585 226.969176 228.304035 
C 226.969176 227.717484 226.736137 227.154879 226.321383 226.740125 
C 225.906629 226.325371 225.344024 226.092332 224.757473 226.092332 
C 224.170923 226.092332 223.608317 226.325371 223.193564 226.740125 
C 222.77881 227.154879 222.545771 227.717484 222.545771 228.304035 
C 222.545771 228.890585 222.77881 229.45319 223.193564 229.867944 
C 223.608317 230.282698 224.170923 230.515737 224.757473 230.515737 
z
" clip-path="url(#p2a9785f569)" style="fill: #fce4ec; stroke: #c2185b; stroke-width: 0.6; stroke-linejoin: miter"/>
   </g>
   <g id="patch_30">
    <path d="M 224.757473 201.026375 
C 225.344024 201.026375 225.906629 200.793336 226.321383 200.378582 
C 226.736137 199.963829 226.969176 199.401223 226.969176 198.814673 
C 226.969176 198.228123 226.736137 197.665517 226.321383 197.250763 
C 225.906629 196.83601 225.344024 196.602971 224.757473 196.602971 
C 224.170923 196.602971 223.608317 196.83601 223.193564 197.250763 
C 222.77881 197.665517 222.545771 198.228123 222.545771 198.814673 
C 222.545771 199.401223 222.77881 199.963829 223.193564 200.378582 
C 223.608317 200.793336 224.170923 201.026375 224.757473 201.026375 
z
" clip-path="url(#p2a9785f569)" style="fill: #fce4ec; stroke: #c2185b; stroke-width: 0.6; stroke-linejoin: miter"/>
   </g>
   <g id="patch_31">
    <path d="M 224.757473 171.537013 
C 225.344024 171.537013 225.906629 171.303974 226.321383 170.889221 
C 226.736137 170.474467 226.969176 169.911861 226.969176 169.325311 
C 226.969176 168.738761 226.736137 168.176155 226.321383 167.761402 
C 225.906629 167.346648 225.344024 167.113609 224.757473 167.113609 
C 224.170923 167.113609 223.608317 167.346648 223.193564 167.761402 
C 222.77881 168.176155 222.545771 168.738761 222.545771 169.325311 
C 222.545771 169.911861 222.77881 170.474467 223.193564 170.889221 
C 223.608317 171.303974 224.170923 171.537013 224.757473 171.537013 
z
" clip-path="url(#p2a9785f569)" style="fill: #fce4ec; stroke: #c2185b; stroke-width: 0.6; stroke-linejoin: miter"/>
   </g>
   <g id="patch_32">
    <path d="M 224.757473 142.047652 
C 225.344024 142.047652 225.906629 141.814613 226.321383 141.399859 
C 226.736137 140.985105 226.969176 140.4225 226.969176 139.835949 
C 226.969176 139.249399 226.736137 138.686794 226.321383 138.27204 
C 225.906629 137.857286 225.344024 137.624247 224.757473 137.624247 
C 224.170923 137.624247 223.608317 137.857286 223.193564 138.27204 
C 222.77881 138.686794 222.545771 139.249399 222.545771 139.835949 
C 222.545771 140.4225 222.77881 140.985105 223.193564 141.399859 
C 223.608317 141.814613 224.170923 142.047652 224.757473 142.047652 
z
" clip-path="url(#p2a9785f569)" style="fill: #fce4ec; stroke: #c2185b; stroke-width: 0.6; stroke-linejoin: miter"/>
   </g>
   <g id="patch_33">
    <path d="M 224.757473 112.55829 
C 225.344024 112.55829 225.906629 112.325251 226.321383 111.910497 
C 226.736137 111.495744 226.969176 110.933138 226.969176 110.346588 
C 226.969176 109.760038 226.736137 109.197432 226.321383 108.782678 
C 225.906629 108.367925 225.344024 108.134886 224.757473 108.134886 
C 224.170923 108.134886 223.608317 108.367925 223.193564 108.782678 
C 222.77881 109.197432 222.545771 109.760038 222.545771 110.346588 
C 222.545771 110.933138 222.77881 111.495744 223.193564 111.910497 
C 223.608317 112.325251 224.170923 112.55829 224.757473 112.55829 
z
" clip-path="url(#p2a9785f569)" style="fill: #fce4ec; stroke: #c2185b; stroke-width: 0.6; stroke-linejoin: miter"/>
   </g>
   <g id="patch_34">
    <path d="M 224.757473 83.068928 
C 225.344024 83.068928 225.906629 82.835889 226.321383 82.421136 
C 226.736137 82.006382 226.969176 81.443776 226.969176 80.857226 
C 226.969176 80.270676 226.736137 79.70807 226.321383 79.293316 
C 225.906629 78.878563 225.344024 78.645524 224.757473 78.645524 
C 224.170923 78.645524 223.608317 78.878563 223.193564 79.293316 
C 222.77881 79.70807 222.545771 80.270676 222.545771 80.857226 
C 222.545771 81.443776 222.77881 82.006382 223.193564 82.421136 
C 223.608317 82.835889 224.170923 83.068928 224.757473 83.068928 
z
" clip-path="url(#p2a9785f569)" style="fill: #fce4ec; stroke: #c2185b; stroke-width: 0.6; stroke-linejoin: miter"/>
   </g>
   <g id="patch_35">
    <path d="M 224.757473 53.579566 
C 225.344024 53.579566 225.906629 53.346528 226.321383 52.931774 
C 226.736137 52.51702 226.969176 51.954415 226.969176 51.367864 
C 226.969176 50.781314 226.736137 50.218708 226.321383 49.803955 
C 225.906629 49.389201 225.344024 49.156162 224.757473 49.156162 
C 224.170923 49.156162 223.608317 49.389201 223.193564 49.803955 
C 222.77881 50.218708 222.545771 50.781314 222.545771 51.367864 
C 222.545771 51.954415 222.77881 52.51702 223.193564 52.931774 
C 223.608317 53.346528 224.170923 53.579566 224.757473 53.579566 
z
" clip-path="url(#p2a9785f569)" style="fill: #fce4ec; stroke: #c2185b; stroke-width: 0.6; stroke-linejoin: miter"/>
   </g>
   <g id="patch_36">
    <path d="M 27.17875 304.976375 
L 27.17875 27.776375 
" style="fill: none; stroke: #616161; stroke-width: 0.6; stroke-linejoin: miter; stroke-linecap: square"/>
   </g>
   <g id="patch_37">
    <path d="M 27.17875 304.976375 
L 245.400027 304.976375 
" style="fill: none; stroke: #616161; stroke-width: 0.6; stroke-linejoin: miter; stroke-linecap: square"/>
   </g>
   <g id="text_14">
    <!-- 1 -->
    <g style="fill: #c2185b" transform="translate(56.078324 259.867146) scale(0.08 -0.08)">
     <defs>
      <path id="Arial-BoldMT-31" d="M 2519 0 
L 1641 0 
L 1641 3309 
Q 1159 2859 506 2644 
L 506 3441 
Q 850 3553 1253 3867 
Q 1656 4181 1806 4600 
L 2519 4600 
L 2519 0 
z
" transform="scale(0.015625)"/>
     </defs>
     <use xlink:href="#Arial-BoldMT-31"/>
    </g>
   </g>
   <g id="text_15">
    <!-- 8 -->
    <g style="fill: #c2185b" transform="translate(56.078324 230.377785) scale(0.08 -0.08)">
     <defs>
      <path id="Arial-BoldMT-38" d="M 1025 2472 
Q 684 2616 529 2867 
Q 375 3119 375 3419 
Q 375 3931 733 4265 
Q 1091 4600 1750 4600 
Q 2403 4600 2764 4265 
Q 3125 3931 3125 3419 
Q 3125 3100 2959 2851 
Q 2794 2603 2494 2472 
Q 2875 2319 3073 2025 
Q 3272 1731 3272 1347 
Q 3272 713 2867 316 
Q 2463 -81 1791 -81 
Q 1166 -81 750 247 
Q 259 634 259 1309 
Q 259 1681 443 1992 
Q 628 2303 1025 2472 
z
M 1206 3356 
Q 1206 3094 1354 2947 
Q 1503 2800 1750 2800 
Q 2000 2800 2150 2948 
Q 2300 3097 2300 3359 
Q 2300 3606 2151 3754 
Q 2003 3903 1759 3903 
Q 1506 3903 1356 3753 
Q 1206 3603 1206 3356 
z
M 1125 1394 
Q 1125 1031 1311 828 
Q 1497 625 1775 625 
Q 2047 625 2225 820 
Q 2403 1016 2403 1384 
Q 2403 1706 2222 1901 
Q 2041 2097 1763 2097 
Q 1441 2097 1283 1875 
Q 1125 1653 1125 1394 
z
" transform="scale(0.015625)"/>
     </defs>
     <use xlink:href="#Arial-BoldMT-38"/>
    </g>
   </g>
   <g id="text_16">
    <!-- 2 -->
    <g style="fill: #c2185b" transform="translate(56.078324 200.888423) scale(0.08 -0.08)">
     <defs>
      <path id="Arial-BoldMT-32" d="M 3238 816 
L 3238 0 
L 159 0 
Q 209 463 459 877 
Q 709 1291 1447 1975 
Q 2041 2528 2175 2725 
Q 2356 2997 2356 3263 
Q 2356 3556 2198 3714 
Q 2041 3872 1763 3872 
Q 1488 3872 1325 3706 
Q 1163 3541 1138 3156 
L 263 3244 
Q 341 3969 753 4284 
Q 1166 4600 1784 4600 
Q 2463 4600 2850 4234 
Q 3238 3869 3238 3325 
Q 3238 3016 3127 2736 
Q 3016 2456 2775 2150 
Q 2616 1947 2200 1565 
Q 1784 1184 1673 1059 
Q 1563 934 1494 816 
L 3238 816 
z
" transform="scale(0.015625)"/>
     </defs>
     <use xlink:href="#Arial-BoldMT-32"/>
    </g>
   </g>
   <g id="text_17">
    <!-- 7 -->
    <g style="fill: #c2185b" transform="translate(56.078324 171.399061) scale(0.08 -0.08)">
     <defs>
      <path id="Arial-BoldMT-37" d="M 272 3703 
L 272 4519 
L 3275 4519 
L 3275 3881 
Q 2903 3516 2518 2831 
Q 2134 2147 1932 1376 
Q 1731 606 1734 0 
L 888 0 
Q 909 950 1279 1937 
Q 1650 2925 2269 3703 
L 272 3703 
z
" transform="scale(0.015625)"/>
     </defs>
     <use xlink:href="#Arial-BoldMT-37"/>
    </g>
   </g>
   <g id="text_18">
    <!-- 3 -->
    <g style="fill: #c2185b" transform="translate(56.078324 141.909699) scale(0.08 -0.08)">
     <defs>
      <path id="Arial-BoldMT-33" d="M 241 1216 
L 1091 1319 
Q 1131 994 1309 822 
Q 1488 650 1741 650 
Q 2013 650 2198 856 
Q 2384 1063 2384 1413 
Q 2384 1744 2206 1937 
Q 2028 2131 1772 2131 
Q 1603 2131 1369 2066 
L 1466 2781 
Q 1822 2772 2009 2936 
Q 2197 3100 2197 3372 
Q 2197 3603 2059 3740 
Q 1922 3878 1694 3878 
Q 1469 3878 1309 3722 
Q 1150 3566 1116 3266 
L 306 3403 
Q 391 3819 561 4067 
Q 731 4316 1036 4458 
Q 1341 4600 1719 4600 
Q 2366 4600 2756 4188 
Q 3078 3850 3078 3425 
Q 3078 2822 2419 2463 
Q 2813 2378 3048 2084 
Q 3284 1791 3284 1375 
Q 3284 772 2843 347 
Q 2403 -78 1747 -78 
Q 1125 -78 715 280 
Q 306 638 241 1216 
z
" transform="scale(0.015625)"/>
     </defs>
     <use xlink:href="#Arial-BoldMT-33"/>
    </g>
   </g>
   <g id="text_19">
    <!-- 6 -->
    <g style="fill: #c2185b" transform="translate(56.078324 112.420338) scale(0.08 -0.08)">
     <defs>
      <path id="Arial-BoldMT-36" d="M 3247 3459 
L 2397 3366 
Q 2366 3628 2234 3753 
Q 2103 3878 1894 3878 
Q 1616 3878 1423 3628 
Q 1231 3378 1181 2588 
Q 1509 2975 1997 2975 
Q 2547 2975 2939 2556 
Q 3331 2138 3331 1475 
Q 3331 772 2918 347 
Q 2506 -78 1859 -78 
Q 1166 -78 719 461 
Q 272 1000 272 2228 
Q 272 3488 737 4044 
Q 1203 4600 1947 4600 
Q 2469 4600 2811 4308 
Q 3153 4016 3247 3459 
z
M 1256 1544 
Q 1256 1116 1453 883 
Q 1650 650 1903 650 
Q 2147 650 2309 840 
Q 2472 1031 2472 1466 
Q 2472 1913 2297 2120 
Q 2122 2328 1859 2328 
Q 1606 2328 1431 2129 
Q 1256 1931 1256 1544 
z
" transform="scale(0.015625)"/>
     </defs>
     <use xlink:href="#Arial-BoldMT-36"/>
    </g>
   </g>
   <g id="text_20">
    <!-- 4 -->
    <g style="fill: #c2185b" transform="translate(56.078324 82.930976) scale(0.08 -0.08)">
     <defs>
      <path id="Arial-BoldMT-34" d="M 1994 0 
L 1994 922 
L 119 922 
L 119 1691 
L 2106 4600 
L 2844 4600 
L 2844 1694 
L 3413 1694 
L 3413 922 
L 2844 922 
L 2844 0 
L 1994 0 
z
M 1994 1694 
L 1994 3259 
L 941 1694 
L 1994 1694 
z
" transform="scale(0.015625)"/>
     </defs>
     <use xlink:href="#Arial-BoldMT-34"/>
    </g>
   </g>
   <g id="text_21">
    <!-- 5 -->
    <g style="fill: #c2185b" transform="translate(56.078324 53.441614) scale(0.08 -0.08)">
     <defs>
      <path id="Arial-BoldMT-35" d="M 284 1178 
L 1159 1269 
Q 1197 972 1381 798 
Q 1566 625 1806 625 
Q 2081 625 2272 848 
Q 2463 1072 2463 1522 
Q 2463 1944 2273 2155 
Q 2084 2366 1781 2366 
Q 1403 2366 1103 2031 
L 391 2134 
L 841 4519 
L 3163 4519 
L 3163 3697 
L 1506 3697 
L 1369 2919 
Q 1663 3066 1969 3066 
Q 2553 3066 2959 2641 
Q 3366 2216 3366 1538 
Q 3366 972 3038 528 
Q 2591 -78 1797 -78 
Q 1163 -78 763 262 
Q 363 603 284 1178 
z
" transform="scale(0.015625)"/>
     </defs>
     <use xlink:href="#Arial-BoldMT-35"/>
    </g>
   </g>
   <g id="text_22">
    <!-- 9 -->
    <g style="fill: #c2185b" transform="translate(115.057048 259.867146) scale(0.08 -0.08)">
     <defs>
      <path id="Arial-BoldMT-39" d="M 291 1059 
L 1141 1153 
Q 1172 894 1303 769 
Q 1434 644 1650 644 
Q 1922 644 2112 894 
Q 2303 1144 2356 1931 
Q 2025 1547 1528 1547 
Q 988 1547 595 1964 
Q 203 2381 203 3050 
Q 203 3747 617 4173 
Q 1031 4600 1672 4600 
Q 2369 4600 2816 4061 
Q 3263 3522 3263 2288 
Q 3263 1031 2797 475 
Q 2331 -81 1584 -81 
Q 1047 -81 715 205 
Q 384 491 291 1059 
z
M 2278 2978 
Q 2278 3403 2083 3637 
Q 1888 3872 1631 3872 
Q 1388 3872 1227 3680 
Q 1066 3488 1066 3050 
Q 1066 2606 1241 2398 
Q 1416 2191 1678 2191 
Q 1931 2191 2104 2391 
Q 2278 2591 2278 2978 
z
" transform="scale(0.015625)"/>
     </defs>
     <use xlink:href="#Arial-BoldMT-39"/>
    </g>
   </g>
   <g id="text_23">
    <!-- 16 -->
    <g style="fill: #c2185b" transform="translate(115.057048 230.377785) scale(0.08 -0.08)">
     <use xlink:href="#Arial-BoldMT-31"/>
     <use xlink:href="#Arial-BoldMT-36" transform="translate(55.615234 0)"/>
    </g>
   </g>
   <g id="text_24">
    <!-- 10 -->
    <g style="fill: #c2185b" transform="translate(115.057048 200.888423) scale(0.08 -0.08)">
     <defs>
      <path id="Arial-BoldMT-30" d="M 1756 4600 
Q 2422 4600 2797 4125 
Q 3244 3563 3244 2259 
Q 3244 959 2794 391 
Q 2422 -78 1756 -78 
Q 1088 -78 678 436 
Q 269 950 269 2269 
Q 269 3563 719 4131 
Q 1091 4600 1756 4600 
z
M 1756 3872 
Q 1597 3872 1472 3770 
Q 1347 3669 1278 3406 
Q 1188 3066 1188 2259 
Q 1188 1453 1269 1151 
Q 1350 850 1473 750 
Q 1597 650 1756 650 
Q 1916 650 2041 751 
Q 2166 853 2234 1116 
Q 2325 1453 2325 2259 
Q 2325 3066 2244 3367 
Q 2163 3669 2039 3770 
Q 1916 3872 1756 3872 
z
" transform="scale(0.015625)"/>
     </defs>
     <use xlink:href="#Arial-BoldMT-31"/>
     <use xlink:href="#Arial-BoldMT-30" transform="translate(55.615234 0)"/>
    </g>
   </g>
   <g id="text_25">
    <!-- 15 -->
    <g style="fill: #c2185b" transform="translate(115.057048 171.399061) scale(0.08 -0.08)">
     <use xlink:href="#Arial-BoldMT-31"/>
     <use xlink:href="#Arial-BoldMT-35" transform="translate(55.615234 0)"/>
    </g>
   </g>
   <g id="text_26">
    <!-- 11 -->
    <g style="fill: #c2185b" transform="translate(115.057048 141.909699) scale(0.08 -0.08)">
     <use xlink:href="#Arial-BoldMT-31"/>
     <use xlink:href="#Arial-BoldMT-31" transform="translate(50.115234 0)"/>
    </g>
   </g>
   <g id="text_27">
    <!-- 14 -->
    <g style="fill: #c2185b" transform="translate(115.057048 112.420338) scale(0.08 -0.08)">
     <use xlink:href="#Arial-BoldMT-31"/>
     <use xlink:href="#Arial-BoldMT-34" transform="translate(55.615234 0)"/>
    </g>
   </g>
   <g id="text_28">
    <!-- 12 -->
    <g style="fill: #c2185b" transform="translate(115.057048 82.930976) scale(0.08 -0.08)">
     <use xlink:href="#Arial-BoldMT-31"/>
     <use xlink:href="#Arial-BoldMT-32" transform="translate(55.615234 0)"/>
    </g>
   </g>
   <g id="text_29">
    <!-- 13 -->
    <g style="fill: #c2185b" transform="translate(115.057048 53.441614) scale(0.08 -0.08)">
     <use xlink:href="#Arial-BoldMT-31"/>
     <use xlink:href="#Arial-BoldMT-33" transform="translate(55.615234 0)"/>
    </g>
   </g>
   <g id="text_30">
    <!-- 17 -->
    <g style="fill: #c2185b" transform="translate(174.035771 259.867146) scale(0.08 -0.08)">
     <use xlink:href="#Arial-BoldMT-31"/>
     <use xlink:href="#Arial-BoldMT-37" transform="translate(55.615234 0)"/>
    </g>
   </g>
   <g id="text_31">
    <!-- 24 -->
    <g style="fill: #c2185b" transform="translate(174.035771 230.377785) scale(0.08 -0.08)">
     <use xlink:href="#Arial-BoldMT-32"/>
     <use xlink:href="#Arial-BoldMT-34" transform="translate(55.615234 0)"/>
    </g>
   </g>
   <g id="text_32">
    <!-- 18 -->
    <g style="fill: #c2185b" transform="translate(174.035771 200.888423) scale(0.08 -0.08)">
     <use xlink:href="#Arial-BoldMT-31"/>
     <use xlink:href="#Arial-BoldMT-38" transform="translate(55.615234 0)"/>
    </g>
   </g>
   <g id="text_33">
    <!-- 23 -->
    <g style="fill: #c2185b" transform="translate(174.035771 171.399061) scale(0.08 -0.08)">
     <use xlink:href="#Arial-BoldMT-32"/>
     <use xlink:href="#Arial-BoldMT-33" transform="translate(55.615234 0)"/>
    </g>
   </g>
   <g id="text_34">
    <!-- 19 -->
    <g style="fill: #c2185b" transform="translate(174.035771 141.909699) scale(0.08 -0.08)">
     <use xlink:href="#Arial-BoldMT-31"/>
     <use xlink:href="#Arial-BoldMT-39" transform="translate(55.615234 0)"/>
    </g>
   </g>
   <g id="text_35">
    <!-- 22 -->
    <g style="fill: #c2185b" transform="translate(174.035771 112.420338) scale(0.08 -0.08)">
     <use xlink:href="#Arial-BoldMT-32"/>
     <use xlink:href="#Arial-BoldMT-32" transform="translate(55.615234 0)"/>
    </g>
   </g>
   <g id="text_36">
    <!-- 20 -->
    <g style="fill: #c2185b" transform="translate(174.035771 82.930976) scale(0.08 -0.08)">
     <use xlink:href="#Arial-BoldMT-32"/>
     <use xlink:href="#Arial-BoldMT-30" transform="translate(55.615234 0)"/>
    </g>
   </g>
   <g id="text_37">
    <!-- 21 -->
    <g style="fill: #c2185b" transform="translate(174.035771 53.441614) scale(0.08 -0.08)">
     <use xlink:href="#Arial-BoldMT-32"/>
     <use xlink:href="#Arial-BoldMT-31" transform="translate(55.615234 0)"/>
    </g>
   </g>
   <g id="text_38">
    <!-- 25 -->
    <g style="fill: #c2185b" transform="translate(233.014495 259.867146) scale(0.08 -0.08)">
     <use xlink:href="#Arial-BoldMT-32"/>
     <use xlink:href="#Arial-BoldMT-35" transform="translate(55.615234 0)"/>
    </g>
   </g>
   <g id="text_39">
    <!-- 32 -->
    <g style="fill: #c2185b" transform="translate(233.014495 230.377785) scale(0.08 -0.08)">
     <use xlink:href="#Arial-BoldMT-33"/>
     <use xlink:href="#Arial-BoldMT-32" transform="translate(55.615234 0)"/>
    </g>
   </g>
   <g id="text_40">
    <!-- 26 -->
    <g style="fill: #c2185b" transform="translate(233.014495 200.888423) scale(0.08 -0.08)">
     <use xlink:href="#Arial-BoldMT-32"/>
     <use xlink:href="#Arial-BoldMT-36" transform="translate(55.615234 0)"/>
    </g>
   </g>
   <g id="text_41">
    <!-- 31 -->
    <g style="fill: #c2185b" transform="translate(233.014495 171.399061) scale(0.08 -0.08)">
     <use xlink:href="#Arial-BoldMT-33"/>
     <use xlink:href="#Arial-BoldMT-31" transform="translate(55.615234 0)"/>
    </g>
   </g>
   <g id="text_42">
    <!-- 27 -->
    <g style="fill: #c2185b" transform="translate(233.014495 141.909699) scale(0.08 -0.08)">
     <use xlink:href="#Arial-BoldMT-32"/>
     <use xlink:href="#Arial-BoldMT-37" transform="translate(55.615234 0)"/>
    </g>
   </g>
   <g id="text_43">
    <!-- 30 -->
    <g style="fill: #c2185b" transform="translate(233.014495 112.420338) scale(0.08 -0.08)">
     <use xlink:href="#Arial-BoldMT-33"/>
     <use xlink:href="#Arial-BoldMT-30" transform="translate(55.615234 0)"/>
    </g>
   </g>
   <g id="text_44">
    <!-- 28 -->
    <g style="fill: #c2185b" transform="translate(233.014495 82.930976) scale(0.08 -0.08)">
     <use xlink:href="#Arial-BoldMT-32"/>
     <use xlink:href="#Arial-BoldMT-38" transform="translate(55.615234 0)"/>
    </g>
   </g>
   <g id="text_45">
    <!-- 29 -->
    <g style="fill: #c2185b" transform="translate(233.014495 53.441614) scale(0.08 -0.08)">
     <use xlink:href="#Arial-BoldMT-32"/>
     <use xlink:href="#Arial-BoldMT-39" transform="translate(55.615234 0)"/>
    </g>
   </g>
   <g id="text_46">
    <!-- ch0 -->
    <g style="fill: #f57c00" transform="translate(56.078324 266.944593) scale(0.08 -0.08)">
     <defs>
      <path id="Arial-BoldMT-63" d="M 3353 2338 
L 2488 2181 
Q 2444 2441 2289 2572 
Q 2134 2703 1888 2703 
Q 1559 2703 1364 2476 
Q 1169 2250 1169 1719 
Q 1169 1128 1367 884 
Q 1566 641 1900 641 
Q 2150 641 2309 783 
Q 2469 925 2534 1272 
L 3397 1125 
Q 3263 531 2881 228 
Q 2500 -75 1859 -75 
Q 1131 -75 698 384 
Q 266 844 266 1656 
Q 266 2478 700 2936 
Q 1134 3394 1875 3394 
Q 2481 3394 2839 3133 
Q 3197 2872 3353 2338 
z
" transform="scale(0.015625)"/>
      <path id="Arial-BoldMT-68" d="M 1334 4581 
L 1334 2897 
Q 1759 3394 2350 3394 
Q 2653 3394 2897 3281 
Q 3141 3169 3264 2994 
Q 3388 2819 3433 2606 
Q 3478 2394 3478 1947 
L 3478 0 
L 2600 0 
L 2600 1753 
Q 2600 2275 2550 2415 
Q 2500 2556 2373 2639 
Q 2247 2722 2056 2722 
Q 1838 2722 1666 2615 
Q 1494 2509 1414 2295 
Q 1334 2081 1334 1663 
L 1334 0 
L 456 0 
L 456 4581 
L 1334 4581 
z
" transform="scale(0.015625)"/>
     </defs>
     <use xlink:href="#Arial-BoldMT-63"/>
     <use xlink:href="#Arial-BoldMT-68" transform="translate(55.615234 0)"/>
     <use xlink:href="#Arial-BoldMT-30" transform="translate(116.699219 0)"/>
    </g>
   </g>
   <g id="text_47">
    <!-- ch7 -->
    <g style="fill: #f57c00" transform="translate(56.078324 237.455231) scale(0.08 -0.08)">
     <use xlink:href="#Arial-BoldMT-63"/>
     <use xlink:href="#Arial-BoldMT-68" transform="translate(55.615234 0)"/>
     <use xlink:href="#Arial-BoldMT-37" transform="translate(116.699219 0)"/>
    </g>
   </g>
   <g id="text_48">
    <!-- ch1 -->
    <g style="fill: #f57c00" transform="translate(56.078324 207.96587) scale(0.08 -0.08)">
     <use xlink:href="#Arial-BoldMT-63"/>
     <use xlink:href="#Arial-BoldMT-68" transform="translate(55.615234 0)"/>
     <use xlink:href="#Arial-BoldMT-31" transform="translate(116.699219 0)"/>
    </g>
   </g>
   <g id="text_49">
    <!-- ch6 -->
    <g style="fill: #f57c00" transform="translate(56.078324 178.476508) scale(0.08 -0.08)">
     <use xlink:href="#Arial-BoldMT-63"/>
     <use xlink:href="#Arial-BoldMT-68" transform="translate(55.615234 0)"/>
     <use xlink:href="#Arial-BoldMT-36" transform="translate(116.699219 0)"/>
    </g>
   </g>
   <g id="text_50">
    <!-- ch2 -->
    <g style="fill: #f57c00" transform="translate(56.078324 148.987146) scale(0.08 -0.08)">
     <use xlink:href="#Arial-BoldMT-63"/>
     <use xlink:href="#Arial-BoldMT-68" transform="translate(55.615234 0)"/>
     <use xlink:href="#Arial-BoldMT-32" transform="translate(116.699219 0)"/>
    </g>
   </g>
   <g id="text_51">
    <!-- ch5 -->
    <g style="fill: #f57c00" transform="translate(56.078324 119.497785) scale(0.08 -0.08)">
     <use xlink:href="#Arial-BoldMT-63"/>
     <use xlink:href="#Arial-BoldMT-68" transform="translate(55.615234 0)"/>
     <use xlink:href="#Arial-BoldMT-35" transform="translate(116.699219 0)"/>
    </g>
   </g>
   <g id="text_52">
    <!-- ch3 -->
    <g style="fill: #f57c00" transform="translate(56.078324 90.008423) scale(0.08 -0.08)">
     <use xlink:href="#Arial-BoldMT-63"/>
     <use xlink:href="#Arial-BoldMT-68" transform="translate(55.615234 0)"/>
     <use xlink:href="#Arial-BoldMT-33" transform="translate(116.699219 0)"/>
    </g>
   </g>
   <g id="text_53">
    <!-- ch4 -->
    <g style="fill: #f57c00" transform="translate(56.078324 60.519061) scale(0.08 -0.08)">
     <use xlink:href="#Arial-BoldMT-63"/>
     <use xlink:href="#Arial-BoldMT-68" transform="translate(55.615234 0)"/>
     <use xlink:href="#Arial-BoldMT-34" transform="translate(116.699219 0)"/>
    </g>
   </g>
   <g id="text_54">
    <!-- ch8 -->
    <g style="fill: #f57c00" transform="translate(115.057048 266.944593) scale(0.08 -0.08)">
     <use xlink:href="#Arial-BoldMT-63"/>
     <use xlink:href="#Arial-BoldMT-68" transform="translate(55.615234 0)"/>
     <use xlink:href="#Arial-BoldMT-38" transform="translate(116.699219 0)"/>
    </g>
   </g>
   <g id="text_55">
    <!-- ch15 -->
    <g style="fill: #f57c00" transform="translate(115.057048 237.455231) scale(0.08 -0.08)">
     <use xlink:href="#Arial-BoldMT-63"/>
     <use xlink:href="#Arial-BoldMT-68" transform="translate(55.615234 0)"/>
     <use xlink:href="#Arial-BoldMT-31" transform="translate(116.699219 0)"/>
     <use xlink:href="#Arial-BoldMT-35" transform="translate(172.314453 0)"/>
    </g>
   </g>
   <g id="text_56">
    <!-- ch9 -->
    <g style="fill: #f57c00" transform="translate(115.057048 207.96587) scale(0.08 -0.08)">
     <use xlink:href="#Arial-BoldMT-63"/>
     <use xlink:href="#Arial-BoldMT-68" transform="translate(55.615234 0)"/>
     <use xlink:href="#Arial-BoldMT-39" transform="translate(116.699219 0)"/>
    </g>
   </g>
   <g id="text_57">
    <!-- ch14 -->
    <g style="fill: #f57c00" transform="translate(115.057048 178.476508) scale(0.08 -0.08)">
     <use xlink:href="#Arial-BoldMT-63"/>
     <use xlink:href="#Arial-BoldMT-68" transform="translate(55.615234 0)"/>
     <use xlink:href="#Arial-BoldMT-31" transform="translate(116.699219 0)"/>
     <use xlink:href="#Arial-BoldMT-34" transform="translate(172.314453 0)"/>
    </g>
   </g>
   <g id="text_58">
    <!-- ch10 -->
    <g style="fill: #f57c00" transform="translate(115.057048 148.987146) scale(0.08 -0.08)">
     <use xlink:href="#Arial-BoldMT-63"/>
     <use xlink:href="#Arial-BoldMT-68" transform="translate(55.615234 0)"/>
     <use xlink:href="#Arial-BoldMT-31" transform="translate(116.699219 0)"/>
     <use xlink:href="#Arial-BoldMT-30" transform="translate(172.314453 0)"/>
    </g>
   </g>
   <g id="text_59">
    <!-- ch13 -->
    <g style="fill: #f57c00" transform="translate(115.057048 119.497785) scale(0.08 -0.08)">
     <use xlink:href="#Arial-BoldMT-63"/>
     <use xlink:href="#Arial-BoldMT-68" transform="translate(55.615234 0)"/>
     <use xlink:href="#Arial-BoldMT-31" transform="translate(116.699219 0)"/>
     <use xlink:href="#Arial-BoldMT-33" transform="translate(172.314453 0)"/>
    </g>
   </g>
   <g id="text_60">
    <!-- ch11 -->
    <g style="fill: #f57c00" transform="translate(115.057048 90.008423) scale(0.08 -0.08)">
     <use xlink:href="#Arial-BoldMT-63"/>
     <use xlink:href="#Arial-BoldMT-68" transform="translate(55.615234 0)"/>
     <use xlink:href="#Arial-BoldMT-31" transform="translate(116.699219 0)"/>
     <use xlink:href="#Arial-BoldMT-31" transform="translate(166.814453 0)"/>
    </g>
   </g>
   <g id="text_61">
    <!-- ch12 -->
    <g style="fill: #f57c00" transform="translate(115.057048 60.519061) scale(0.08 -0.08)">
     <use xlink:href="#Arial-BoldMT-63"/>
     <use xlink:href="#Arial-BoldMT-68" transform="translate(55.615234 0)"/>
     <use xlink:href="#Arial-BoldMT-31" transform="translate(116.699219 0)"/>
     <use xlink:href="#Arial-BoldMT-32" transform="translate(172.314453 0)"/>
    </g>
   </g>
   <g id="text_62">
    <!-- ch16 -->
    <g style="fill: #f57c00" transform="translate(174.035771 266.944593) scale(0.08 -0.08)">
     <use xlink:href="#Arial-BoldMT-63"/>
     <use xlink:href="#Arial-BoldMT-68" transform="translate(55.615234 0)"/>
     <use xlink:href="#Arial-BoldMT-31" transform="translate(116.699219 0)"/>
     <use xlink:href="#Arial-BoldMT-36" transform="translate(172.314453 0)"/>
    </g>
   </g>
   <g id="text_63">
    <!-- ch23 -->
    <g style="fill: #f57c00" transform="translate(174.035771 237.455231) scale(0.08 -0.08)">
     <use xlink:href="#Arial-BoldMT-63"/>
     <use xlink:href="#Arial-BoldMT-68" transform="translate(55.615234 0)"/>
     <use xlink:href="#Arial-BoldMT-32" transform="translate(116.699219 0)"/>
     <use xlink:href="#Arial-BoldMT-33" transform="translate(172.314453 0)"/>
    </g>
   </g>
   <g id="text_64">
    <!-- ch17 -->
    <g style="fill: #f57c00" transform="translate(174.035771 207.96587) scale(0.08 -0.08)">
     <use xlink:href="#Arial-BoldMT-63"/>
     <use xlink:href="#Arial-BoldMT-68" transform="translate(55.615234 0)"/>
     <use xlink:href="#Arial-BoldMT-31" transform="translate(116.699219 0)"/>
     <use xlink:href="#Arial-BoldMT-37" transform="translate(172.314453 0)"/>
    </g>
   </g>
   <g id="text_65">
    <!-- ch22 -->
    <g style="fill: #f57c00" transform="translate(174.035771 178.476508) scale(0.08 -0.08)">
     <use xlink:href="#Arial-BoldMT-63"/>
     <use xlink:href="#Arial-BoldMT-68" transform="translate(55.615234 0)"/>
     <use xlink:href="#Arial-BoldMT-32" transform="translate(116.699219 0)"/>
     <use xlink:href="#Arial-BoldMT-32" transform="translate(172.314453 0)"/>
    </g>
   </g>
   <g id="text_66">
    <!-- ch18 -->
    <g style="fill: #f57c00" transform="translate(174.035771 148.987146) scale(0.08 -0.08)">
     <use xlink:href="#Arial-BoldMT-63"/>
     <use xlink:href="#Arial-BoldMT-68" transform="translate(55.615234 0)"/>
     <use xlink:href="#Arial-BoldMT-31" transform="translate(116.699219 0)"/>
     <use xlink:href="#Arial-BoldMT-38" transform="translate(172.314453 0)"/>
    </g>
   </g>
   <g id="text_67">
    <!-- ch21 -->
    <g style="fill: #f57c00" transform="translate(174.035771 119.497785) scale(0.08 -0.08)">
     <use xlink:href="#Arial-BoldMT-63"/>
     <use xlink:href="#Arial-BoldMT-68" transform="translate(55.615234 0)"/>
     <use xlink:href="#Arial-BoldMT-32" transform="translate(116.699219 0)"/>
     <use xlink:href="#Arial-BoldMT-31" transform="translate(172.314453 0)"/>
    </g>
   </g>
   <g id="text_68">
    <!-- ch19 -->
    <g style="fill: #f57c00" transform="translate(174.035771 90.008423) scale(0.08 -0.08)">
     <use xlink:href="#Arial-BoldMT-63"/>
     <use xlink:href="#Arial-BoldMT-68" transform="translate(55.615234 0)"/>
     <use xlink:href="#Arial-BoldMT-31" transform="translate(116.699219 0)"/>
     <use xlink:href="#Arial-BoldMT-39" transform="translate(172.314453 0)"/>
    </g>
   </g>
   <g id="text_69">
    <!-- ch20 -->
    <g style="fill: #f57c00" transform="translate(174.035771 60.519061) scale(0.08 -0.08)">
     <use xlink:href="#Arial-BoldMT-63"/>
     <use xlink:href="#Arial-BoldMT-68" transform="translate(55.615234 0)"/>
     <use xlink:href="#Arial-BoldMT-32" transform="translate(116.699219 0)"/>
     <use xlink:href="#Arial-BoldMT-30" transform="translate(172.314453 0)"/>
    </g>
   </g>
   <g id="text_70">
    <!-- ch24 -->
    <g style="fill: #f57c00" transform="translate(233.014495 266.944593) scale(0.08 -0.08)">
     <use xlink:href="#Arial-BoldMT-63"/>
     <use xlink:href="#Arial-BoldMT-68" transform="translate(55.615234 0)"/>
     <use xlink:href="#Arial-BoldMT-32" transform="translate(116.699219 0)"/>
     <use xlink:href="#Arial-BoldMT-34" transform="translate(172.314453 0)"/>
    </g>
   </g>
   <g id="text_71">
    <!-- ch31 -->
    <g style="fill: #f57c00" transform="translate(233.014495 237.455231) scale(0.08 -0.08)">
     <use xlink:href="#Arial-BoldMT-63"/>
     <use xlink:href="#Arial-BoldMT-68" transform="translate(55.615234 0)"/>
     <use xlink:href="#Arial-BoldMT-33" transform="translate(116.699219 0)"/>
     <use xlink:href="#Arial-BoldMT-31" transform="translate(172.314453 0)"/>
    </g>
   </g>
   <g id="text_72">
    <!-- ch25 -->
    <g style="fill: #f57c00" transform="translate(233.014495 207.96587) scale(0.08 -0.08)">
     <use xlink:href="#Arial-BoldMT-63"/>
     <use xlink:href="#Arial-BoldMT-68" transform="translate(55.615234 0)"/>
     <use xlink:href="#Arial-BoldMT-32" transform="translate(116.699219 0)"/>
     <use xlink:href="#Arial-BoldMT-35" transform="translate(172.314453 0)"/>
    </g>
   </g>
   <g id="text_73">
    <!-- ch30 -->
    <g style="fill: #f57c00" transform="translate(233.014495 178.476508) scale(0.08 -0.08)">
     <use xlink:href="#Arial-BoldMT-63"/>
     <use xlink:href="#Arial-BoldMT-68" transform="translate(55.615234 0)"/>
     <use xlink:href="#Arial-BoldMT-33" transform="translate(116.699219 0)"/>
     <use xlink:href="#Arial-BoldMT-30" transform="translate(172.314453 0)"/>
    </g>
   </g>
   <g id="text_74">
    <!-- ch26 -->
    <g style="fill: #f57c00" transform="translate(233.014495 148.987146) scale(0.08 -0.08)">
     <use xlink:href="#Arial-BoldMT-63"/>
     <use xlink:href="#Arial-BoldMT-68" transform="translate(55.615234 0)"/>
     <use xlink:href="#Arial-BoldMT-32" transform="translate(116.699219 0)"/>
     <use xlink:href="#Arial-BoldMT-36" transform="translate(172.314453 0)"/>
    </g>
   </g>
   <g id="text_75">
    <!-- ch29 -->
    <g style="fill: #f57c00" transform="translate(233.014495 119.497785) scale(0.08 -0.08)">
     <use xlink:href="#Arial-BoldMT-63"/>
     <use xlink:href="#Arial-BoldMT-68" transform="translate(55.615234 0)"/>
     <use xlink:href="#Arial-BoldMT-32" transform="translate(116.699219 0)"/>
     <use xlink:href="#Arial-BoldMT-39" transform="translate(172.314453 0)"/>
    </g>
   </g>
   <g id="text_76">
    <!-- ch27 -->
    <g style="fill: #f57c00" transform="translate(233.014495 90.008423) scale(0.08 -0.08)">
     <use xlink:href="#Arial-BoldMT-63"/>
     <use xlink:href="#Arial-BoldMT-68" transform="translate(55.615234 0)"/>
     <use xlink:href="#Arial-BoldMT-32" transform="translate(116.699219 0)"/>
     <use xlink:href="#Arial-BoldMT-37" transform="translate(172.314453 0)"/>
    </g>
   </g>
   <g id="text_77">
    <!-- ch28 -->
    <g style="fill: #f57c00" transform="translate(233.014495 60.519061) scale(0.08 -0.08)">
     <use xlink:href="#Arial-BoldMT-63"/>
     <use xlink:href="#Arial-BoldMT-68" transform="translate(55.615234 0)"/>
     <use xlink:href="#Arial-BoldMT-32" transform="translate(116.699219 0)"/>
     <use xlink:href="#Arial-BoldMT-38" transform="translate(172.314453 0)"/>
    </g>
   </g>
   <g id="text_78">
    <!-- A4x8-5mm-100-200-177 (NeuroNexus) -->
    <g style="fill: #212121" transform="translate(55.758373 10.151719) scale(0.09 -0.09)">
     <defs>
      <path id="Arial-BoldMT-41" d="M 4597 0 
L 3591 0 
L 3191 1041 
L 1359 1041 
L 981 0 
L 0 0 
L 1784 4581 
L 2763 4581 
L 4597 0 
z
M 2894 1813 
L 2263 3513 
L 1644 1813 
L 2894 1813 
z
" transform="scale(0.015625)"/>
      <path id="Arial-BoldMT-78" d="M 38 0 
L 1234 1709 
L 88 3319 
L 1159 3319 
L 1747 2406 
L 2366 3319 
L 3397 3319 
L 2272 1747 
L 3500 0 
L 2422 0 
L 1747 1028 
L 1066 0 
L 38 0 
z
" transform="scale(0.015625)"/>
      <path id="Arial-BoldMT-2d" d="M 359 1222 
L 359 2100 
L 2084 2100 
L 2084 1222 
L 359 1222 
z
" transform="scale(0.015625)"/>
      <path id="Arial-BoldMT-6d" d="M 394 3319 
L 1203 3319 
L 1203 2866 
Q 1638 3394 2238 3394 
Q 2556 3394 2790 3262 
Q 3025 3131 3175 2866 
Q 3394 3131 3647 3262 
Q 3900 3394 4188 3394 
Q 4553 3394 4806 3245 
Q 5059 3097 5184 2809 
Q 5275 2597 5275 2122 
L 5275 0 
L 4397 0 
L 4397 1897 
Q 4397 2391 4306 2534 
Q 4184 2722 3931 2722 
Q 3747 2722 3584 2609 
Q 3422 2497 3350 2280 
Q 3278 2063 3278 1594 
L 3278 0 
L 2400 0 
L 2400 1819 
Q 2400 2303 2353 2443 
Q 2306 2584 2207 2653 
Q 2109 2722 1941 2722 
Q 1738 2722 1575 2612 
Q 1413 2503 1342 2297 
Q 1272 2091 1272 1613 
L 1272 0 
L 394 0 
L 394 3319 
z
" transform="scale(0.015625)"/>
      <path id="Arial-BoldMT-20" transform="scale(0.015625)"/>
      <path id="Arial-BoldMT-28" d="M 1916 -1347 
L 1313 -1347 
Q 834 -625 584 153 
Q 334 931 334 1659 
Q 334 2563 644 3369 
Q 913 4069 1325 4659 
L 1925 4659 
Q 1497 3713 1336 3048 
Q 1175 2384 1175 1641 
Q 1175 1128 1270 590 
Q 1366 53 1531 -431 
Q 1641 -750 1916 -1347 
z
" transform="scale(0.015625)"/>
      <path id="Arial-BoldMT-4e" d="M 475 0 
L 475 4581 
L 1375 4581 
L 3250 1522 
L 3250 4581 
L 4109 4581 
L 4109 0 
L 3181 0 
L 1334 2988 
L 1334 0 
L 475 0 
z
" transform="scale(0.015625)"/>
      <path id="Arial-BoldMT-65" d="M 2381 1056 
L 3256 909 
Q 3088 428 2723 176 
Q 2359 -75 1813 -75 
Q 947 -75 531 491 
Q 203 944 203 1634 
Q 203 2459 634 2926 
Q 1066 3394 1725 3394 
Q 2466 3394 2894 2905 
Q 3322 2416 3303 1406 
L 1103 1406 
Q 1113 1016 1316 798 
Q 1519 581 1822 581 
Q 2028 581 2168 693 
Q 2309 806 2381 1056 
z
M 2431 1944 
Q 2422 2325 2234 2523 
Q 2047 2722 1778 2722 
Q 1491 2722 1303 2513 
Q 1116 2303 1119 1944 
L 2431 1944 
z
" transform="scale(0.015625)"/>
      <path id="Arial-BoldMT-75" d="M 2644 0 
L 2644 497 
Q 2463 231 2167 78 
Q 1872 -75 1544 -75 
Q 1209 -75 943 72 
Q 678 219 559 484 
Q 441 750 441 1219 
L 441 3319 
L 1319 3319 
L 1319 1794 
Q 1319 1094 1367 936 
Q 1416 778 1544 686 
Q 1672 594 1869 594 
Q 2094 594 2272 717 
Q 2450 841 2515 1023 
Q 2581 1206 2581 1919 
L 2581 3319 
L 3459 3319 
L 3459 0 
L 2644 0 
z
" transform="scale(0.015625)"/>
      <path id="Arial-BoldMT-72" d="M 1300 0 
L 422 0 
L 422 3319 
L 1238 3319 
L 1238 2847 
Q 1447 3181 1614 3287 
Q 1781 3394 1994 3394 
Q 2294 3394 2572 3228 
L 2300 2463 
Q 2078 2606 1888 2606 
Q 1703 2606 1575 2504 
Q 1447 2403 1373 2137 
Q 1300 1872 1300 1025 
L 1300 0 
z
" transform="scale(0.015625)"/>
      <path id="Arial-BoldMT-6f" d="M 256 1706 
Q 256 2144 472 2553 
Q 688 2963 1083 3178 
Q 1478 3394 1966 3394 
Q 2719 3394 3200 2905 
Q 3681 2416 3681 1669 
Q 3681 916 3195 420 
Q 2709 -75 1972 -75 
Q 1516 -75 1102 131 
Q 688 338 472 736 
Q 256 1134 256 1706 
z
M 1156 1659 
Q 1156 1166 1390 903 
Q 1625 641 1969 641 
Q 2313 641 2545 903 
Q 2778 1166 2778 1666 
Q 2778 2153 2545 2415 
Q 2313 2678 1969 2678 
Q 1625 2678 1390 2415 
Q 1156 2153 1156 1659 
z
" transform="scale(0.015625)"/>
      <path id="Arial-BoldMT-73" d="M 150 947 
L 1031 1081 
Q 1088 825 1259 692 
Q 1431 559 1741 559 
Q 2081 559 2253 684 
Q 2369 772 2369 919 
Q 2369 1019 2306 1084 
Q 2241 1147 2013 1200 
Q 950 1434 666 1628 
Q 272 1897 272 2375 
Q 272 2806 612 3100 
Q 953 3394 1669 3394 
Q 2350 3394 2681 3172 
Q 3013 2950 3138 2516 
L 2309 2363 
Q 2256 2556 2107 2659 
Q 1959 2763 1684 2763 
Q 1338 2763 1188 2666 
Q 1088 2597 1088 2488 
Q 1088 2394 1175 2328 
Q 1294 2241 1995 2081 
Q 2697 1922 2975 1691 
Q 3250 1456 3250 1038 
Q 3250 581 2869 253 
Q 2488 -75 1741 -75 
Q 1063 -75 667 200 
Q 272 475 150 947 
z
" transform="scale(0.015625)"/>
      <path id="Arial-BoldMT-29" d="M 216 -1347 
Q 475 -791 581 -494 
Q 688 -197 778 190 
Q 869 578 912 926 
Q 956 1275 956 1641 
Q 956 2384 797 3048 
Q 638 3713 209 4659 
L 806 4659 
Q 1278 3988 1539 3234 
Q 1800 2481 1800 1706 
Q 1800 1053 1594 306 
Q 1359 -531 822 -1347 
L 216 -1347 
z
" transform="scale(0.015625)"/>
     </defs>
     <use xlink:href="#Arial-BoldMT-41"/>
     <use xlink:href="#Arial-BoldMT-34" transform="translate(72.216797 0)"/>
     <use xlink:href="#Arial-BoldMT-78" transform="translate(127.832031 0)"/>
     <use xlink:href="#Arial-BoldMT-38" transform="translate(183.447266 0)"/>
     <use xlink:href="#Arial-BoldMT-2d" transform="translate(239.0625 0)"/>
     <use xlink:href="#Arial-BoldMT-35" transform="translate(272.363281 0)"/>
     <use xlink:href="#Arial-BoldMT-6d" transform="translate(327.978516 0)"/>
     <use xlink:href="#Arial-BoldMT-6d" transform="translate(416.894531 0)"/>
     <use xlink:href="#Arial-BoldMT-2d" transform="translate(505.810547 0)"/>
     <use xlink:href="#Arial-BoldMT-31" transform="translate(539.111328 0)"/>
     <use xlink:href="#Arial-BoldMT-30" transform="translate(594.726562 0)"/>
     <use xlink:href="#Arial-BoldMT-30" transform="translate(650.341797 0)"/>
     <use xlink:href="#Arial-BoldMT-2d" transform="translate(705.957031 0)"/>
     <use xlink:href="#Arial-BoldMT-32" transform="translate(739.257812 0)"/>
     <use xlink:href="#Arial-BoldMT-30" transform="translate(794.873047 0)"/>
     <use xlink:href="#Arial-BoldMT-30" transform="translate(850.488281 0)"/>
     <use xlink:href="#Arial-BoldMT-2d" transform="translate(906.103516 0)"/>
     <use xlink:href="#Arial-BoldMT-31" transform="translate(939.404297 0)"/>
     <use xlink:href="#Arial-BoldMT-37" transform="translate(995.019531 0)"/>
     <use xlink:href="#Arial-BoldMT-37" transform="translate(1050.634766 0)"/>
     <use xlink:href="#Arial-BoldMT-20" transform="translate(1106.25 0)"/>
     <use xlink:href="#Arial-BoldMT-28" transform="translate(1134.033203 0)"/>
     <use xlink:href="#Arial-BoldMT-4e" transform="translate(1167.333984 0)"/>
     <use xlink:href="#Arial-BoldMT-65" transform="translate(1239.550781 0)"/>
     <use xlink:href="#Arial-BoldMT-75" transform="translate(1295.166016 0)"/>
     <use xlink:href="#Arial-BoldMT-72" transform="translate(1356.25 0)"/>
     <use xlink:href="#Arial-BoldMT-6f" transform="translate(1395.166016 0)"/>
     <use xlink:href="#Arial-BoldMT-4e" transform="translate(1456.25 0)"/>
     <use xlink:href="#Arial-BoldMT-65" transform="translate(1528.466797 0)"/>
     <use xlink:href="#Arial-BoldMT-78" transform="translate(1584.082031 0)"/>
     <use xlink:href="#Arial-BoldMT-75" transform="translate(1639.697266 0)"/>
     <use xlink:href="#Arial-BoldMT-73" transform="translate(1700.78125 0)"/>
     <use xlink:href="#Arial-BoldMT-29" transform="translate(1756.396484 0)"/>
    </g>
    <!-- 32 channels · 4 shanks -->
    <g style="fill: #212121" transform="translate(87.519232 19.776375) scale(0.09 -0.09)">
     <defs>
      <path id="Arial-BoldMT-61" d="M 1116 2306 
L 319 2450 
Q 453 2931 781 3162 
Q 1109 3394 1756 3394 
Q 2344 3394 2631 3255 
Q 2919 3116 3036 2902 
Q 3153 2688 3153 2116 
L 3144 1091 
Q 3144 653 3186 445 
Q 3228 238 3344 0 
L 2475 0 
Q 2441 88 2391 259 
Q 2369 338 2359 363 
Q 2134 144 1878 34 
Q 1622 -75 1331 -75 
Q 819 -75 523 203 
Q 228 481 228 906 
Q 228 1188 362 1408 
Q 497 1628 739 1745 
Q 981 1863 1438 1950 
Q 2053 2066 2291 2166 
L 2291 2253 
Q 2291 2506 2166 2614 
Q 2041 2722 1694 2722 
Q 1459 2722 1328 2630 
Q 1197 2538 1116 2306 
z
M 2291 1594 
Q 2122 1538 1756 1459 
Q 1391 1381 1278 1306 
Q 1106 1184 1106 997 
Q 1106 813 1243 678 
Q 1381 544 1594 544 
Q 1831 544 2047 700 
Q 2206 819 2256 991 
Q 2291 1103 2291 1419 
L 2291 1594 
z
" transform="scale(0.015625)"/>
      <path id="Arial-BoldMT-6e" d="M 3478 0 
L 2600 0 
L 2600 1694 
Q 2600 2231 2544 2389 
Q 2488 2547 2361 2634 
Q 2234 2722 2056 2722 
Q 1828 2722 1647 2597 
Q 1466 2472 1398 2265 
Q 1331 2059 1331 1503 
L 1331 0 
L 453 0 
L 453 3319 
L 1269 3319 
L 1269 2831 
Q 1703 3394 2363 3394 
Q 2653 3394 2893 3289 
Q 3134 3184 3257 3021 
Q 3381 2859 3429 2653 
Q 3478 2447 3478 2063 
L 3478 0 
z
" transform="scale(0.015625)"/>
      <path id="Arial-BoldMT-6c" d="M 459 0 
L 459 4581 
L 1338 4581 
L 1338 0 
L 459 0 
z
" transform="scale(0.015625)"/>
      <path id="Arial-BoldMT-b7" d="M 459 1791 
L 459 2669 
L 1338 2669 
L 1338 1791 
L 459 1791 
z
" transform="scale(0.015625)"/>
      <path id="Arial-BoldMT-6b" d="M 428 0 
L 428 4581 
L 1306 4581 
L 1306 2150 
L 2334 3319 
L 3416 3319 
L 2281 2106 
L 3497 0 
L 2550 0 
L 1716 1491 
L 1306 1063 
L 1306 0 
L 428 0 
z
" transform="scale(0.015625)"/>
     </defs>
     <use xlink:href="#Arial-BoldMT-33"/>
     <use xlink:href="#Arial-BoldMT-32" transform="translate(55.615234 0)"/>
     <use xlink:href="#Arial-BoldMT-20" transform="translate(111.230469 0)"/>
     <use xlink:href="#Arial-BoldMT-63" transform="translate(139.013672 0)"/>
     <use xlink:href="#Arial-BoldMT-68" transform="translate(194.628906 0)"/>
     <use xlink:href="#Arial-BoldMT-61" transform="translate(255.712891 0)"/>
     <use xlink:href="#Arial-BoldMT-6e" transform="translate(311.328125 0)"/>
     <use xlink:href="#Arial-BoldMT-6e" transform="translate(372.412109 0)"/>
     <use xlink:href="#Arial-BoldMT-65" transform="translate(433.496094 0)"/>
     <use xlink:href="#Arial-BoldMT-6c" transform="translate(489.111328 0)"/>
     <use xlink:href="#Arial-BoldMT-73" transform="translate(516.894531 0)"/>
     <use xlink:href="#Arial-BoldMT-20" transform="translate(572.509766 0)"/>
     <use xlink:href="#Arial-BoldMT-b7" transform="translate(600.292969 0)"/>
     <use xlink:href="#Arial-BoldMT-20" transform="translate(628.076172 0)"/>
     <use xlink:href="#Arial-BoldMT-34" transform="translate(655.859375 0)"/>
     <use xlink:href="#Arial-BoldMT-20" transform="translate(711.474609 0)"/>
     <use xlink:href="#Arial-BoldMT-73" transform="translate(739.257812 0)"/>
     <use xlink:href="#Arial-BoldMT-68" transform="translate(794.873047 0)"/>
     <use xlink:href="#Arial-BoldMT-61" transform="translate(855.957031 0)"/>
     <use xlink:href="#Arial-BoldMT-6e" transform="translate(911.572266 0)"/>
     <use xlink:href="#Arial-BoldMT-6b" transform="translate(972.65625 0)"/>
     <use xlink:href="#Arial-BoldMT-73" transform="translate(1028.271484 0)"/>
    </g>
   </g>
  </g>
 </g>
 <defs>
  <clipPath id="p2a9785f569">
   <rect x="27.17875" y="27.776375" width="218.221277" height="277.2"/>
  </clipPath>
 </defs>
</svg>
