<?xml version="1.0" encoding="utf-8" standalone="no"?>
<!DOCTYPE svg PUBLIC "-//W3C//DTD SVG 1.1//EN"
  "http://www.w3.org/Graphics/SVG/1.1/DTD/svg11.dtd">
<svg xmlns:xlink="http://www.w3.org/1999/xlink" width="219.24pt" height="284.4pt" viewBox="0 0 219.24 284.4" xmlns="http://www.w3.org/2000/svg" version="1.1">
 <metadata>
  <rdf:RDF xmlns:dc="http://purl.org/dc/elements/1.1/" xmlns:cc="http://creativecommons.org/ns#" xmlns:rdf="http://www.w3.org/1999/02/22-rdf-syntax-ns#">
   <cc:Work>
    <dc:type rdf:resource="http://purl.org/dc/dcmitype/StillImage"/>
    <dc:date>2026-02-26T15:07:07.690032</dc:date>
    <dc:format>image/svg+xml</dc:format>
    <dc:creator>
     <cc:Agent>
      <dc:title>Matplotlib v3.10.8, https://matplotlib.org/</dc:title>
     </cc:Agent>
    </dc:creator>
   </cc:Work>
  </rdf:RDF>
 </metadata>
 <defs>
  <style type="text/css">*{stroke-linejoin: round; stroke-linecap: butt}</style>
 </defs>
 <g id="figure_1">
  <g id="patch_1">
   <path d="M 0 284.4 
L 219.24 284.4 
L 219.24 0 
L 0 0 
z
" style="fill: #ffffff"/>
  </g>
  <g id="axes_1">
   <g id="patch_2">
    <path d="M 7.8408 280.8 
L 211.3992 280.8 
Q 215.64 280.8 215.64 275.256 
L 215.64 9.144 
Q 215.64 3.6 211.3992 3.6 
L 7.8408 3.6 
Q 3.6 3.6 3.6 9.144 
L 3.6 275.256 
Q 3.6 280.8 7.8408 280.8 
z
" clip-path="url(#pcc767f1972)" style="fill: #f5f5f5; stroke: #bdbdbd; stroke-width: 0.8; stroke-linejoin: miter"/>
   </g>
   <g id="line2d_1">
    <defs>
     <path id="mbbff9d58fb" d="M -2.5 2.5 
L 2.5 2.5 
L 2.5 -2.5 
L -2.5 -2.5 
z
" style="stroke: #388e3c; stroke-linejoin: miter"/>
    </defs>
    <g clip-path="url(#pcc767f1972)">
     <use xlink:href="#mbbff9d58fb" x="16.3224" y="276.642" style="fill: #388e3c; stroke: #388e3c; stroke-linejoin: miter"/>
    </g>
   </g>
   <g id="line2d_2">
    <defs>
     <path id="m7d2fd01ac7" d="M -2.5 2.5 
L 2.5 2.5 
L 2.5 -2.5 
L -2.5 -2.5 
z
" style="stroke: #c2185b; stroke-linejoin: miter"/>
    </defs>
    <g clip-path="url(#pcc767f1972)">
     <use xlink:href="#m7d2fd01ac7" x="84.1752" y="276.642" style="fill: #c2185b; stroke: #c2185b; stroke-linejoin: miter"/>
    </g>
   </g>
   <g id="line2d_3">
    <defs>
     <path id="m7431e64fa4" d="M -2.5 2.5 
L 2.5 2.5 
L 2.5 -2.5 
L -2.5 -2.5 
z
" style="stroke: #f57c00; stroke-linejoin: miter"/>
    </defs>
    <g clip-path="url(#pcc767f1972)">
     <use xlink:href="#m7431e64fa4" x="152.028" y="276.642" style="fill: #f57c00; stroke: #f57c00; stroke-linejoin: miter"/>
    </g>
   </g>
   <g id="text_1">
    <!-- { -->
    <g style="fill: #212121" transform="translate(16.3224 22.050938) scale(0.06 -0.06)">
     <defs>
      <path id="DejaVuSansMono-7b" d="M 3163 -594 
L 3163 -1044 
L 2963 -1044 
Q 2184 -1044 1920 -812 
Q 1656 -581 1656 109 
L 1656 856 
Q 1656 1328 1489 1509 
Q 1322 1691 884 1691 
L 691 1691 
L 691 2138 
L 884 2138 
Q 1325 2138 1490 2316 
Q 1656 2494 1656 2963 
L 1656 3713 
Q 1656 4403 1920 4633 
Q 2184 4863 2963 4863 
L 3163 4863 
L 3163 4416 
L 2944 4416 
Q 2506 4416 2373 4280 
Q 2241 4144 2241 3700 
L 2241 2925 
Q 2241 2434 2098 2212 
Q 1956 1991 1613 1913 
Q 1959 1828 2100 1606 
Q 2241 1384 2241 897 
L 2241 122 
Q 2241 -325 2373 -459 
Q 2506 -594 2944 -594 
L 3163 -594 
z
" transform="scale(0.015625)"/>
     </defs>
     <use xlink:href="#DejaVuSansMono-7b"/>
    </g>
   </g>
   <g id="text_2">
    <!--   "specification": "probeinterface", -->
    <g style="fill: #212121" transform="translate(16.3224 30.880271) scale(0.06 -0.06)">
     <defs>
      <path id="DejaVuSansMono-20" transform="scale(0.015625)"/>
      <path id="DejaVuSansMono-22" d="M 2797 4666 
L 2797 2931 
L 2253 2931 
L 2253 4666 
L 2797 4666 
z
M 1600 4666 
L 1600 2931 
L 1056 2931 
L 1056 4666 
L 1600 4666 
z
" transform="scale(0.015625)"/>
      <path id="DejaVuSansMono-73" d="M 3041 3378 
L 3041 2816 
Q 2794 2959 2544 3031 
Q 2294 3103 2034 3103 
Q 1644 3103 1451 2976 
Q 1259 2850 1259 2591 
Q 1259 2356 1403 2240 
Q 1547 2125 2119 2016 
L 2350 1972 
Q 2778 1891 2998 1647 
Q 3219 1403 3219 1013 
Q 3219 494 2850 201 
Q 2481 -91 1825 -91 
Q 1566 -91 1281 -36 
Q 997 19 666 128 
L 666 722 
Q 988 556 1281 473 
Q 1575 391 1838 391 
Q 2219 391 2428 545 
Q 2638 700 2638 978 
Q 2638 1378 1872 1531 
L 1847 1538 
L 1631 1581 
Q 1134 1678 906 1908 
Q 678 2138 678 2534 
Q 678 3038 1018 3311 
Q 1359 3584 1991 3584 
Q 2272 3584 2531 3532 
Q 2791 3481 3041 3378 
z
" transform="scale(0.015625)"/>
      <path id="DejaVuSansMono-70" d="M 1172 441 
L 1172 -1331 
L 594 -1331 
L 594 3500 
L 1172 3500 
L 1172 3053 
Q 1316 3313 1555 3448 
Q 1794 3584 2106 3584 
Q 2741 3584 3102 3093 
Q 3463 2603 3463 1734 
Q 3463 881 3100 395 
Q 2738 -91 2106 -91 
Q 1788 -91 1548 45 
Q 1309 181 1172 441 
z
M 2859 1747 
Q 2859 2416 2648 2756 
Q 2438 3097 2022 3097 
Q 1603 3097 1387 2755 
Q 1172 2413 1172 1747 
Q 1172 1084 1387 740 
Q 1603 397 2022 397 
Q 2438 397 2648 737 
Q 2859 1078 2859 1747 
z
" transform="scale(0.015625)"/>
      <path id="DejaVuSansMono-65" d="M 3475 1894 
L 3475 1613 
L 984 1613 
L 984 1594 
Q 984 1022 1282 709 
Q 1581 397 2125 397 
Q 2400 397 2700 484 
Q 3000 572 3341 750 
L 3341 178 
Q 3013 44 2708 -23 
Q 2403 -91 2119 -91 
Q 1303 -91 843 398 
Q 384 888 384 1747 
Q 384 2584 834 3084 
Q 1284 3584 2034 3584 
Q 2703 3584 3089 3131 
Q 3475 2678 3475 1894 
z
M 2900 2063 
Q 2888 2569 2661 2833 
Q 2434 3097 2009 3097 
Q 1594 3097 1325 2822 
Q 1056 2547 1006 2059 
L 2900 2063 
z
" transform="scale(0.015625)"/>
      <path id="DejaVuSansMono-63" d="M 3316 178 
Q 3084 44 2839 -23 
Q 2594 -91 2338 -91 
Q 1525 -91 1067 396 
Q 609 884 609 1747 
Q 609 2609 1067 3096 
Q 1525 3584 2338 3584 
Q 2591 3584 2831 3518 
Q 3072 3453 3316 3316 
L 3316 2713 
Q 3088 2916 2858 3006 
Q 2628 3097 2338 3097 
Q 1797 3097 1506 2747 
Q 1216 2397 1216 1747 
Q 1216 1100 1508 748 
Q 1800 397 2338 397 
Q 2638 397 2875 489 
Q 3113 581 3316 775 
L 3316 178 
z
" transform="scale(0.015625)"/>
      <path id="DejaVuSansMono-69" d="M 800 3500 
L 2272 3500 
L 2272 447 
L 3413 447 
L 3413 0 
L 556 0 
L 556 447 
L 1697 447 
L 1697 3053 
L 800 3053 
L 800 3500 
z
M 1697 4863 
L 2272 4863 
L 2272 4134 
L 1697 4134 
L 1697 4863 
z
" transform="scale(0.015625)"/>
      <path id="DejaVuSansMono-66" d="M 3322 4863 
L 3322 4384 
L 2669 4384 
Q 2359 4384 2239 4257 
Q 2119 4131 2119 3809 
L 2119 3500 
L 3322 3500 
L 3322 3053 
L 2119 3053 
L 2119 0 
L 1544 0 
L 1544 3053 
L 609 3053 
L 609 3500 
L 1544 3500 
L 1544 3744 
Q 1544 4319 1808 4591 
Q 2072 4863 2631 4863 
L 3322 4863 
z
" transform="scale(0.015625)"/>
      <path id="DejaVuSansMono-61" d="M 2194 1759 
L 2003 1759 
Q 1500 1759 1245 1582 
Q 991 1406 991 1056 
Q 991 741 1181 566 
Q 1372 391 1709 391 
Q 2184 391 2456 720 
Q 2728 1050 2731 1631 
L 2731 1759 
L 2194 1759 
z
M 3309 1997 
L 3309 0 
L 2731 0 
L 2731 519 
Q 2547 206 2267 57 
Q 1988 -91 1588 -91 
Q 1053 -91 734 211 
Q 416 513 416 1019 
Q 416 1603 808 1906 
Q 1200 2209 1959 2209 
L 2731 2209 
L 2731 2300 
Q 2728 2719 2518 2908 
Q 2309 3097 1850 3097 
Q 1556 3097 1256 3012 
Q 956 2928 672 2766 
L 672 3341 
Q 991 3463 1283 3523 
Q 1575 3584 1850 3584 
Q 2284 3584 2592 3456 
Q 2900 3328 3091 3072 
Q 3209 2916 3259 2686 
Q 3309 2456 3309 1997 
z
" transform="scale(0.015625)"/>
      <path id="DejaVuSansMono-74" d="M 1919 4494 
L 1919 3500 
L 3225 3500 
L 3225 3053 
L 1919 3053 
L 1919 1153 
Q 1919 766 2066 612 
Q 2213 459 2578 459 
L 3225 459 
L 3225 0 
L 2522 0 
Q 1875 0 1609 259 
Q 1344 519 1344 1153 
L 1344 3053 
L 409 3053 
L 409 3500 
L 1344 3500 
L 1344 4494 
L 1919 4494 
z
" transform="scale(0.015625)"/>
      <path id="DejaVuSansMono-6f" d="M 1925 3097 
Q 1488 3097 1263 2756 
Q 1038 2416 1038 1747 
Q 1038 1081 1263 739 
Q 1488 397 1925 397 
Q 2366 397 2591 739 
Q 2816 1081 2816 1747 
Q 2816 2416 2591 2756 
Q 2366 3097 1925 3097 
z
M 1925 3584 
Q 2653 3584 3039 3112 
Q 3425 2641 3425 1747 
Q 3425 850 3040 379 
Q 2656 -91 1925 -91 
Q 1197 -91 812 379 
Q 428 850 428 1747 
Q 428 2641 812 3112 
Q 1197 3584 1925 3584 
z
" transform="scale(0.015625)"/>
      <path id="DejaVuSansMono-6e" d="M 3284 2169 
L 3284 0 
L 2706 0 
L 2706 2169 
Q 2706 2641 2540 2862 
Q 2375 3084 2022 3084 
Q 1619 3084 1401 2798 
Q 1184 2513 1184 1978 
L 1184 0 
L 609 0 
L 609 3500 
L 1184 3500 
L 1184 2975 
Q 1338 3275 1600 3429 
Q 1863 3584 2222 3584 
Q 2756 3584 3020 3232 
Q 3284 2881 3284 2169 
z
" transform="scale(0.015625)"/>
      <path id="DejaVuSansMono-3a" d="M 1528 3322 
L 2316 3322 
L 2316 2375 
L 1528 2375 
L 1528 3322 
z
M 1528 953 
L 2316 953 
L 2316 0 
L 1528 0 
L 1528 953 
z
" transform="scale(0.015625)"/>
      <path id="DejaVuSansMono-72" d="M 3609 2778 
Q 3425 2922 3234 2987 
Q 3044 3053 2816 3053 
Q 2278 3053 1993 2715 
Q 1709 2378 1709 1741 
L 1709 0 
L 1131 0 
L 1131 3500 
L 1709 3500 
L 1709 2816 
Q 1853 3188 2151 3386 
Q 2450 3584 2859 3584 
Q 3072 3584 3256 3531 
Q 3441 3478 3609 3366 
L 3609 2778 
z
" transform="scale(0.015625)"/>
      <path id="DejaVuSansMono-62" d="M 2869 1747 
Q 2869 2416 2656 2756 
Q 2444 3097 2028 3097 
Q 1609 3097 1393 2755 
Q 1178 2413 1178 1747 
Q 1178 1084 1393 740 
Q 1609 397 2028 397 
Q 2444 397 2656 737 
Q 2869 1078 2869 1747 
z
M 1178 3053 
Q 1316 3309 1558 3446 
Q 1800 3584 2119 3584 
Q 2750 3584 3112 3098 
Q 3475 2613 3475 1759 
Q 3475 894 3111 401 
Q 2747 -91 2113 -91 
Q 1800 -91 1561 45 
Q 1322 181 1178 441 
L 1178 0 
L 603 0 
L 603 4863 
L 1178 4863 
L 1178 3053 
z
" transform="scale(0.015625)"/>
      <path id="DejaVuSansMono-2c" d="M 1569 947 
L 2356 947 
L 2356 300 
L 1741 -897 
L 1259 -897 
L 1569 300 
L 1569 947 
z
" transform="scale(0.015625)"/>
     </defs>
     <use xlink:href="#DejaVuSansMono-20"/>
     <use xlink:href="#DejaVuSansMono-20" transform="translate(60.205078 0)"/>
     <use xlink:href="#DejaVuSansMono-22" transform="translate(120.410156 0)"/>
     <use xlink:href="#DejaVuSansMono-73" transform="translate(180.615234 0)"/>
     <use xlink:href="#DejaVuSansMono-70" transform="translate(240.820312 0)"/>
     <use xlink:href="#DejaVuSansMono-65" transform="translate(301.025391 0)"/>
     <use xlink:href="#DejaVuSansMono-63" transform="translate(361.230469 0)"/>
     <use xlink:href="#DejaVuSansMono-69" transform="translate(421.435547 0)"/>
     <use xlink:href="#DejaVuSansMono-66" transform="translate(481.640625 0)"/>
     <use xlink:href="#DejaVuSansMono-69" transform="translate(541.845703 0)"/>
     <use xlink:href="#DejaVuSansMono-63" transform="translate(602.050781 0)"/>
     <use xlink:href="#DejaVuSansMono-61" transform="translate(662.255859 0)"/>
     <use xlink:href="#DejaVuSansMono-74" transform="translate(722.460938 0)"/>
     <use xlink:href="#DejaVuSansMono-69" transform="translate(782.666016 0)"/>
     <use xlink:href="#DejaVuSansMono-6f" transform="translate(842.871094 0)"/>
     <use xlink:href="#DejaVuSansMono-6e" transform="translate(903.076172 0)"/>
     <use xlink:href="#DejaVuSansMono-22" transform="translate(963.28125 0)"/>
     <use xlink:href="#DejaVuSansMono-3a" transform="translate(1023.486328 0)"/>
     <use xlink:href="#DejaVuSansMono-20" transform="translate(1083.691406 0)"/>
     <use xlink:href="#DejaVuSansMono-22" transform="translate(1143.896484 0)"/>
     <use xlink:href="#DejaVuSansMono-70" transform="translate(1204.101562 0)"/>
     <use xlink:href="#DejaVuSansMono-72" transform="translate(1264.306641 0)"/>
     <use xlink:href="#DejaVuSansMono-6f" transform="translate(1324.511719 0)"/>
     <use xlink:href="#DejaVuSansMono-62" transform="translate(1384.716797 0)"/>
     <use xlink:href="#DejaVuSansMono-65" transform="translate(1444.921875 0)"/>
     <use xlink:href="#DejaVuSansMono-69" transform="translate(1505.126953 0)"/>
     <use xlink:href="#DejaVuSansMono-6e" transform="translate(1565.332031 0)"/>
     <use xlink:href="#DejaVuSansMono-74" transform="translate(1625.537109 0)"/>
     <use xlink:href="#DejaVuSansMono-65" transform="translate(1685.742188 0)"/>
     <use xlink:href="#DejaVuSansMono-72" transform="translate(1745.947266 0)"/>
     <use xlink:href="#DejaVuSansMono-66" transform="translate(1806.152344 0)"/>
     <use xlink:href="#DejaVuSansMono-61" transform="translate(1866.357422 0)"/>
     <use xlink:href="#DejaVuSansMono-63" transform="translate(1926.5625 0)"/>
     <use xlink:href="#DejaVuSansMono-65" transform="translate(1986.767578 0)"/>
     <use xlink:href="#DejaVuSansMono-22" transform="translate(2046.972656 0)"/>
     <use xlink:href="#DejaVuSansMono-2c" transform="translate(2107.177734 0)"/>
    </g>
   </g>
   <g id="text_3">
    <!--   "probes": [{ -->
    <g style="fill: #212121" transform="translate(16.3224 39.709604) scale(0.06 -0.06)">
     <defs>
      <path id="DejaVuSansMono-5b" d="M 1447 4863 
L 2772 4863 
L 2772 4416 
L 2022 4416 
L 2022 -397 
L 2772 -397 
L 2772 -844 
L 1447 -844 
L 1447 4863 
z
" transform="scale(0.015625)"/>
     </defs>
     <use xlink:href="#DejaVuSansMono-20"/>
     <use xlink:href="#DejaVuSansMono-20" transform="translate(60.205078 0)"/>
     <use xlink:href="#DejaVuSansMono-22" transform="translate(120.410156 0)"/>
     <use xlink:href="#DejaVuSansMono-70" transform="translate(180.615234 0)"/>
     <use xlink:href="#DejaVuSansMono-72" transform="translate(240.820312 0)"/>
     <use xlink:href="#DejaVuSansMono-6f" transform="translate(301.025391 0)"/>
     <use xlink:href="#DejaVuSansMono-62" transform="translate(361.230469 0)"/>
     <use xlink:href="#DejaVuSansMono-65" transform="translate(421.435547 0)"/>
     <use xlink:href="#DejaVuSansMono-73" transform="translate(481.640625 0)"/>
     <use xlink:href="#DejaVuSansMono-22" transform="translate(541.845703 0)"/>
     <use xlink:href="#DejaVuSansMono-3a" transform="translate(602.050781 0)"/>
     <use xlink:href="#DejaVuSansMono-20" transform="translate(662.255859 0)"/>
     <use xlink:href="#DejaVuSansMono-5b" transform="translate(722.460938 0)"/>
     <use xlink:href="#DejaVuSansMono-7b" transform="translate(782.666016 0)"/>
    </g>
   </g>
   <g id="text_4">
    <!--     "si_units": "um", -->
    <g style="fill: #388e3c" transform="translate(16.3224 48.507063) scale(0.06 -0.06)">
     <defs>
      <path id="DejaVuSansMono-5f" d="M 3853 -1259 
L 3853 -1509 
L 0 -1509 
L 0 -1259 
L 3853 -1259 
z
" transform="scale(0.015625)"/>
      <path id="DejaVuSansMono-75" d="M 609 1325 
L 609 3494 
L 1184 3494 
L 1184 1325 
Q 1184 853 1351 631 
Q 1519 409 1869 409 
Q 2275 409 2490 695 
Q 2706 981 2706 1516 
L 2706 3494 
L 3284 3494 
L 3284 0 
L 2706 0 
L 2706 525 
Q 2553 222 2289 65 
Q 2025 -91 1672 -91 
Q 1134 -91 871 261 
Q 609 613 609 1325 
z
" transform="scale(0.015625)"/>
      <path id="DejaVuSansMono-6d" d="M 2113 3144 
Q 2219 3369 2383 3476 
Q 2547 3584 2778 3584 
Q 3200 3584 3373 3257 
Q 3547 2931 3547 2028 
L 3547 0 
L 3022 0 
L 3022 2003 
Q 3022 2744 2939 2923 
Q 2856 3103 2638 3103 
Q 2388 3103 2295 2911 
Q 2203 2719 2203 2003 
L 2203 0 
L 1678 0 
L 1678 2003 
Q 1678 2753 1589 2928 
Q 1500 3103 1269 3103 
Q 1041 3103 952 2911 
Q 863 2719 863 2003 
L 863 0 
L 341 0 
L 341 3500 
L 863 3500 
L 863 3200 
Q 966 3388 1120 3486 
Q 1275 3584 1472 3584 
Q 1709 3584 1867 3475 
Q 2025 3366 2113 3144 
z
" transform="scale(0.015625)"/>
     </defs>
     <use xlink:href="#DejaVuSansMono-20"/>
     <use xlink:href="#DejaVuSansMono-20" transform="translate(60.205078 0)"/>
     <use xlink:href="#DejaVuSansMono-20" transform="translate(120.410156 0)"/>
     <use xlink:href="#DejaVuSansMono-20" transform="translate(180.615234 0)"/>
     <use xlink:href="#DejaVuSansMono-22" transform="translate(240.820312 0)"/>
     <use xlink:href="#DejaVuSansMono-73" transform="translate(301.025391 0)"/>
     <use xlink:href="#DejaVuSansMono-69" transform="translate(361.230469 0)"/>
     <use xlink:href="#DejaVuSansMono-5f" transform="translate(421.435547 0)"/>
     <use xlink:href="#DejaVuSansMono-75" transform="translate(481.640625 0)"/>
     <use xlink:href="#DejaVuSansMono-6e" transform="translate(541.845703 0)"/>
     <use xlink:href="#DejaVuSansMono-69" transform="translate(602.050781 0)"/>
     <use xlink:href="#DejaVuSansMono-74" transform="translate(662.255859 0)"/>
     <use xlink:href="#DejaVuSansMono-73" transform="translate(722.460938 0)"/>
     <use xlink:href="#DejaVuSansMono-22" transform="translate(782.666016 0)"/>
     <use xlink:href="#DejaVuSansMono-3a" transform="translate(842.871094 0)"/>
     <use xlink:href="#DejaVuSansMono-20" transform="translate(903.076172 0)"/>
     <use xlink:href="#DejaVuSansMono-22" transform="translate(963.28125 0)"/>
     <use xlink:href="#DejaVuSansMono-75" transform="translate(1023.486328 0)"/>
     <use xlink:href="#DejaVuSansMono-6d" transform="translate(1083.691406 0)"/>
     <use xlink:href="#DejaVuSansMono-22" transform="translate(1143.896484 0)"/>
     <use xlink:href="#DejaVuSansMono-2c" transform="translate(1204.101562 0)"/>
    </g>
   </g>
   <g id="text_5">
    <!--     "annotations": { -->
    <g style="fill: #388e3c" transform="translate(16.3224 57.368271) scale(0.06 -0.06)">
     <use xlink:href="#DejaVuSansMono-20"/>
     <use xlink:href="#DejaVuSansMono-20" transform="translate(60.205078 0)"/>
     <use xlink:href="#DejaVuSansMono-20" transform="translate(120.410156 0)"/>
     <use xlink:href="#DejaVuSansMono-20" transform="translate(180.615234 0)"/>
     <use xlink:href="#DejaVuSansMono-22" transform="translate(240.820312 0)"/>
     <use xlink:href="#DejaVuSansMono-61" transform="translate(301.025391 0)"/>
     <use xlink:href="#DejaVuSansMono-6e" transform="translate(361.230469 0)"/>
     <use xlink:href="#DejaVuSansMono-6e" transform="translate(421.435547 0)"/>
     <use xlink:href="#DejaVuSansMono-6f" transform="translate(481.640625 0)"/>
     <use xlink:href="#DejaVuSansMono-74" transform="translate(541.845703 0)"/>
     <use xlink:href="#DejaVuSansMono-61" transform="translate(602.050781 0)"/>
     <use xlink:href="#DejaVuSansMono-74" transform="translate(662.255859 0)"/>
     <use xlink:href="#DejaVuSansMono-69" transform="translate(722.460938 0)"/>
     <use xlink:href="#DejaVuSansMono-6f" transform="translate(782.666016 0)"/>
     <use xlink:href="#DejaVuSansMono-6e" transform="translate(842.871094 0)"/>
     <use xlink:href="#DejaVuSansMono-73" transform="translate(903.076172 0)"/>
     <use xlink:href="#DejaVuSansMono-22" transform="translate(963.28125 0)"/>
     <use xlink:href="#DejaVuSansMono-3a" transform="translate(1023.486328 0)"/>
     <use xlink:href="#DejaVuSansMono-20" transform="translate(1083.691406 0)"/>
     <use xlink:href="#DejaVuSansMono-7b" transform="translate(1143.896484 0)"/>
    </g>
   </g>
   <g id="text_6">
    <!--       "manufacturer": "neuronexus", -->
    <g style="fill: #388e3c" transform="translate(16.3224 66.197604) scale(0.06 -0.06)">
     <defs>
      <path id="DejaVuSansMono-78" d="M 3494 3500 
L 2241 1825 
L 3616 0 
L 2950 0 
L 1925 1403 
L 903 0 
L 238 0 
L 1613 1825 
L 359 3500 
L 997 3500 
L 1925 2234 
L 2847 3500 
L 3494 3500 
z
" transform="scale(0.015625)"/>
     </defs>
     <use xlink:href="#DejaVuSansMono-20"/>
     <use xlink:href="#DejaVuSansMono-20" transform="translate(60.205078 0)"/>
     <use xlink:href="#DejaVuSansMono-20" transform="translate(120.410156 0)"/>
     <use xlink:href="#DejaVuSansMono-20" transform="translate(180.615234 0)"/>
     <use xlink:href="#DejaVuSansMono-20" transform="translate(240.820312 0)"/>
     <use xlink:href="#DejaVuSansMono-20" transform="translate(301.025391 0)"/>
     <use xlink:href="#DejaVuSansMono-22" transform="translate(361.230469 0)"/>
     <use xlink:href="#DejaVuSansMono-6d" transform="translate(421.435547 0)"/>
     <use xlink:href="#DejaVuSansMono-61" transform="translate(481.640625 0)"/>
     <use xlink:href="#DejaVuSansMono-6e" transform="translate(541.845703 0)"/>
     <use xlink:href="#DejaVuSansMono-75" transform="translate(602.050781 0)"/>
     <use xlink:href="#DejaVuSansMono-66" transform="translate(662.255859 0)"/>
     <use xlink:href="#DejaVuSansMono-61" transform="translate(722.460938 0)"/>
     <use xlink:href="#DejaVuSansMono-63" transform="translate(782.666016 0)"/>
     <use xlink:href="#DejaVuSansMono-74" transform="translate(842.871094 0)"/>
     <use xlink:href="#DejaVuSansMono-75" transform="translate(903.076172 0)"/>
     <use xlink:href="#DejaVuSansMono-72" transform="translate(963.28125 0)"/>
     <use xlink:href="#DejaVuSansMono-65" transform="translate(1023.486328 0)"/>
     <use xlink:href="#DejaVuSansMono-72" transform="translate(1083.691406 0)"/>
     <use xlink:href="#DejaVuSansMono-22" transform="translate(1143.896484 0)"/>
     <use xlink:href="#DejaVuSansMono-3a" transform="translate(1204.101562 0)"/>
     <use xlink:href="#DejaVuSansMono-20" transform="translate(1264.306641 0)"/>
     <use xlink:href="#DejaVuSansMono-22" transform="translate(1324.511719 0)"/>
     <use xlink:href="#DejaVuSansMono-6e" transform="translate(1384.716797 0)"/>
     <use xlink:href="#DejaVuSansMono-65" transform="translate(1444.921875 0)"/>
     <use xlink:href="#DejaVuSansMono-75" transform="translate(1505.126953 0)"/>
     <use xlink:href="#DejaVuSansMono-72" transform="translate(1565.332031 0)"/>
     <use xlink:href="#DejaVuSansMono-6f" transform="translate(1625.537109 0)"/>
     <use xlink:href="#DejaVuSansMono-6e" transform="translate(1685.742188 0)"/>
     <use xlink:href="#DejaVuSansMono-65" transform="translate(1745.947266 0)"/>
     <use xlink:href="#DejaVuSansMono-78" transform="translate(1806.152344 0)"/>
     <use xlink:href="#DejaVuSansMono-75" transform="translate(1866.357422 0)"/>
     <use xlink:href="#DejaVuSansMono-73" transform="translate(1926.5625 0)"/>
     <use xlink:href="#DejaVuSansMono-22" transform="translate(1986.767578 0)"/>
     <use xlink:href="#DejaVuSansMono-2c" transform="translate(2046.972656 0)"/>
    </g>
   </g>
   <g id="text_7">
    <!--       "model_name": "A4x8-5mm-..." -->
    <g style="fill: #388e3c" transform="translate(16.3224 75.026938) scale(0.06 -0.06)">
     <defs>
      <path id="DejaVuSansMono-64" d="M 2681 3053 
L 2681 4863 
L 3256 4863 
L 3256 0 
L 2681 0 
L 2681 441 
Q 2538 181 2298 45 
Q 2059 -91 1747 -91 
Q 1113 -91 748 401 
Q 384 894 384 1759 
Q 384 2613 750 3098 
Q 1116 3584 1747 3584 
Q 2063 3584 2303 3448 
Q 2544 3313 2681 3053 
z
M 991 1747 
Q 991 1078 1203 737 
Q 1416 397 1831 397 
Q 2247 397 2464 740 
Q 2681 1084 2681 1747 
Q 2681 2413 2464 2755 
Q 2247 3097 1831 3097 
Q 1416 3097 1203 2756 
Q 991 2416 991 1747 
z
" transform="scale(0.015625)"/>
      <path id="DejaVuSansMono-6c" d="M 1997 1269 
Q 1997 881 2139 684 
Q 2281 488 2559 488 
L 3231 488 
L 3231 0 
L 2503 0 
Q 1988 0 1705 331 
Q 1422 663 1422 1269 
L 1422 4447 
L 500 4447 
L 500 4897 
L 1997 4897 
L 1997 1269 
z
" transform="scale(0.015625)"/>
      <path id="DejaVuSansMono-41" d="M 1925 4109 
L 1259 1722 
L 2591 1722 
L 1925 4109 
z
M 1544 4666 
L 2309 4666 
L 3738 0 
L 3084 0 
L 2741 1216 
L 1106 1216 
L 769 0 
L 116 0 
L 1544 4666 
z
" transform="scale(0.015625)"/>
      <path id="DejaVuSansMono-34" d="M 2297 4091 
L 825 1625 
L 2297 1625 
L 2297 4091 
z
M 2194 4666 
L 2925 4666 
L 2925 1625 
L 3547 1625 
L 3547 1113 
L 2925 1113 
L 2925 0 
L 2297 0 
L 2297 1113 
L 319 1113 
L 319 1709 
L 2194 4666 
z
" transform="scale(0.015625)"/>
      <path id="DejaVuSansMono-38" d="M 1925 2216 
Q 1503 2216 1273 1980 
Q 1044 1744 1044 1313 
Q 1044 881 1276 642 
Q 1509 403 1925 403 
Q 2350 403 2579 639 
Q 2809 875 2809 1313 
Q 2809 1741 2576 1978 
Q 2344 2216 1925 2216 
z
M 1375 2478 
Q 972 2581 745 2862 
Q 519 3144 519 3541 
Q 519 4097 897 4423 
Q 1275 4750 1925 4750 
Q 2578 4750 2956 4423 
Q 3334 4097 3334 3541 
Q 3334 3144 3107 2862 
Q 2881 2581 2478 2478 
Q 2947 2375 3195 2062 
Q 3444 1750 3444 1253 
Q 3444 622 3041 265 
Q 2638 -91 1925 -91 
Q 1213 -91 811 264 
Q 409 619 409 1247 
Q 409 1747 657 2061 
Q 906 2375 1375 2478 
z
M 1147 3481 
Q 1147 3106 1347 2909 
Q 1547 2713 1925 2713 
Q 2306 2713 2506 2909 
Q 2706 3106 2706 3481 
Q 2706 3863 2507 4063 
Q 2309 4263 1925 4263 
Q 1547 4263 1347 4061 
Q 1147 3859 1147 3481 
z
" transform="scale(0.015625)"/>
      <path id="DejaVuSansMono-2d" d="M 1113 2009 
L 2741 2009 
L 2741 1497 
L 1113 1497 
L 1113 2009 
z
" transform="scale(0.015625)"/>
      <path id="DejaVuSansMono-35" d="M 647 4666 
L 3009 4666 
L 3009 4134 
L 1222 4134 
L 1222 2988 
Q 1356 3038 1492 3061 
Q 1628 3084 1766 3084 
Q 2491 3084 2916 2656 
Q 3341 2228 3341 1497 
Q 3341 759 2895 334 
Q 2450 -91 1678 -91 
Q 1306 -91 998 -41 
Q 691 9 447 109 
L 447 750 
Q 734 594 1025 517 
Q 1316 441 1619 441 
Q 2141 441 2423 716 
Q 2706 991 2706 1497 
Q 2706 1997 2414 2275 
Q 2122 2553 1600 2553 
Q 1347 2553 1106 2495 
Q 866 2438 647 2322 
L 647 4666 
z
" transform="scale(0.015625)"/>
      <path id="DejaVuSansMono-2e" d="M 1528 953 
L 2316 953 
L 2316 0 
L 1528 0 
L 1528 953 
z
" transform="scale(0.015625)"/>
     </defs>
     <use xlink:href="#DejaVuSansMono-20"/>
     <use xlink:href="#DejaVuSansMono-20" transform="translate(60.205078 0)"/>
     <use xlink:href="#DejaVuSansMono-20" transform="translate(120.410156 0)"/>
     <use xlink:href="#DejaVuSansMono-20" transform="translate(180.615234 0)"/>
     <use xlink:href="#DejaVuSansMono-20" transform="translate(240.820312 0)"/>
     <use xlink:href="#DejaVuSansMono-20" transform="translate(301.025391 0)"/>
     <use xlink:href="#DejaVuSansMono-22" transform="translate(361.230469 0)"/>
     <use xlink:href="#DejaVuSansMono-6d" transform="translate(421.435547 0)"/>
     <use xlink:href="#DejaVuSansMono-6f" transform="translate(481.640625 0)"/>
     <use xlink:href="#DejaVuSansMono-64" transform="translate(541.845703 0)"/>
     <use xlink:href="#DejaVuSansMono-65" transform="translate(602.050781 0)"/>
     <use xlink:href="#DejaVuSansMono-6c" transform="translate(662.255859 0)"/>
     <use xlink:href="#DejaVuSansMono-5f" transform="translate(722.460938 0)"/>
     <use xlink:href="#DejaVuSansMono-6e" transform="translate(782.666016 0)"/>
     <use xlink:href="#DejaVuSansMono-61" transform="translate(842.871094 0)"/>
     <use xlink:href="#DejaVuSansMono-6d" transform="translate(903.076172 0)"/>
     <use xlink:href="#DejaVuSansMono-65" transform="translate(963.28125 0)"/>
     <use xlink:href="#DejaVuSansMono-22" transform="translate(1023.486328 0)"/>
     <use xlink:href="#DejaVuSansMono-3a" transform="translate(1083.691406 0)"/>
     <use xlink:href="#DejaVuSansMono-20" transform="translate(1143.896484 0)"/>
     <use xlink:href="#DejaVuSansMono-22" transform="translate(1204.101562 0)"/>
     <use xlink:href="#DejaVuSansMono-41" transform="translate(1264.306641 0)"/>
     <use xlink:href="#DejaVuSansMono-34" transform="translate(1324.511719 0)"/>
     <use xlink:href="#DejaVuSansMono-78" transform="translate(1384.716797 0)"/>
     <use xlink:href="#DejaVuSansMono-38" transform="translate(1444.921875 0)"/>
     <use xlink:href="#DejaVuSansMono-2d" transform="translate(1505.126953 0)"/>
     <use xlink:href="#DejaVuSansMono-35" transform="translate(1565.332031 0)"/>
     <use xlink:href="#DejaVuSansMono-6d" transform="translate(1625.537109 0)"/>
     <use xlink:href="#DejaVuSansMono-6d" transform="translate(1685.742188 0)"/>
     <use xlink:href="#DejaVuSansMono-2d" transform="translate(1745.947266 0)"/>
     <use xlink:href="#DejaVuSansMono-2e" transform="translate(1806.152344 0)"/>
     <use xlink:href="#DejaVuSansMono-2e" transform="translate(1866.357422 0)"/>
     <use xlink:href="#DejaVuSansMono-2e" transform="translate(1926.5625 0)"/>
     <use xlink:href="#DejaVuSansMono-22" transform="translate(1986.767578 0)"/>
    </g>
   </g>
   <g id="text_8">
    <!--     }, -->
    <g style="fill: #388e3c" transform="translate(16.3224 83.856271) scale(0.06 -0.06)">
     <defs>
      <path id="DejaVuSansMono-7d" d="M 691 -594 
L 903 -594 
Q 1344 -594 1478 -456 
Q 1613 -319 1613 122 
L 1613 897 
Q 1613 1384 1753 1606 
Q 1894 1828 2241 1913 
Q 1897 1991 1755 2212 
Q 1613 2434 1613 2925 
L 1613 3700 
Q 1613 4141 1478 4278 
Q 1344 4416 903 4416 
L 691 4416 
L 691 4863 
L 884 4863 
Q 1663 4863 1925 4633 
Q 2188 4403 2188 3713 
L 2188 2963 
Q 2188 2494 2355 2316 
Q 2522 2138 2963 2138 
L 3163 2138 
L 3163 1691 
L 2963 1691 
Q 2522 1691 2355 1509 
Q 2188 1328 2188 856 
L 2188 109 
Q 2188 -581 1925 -812 
Q 1663 -1044 884 -1044 
L 691 -1044 
L 691 -594 
z
" transform="scale(0.015625)"/>
     </defs>
     <use xlink:href="#DejaVuSansMono-20"/>
     <use xlink:href="#DejaVuSansMono-20" transform="translate(60.205078 0)"/>
     <use xlink:href="#DejaVuSansMono-20" transform="translate(120.410156 0)"/>
     <use xlink:href="#DejaVuSansMono-20" transform="translate(180.615234 0)"/>
     <use xlink:href="#DejaVuSansMono-7d" transform="translate(240.820312 0)"/>
     <use xlink:href="#DejaVuSansMono-2c" transform="translate(301.025391 0)"/>
    </g>
   </g>
   <g id="text_9">
    <!--     "contact_positions": [ -->
    <g style="fill: #c2185b" transform="translate(16.3224 92.653729) scale(0.06 -0.06)">
     <use xlink:href="#DejaVuSansMono-20"/>
     <use xlink:href="#DejaVuSansMono-20" transform="translate(60.205078 0)"/>
     <use xlink:href="#DejaVuSansMono-20" transform="translate(120.410156 0)"/>
     <use xlink:href="#DejaVuSansMono-20" transform="translate(180.615234 0)"/>
     <use xlink:href="#DejaVuSansMono-22" transform="translate(240.820312 0)"/>
     <use xlink:href="#DejaVuSansMono-63" transform="translate(301.025391 0)"/>
     <use xlink:href="#DejaVuSansMono-6f" transform="translate(361.230469 0)"/>
     <use xlink:href="#DejaVuSansMono-6e" transform="translate(421.435547 0)"/>
     <use xlink:href="#DejaVuSansMono-74" transform="translate(481.640625 0)"/>
     <use xlink:href="#DejaVuSansMono-61" transform="translate(541.845703 0)"/>
     <use xlink:href="#DejaVuSansMono-63" transform="translate(602.050781 0)"/>
     <use xlink:href="#DejaVuSansMono-74" transform="translate(662.255859 0)"/>
     <use xlink:href="#DejaVuSansMono-5f" transform="translate(722.460938 0)"/>
     <use xlink:href="#DejaVuSansMono-70" transform="translate(782.666016 0)"/>
     <use xlink:href="#DejaVuSansMono-6f" transform="translate(842.871094 0)"/>
     <use xlink:href="#DejaVuSansMono-73" transform="translate(903.076172 0)"/>
     <use xlink:href="#DejaVuSansMono-69" transform="translate(963.28125 0)"/>
     <use xlink:href="#DejaVuSansMono-74" transform="translate(1023.486328 0)"/>
     <use xlink:href="#DejaVuSansMono-69" transform="translate(1083.691406 0)"/>
     <use xlink:href="#DejaVuSansMono-6f" transform="translate(1143.896484 0)"/>
     <use xlink:href="#DejaVuSansMono-6e" transform="translate(1204.101562 0)"/>
     <use xlink:href="#DejaVuSansMono-73" transform="translate(1264.306641 0)"/>
     <use xlink:href="#DejaVuSansMono-22" transform="translate(1324.511719 0)"/>
     <use xlink:href="#DejaVuSansMono-3a" transform="translate(1384.716797 0)"/>
     <use xlink:href="#DejaVuSansMono-20" transform="translate(1444.921875 0)"/>
     <use xlink:href="#DejaVuSansMono-5b" transform="translate(1505.126953 0)"/>
    </g>
   </g>
   <g id="text_10">
    <!--       [0, 0], [0, 100], -->
    <g style="fill: #c2185b" transform="translate(16.3224 101.514938) scale(0.06 -0.06)">
     <defs>
      <path id="DejaVuSansMono-30" d="M 1509 2344 
Q 1509 2516 1629 2641 
Q 1750 2766 1919 2766 
Q 2094 2766 2219 2641 
Q 2344 2516 2344 2344 
Q 2344 2169 2220 2047 
Q 2097 1925 1919 1925 
Q 1744 1925 1626 2044 
Q 1509 2163 1509 2344 
z
M 1925 4250 
Q 1484 4250 1267 3775 
Q 1050 3300 1050 2328 
Q 1050 1359 1267 884 
Q 1484 409 1925 409 
Q 2369 409 2586 884 
Q 2803 1359 2803 2328 
Q 2803 3300 2586 3775 
Q 2369 4250 1925 4250 
z
M 1925 4750 
Q 2672 4750 3055 4137 
Q 3438 3525 3438 2328 
Q 3438 1134 3055 521 
Q 2672 -91 1925 -91 
Q 1178 -91 797 521 
Q 416 1134 416 2328 
Q 416 3525 797 4137 
Q 1178 4750 1925 4750 
z
" transform="scale(0.015625)"/>
      <path id="DejaVuSansMono-5d" d="M 2406 4863 
L 2406 -844 
L 1081 -844 
L 1081 -397 
L 1831 -397 
L 1831 4416 
L 1081 4416 
L 1081 4863 
L 2406 4863 
z
" transform="scale(0.015625)"/>
      <path id="DejaVuSansMono-31" d="M 844 531 
L 1825 531 
L 1825 4097 
L 769 3859 
L 769 4434 
L 1819 4666 
L 2450 4666 
L 2450 531 
L 3419 531 
L 3419 0 
L 844 0 
L 844 531 
z
" transform="scale(0.015625)"/>
     </defs>
     <use xlink:href="#DejaVuSansMono-20"/>
     <use xlink:href="#DejaVuSansMono-20" transform="translate(60.205078 0)"/>
     <use xlink:href="#DejaVuSansMono-20" transform="translate(120.410156 0)"/>
     <use xlink:href="#DejaVuSansMono-20" transform="translate(180.615234 0)"/>
     <use xlink:href="#DejaVuSansMono-20" transform="translate(240.820312 0)"/>
     <use xlink:href="#DejaVuSansMono-20" transform="translate(301.025391 0)"/>
     <use xlink:href="#DejaVuSansMono-5b" transform="translate(361.230469 0)"/>
     <use xlink:href="#DejaVuSansMono-30" transform="translate(421.435547 0)"/>
     <use xlink:href="#DejaVuSansMono-2c" transform="translate(481.640625 0)"/>
     <use xlink:href="#DejaVuSansMono-20" transform="translate(541.845703 0)"/>
     <use xlink:href="#DejaVuSansMono-30" transform="translate(602.050781 0)"/>
     <use xlink:href="#DejaVuSansMono-5d" transform="translate(662.255859 0)"/>
     <use xlink:href="#DejaVuSansMono-2c" transform="translate(722.460938 0)"/>
     <use xlink:href="#DejaVuSansMono-20" transform="translate(782.666016 0)"/>
     <use xlink:href="#DejaVuSansMono-5b" transform="translate(842.871094 0)"/>
     <use xlink:href="#DejaVuSansMono-30" transform="translate(903.076172 0)"/>
     <use xlink:href="#DejaVuSansMono-2c" transform="translate(963.28125 0)"/>
     <use xlink:href="#DejaVuSansMono-20" transform="translate(1023.486328 0)"/>
     <use xlink:href="#DejaVuSansMono-31" transform="translate(1083.691406 0)"/>
     <use xlink:href="#DejaVuSansMono-30" transform="translate(1143.896484 0)"/>
     <use xlink:href="#DejaVuSansMono-30" transform="translate(1204.101562 0)"/>
     <use xlink:href="#DejaVuSansMono-5d" transform="translate(1264.306641 0)"/>
     <use xlink:href="#DejaVuSansMono-2c" transform="translate(1324.511719 0)"/>
    </g>
   </g>
   <g id="text_11">
    <!--       [200, 0], [200, 100], ... -->
    <g style="fill: #c2185b" transform="translate(16.3224 110.344271) scale(0.06 -0.06)">
     <defs>
      <path id="DejaVuSansMono-32" d="M 1166 531 
L 3309 531 
L 3309 0 
L 475 0 
L 475 531 
Q 1059 1147 1496 1619 
Q 1934 2091 2100 2284 
Q 2413 2666 2522 2902 
Q 2631 3138 2631 3384 
Q 2631 3775 2401 3997 
Q 2172 4219 1772 4219 
Q 1488 4219 1175 4116 
Q 863 4013 513 3803 
L 513 4441 
Q 834 4594 1145 4672 
Q 1456 4750 1759 4750 
Q 2444 4750 2861 4386 
Q 3278 4022 3278 3431 
Q 3278 3131 3139 2831 
Q 3000 2531 2688 2169 
Q 2513 1966 2180 1606 
Q 1847 1247 1166 531 
z
" transform="scale(0.015625)"/>
     </defs>
     <use xlink:href="#DejaVuSansMono-20"/>
     <use xlink:href="#DejaVuSansMono-20" transform="translate(60.205078 0)"/>
     <use xlink:href="#DejaVuSansMono-20" transform="translate(120.410156 0)"/>
     <use xlink:href="#DejaVuSansMono-20" transform="translate(180.615234 0)"/>
     <use xlink:href="#DejaVuSansMono-20" transform="translate(240.820312 0)"/>
     <use xlink:href="#DejaVuSansMono-20" transform="translate(301.025391 0)"/>
     <use xlink:href="#DejaVuSansMono-5b" transform="translate(361.230469 0)"/>
     <use xlink:href="#DejaVuSansMono-32" transform="translate(421.435547 0)"/>
     <use xlink:href="#DejaVuSansMono-30" transform="translate(481.640625 0)"/>
     <use xlink:href="#DejaVuSansMono-30" transform="translate(541.845703 0)"/>
     <use xlink:href="#DejaVuSansMono-2c" transform="translate(602.050781 0)"/>
     <use xlink:href="#DejaVuSansMono-20" transform="translate(662.255859 0)"/>
     <use xlink:href="#DejaVuSansMono-30" transform="translate(722.460938 0)"/>
     <use xlink:href="#DejaVuSansMono-5d" transform="translate(782.666016 0)"/>
     <use xlink:href="#DejaVuSansMono-2c" transform="translate(842.871094 0)"/>
     <use xlink:href="#DejaVuSansMono-20" transform="translate(903.076172 0)"/>
     <use xlink:href="#DejaVuSansMono-5b" transform="translate(963.28125 0)"/>
     <use xlink:href="#DejaVuSansMono-32" transform="translate(1023.486328 0)"/>
     <use xlink:href="#DejaVuSansMono-30" transform="translate(1083.691406 0)"/>
     <use xlink:href="#DejaVuSansMono-30" transform="translate(1143.896484 0)"/>
     <use xlink:href="#DejaVuSansMono-2c" transform="translate(1204.101562 0)"/>
     <use xlink:href="#DejaVuSansMono-20" transform="translate(1264.306641 0)"/>
     <use xlink:href="#DejaVuSansMono-31" transform="translate(1324.511719 0)"/>
     <use xlink:href="#DejaVuSansMono-30" transform="translate(1384.716797 0)"/>
     <use xlink:href="#DejaVuSansMono-30" transform="translate(1444.921875 0)"/>
     <use xlink:href="#DejaVuSansMono-5d" transform="translate(1505.126953 0)"/>
     <use xlink:href="#DejaVuSansMono-2c" transform="translate(1565.332031 0)"/>
     <use xlink:href="#DejaVuSansMono-20" transform="translate(1625.537109 0)"/>
     <use xlink:href="#DejaVuSansMono-2e" transform="translate(1685.742188 0)"/>
     <use xlink:href="#DejaVuSansMono-2e" transform="translate(1745.947266 0)"/>
     <use xlink:href="#DejaVuSansMono-2e" transform="translate(1806.152344 0)"/>
    </g>
   </g>
   <g id="text_12">
    <!--     ], -->
    <g style="fill: #c2185b" transform="translate(16.3224 119.173604) scale(0.06 -0.06)">
     <use xlink:href="#DejaVuSansMono-20"/>
     <use xlink:href="#DejaVuSansMono-20" transform="translate(60.205078 0)"/>
     <use xlink:href="#DejaVuSansMono-20" transform="translate(120.410156 0)"/>
     <use xlink:href="#DejaVuSansMono-20" transform="translate(180.615234 0)"/>
     <use xlink:href="#DejaVuSansMono-5d" transform="translate(240.820312 0)"/>
     <use xlink:href="#DejaVuSansMono-2c" transform="translate(301.025391 0)"/>
    </g>
   </g>
   <g id="text_13">
    <!--     "contact_shapes": ["circle"], -->
    <g style="fill: #c2185b" transform="translate(16.3224 128.002938) scale(0.06 -0.06)">
     <defs>
      <path id="DejaVuSansMono-68" d="M 3284 2169 
L 3284 0 
L 2706 0 
L 2706 2169 
Q 2706 2641 2540 2862 
Q 2375 3084 2022 3084 
Q 1619 3084 1401 2798 
Q 1184 2513 1184 1978 
L 1184 0 
L 609 0 
L 609 4863 
L 1184 4863 
L 1184 2975 
Q 1338 3275 1600 3429 
Q 1863 3584 2222 3584 
Q 2756 3584 3020 3232 
Q 3284 2881 3284 2169 
z
" transform="scale(0.015625)"/>
     </defs>
     <use xlink:href="#DejaVuSansMono-20"/>
     <use xlink:href="#DejaVuSansMono-20" transform="translate(60.205078 0)"/>
     <use xlink:href="#DejaVuSansMono-20" transform="translate(120.410156 0)"/>
     <use xlink:href="#DejaVuSansMono-20" transform="translate(180.615234 0)"/>
     <use xlink:href="#DejaVuSansMono-22" transform="translate(240.820312 0)"/>
     <use xlink:href="#DejaVuSansMono-63" transform="translate(301.025391 0)"/>
     <use xlink:href="#DejaVuSansMono-6f" transform="translate(361.230469 0)"/>
     <use xlink:href="#DejaVuSansMono-6e" transform="translate(421.435547 0)"/>
     <use xlink:href="#DejaVuSansMono-74" transform="translate(481.640625 0)"/>
     <use xlink:href="#DejaVuSansMono-61" transform="translate(541.845703 0)"/>
     <use xlink:href="#DejaVuSansMono-63" transform="translate(602.050781 0)"/>
     <use xlink:href="#DejaVuSansMono-74" transform="translate(662.255859 0)"/>
     <use xlink:href="#DejaVuSansMono-5f" transform="translate(722.460938 0)"/>
     <use xlink:href="#DejaVuSansMono-73" transform="translate(782.666016 0)"/>
     <use xlink:href="#DejaVuSansMono-68" transform="translate(842.871094 0)"/>
     <use xlink:href="#DejaVuSansMono-61" transform="translate(903.076172 0)"/>
     <use xlink:href="#DejaVuSansMono-70" transform="translate(963.28125 0)"/>
     <use xlink:href="#DejaVuSansMono-65" transform="translate(1023.486328 0)"/>
     <use xlink:href="#DejaVuSansMono-73" transform="translate(1083.691406 0)"/>
     <use xlink:href="#DejaVuSansMono-22" transform="translate(1143.896484 0)"/>
     <use xlink:href="#DejaVuSansMono-3a" transform="translate(1204.101562 0)"/>
     <use xlink:href="#DejaVuSansMono-20" transform="translate(1264.306641 0)"/>
     <use xlink:href="#DejaVuSansMono-5b" transform="translate(1324.511719 0)"/>
     <use xlink:href="#DejaVuSansMono-22" transform="translate(1384.716797 0)"/>
     <use xlink:href="#DejaVuSansMono-63" transform="translate(1444.921875 0)"/>
     <use xlink:href="#DejaVuSansMono-69" transform="translate(1505.126953 0)"/>
     <use xlink:href="#DejaVuSansMono-72" transform="translate(1565.332031 0)"/>
     <use xlink:href="#DejaVuSansMono-63" transform="translate(1625.537109 0)"/>
     <use xlink:href="#DejaVuSansMono-6c" transform="translate(1685.742188 0)"/>
     <use xlink:href="#DejaVuSansMono-65" transform="translate(1745.947266 0)"/>
     <use xlink:href="#DejaVuSansMono-22" transform="translate(1806.152344 0)"/>
     <use xlink:href="#DejaVuSansMono-5d" transform="translate(1866.357422 0)"/>
     <use xlink:href="#DejaVuSansMono-2c" transform="translate(1926.5625 0)"/>
    </g>
   </g>
   <g id="text_14">
    <!--     "contact_shape_params": [ -->
    <g style="fill: #c2185b" transform="translate(16.3224 136.800396) scale(0.06 -0.06)">
     <use xlink:href="#DejaVuSansMono-20"/>
     <use xlink:href="#DejaVuSansMono-20" transform="translate(60.205078 0)"/>
     <use xlink:href="#DejaVuSansMono-20" transform="translate(120.410156 0)"/>
     <use xlink:href="#DejaVuSansMono-20" transform="translate(180.615234 0)"/>
     <use xlink:href="#DejaVuSansMono-22" transform="translate(240.820312 0)"/>
     <use xlink:href="#DejaVuSansMono-63" transform="translate(301.025391 0)"/>
     <use xlink:href="#DejaVuSansMono-6f" transform="translate(361.230469 0)"/>
     <use xlink:href="#DejaVuSansMono-6e" transform="translate(421.435547 0)"/>
     <use xlink:href="#DejaVuSansMono-74" transform="translate(481.640625 0)"/>
     <use xlink:href="#DejaVuSansMono-61" transform="translate(541.845703 0)"/>
     <use xlink:href="#DejaVuSansMono-63" transform="translate(602.050781 0)"/>
     <use xlink:href="#DejaVuSansMono-74" transform="translate(662.255859 0)"/>
     <use xlink:href="#DejaVuSansMono-5f" transform="translate(722.460938 0)"/>
     <use xlink:href="#DejaVuSansMono-73" transform="translate(782.666016 0)"/>
     <use xlink:href="#DejaVuSansMono-68" transform="translate(842.871094 0)"/>
     <use xlink:href="#DejaVuSansMono-61" transform="translate(903.076172 0)"/>
     <use xlink:href="#DejaVuSansMono-70" transform="translate(963.28125 0)"/>
     <use xlink:href="#DejaVuSansMono-65" transform="translate(1023.486328 0)"/>
     <use xlink:href="#DejaVuSansMono-5f" transform="translate(1083.691406 0)"/>
     <use xlink:href="#DejaVuSansMono-70" transform="translate(1143.896484 0)"/>
     <use xlink:href="#DejaVuSansMono-61" transform="translate(1204.101562 0)"/>
     <use xlink:href="#DejaVuSansMono-72" transform="translate(1264.306641 0)"/>
     <use xlink:href="#DejaVuSansMono-61" transform="translate(1324.511719 0)"/>
     <use xlink:href="#DejaVuSansMono-6d" transform="translate(1384.716797 0)"/>
     <use xlink:href="#DejaVuSansMono-73" transform="translate(1444.921875 0)"/>
     <use xlink:href="#DejaVuSansMono-22" transform="translate(1505.126953 0)"/>
     <use xlink:href="#DejaVuSansMono-3a" transform="translate(1565.332031 0)"/>
     <use xlink:href="#DejaVuSansMono-20" transform="translate(1625.537109 0)"/>
     <use xlink:href="#DejaVuSansMono-5b" transform="translate(1685.742188 0)"/>
    </g>
   </g>
   <g id="text_15">
    <!--       {"radius": 7.5} -->
    <g style="fill: #c2185b" transform="translate(16.3224 145.661604) scale(0.06 -0.06)">
     <defs>
      <path id="DejaVuSansMono-37" d="M 434 4666 
L 3372 4666 
L 3372 4397 
L 1703 0 
L 1044 0 
L 2669 4134 
L 434 4134 
L 434 4666 
z
" transform="scale(0.015625)"/>
     </defs>
     <use xlink:href="#DejaVuSansMono-20"/>
     <use xlink:href="#DejaVuSansMono-20" transform="translate(60.205078 0)"/>
     <use xlink:href="#DejaVuSansMono-20" transform="translate(120.410156 0)"/>
     <use xlink:href="#DejaVuSansMono-20" transform="translate(180.615234 0)"/>
     <use xlink:href="#DejaVuSansMono-20" transform="translate(240.820312 0)"/>
     <use xlink:href="#DejaVuSansMono-20" transform="translate(301.025391 0)"/>
     <use xlink:href="#DejaVuSansMono-7b" transform="translate(361.230469 0)"/>
     <use xlink:href="#DejaVuSansMono-22" transform="translate(421.435547 0)"/>
     <use xlink:href="#DejaVuSansMono-72" transform="translate(481.640625 0)"/>
     <use xlink:href="#DejaVuSansMono-61" transform="translate(541.845703 0)"/>
     <use xlink:href="#DejaVuSansMono-64" transform="translate(602.050781 0)"/>
     <use xlink:href="#DejaVuSansMono-69" transform="translate(662.255859 0)"/>
     <use xlink:href="#DejaVuSansMono-75" transform="translate(722.460938 0)"/>
     <use xlink:href="#DejaVuSansMono-73" transform="translate(782.666016 0)"/>
     <use xlink:href="#DejaVuSansMono-22" transform="translate(842.871094 0)"/>
     <use xlink:href="#DejaVuSansMono-3a" transform="translate(903.076172 0)"/>
     <use xlink:href="#DejaVuSansMono-20" transform="translate(963.28125 0)"/>
     <use xlink:href="#DejaVuSansMono-37" transform="translate(1023.486328 0)"/>
     <use xlink:href="#DejaVuSansMono-2e" transform="translate(1083.691406 0)"/>
     <use xlink:href="#DejaVuSansMono-35" transform="translate(1143.896484 0)"/>
     <use xlink:href="#DejaVuSansMono-7d" transform="translate(1204.101562 0)"/>
    </g>
   </g>
   <g id="text_16">
    <!--     ], -->
    <g style="fill: #c2185b" transform="translate(16.3224 154.490938) scale(0.06 -0.06)">
     <use xlink:href="#DejaVuSansMono-20"/>
     <use xlink:href="#DejaVuSansMono-20" transform="translate(60.205078 0)"/>
     <use xlink:href="#DejaVuSansMono-20" transform="translate(120.410156 0)"/>
     <use xlink:href="#DejaVuSansMono-20" transform="translate(180.615234 0)"/>
     <use xlink:href="#DejaVuSansMono-5d" transform="translate(240.820312 0)"/>
     <use xlink:href="#DejaVuSansMono-2c" transform="translate(301.025391 0)"/>
    </g>
   </g>
   <g id="text_17">
    <!--     "contact_ids": ["1","8",...], -->
    <g style="fill: #c2185b" transform="translate(16.3224 163.288396) scale(0.06 -0.06)">
     <use xlink:href="#DejaVuSansMono-20"/>
     <use xlink:href="#DejaVuSansMono-20" transform="translate(60.205078 0)"/>
     <use xlink:href="#DejaVuSansMono-20" transform="translate(120.410156 0)"/>
     <use xlink:href="#DejaVuSansMono-20" transform="translate(180.615234 0)"/>
     <use xlink:href="#DejaVuSansMono-22" transform="translate(240.820312 0)"/>
     <use xlink:href="#DejaVuSansMono-63" transform="translate(301.025391 0)"/>
     <use xlink:href="#DejaVuSansMono-6f" transform="translate(361.230469 0)"/>
     <use xlink:href="#DejaVuSansMono-6e" transform="translate(421.435547 0)"/>
     <use xlink:href="#DejaVuSansMono-74" transform="translate(481.640625 0)"/>
     <use xlink:href="#DejaVuSansMono-61" transform="translate(541.845703 0)"/>
     <use xlink:href="#DejaVuSansMono-63" transform="translate(602.050781 0)"/>
     <use xlink:href="#DejaVuSansMono-74" transform="translate(662.255859 0)"/>
     <use xlink:href="#DejaVuSansMono-5f" transform="translate(722.460938 0)"/>
     <use xlink:href="#DejaVuSansMono-69" transform="translate(782.666016 0)"/>
     <use xlink:href="#DejaVuSansMono-64" transform="translate(842.871094 0)"/>
     <use xlink:href="#DejaVuSansMono-73" transform="translate(903.076172 0)"/>
     <use xlink:href="#DejaVuSansMono-22" transform="translate(963.28125 0)"/>
     <use xlink:href="#DejaVuSansMono-3a" transform="translate(1023.486328 0)"/>
     <use xlink:href="#DejaVuSansMono-20" transform="translate(1083.691406 0)"/>
     <use xlink:href="#DejaVuSansMono-5b" transform="translate(1143.896484 0)"/>
     <use xlink:href="#DejaVuSansMono-22" transform="translate(1204.101562 0)"/>
     <use xlink:href="#DejaVuSansMono-31" transform="translate(1264.306641 0)"/>
     <use xlink:href="#DejaVuSansMono-22" transform="translate(1324.511719 0)"/>
     <use xlink:href="#DejaVuSansMono-2c" transform="translate(1384.716797 0)"/>
     <use xlink:href="#DejaVuSansMono-22" transform="translate(1444.921875 0)"/>
     <use xlink:href="#DejaVuSansMono-38" transform="translate(1505.126953 0)"/>
     <use xlink:href="#DejaVuSansMono-22" transform="translate(1565.332031 0)"/>
     <use xlink:href="#DejaVuSansMono-2c" transform="translate(1625.537109 0)"/>
     <use xlink:href="#DejaVuSansMono-2e" transform="translate(1685.742188 0)"/>
     <use xlink:href="#DejaVuSansMono-2e" transform="translate(1745.947266 0)"/>
     <use xlink:href="#DejaVuSansMono-2e" transform="translate(1806.152344 0)"/>
     <use xlink:href="#DejaVuSansMono-5d" transform="translate(1866.357422 0)"/>
     <use xlink:href="#DejaVuSansMono-2c" transform="translate(1926.5625 0)"/>
    </g>
   </g>
   <g id="text_18">
    <!--     "shank_ids": ["0","0",...], -->
    <g style="fill: #c2185b" transform="translate(16.3224 172.117729) scale(0.06 -0.06)">
     <defs>
      <path id="DejaVuSansMono-6b" d="M 738 4863 
L 1331 4863 
L 1331 2047 
L 2841 3500 
L 3541 3500 
L 2163 2181 
L 3756 0 
L 3053 0 
L 1759 1806 
L 1331 1403 
L 1331 0 
L 738 0 
L 738 4863 
z
" transform="scale(0.015625)"/>
     </defs>
     <use xlink:href="#DejaVuSansMono-20"/>
     <use xlink:href="#DejaVuSansMono-20" transform="translate(60.205078 0)"/>
     <use xlink:href="#DejaVuSansMono-20" transform="translate(120.410156 0)"/>
     <use xlink:href="#DejaVuSansMono-20" transform="translate(180.615234 0)"/>
     <use xlink:href="#DejaVuSansMono-22" transform="translate(240.820312 0)"/>
     <use xlink:href="#DejaVuSansMono-73" transform="translate(301.025391 0)"/>
     <use xlink:href="#DejaVuSansMono-68" transform="translate(361.230469 0)"/>
     <use xlink:href="#DejaVuSansMono-61" transform="translate(421.435547 0)"/>
     <use xlink:href="#DejaVuSansMono-6e" transform="translate(481.640625 0)"/>
     <use xlink:href="#DejaVuSansMono-6b" transform="translate(541.845703 0)"/>
     <use xlink:href="#DejaVuSansMono-5f" transform="translate(602.050781 0)"/>
     <use xlink:href="#DejaVuSansMono-69" transform="translate(662.255859 0)"/>
     <use xlink:href="#DejaVuSansMono-64" transform="translate(722.460938 0)"/>
     <use xlink:href="#DejaVuSansMono-73" transform="translate(782.666016 0)"/>
     <use xlink:href="#DejaVuSansMono-22" transform="translate(842.871094 0)"/>
     <use xlink:href="#DejaVuSansMono-3a" transform="translate(903.076172 0)"/>
     <use xlink:href="#DejaVuSansMono-20" transform="translate(963.28125 0)"/>
     <use xlink:href="#DejaVuSansMono-5b" transform="translate(1023.486328 0)"/>
     <use xlink:href="#DejaVuSansMono-22" transform="translate(1083.691406 0)"/>
     <use xlink:href="#DejaVuSansMono-30" transform="translate(1143.896484 0)"/>
     <use xlink:href="#DejaVuSansMono-22" transform="translate(1204.101562 0)"/>
     <use xlink:href="#DejaVuSansMono-2c" transform="translate(1264.306641 0)"/>
     <use xlink:href="#DejaVuSansMono-22" transform="translate(1324.511719 0)"/>
     <use xlink:href="#DejaVuSansMono-30" transform="translate(1384.716797 0)"/>
     <use xlink:href="#DejaVuSansMono-22" transform="translate(1444.921875 0)"/>
     <use xlink:href="#DejaVuSansMono-2c" transform="translate(1505.126953 0)"/>
     <use xlink:href="#DejaVuSansMono-2e" transform="translate(1565.332031 0)"/>
     <use xlink:href="#DejaVuSansMono-2e" transform="translate(1625.537109 0)"/>
     <use xlink:href="#DejaVuSansMono-2e" transform="translate(1685.742188 0)"/>
     <use xlink:href="#DejaVuSansMono-5d" transform="translate(1745.947266 0)"/>
     <use xlink:href="#DejaVuSansMono-2c" transform="translate(1806.152344 0)"/>
    </g>
   </g>
   <g id="text_19">
    <!--     "probe_planar_contour": [ -->
    <g style="fill: #388e3c" transform="translate(16.3224 180.978938) scale(0.06 -0.06)">
     <use xlink:href="#DejaVuSansMono-20"/>
     <use xlink:href="#DejaVuSansMono-20" transform="translate(60.205078 0)"/>
     <use xlink:href="#DejaVuSansMono-20" transform="translate(120.410156 0)"/>
     <use xlink:href="#DejaVuSansMono-20" transform="translate(180.615234 0)"/>
     <use xlink:href="#DejaVuSansMono-22" transform="translate(240.820312 0)"/>
     <use xlink:href="#DejaVuSansMono-70" transform="translate(301.025391 0)"/>
     <use xlink:href="#DejaVuSansMono-72" transform="translate(361.230469 0)"/>
     <use xlink:href="#DejaVuSansMono-6f" transform="translate(421.435547 0)"/>
     <use xlink:href="#DejaVuSansMono-62" transform="translate(481.640625 0)"/>
     <use xlink:href="#DejaVuSansMono-65" transform="translate(541.845703 0)"/>
     <use xlink:href="#DejaVuSansMono-5f" transform="translate(602.050781 0)"/>
     <use xlink:href="#DejaVuSansMono-70" transform="translate(662.255859 0)"/>
     <use xlink:href="#DejaVuSansMono-6c" transform="translate(722.460938 0)"/>
     <use xlink:href="#DejaVuSansMono-61" transform="translate(782.666016 0)"/>
     <use xlink:href="#DejaVuSansMono-6e" transform="translate(842.871094 0)"/>
     <use xlink:href="#DejaVuSansMono-61" transform="translate(903.076172 0)"/>
     <use xlink:href="#DejaVuSansMono-72" transform="translate(963.28125 0)"/>
     <use xlink:href="#DejaVuSansMono-5f" transform="translate(1023.486328 0)"/>
     <use xlink:href="#DejaVuSansMono-63" transform="translate(1083.691406 0)"/>
     <use xlink:href="#DejaVuSansMono-6f" transform="translate(1143.896484 0)"/>
     <use xlink:href="#DejaVuSansMono-6e" transform="translate(1204.101562 0)"/>
     <use xlink:href="#DejaVuSansMono-74" transform="translate(1264.306641 0)"/>
     <use xlink:href="#DejaVuSansMono-6f" transform="translate(1324.511719 0)"/>
     <use xlink:href="#DejaVuSansMono-75" transform="translate(1384.716797 0)"/>
     <use xlink:href="#DejaVuSansMono-72" transform="translate(1444.921875 0)"/>
     <use xlink:href="#DejaVuSansMono-22" transform="translate(1505.126953 0)"/>
     <use xlink:href="#DejaVuSansMono-3a" transform="translate(1565.332031 0)"/>
     <use xlink:href="#DejaVuSansMono-20" transform="translate(1625.537109 0)"/>
     <use xlink:href="#DejaVuSansMono-5b" transform="translate(1685.742188 0)"/>
    </g>
   </g>
   <g id="text_20">
    <!--       [-20, 720], [-20, -20], -->
    <g style="fill: #388e3c" transform="translate(16.3224 189.808271) scale(0.06 -0.06)">
     <use xlink:href="#DejaVuSansMono-20"/>
     <use xlink:href="#DejaVuSansMono-20" transform="translate(60.205078 0)"/>
     <use xlink:href="#DejaVuSansMono-20" transform="translate(120.410156 0)"/>
     <use xlink:href="#DejaVuSansMono-20" transform="translate(180.615234 0)"/>
     <use xlink:href="#DejaVuSansMono-20" transform="translate(240.820312 0)"/>
     <use xlink:href="#DejaVuSansMono-20" transform="translate(301.025391 0)"/>
     <use xlink:href="#DejaVuSansMono-5b" transform="translate(361.230469 0)"/>
     <use xlink:href="#DejaVuSansMono-2d" transform="translate(421.435547 0)"/>
     <use xlink:href="#DejaVuSansMono-32" transform="translate(481.640625 0)"/>
     <use xlink:href="#DejaVuSansMono-30" transform="translate(541.845703 0)"/>
     <use xlink:href="#DejaVuSansMono-2c" transform="translate(602.050781 0)"/>
     <use xlink:href="#DejaVuSansMono-20" transform="translate(662.255859 0)"/>
     <use xlink:href="#DejaVuSansMono-37" transform="translate(722.460938 0)"/>
     <use xlink:href="#DejaVuSansMono-32" transform="translate(782.666016 0)"/>
     <use xlink:href="#DejaVuSansMono-30" transform="translate(842.871094 0)"/>
     <use xlink:href="#DejaVuSansMono-5d" transform="translate(903.076172 0)"/>
     <use xlink:href="#DejaVuSansMono-2c" transform="translate(963.28125 0)"/>
     <use xlink:href="#DejaVuSansMono-20" transform="translate(1023.486328 0)"/>
     <use xlink:href="#DejaVuSansMono-5b" transform="translate(1083.691406 0)"/>
     <use xlink:href="#DejaVuSansMono-2d" transform="translate(1143.896484 0)"/>
     <use xlink:href="#DejaVuSansMono-32" transform="translate(1204.101562 0)"/>
     <use xlink:href="#DejaVuSansMono-30" transform="translate(1264.306641 0)"/>
     <use xlink:href="#DejaVuSansMono-2c" transform="translate(1324.511719 0)"/>
     <use xlink:href="#DejaVuSansMono-20" transform="translate(1384.716797 0)"/>
     <use xlink:href="#DejaVuSansMono-2d" transform="translate(1444.921875 0)"/>
     <use xlink:href="#DejaVuSansMono-32" transform="translate(1505.126953 0)"/>
     <use xlink:href="#DejaVuSansMono-30" transform="translate(1565.332031 0)"/>
     <use xlink:href="#DejaVuSansMono-5d" transform="translate(1625.537109 0)"/>
     <use xlink:href="#DejaVuSansMono-2c" transform="translate(1685.742188 0)"/>
    </g>
   </g>
   <g id="text_21">
    <!--       [620, 720], ... -->
    <g style="fill: #388e3c" transform="translate(16.3224 198.637604) scale(0.06 -0.06)">
     <defs>
      <path id="DejaVuSansMono-36" d="M 3097 4563 
L 3097 3981 
Q 2900 4097 2678 4158 
Q 2456 4219 2216 4219 
Q 1616 4219 1306 3767 
Q 997 3316 997 2438 
Q 1147 2750 1412 2917 
Q 1678 3084 2022 3084 
Q 2697 3084 3067 2670 
Q 3438 2256 3438 1497 
Q 3438 741 3056 325 
Q 2675 -91 1984 -91 
Q 1172 -91 794 492 
Q 416 1075 416 2328 
Q 416 3509 870 4129 
Q 1325 4750 2188 4750 
Q 2419 4750 2650 4701 
Q 2881 4653 3097 4563 
z
M 1972 2591 
Q 1569 2591 1337 2300 
Q 1106 2009 1106 1497 
Q 1106 984 1337 693 
Q 1569 403 1972 403 
Q 2391 403 2603 679 
Q 2816 956 2816 1497 
Q 2816 2041 2603 2316 
Q 2391 2591 1972 2591 
z
" transform="scale(0.015625)"/>
     </defs>
     <use xlink:href="#DejaVuSansMono-20"/>
     <use xlink:href="#DejaVuSansMono-20" transform="translate(60.205078 0)"/>
     <use xlink:href="#DejaVuSansMono-20" transform="translate(120.410156 0)"/>
     <use xlink:href="#DejaVuSansMono-20" transform="translate(180.615234 0)"/>
     <use xlink:href="#DejaVuSansMono-20" transform="translate(240.820312 0)"/>
     <use xlink:href="#DejaVuSansMono-20" transform="translate(301.025391 0)"/>
     <use xlink:href="#DejaVuSansMono-5b" transform="translate(361.230469 0)"/>
     <use xlink:href="#DejaVuSansMono-36" transform="translate(421.435547 0)"/>
     <use xlink:href="#DejaVuSansMono-32" transform="translate(481.640625 0)"/>
     <use xlink:href="#DejaVuSansMono-30" transform="translate(541.845703 0)"/>
     <use xlink:href="#DejaVuSansMono-2c" transform="translate(602.050781 0)"/>
     <use xlink:href="#DejaVuSansMono-20" transform="translate(662.255859 0)"/>
     <use xlink:href="#DejaVuSansMono-37" transform="translate(722.460938 0)"/>
     <use xlink:href="#DejaVuSansMono-32" transform="translate(782.666016 0)"/>
     <use xlink:href="#DejaVuSansMono-30" transform="translate(842.871094 0)"/>
     <use xlink:href="#DejaVuSansMono-5d" transform="translate(903.076172 0)"/>
     <use xlink:href="#DejaVuSansMono-2c" transform="translate(963.28125 0)"/>
     <use xlink:href="#DejaVuSansMono-20" transform="translate(1023.486328 0)"/>
     <use xlink:href="#DejaVuSansMono-2e" transform="translate(1083.691406 0)"/>
     <use xlink:href="#DejaVuSansMono-2e" transform="translate(1143.896484 0)"/>
     <use xlink:href="#DejaVuSansMono-2e" transform="translate(1204.101562 0)"/>
    </g>
   </g>
   <g id="text_22">
    <!--     ], -->
    <g style="fill: #388e3c" transform="translate(16.3224 207.466938) scale(0.06 -0.06)">
     <use xlink:href="#DejaVuSansMono-20"/>
     <use xlink:href="#DejaVuSansMono-20" transform="translate(60.205078 0)"/>
     <use xlink:href="#DejaVuSansMono-20" transform="translate(120.410156 0)"/>
     <use xlink:href="#DejaVuSansMono-20" transform="translate(180.615234 0)"/>
     <use xlink:href="#DejaVuSansMono-5d" transform="translate(240.820312 0)"/>
     <use xlink:href="#DejaVuSansMono-2c" transform="translate(301.025391 0)"/>
    </g>
   </g>
   <g id="text_23">
    <!--     "device_channel_indices": [ -->
    <g style="fill: #f57c00" transform="translate(16.3224 216.296271) scale(0.06 -0.06)">
     <defs>
      <path id="DejaVuSansMono-76" d="M 313 3500 
L 909 3500 
L 1925 563 
L 2944 3500 
L 3541 3500 
L 2297 0 
L 1556 0 
L 313 3500 
z
" transform="scale(0.015625)"/>
     </defs>
     <use xlink:href="#DejaVuSansMono-20"/>
     <use xlink:href="#DejaVuSansMono-20" transform="translate(60.205078 0)"/>
     <use xlink:href="#DejaVuSansMono-20" transform="translate(120.410156 0)"/>
     <use xlink:href="#DejaVuSansMono-20" transform="translate(180.615234 0)"/>
     <use xlink:href="#DejaVuSansMono-22" transform="translate(240.820312 0)"/>
     <use xlink:href="#DejaVuSansMono-64" transform="translate(301.025391 0)"/>
     <use xlink:href="#DejaVuSansMono-65" transform="translate(361.230469 0)"/>
     <use xlink:href="#DejaVuSansMono-76" transform="translate(421.435547 0)"/>
     <use xlink:href="#DejaVuSansMono-69" transform="translate(481.640625 0)"/>
     <use xlink:href="#DejaVuSansMono-63" transform="translate(541.845703 0)"/>
     <use xlink:href="#DejaVuSansMono-65" transform="translate(602.050781 0)"/>
     <use xlink:href="#DejaVuSansMono-5f" transform="translate(662.255859 0)"/>
     <use xlink:href="#DejaVuSansMono-63" transform="translate(722.460938 0)"/>
     <use xlink:href="#DejaVuSansMono-68" transform="translate(782.666016 0)"/>
     <use xlink:href="#DejaVuSansMono-61" transform="translate(842.871094 0)"/>
     <use xlink:href="#DejaVuSansMono-6e" transform="translate(903.076172 0)"/>
     <use xlink:href="#DejaVuSansMono-6e" transform="translate(963.28125 0)"/>
     <use xlink:href="#DejaVuSansMono-65" transform="translate(1023.486328 0)"/>
     <use xlink:href="#DejaVuSansMono-6c" transform="translate(1083.691406 0)"/>
     <use xlink:href="#DejaVuSansMono-5f" transform="translate(1143.896484 0)"/>
     <use xlink:href="#DejaVuSansMono-69" transform="translate(1204.101562 0)"/>
     <use xlink:href="#DejaVuSansMono-6e" transform="translate(1264.306641 0)"/>
     <use xlink:href="#DejaVuSansMono-64" transform="translate(1324.511719 0)"/>
     <use xlink:href="#DejaVuSansMono-69" transform="translate(1384.716797 0)"/>
     <use xlink:href="#DejaVuSansMono-63" transform="translate(1444.921875 0)"/>
     <use xlink:href="#DejaVuSansMono-65" transform="translate(1505.126953 0)"/>
     <use xlink:href="#DejaVuSansMono-73" transform="translate(1565.332031 0)"/>
     <use xlink:href="#DejaVuSansMono-22" transform="translate(1625.537109 0)"/>
     <use xlink:href="#DejaVuSansMono-3a" transform="translate(1685.742188 0)"/>
     <use xlink:href="#DejaVuSansMono-20" transform="translate(1745.947266 0)"/>
     <use xlink:href="#DejaVuSansMono-5b" transform="translate(1806.152344 0)"/>
    </g>
   </g>
   <g id="text_24">
    <!--       0, 7, 1, 6, 2, 5, ... -->
    <g style="fill: #f57c00" transform="translate(16.3224 225.125604) scale(0.06 -0.06)">
     <use xlink:href="#DejaVuSansMono-20"/>
     <use xlink:href="#DejaVuSansMono-20" transform="translate(60.205078 0)"/>
     <use xlink:href="#DejaVuSansMono-20" transform="translate(120.410156 0)"/>
     <use xlink:href="#DejaVuSansMono-20" transform="translate(180.615234 0)"/>
     <use xlink:href="#DejaVuSansMono-20" transform="translate(240.820312 0)"/>
     <use xlink:href="#DejaVuSansMono-20" transform="translate(301.025391 0)"/>
     <use xlink:href="#DejaVuSansMono-30" transform="translate(361.230469 0)"/>
     <use xlink:href="#DejaVuSansMono-2c" transform="translate(421.435547 0)"/>
     <use xlink:href="#DejaVuSansMono-20" transform="translate(481.640625 0)"/>
     <use xlink:href="#DejaVuSansMono-37" transform="translate(541.845703 0)"/>
     <use xlink:href="#DejaVuSansMono-2c" transform="translate(602.050781 0)"/>
     <use xlink:href="#DejaVuSansMono-20" transform="translate(662.255859 0)"/>
     <use xlink:href="#DejaVuSansMono-31" transform="translate(722.460938 0)"/>
     <use xlink:href="#DejaVuSansMono-2c" transform="translate(782.666016 0)"/>
     <use xlink:href="#DejaVuSansMono-20" transform="translate(842.871094 0)"/>
     <use xlink:href="#DejaVuSansMono-36" transform="translate(903.076172 0)"/>
     <use xlink:href="#DejaVuSansMono-2c" transform="translate(963.28125 0)"/>
     <use xlink:href="#DejaVuSansMono-20" transform="translate(1023.486328 0)"/>
     <use xlink:href="#DejaVuSansMono-32" transform="translate(1083.691406 0)"/>
     <use xlink:href="#DejaVuSansMono-2c" transform="translate(1143.896484 0)"/>
     <use xlink:href="#DejaVuSansMono-20" transform="translate(1204.101562 0)"/>
     <use xlink:href="#DejaVuSansMono-35" transform="translate(1264.306641 0)"/>
     <use xlink:href="#DejaVuSansMono-2c" transform="translate(1324.511719 0)"/>
     <use xlink:href="#DejaVuSansMono-20" transform="translate(1384.716797 0)"/>
     <use xlink:href="#DejaVuSansMono-2e" transform="translate(1444.921875 0)"/>
     <use xlink:href="#DejaVuSansMono-2e" transform="translate(1505.126953 0)"/>
     <use xlink:href="#DejaVuSansMono-2e" transform="translate(1565.332031 0)"/>
    </g>
   </g>
   <g id="text_25">
    <!--     ] -->
    <g style="fill: #f57c00" transform="translate(16.3224 233.954938) scale(0.06 -0.06)">
     <use xlink:href="#DejaVuSansMono-20"/>
     <use xlink:href="#DejaVuSansMono-20" transform="translate(60.205078 0)"/>
     <use xlink:href="#DejaVuSansMono-20" transform="translate(120.410156 0)"/>
     <use xlink:href="#DejaVuSansMono-20" transform="translate(180.615234 0)"/>
     <use xlink:href="#DejaVuSansMono-5d" transform="translate(240.820312 0)"/>
    </g>
   </g>
   <g id="text_26">
    <!--   }] -->
    <g style="fill: #212121" transform="translate(16.3224 242.784271) scale(0.06 -0.06)">
     <use xlink:href="#DejaVuSansMono-20"/>
     <use xlink:href="#DejaVuSansMono-20" transform="translate(60.205078 0)"/>
     <use xlink:href="#DejaVuSansMono-7d" transform="translate(120.410156 0)"/>
     <use xlink:href="#DejaVuSansMono-5d" transform="translate(180.615234 0)"/>
    </g>
   </g>
   <g id="text_27">
    <!-- } -->
    <g style="fill: #212121" transform="translate(16.3224 251.613604) scale(0.06 -0.06)">
     <use xlink:href="#DejaVuSansMono-7d"/>
    </g>
   </g>
   <g id="text_28">
    <!-- probes.tsv -->
    <g style="fill: #388e3c" transform="translate(21.6234 278.067703) scale(0.055 -0.055)">
     <defs>
      <path id="Arial-BoldMT-70" d="M 434 3319 
L 1253 3319 
L 1253 2831 
Q 1413 3081 1684 3237 
Q 1956 3394 2288 3394 
Q 2866 3394 3269 2941 
Q 3672 2488 3672 1678 
Q 3672 847 3265 386 
Q 2859 -75 2281 -75 
Q 2006 -75 1782 34 
Q 1559 144 1313 409 
L 1313 -1263 
L 434 -1263 
L 434 3319 
z
M 1303 1716 
Q 1303 1156 1525 889 
Q 1747 622 2066 622 
Q 2372 622 2575 867 
Q 2778 1113 2778 1672 
Q 2778 2194 2568 2447 
Q 2359 2700 2050 2700 
Q 1728 2700 1515 2451 
Q 1303 2203 1303 1716 
z
" transform="scale(0.015625)"/>
      <path id="Arial-BoldMT-72" d="M 1300 0 
L 422 0 
L 422 3319 
L 1238 3319 
L 1238 2847 
Q 1447 3181 1614 3287 
Q 1781 3394 1994 3394 
Q 2294 3394 2572 3228 
L 2300 2463 
Q 2078 2606 1888 2606 
Q 1703 2606 1575 2504 
Q 1447 2403 1373 2137 
Q 1300 1872 1300 1025 
L 1300 0 
z
" transform="scale(0.015625)"/>
      <path id="Arial-BoldMT-6f" d="M 256 1706 
Q 256 2144 472 2553 
Q 688 2963 1083 3178 
Q 1478 3394 1966 3394 
Q 2719 3394 3200 2905 
Q 3681 2416 3681 1669 
Q 3681 916 3195 420 
Q 2709 -75 1972 -75 
Q 1516 -75 1102 131 
Q 688 338 472 736 
Q 256 1134 256 1706 
z
M 1156 1659 
Q 1156 1166 1390 903 
Q 1625 641 1969 641 
Q 2313 641 2545 903 
Q 2778 1166 2778 1666 
Q 2778 2153 2545 2415 
Q 2313 2678 1969 2678 
Q 1625 2678 1390 2415 
Q 1156 2153 1156 1659 
z
" transform="scale(0.015625)"/>
      <path id="Arial-BoldMT-62" d="M 422 0 
L 422 4581 
L 1300 4581 
L 1300 2931 
Q 1706 3394 2263 3394 
Q 2869 3394 3266 2955 
Q 3663 2516 3663 1694 
Q 3663 844 3258 384 
Q 2853 -75 2275 -75 
Q 1991 -75 1714 67 
Q 1438 209 1238 488 
L 1238 0 
L 422 0 
z
M 1294 1731 
Q 1294 1216 1456 969 
Q 1684 619 2063 619 
Q 2353 619 2558 867 
Q 2763 1116 2763 1650 
Q 2763 2219 2556 2470 
Q 2350 2722 2028 2722 
Q 1713 2722 1503 2476 
Q 1294 2231 1294 1731 
z
" transform="scale(0.015625)"/>
      <path id="Arial-BoldMT-65" d="M 2381 1056 
L 3256 909 
Q 3088 428 2723 176 
Q 2359 -75 1813 -75 
Q 947 -75 531 491 
Q 203 944 203 1634 
Q 203 2459 634 2926 
Q 1066 3394 1725 3394 
Q 2466 3394 2894 2905 
Q 3322 2416 3303 1406 
L 1103 1406 
Q 1113 1016 1316 798 
Q 1519 581 1822 581 
Q 2028 581 2168 693 
Q 2309 806 2381 1056 
z
M 2431 1944 
Q 2422 2325 2234 2523 
Q 2047 2722 1778 2722 
Q 1491 2722 1303 2513 
Q 1116 2303 1119 1944 
L 2431 1944 
z
" transform="scale(0.015625)"/>
      <path id="Arial-BoldMT-73" d="M 150 947 
L 1031 1081 
Q 1088 825 1259 692 
Q 1431 559 1741 559 
Q 2081 559 2253 684 
Q 2369 772 2369 919 
Q 2369 1019 2306 1084 
Q 2241 1147 2013 1200 
Q 950 1434 666 1628 
Q 272 1897 272 2375 
Q 272 2806 612 3100 
Q 953 3394 1669 3394 
Q 2350 3394 2681 3172 
Q 3013 2950 3138 2516 
L 2309 2363 
Q 2256 2556 2107 2659 
Q 1959 2763 1684 2763 
Q 1338 2763 1188 2666 
Q 1088 2597 1088 2488 
Q 1088 2394 1175 2328 
Q 1294 2241 1995 2081 
Q 2697 1922 2975 1691 
Q 3250 1456 3250 1038 
Q 3250 581 2869 253 
Q 2488 -75 1741 -75 
Q 1063 -75 667 200 
Q 272 475 150 947 
z
" transform="scale(0.015625)"/>
      <path id="Arial-BoldMT-2e" d="M 459 0 
L 459 878 
L 1338 878 
L 1338 0 
L 459 0 
z
" transform="scale(0.015625)"/>
      <path id="Arial-BoldMT-74" d="M 1981 3319 
L 1981 2619 
L 1381 2619 
L 1381 1281 
Q 1381 875 1398 808 
Q 1416 741 1477 697 
Q 1538 653 1625 653 
Q 1747 653 1978 738 
L 2053 56 
Q 1747 -75 1359 -75 
Q 1122 -75 931 4 
Q 741 84 652 211 
Q 563 338 528 553 
Q 500 706 500 1172 
L 500 2619 
L 97 2619 
L 97 3319 
L 500 3319 
L 500 3978 
L 1381 4491 
L 1381 3319 
L 1981 3319 
z
" transform="scale(0.015625)"/>
      <path id="Arial-BoldMT-76" d="M 1372 0 
L 34 3319 
L 956 3319 
L 1581 1625 
L 1763 1059 
Q 1834 1275 1853 1344 
Q 1897 1484 1947 1625 
L 2578 3319 
L 3481 3319 
L 2163 0 
L 1372 0 
z
" transform="scale(0.015625)"/>
     </defs>
     <use xlink:href="#Arial-BoldMT-70"/>
     <use xlink:href="#Arial-BoldMT-72" transform="translate(61.083984 0)"/>
     <use xlink:href="#Arial-BoldMT-6f" transform="translate(100 0)"/>
     <use xlink:href="#Arial-BoldMT-62" transform="translate(161.083984 0)"/>
     <use xlink:href="#Arial-BoldMT-65" transform="translate(222.167969 0)"/>
     <use xlink:href="#Arial-BoldMT-73" transform="translate(277.783203 0)"/>
     <use xlink:href="#Arial-BoldMT-2e" transform="translate(333.398438 0)"/>
     <use xlink:href="#Arial-BoldMT-74" transform="translate(361.181641 0)"/>
     <use xlink:href="#Arial-BoldMT-73" transform="translate(394.482422 0)"/>
     <use xlink:href="#Arial-BoldMT-76" transform="translate(450.097656 0)"/>
    </g>
   </g>
   <g id="text_29">
    <!-- electrodes.tsv -->
    <g style="fill: #c2185b" transform="translate(89.4762 278.067703) scale(0.055 -0.055)">
     <defs>
      <path id="Arial-BoldMT-6c" d="M 459 0 
L 459 4581 
L 1338 4581 
L 1338 0 
L 459 0 
z
" transform="scale(0.015625)"/>
      <path id="Arial-BoldMT-63" d="M 3353 2338 
L 2488 2181 
Q 2444 2441 2289 2572 
Q 2134 2703 1888 2703 
Q 1559 2703 1364 2476 
Q 1169 2250 1169 1719 
Q 1169 1128 1367 884 
Q 1566 641 1900 641 
Q 2150 641 2309 783 
Q 2469 925 2534 1272 
L 3397 1125 
Q 3263 531 2881 228 
Q 2500 -75 1859 -75 
Q 1131 -75 698 384 
Q 266 844 266 1656 
Q 266 2478 700 2936 
Q 1134 3394 1875 3394 
Q 2481 3394 2839 3133 
Q 3197 2872 3353 2338 
z
" transform="scale(0.015625)"/>
      <path id="Arial-BoldMT-64" d="M 3503 0 
L 2688 0 
L 2688 488 
Q 2484 203 2207 64 
Q 1931 -75 1650 -75 
Q 1078 -75 670 386 
Q 263 847 263 1672 
Q 263 2516 659 2955 
Q 1056 3394 1663 3394 
Q 2219 3394 2625 2931 
L 2625 4581 
L 3503 4581 
L 3503 0 
z
M 1159 1731 
Q 1159 1200 1306 963 
Q 1519 619 1900 619 
Q 2203 619 2415 876 
Q 2628 1134 2628 1647 
Q 2628 2219 2422 2470 
Q 2216 2722 1894 2722 
Q 1581 2722 1370 2473 
Q 1159 2225 1159 1731 
z
" transform="scale(0.015625)"/>
     </defs>
     <use xlink:href="#Arial-BoldMT-65"/>
     <use xlink:href="#Arial-BoldMT-6c" transform="translate(55.615234 0)"/>
     <use xlink:href="#Arial-BoldMT-65" transform="translate(83.398438 0)"/>
     <use xlink:href="#Arial-BoldMT-63" transform="translate(139.013672 0)"/>
     <use xlink:href="#Arial-BoldMT-74" transform="translate(194.628906 0)"/>
     <use xlink:href="#Arial-BoldMT-72" transform="translate(227.929688 0)"/>
     <use xlink:href="#Arial-BoldMT-6f" transform="translate(266.845703 0)"/>
     <use xlink:href="#Arial-BoldMT-64" transform="translate(327.929688 0)"/>
     <use xlink:href="#Arial-BoldMT-65" transform="translate(389.013672 0)"/>
     <use xlink:href="#Arial-BoldMT-73" transform="translate(444.628906 0)"/>
     <use xlink:href="#Arial-BoldMT-2e" transform="translate(500.244141 0)"/>
     <use xlink:href="#Arial-BoldMT-74" transform="translate(528.027344 0)"/>
     <use xlink:href="#Arial-BoldMT-73" transform="translate(561.328125 0)"/>
     <use xlink:href="#Arial-BoldMT-76" transform="translate(616.943359 0)"/>
    </g>
   </g>
   <g id="text_30">
    <!-- channels.tsv -->
    <g style="fill: #f57c00" transform="translate(157.329 278.067703) scale(0.055 -0.055)">
     <defs>
      <path id="Arial-BoldMT-68" d="M 1334 4581 
L 1334 2897 
Q 1759 3394 2350 3394 
Q 2653 3394 2897 3281 
Q 3141 3169 3264 2994 
Q 3388 2819 3433 2606 
Q 3478 2394 3478 1947 
L 3478 0 
L 2600 0 
L 2600 1753 
Q 2600 2275 2550 2415 
Q 2500 2556 2373 2639 
Q 2247 2722 2056 2722 
Q 1838 2722 1666 2615 
Q 1494 2509 1414 2295 
Q 1334 2081 1334 1663 
L 1334 0 
L 456 0 
L 456 4581 
L 1334 4581 
z
" transform="scale(0.015625)"/>
      <path id="Arial-BoldMT-61" d="M 1116 2306 
L 319 2450 
Q 453 2931 781 3162 
Q 1109 3394 1756 3394 
Q 2344 3394 2631 3255 
Q 2919 3116 3036 2902 
Q 3153 2688 3153 2116 
L 3144 1091 
Q 3144 653 3186 445 
Q 3228 238 3344 0 
L 2475 0 
Q 2441 88 2391 259 
Q 2369 338 2359 363 
Q 2134 144 1878 34 
Q 1622 -75 1331 -75 
Q 819 -75 523 203 
Q 228 481 228 906 
Q 228 1188 362 1408 
Q 497 1628 739 1745 
Q 981 1863 1438 1950 
Q 2053 2066 2291 2166 
L 2291 2253 
Q 2291 2506 2166 2614 
Q 2041 2722 1694 2722 
Q 1459 2722 1328 2630 
Q 1197 2538 1116 2306 
z
M 2291 1594 
Q 2122 1538 1756 1459 
Q 1391 1381 1278 1306 
Q 1106 1184 1106 997 
Q 1106 813 1243 678 
Q 1381 544 1594 544 
Q 1831 544 2047 700 
Q 2206 819 2256 991 
Q 2291 1103 2291 1419 
L 2291 1594 
z
" transform="scale(0.015625)"/>
      <path id="Arial-BoldMT-6e" d="M 3478 0 
L 2600 0 
L 2600 1694 
Q 2600 2231 2544 2389 
Q 2488 2547 2361 2634 
Q 2234 2722 2056 2722 
Q 1828 2722 1647 2597 
Q 1466 2472 1398 2265 
Q 1331 2059 1331 1503 
L 1331 0 
L 453 0 
L 453 3319 
L 1269 3319 
L 1269 2831 
Q 1703 3394 2363 3394 
Q 2653 3394 2893 3289 
Q 3134 3184 3257 3021 
Q 3381 2859 3429 2653 
Q 3478 2447 3478 2063 
L 3478 0 
z
" transform="scale(0.015625)"/>
     </defs>
     <use xlink:href="#Arial-BoldMT-63"/>
     <use xlink:href="#Arial-BoldMT-68" transform="translate(55.615234 0)"/>
     <use xlink:href="#Arial-BoldMT-61" transform="translate(116.699219 0)"/>
     <use xlink:href="#Arial-BoldMT-6e" transform="translate(172.314453 0)"/>
     <use xlink:href="#Arial-BoldMT-6e" transform="translate(233.398438 0)"/>
     <use xlink:href="#Arial-BoldMT-65" transform="translate(294.482422 0)"/>
     <use xlink:href="#Arial-BoldMT-6c" transform="translate(350.097656 0)"/>
     <use xlink:href="#Arial-BoldMT-73" transform="translate(377.880859 0)"/>
     <use xlink:href="#Arial-BoldMT-2e" transform="translate(433.496094 0)"/>
     <use xlink:href="#Arial-BoldMT-74" transform="translate(461.279297 0)"/>
     <use xlink:href="#Arial-BoldMT-73" transform="translate(494.580078 0)"/>
     <use xlink:href="#Arial-BoldMT-76" transform="translate(550.195312 0)"/>
    </g>
   </g>
  </g>
 </g>
 <defs>
  <clipPath id="pcc767f1972">
   <rect x="3.6" y="3.6" width="212.04" height="277.2"/>
  </clipPath>
 </defs>
</svg>
