<?xml version="1.0" encoding="utf-8" standalone="no"?>
<!DOCTYPE svg PUBLIC "-//W3C//DTD SVG 1.1//EN"
  "http://www.w3.org/Graphics/SVG/1.1/DTD/svg11.dtd">
<svg xmlns:xlink="http://www.w3.org/1999/xlink" width="47.745625pt" height="207.575488pt" viewBox="0 0 47.745625 207.575488" xmlns="http://www.w3.org/2000/svg" version="1.1">
 <metadata>
  <rdf:RDF xmlns:dc="http://purl.org/dc/elements/1.1/" xmlns:cc="http://creativecommons.org/ns#" xmlns:rdf="http://www.w3.org/1999/02/22-rdf-syntax-ns#">
   <cc:Work>
    <dc:type rdf:resource="http://purl.org/dc/dcmitype/StillImage"/>
    <dc:date>2026-02-26T13:19:26.409112</dc:date>
    <dc:format>image/svg+xml</dc:format>
    <dc:creator>
     <cc:Agent>
      <dc:title>Matplotlib v3.10.8, https://matplotlib.org/</dc:title>
     </cc:Agent>
    </dc:creator>
   </cc:Work>
  </rdf:RDF>
 </metadata>
 <defs>
  <style type="text/css">*{stroke-linejoin: round; stroke-linecap: butt}</style>
 </defs>
 <g id="figure_1">
  <g id="patch_1">
   <path d="M 0 207.575488 
L 47.745625 207.575488 
L 47.745625 0 
L 0 0 
L 0 207.575488 
z
" style="fill: none"/>
  </g>
  <g id="axes_1">
   <g id="PolyCollection_1">
    <path d="M 20.581501 110.495392 
L 20.581501 107.547949 
L 22.742959 107.547949 
L 22.742959 110.495392 
z
" clip-path="url(#p4cb4c1eff9)" style="fill: #546e7a; stroke: #37474f; stroke-width: 0.3"/>
    <path d="M 20.581501 120.320203 
L 20.581501 117.372759 
L 22.742959 117.372759 
L 22.742959 120.320203 
z
" clip-path="url(#p4cb4c1eff9)" style="fill: #546e7a; stroke: #37474f; stroke-width: 0.3"/>
    <path d="M 20.581501 105.582987 
L 20.581501 102.635544 
L 22.742959 102.635544 
L 22.742959 105.582987 
z
" clip-path="url(#p4cb4c1eff9)" style="fill: #546e7a; stroke: #37474f; stroke-width: 0.3"/>
    <path d="M 25.002666 98.21438 
L 25.002666 95.266937 
L 27.164124 95.266937 
L 27.164124 98.21438 
z
" clip-path="url(#p4cb4c1eff9)" style="fill: #546e7a; stroke: #37474f; stroke-width: 0.3"/>
    <path d="M 25.002666 152.250835 
L 25.002666 149.303392 
L 27.164124 149.303392 
L 27.164124 152.250835 
z
" clip-path="url(#p4cb4c1eff9)" style="fill: #546e7a; stroke: #37474f; stroke-width: 0.3"/>
    <path d="M 20.581501 144.882228 
L 20.581501 141.934785 
L 22.742959 141.934785 
L 22.742959 144.882228 
z
" clip-path="url(#p4cb4c1eff9)" style="fill: #546e7a; stroke: #37474f; stroke-width: 0.3"/>
    <path d="M 20.581501 164.531848 
L 20.581501 161.584405 
L 22.742959 161.584405 
L 22.742959 164.531848 
z
" clip-path="url(#p4cb4c1eff9)" style="fill: #546e7a; stroke: #37474f; stroke-width: 0.3"/>
    <path d="M 25.002666 132.601215 
L 25.002666 129.653772 
L 27.164124 129.653772 
L 27.164124 132.601215 
z
" clip-path="url(#p4cb4c1eff9)" style="fill: #546e7a; stroke: #37474f; stroke-width: 0.3"/>
    <path d="M 25.002666 157.163241 
L 25.002666 154.215797 
L 27.164124 154.215797 
L 27.164124 157.163241 
z
" clip-path="url(#p4cb4c1eff9)" style="fill: #546e7a; stroke: #37474f; stroke-width: 0.3"/>
    <path d="M 20.581501 139.969823 
L 20.581501 137.02238 
L 22.742959 137.02238 
L 22.742959 139.969823 
z
" clip-path="url(#p4cb4c1eff9)" style="fill: #546e7a; stroke: #37474f; stroke-width: 0.3"/>
    <path d="M 20.581501 169.444253 
L 20.581501 166.49681 
L 22.742959 166.49681 
L 22.742959 169.444253 
z
" clip-path="url(#p4cb4c1eff9)" style="fill: #546e7a; stroke: #37474f; stroke-width: 0.3"/>
    <path d="M 25.002666 88.38957 
L 25.002666 85.442127 
L 27.164124 85.442127 
L 27.164124 88.38957 
z
" clip-path="url(#p4cb4c1eff9)" style="fill: #546e7a; stroke: #37474f; stroke-width: 0.3"/>
    <path d="M 20.581501 125.232608 
L 20.581501 122.285165 
L 22.742959 122.285165 
L 22.742959 125.232608 
z
" clip-path="url(#p4cb4c1eff9)" style="fill: #546e7a; stroke: #37474f; stroke-width: 0.3"/>
    <path d="M 20.581501 100.670582 
L 20.581501 97.723139 
L 22.742959 97.723139 
L 22.742959 100.670582 
z
" clip-path="url(#p4cb4c1eff9)" style="fill: #546e7a; stroke: #37474f; stroke-width: 0.3"/>
    <path d="M 25.002666 108.03919 
L 25.002666 105.091747 
L 27.164124 105.091747 
L 27.164124 108.03919 
z
" clip-path="url(#p4cb4c1eff9)" style="fill: #546e7a; stroke: #37474f; stroke-width: 0.3"/>
    <path d="M 25.002666 117.864 
L 25.002666 114.916557 
L 27.164124 114.916557 
L 27.164124 117.864 
z
" clip-path="url(#p4cb4c1eff9)" style="fill: #546e7a; stroke: #37474f; stroke-width: 0.3"/>
    <path d="M 25.002666 39.265519 
L 25.002666 36.318076 
L 27.164124 36.318076 
L 27.164124 39.265519 
z
" clip-path="url(#p4cb4c1eff9)" style="fill: #546e7a; stroke: #37474f; stroke-width: 0.3"/>
    <path d="M 25.002666 58.915139 
L 25.002666 55.967696 
L 27.164124 55.967696 
L 27.164124 58.915139 
z
" clip-path="url(#p4cb4c1eff9)" style="fill: #546e7a; stroke: #37474f; stroke-width: 0.3"/>
    <path d="M 25.002666 73.652354 
L 25.002666 70.704911 
L 27.164124 70.704911 
L 27.164124 73.652354 
z
" clip-path="url(#p4cb4c1eff9)" style="fill: #546e7a; stroke: #37474f; stroke-width: 0.3"/>
    <path d="M 25.002666 24.528304 
L 25.002666 21.580861 
L 27.164124 21.580861 
L 27.164124 24.528304 
z
" clip-path="url(#p4cb4c1eff9)" style="fill: #546e7a; stroke: #37474f; stroke-width: 0.3"/>
    <path d="M 20.581501 90.845772 
L 20.581501 87.898329 
L 22.742959 87.898329 
L 22.742959 90.845772 
z
" clip-path="url(#p4cb4c1eff9)" style="fill: #546e7a; stroke: #37474f; stroke-width: 0.3"/>
    <path d="M 20.581501 95.758177 
L 20.581501 92.810734 
L 22.742959 92.810734 
L 22.742959 95.758177 
z
" clip-path="url(#p4cb4c1eff9)" style="fill: #546e7a; stroke: #37474f; stroke-width: 0.3"/>
    <path d="M 20.581501 66.283747 
L 20.581501 63.336304 
L 22.742959 63.336304 
L 22.742959 66.283747 
z
" clip-path="url(#p4cb4c1eff9)" style="fill: #546e7a; stroke: #37474f; stroke-width: 0.3"/>
    <path d="M 20.581501 31.896911 
L 20.581501 28.949468 
L 22.742959 28.949468 
L 22.742959 31.896911 
z
" clip-path="url(#p4cb4c1eff9)" style="fill: #546e7a; stroke: #37474f; stroke-width: 0.3"/>
    <path d="M 20.581501 81.020962 
L 20.581501 78.073519 
L 22.742959 78.073519 
L 22.742959 81.020962 
z
" clip-path="url(#p4cb4c1eff9)" style="fill: #546e7a; stroke: #37474f; stroke-width: 0.3"/>
    <path d="M 20.581501 17.159696 
L 20.581501 14.212253 
L 22.742959 14.212253 
L 22.742959 17.159696 
z
" clip-path="url(#p4cb4c1eff9)" style="fill: #546e7a; stroke: #37474f; stroke-width: 0.3"/>
    <path d="M 20.581501 56.458937 
L 20.581501 53.511494 
L 22.742959 53.511494 
L 22.742959 56.458937 
z
" clip-path="url(#p4cb4c1eff9)" style="fill: #546e7a; stroke: #37474f; stroke-width: 0.3"/>
    <path d="M 20.581501 41.721722 
L 20.581501 38.774278 
L 22.742959 38.774278 
L 22.742959 41.721722 
z
" clip-path="url(#p4cb4c1eff9)" style="fill: #546e7a; stroke: #37474f; stroke-width: 0.3"/>
    <path d="M 25.002666 34.353114 
L 25.002666 31.405671 
L 27.164124 31.405671 
L 27.164124 34.353114 
z
" clip-path="url(#p4cb4c1eff9)" style="fill: #546e7a; stroke: #37474f; stroke-width: 0.3"/>
    <path d="M 25.002666 19.615899 
L 25.002666 16.668456 
L 27.164124 16.668456 
L 27.164124 19.615899 
z
" clip-path="url(#p4cb4c1eff9)" style="fill: #546e7a; stroke: #37474f; stroke-width: 0.3"/>
    <path d="M 25.002666 112.951595 
L 25.002666 110.004152 
L 27.164124 110.004152 
L 27.164124 112.951595 
z
" clip-path="url(#p4cb4c1eff9)" style="fill: #546e7a; stroke: #37474f; stroke-width: 0.3"/>
    <path d="M 25.002666 63.827544 
L 25.002666 60.880101 
L 27.164124 60.880101 
L 27.164124 63.827544 
z
" clip-path="url(#p4cb4c1eff9)" style="fill: #546e7a; stroke: #37474f; stroke-width: 0.3"/>
    <path d="M 20.581501 26.984506 
L 20.581501 24.037063 
L 22.742959 24.037063 
L 22.742959 26.984506 
z
" clip-path="url(#p4cb4c1eff9)" style="fill: #546e7a; stroke: #37474f; stroke-width: 0.3"/>
    <path d="M 20.581501 85.933367 
L 20.581501 82.985924 
L 22.742959 82.985924 
L 22.742959 85.933367 
z
" clip-path="url(#p4cb4c1eff9)" style="fill: #546e7a; stroke: #37474f; stroke-width: 0.3"/>
    <path d="M 20.581501 22.072101 
L 20.581501 19.124658 
L 22.742959 19.124658 
L 22.742959 22.072101 
z
" clip-path="url(#p4cb4c1eff9)" style="fill: #546e7a; stroke: #37474f; stroke-width: 0.3"/>
    <path d="M 20.581501 71.196152 
L 20.581501 68.248709 
L 22.742959 68.248709 
L 22.742959 71.196152 
z
" clip-path="url(#p4cb4c1eff9)" style="fill: #546e7a; stroke: #37474f; stroke-width: 0.3"/>
    <path d="M 20.581501 36.809316 
L 20.581501 33.861873 
L 22.742959 33.861873 
L 22.742959 36.809316 
z
" clip-path="url(#p4cb4c1eff9)" style="fill: #546e7a; stroke: #37474f; stroke-width: 0.3"/>
    <path d="M 20.581501 76.108557 
L 20.581501 73.161114 
L 22.742959 73.161114 
L 22.742959 76.108557 
z
" clip-path="url(#p4cb4c1eff9)" style="fill: #546e7a; stroke: #37474f; stroke-width: 0.3"/>
    <path d="M 20.581501 51.546532 
L 20.581501 48.599089 
L 22.742959 48.599089 
L 22.742959 51.546532 
z
" clip-path="url(#p4cb4c1eff9)" style="fill: #546e7a; stroke: #37474f; stroke-width: 0.3"/>
    <path d="M 20.581501 61.371342 
L 20.581501 58.423899 
L 22.742959 58.423899 
L 22.742959 61.371342 
z
" clip-path="url(#p4cb4c1eff9)" style="fill: #546e7a; stroke: #37474f; stroke-width: 0.3"/>
    <path d="M 20.581501 46.634127 
L 20.581501 43.686684 
L 22.742959 43.686684 
L 22.742959 46.634127 
z
" clip-path="url(#p4cb4c1eff9)" style="fill: #546e7a; stroke: #37474f; stroke-width: 0.3"/>
    <path d="M 25.002666 78.564759 
L 25.002666 75.617316 
L 27.164124 75.617316 
L 27.164124 78.564759 
z
" clip-path="url(#p4cb4c1eff9)" style="fill: #546e7a; stroke: #37474f; stroke-width: 0.3"/>
    <path d="M 25.002666 14.703494 
L 25.002666 11.756051 
L 27.164124 11.756051 
L 27.164124 14.703494 
z
" clip-path="url(#p4cb4c1eff9)" style="fill: #546e7a; stroke: #37474f; stroke-width: 0.3"/>
    <path d="M 25.002666 83.477165 
L 25.002666 80.529722 
L 27.164124 80.529722 
L 27.164124 83.477165 
z
" clip-path="url(#p4cb4c1eff9)" style="fill: #546e7a; stroke: #37474f; stroke-width: 0.3"/>
    <path d="M 25.002666 29.440709 
L 25.002666 26.493266 
L 27.164124 26.493266 
L 27.164124 29.440709 
z
" clip-path="url(#p4cb4c1eff9)" style="fill: #546e7a; stroke: #37474f; stroke-width: 0.3"/>
    <path d="M 25.002666 68.739949 
L 25.002666 65.792506 
L 27.164124 65.792506 
L 27.164124 68.739949 
z
" clip-path="url(#p4cb4c1eff9)" style="fill: #546e7a; stroke: #37474f; stroke-width: 0.3"/>
    <path d="M 25.002666 54.002734 
L 25.002666 51.055291 
L 27.164124 51.055291 
L 27.164124 54.002734 
z
" clip-path="url(#p4cb4c1eff9)" style="fill: #546e7a; stroke: #37474f; stroke-width: 0.3"/>
    <path d="M 25.002666 49.090329 
L 25.002666 46.142886 
L 27.164124 46.142886 
L 27.164124 49.090329 
z
" clip-path="url(#p4cb4c1eff9)" style="fill: #546e7a; stroke: #37474f; stroke-width: 0.3"/>
    <path d="M 20.581501 115.407797 
L 20.581501 112.460354 
L 22.742959 112.460354 
L 22.742959 115.407797 
z
" clip-path="url(#p4cb4c1eff9)" style="fill: #546e7a; stroke: #37474f; stroke-width: 0.3"/>
    <path d="M 25.002666 44.177924 
L 25.002666 41.230481 
L 27.164124 41.230481 
L 27.164124 44.177924 
z
" clip-path="url(#p4cb4c1eff9)" style="fill: #546e7a; stroke: #37474f; stroke-width: 0.3"/>
    <path d="M 25.002666 103.126785 
L 25.002666 100.179342 
L 27.164124 100.179342 
L 27.164124 103.126785 
z
" clip-path="url(#p4cb4c1eff9)" style="fill: #546e7a; stroke: #37474f; stroke-width: 0.3"/>
    <path d="M 25.002666 122.776405 
L 25.002666 119.828962 
L 27.164124 119.828962 
L 27.164124 122.776405 
z
" clip-path="url(#p4cb4c1eff9)" style="fill: #546e7a; stroke: #37474f; stroke-width: 0.3"/>
    <path d="M 25.002666 93.301975 
L 25.002666 90.354532 
L 27.164124 90.354532 
L 27.164124 93.301975 
z
" clip-path="url(#p4cb4c1eff9)" style="fill: #546e7a; stroke: #37474f; stroke-width: 0.3"/>
    <path d="M 20.581501 130.145013 
L 20.581501 127.19757 
L 22.742959 127.19757 
L 22.742959 130.145013 
z
" clip-path="url(#p4cb4c1eff9)" style="fill: #546e7a; stroke: #37474f; stroke-width: 0.3"/>
    <path d="M 25.002666 147.33843 
L 25.002666 144.390987 
L 27.164124 144.390987 
L 27.164124 147.33843 
z
" clip-path="url(#p4cb4c1eff9)" style="fill: #546e7a; stroke: #37474f; stroke-width: 0.3"/>
    <path d="M 25.002666 127.68881 
L 25.002666 124.741367 
L 27.164124 124.741367 
L 27.164124 127.68881 
z
" clip-path="url(#p4cb4c1eff9)" style="fill: #546e7a; stroke: #37474f; stroke-width: 0.3"/>
    <path d="M 20.581501 149.794633 
L 20.581501 146.84719 
L 22.742959 146.84719 
L 22.742959 149.794633 
z
" clip-path="url(#p4cb4c1eff9)" style="fill: #546e7a; stroke: #37474f; stroke-width: 0.3"/>
    <path d="M 20.581501 154.707038 
L 20.581501 151.759595 
L 22.742959 151.759595 
L 22.742959 154.707038 
z
" clip-path="url(#p4cb4c1eff9)" style="fill: #546e7a; stroke: #37474f; stroke-width: 0.3"/>
    <path d="M 25.002666 142.426025 
L 25.002666 139.478582 
L 27.164124 139.478582 
L 27.164124 142.426025 
z
" clip-path="url(#p4cb4c1eff9)" style="fill: #546e7a; stroke: #37474f; stroke-width: 0.3"/>
    <path d="M 25.002666 162.075646 
L 25.002666 159.128203 
L 27.164124 159.128203 
L 27.164124 162.075646 
z
" clip-path="url(#p4cb4c1eff9)" style="fill: #546e7a; stroke: #37474f; stroke-width: 0.3"/>
    <path d="M 20.581501 135.057418 
L 20.581501 132.109975 
L 22.742959 132.109975 
L 22.742959 135.057418 
z
" clip-path="url(#p4cb4c1eff9)" style="fill: #546e7a; stroke: #37474f; stroke-width: 0.3"/>
    <path d="M 20.581501 159.619443 
L 20.581501 156.672 
L 22.742959 156.672 
L 22.742959 159.619443 
z
" clip-path="url(#p4cb4c1eff9)" style="fill: #546e7a; stroke: #37474f; stroke-width: 0.3"/>
    <path d="M 25.002666 137.51362 
L 25.002666 134.566177 
L 27.164124 134.566177 
L 27.164124 137.51362 
z
" clip-path="url(#p4cb4c1eff9)" style="fill: #546e7a; stroke: #37474f; stroke-width: 0.3"/>
    <path d="M 25.002666 166.988051 
L 25.002666 164.040608 
L 27.164124 164.040608 
L 27.164124 166.988051 
z
" clip-path="url(#p4cb4c1eff9)" style="fill: #546e7a; stroke: #37474f; stroke-width: 0.3"/>
   </g>
   <g id="PolyCollection_2">
    <defs>
     <path id="m3229bcbd2d" d="M 17.732306 -198.275639 
L 17.732306 -35.675032 
L 23.872813 -19.955336 
L 30.013319 -35.675032 
L 30.013319 -198.275639 
z
" style="stroke: #90a4ae; stroke-opacity: 0.5; stroke-width: 0.8"/>
    </defs>
    <g clip-path="url(#p4cb4c1eff9)">
     <use xlink:href="#m3229bcbd2d" x="0" y="207.575488" style="fill: #eceff1; fill-opacity: 0.5; stroke: #90a4ae; stroke-opacity: 0.5; stroke-width: 0.8"/>
    </g>
   </g>
   <g id="text_1">
    <!-- ASSY-156-H5 -->
    <g style="fill: #37474f" transform="translate(1.44 204.679706) scale(0.07 -0.07)">
     <defs>
      <path id="DejaVuSans-Oblique-41" d="M 2356 4666 
L 3072 4666 
L 3938 0 
L 3278 0 
L 3084 1197 
L 984 1197 
L 325 0 
L -341 0 
L 2356 4666 
z
M 2584 4044 
L 1275 1722 
L 2988 1722 
L 2584 4044 
z
" transform="scale(0.015625)"/>
      <path id="DejaVuSans-Oblique-53" d="M 3859 4513 
L 3738 3897 
Q 3422 4066 3111 4152 
Q 2800 4238 2509 4238 
Q 1944 4238 1609 3991 
Q 1275 3744 1275 3334 
Q 1275 3109 1398 2989 
Q 1522 2869 2034 2731 
L 2413 2638 
Q 3053 2472 3303 2217 
Q 3553 1963 3553 1503 
Q 3553 797 2998 353 
Q 2444 -91 1538 -91 
Q 1166 -91 791 -17 
Q 416 56 38 206 
L 166 856 
Q 513 641 861 531 
Q 1209 422 1556 422 
Q 2147 422 2503 684 
Q 2859 947 2859 1369 
Q 2859 1650 2717 1795 
Q 2575 1941 2106 2059 
L 1728 2156 
Q 1081 2325 845 2545 
Q 609 2766 609 3163 
Q 609 3859 1145 4304 
Q 1681 4750 2541 4750 
Q 2875 4750 3203 4690 
Q 3531 4631 3859 4513 
z
" transform="scale(0.015625)"/>
      <path id="DejaVuSans-Oblique-59" d="M 403 4666 
L 1081 4666 
L 1953 2747 
L 3616 4666 
L 4325 4666 
L 2209 2222 
L 1778 0 
L 1147 0 
L 1575 2222 
L 403 4666 
z
" transform="scale(0.015625)"/>
      <path id="DejaVuSans-Oblique-2d" d="M 391 2009 
L 2075 2009 
L 1978 1497 
L 288 1497 
L 391 2009 
z
" transform="scale(0.015625)"/>
      <path id="DejaVuSans-Oblique-31" d="M 416 531 
L 1447 531 
L 2144 4122 
L 978 3897 
L 1088 4441 
L 2247 4666 
L 2881 4666 
L 2075 531 
L 3103 531 
L 3003 0 
L 313 0 
L 416 531 
z
" transform="scale(0.015625)"/>
      <path id="DejaVuSans-Oblique-35" d="M 3719 4666 
L 3622 4141 
L 1691 4141 
L 1466 2988 
Q 1609 3034 1757 3056 
Q 1906 3078 2059 3078 
Q 2706 3078 3081 2731 
Q 3456 2384 3456 1791 
Q 3456 1375 3264 994 
Q 3072 613 2719 325 
Q 2469 125 2108 17 
Q 1747 -91 1319 -91 
Q 1038 -91 744 -41 
Q 450 9 128 109 
L 244 697 
Q 531 556 820 486 
Q 1109 416 1403 416 
Q 2013 416 2411 781 
Q 2809 1147 2809 1697 
Q 2809 2103 2548 2328 
Q 2288 2553 1819 2553 
Q 1572 2553 1305 2495 
Q 1038 2438 756 2322 
L 1209 4666 
L 3719 4666 
z
" transform="scale(0.015625)"/>
      <path id="DejaVuSans-Oblique-36" d="M 2938 1728 
Q 2938 2125 2734 2354 
Q 2531 2584 2181 2584 
Q 1697 2584 1367 2211 
Q 1038 1838 1038 1288 
Q 1038 875 1239 642 
Q 1441 409 1797 409 
Q 2284 409 2611 792 
Q 2938 1175 2938 1728 
z
M 3788 4556 
L 3681 3981 
Q 3500 4100 3265 4162 
Q 3031 4225 2766 4225 
Q 2119 4225 1726 3819 
Q 1334 3413 1141 2547 
Q 1369 2813 1670 2948 
Q 1972 3084 2322 3084 
Q 2894 3084 3233 2754 
Q 3572 2425 3572 1869 
Q 3572 1413 3405 1020 
Q 3238 628 2919 331 
Q 2700 128 2409 18 
Q 2119 -91 1791 -91 
Q 1147 -91 775 318 
Q 403 728 403 1441 
Q 403 2103 573 2717 
Q 744 3331 1050 3781 
Q 1372 4256 1830 4503 
Q 2288 4750 2841 4750 
Q 3084 4750 3321 4701 
Q 3559 4653 3788 4556 
z
" transform="scale(0.015625)"/>
      <path id="DejaVuSans-Oblique-48" d="M 1081 4666 
L 1716 4666 
L 1344 2753 
L 3634 2753 
L 4006 4666 
L 4641 4666 
L 3731 0 
L 3097 0 
L 3531 2222 
L 1241 2222 
L 806 0 
L 172 0 
L 1081 4666 
z
" transform="scale(0.015625)"/>
     </defs>
     <use xlink:href="#DejaVuSans-Oblique-41"/>
     <use xlink:href="#DejaVuSans-Oblique-53" transform="translate(68.408203 0)"/>
     <use xlink:href="#DejaVuSans-Oblique-53" transform="translate(128.259766 0)"/>
     <use xlink:href="#DejaVuSans-Oblique-59" transform="translate(191.736328 0)"/>
     <use xlink:href="#DejaVuSans-Oblique-2d" transform="translate(239.070312 0)"/>
     <use xlink:href="#DejaVuSans-Oblique-31" transform="translate(275.154297 0)"/>
     <use xlink:href="#DejaVuSans-Oblique-35" transform="translate(338.777344 0)"/>
     <use xlink:href="#DejaVuSans-Oblique-36" transform="translate(402.400391 0)"/>
     <use xlink:href="#DejaVuSans-Oblique-2d" transform="translate(466.023438 0)"/>
     <use xlink:href="#DejaVuSans-Oblique-48" transform="translate(502.107422 0)"/>
     <use xlink:href="#DejaVuSans-Oblique-35" transform="translate(577.302734 0)"/>
    </g>
   </g>
  </g>
 </g>
 <defs>
  <clipPath id="p4cb4c1eff9">
   <rect x="9.872458" y="1.44" width="28.000709" height="194.04"/>
  </clipPath>
 </defs>
</svg>
