<?xml version="1.0" encoding="utf-8" standalone="no"?>
<!DOCTYPE svg PUBLIC "-//W3C//DTD SVG 1.1//EN"
  "http://www.w3.org/Graphics/SVG/1.1/DTD/svg11.dtd">
<svg xmlns:xlink="http://www.w3.org/1999/xlink" width="170.27875pt" height="197.446061pt" viewBox="0 0 170.27875 197.446061" xmlns="http://www.w3.org/2000/svg" version="1.1">
 <metadata>
  <rdf:RDF xmlns:dc="http://purl.org/dc/elements/1.1/" xmlns:cc="http://creativecommons.org/ns#" xmlns:rdf="http://www.w3.org/1999/02/22-rdf-syntax-ns#">
   <cc:Work>
    <dc:type rdf:resource="http://purl.org/dc/dcmitype/StillImage"/>
    <dc:date>2026-02-26T15:07:09.695061</dc:date>
    <dc:format>image/svg+xml</dc:format>
    <dc:creator>
     <cc:Agent>
      <dc:title>Matplotlib v3.10.8, https://matplotlib.org/</dc:title>
     </cc:Agent>
    </dc:creator>
   </cc:Work>
  </rdf:RDF>
 </metadata>
 <defs>
  <style type="text/css">*{stroke-linejoin: round; stroke-linecap: butt}</style>
 </defs>
 <g id="figure_1">
  <g id="patch_1">
   <path d="M 0 197.446061 
L 170.27875 197.446061 
L 170.27875 0 
L 0 0 
z
" style="fill: #ffffff"/>
  </g>
  <g id="axes_1">
   <g id="patch_2">
    <path d="M 27.17875 174.789811 
L 166.67875 174.789811 
L 166.67875 23.979 
L 27.17875 23.979 
z
" style="fill: #ffffff"/>
   </g>
   <g id="patch_3">
    <path d="M 36.604426 31.519541 
L 36.604426 171.019541 
L 40.374696 186.100622 
L 44.144966 171.019541 
L 44.144966 31.519541 
L 74.307128 31.519541 
L 74.307128 171.019541 
L 78.077399 186.100622 
L 81.847669 171.019541 
L 81.847669 31.519541 
L 112.009831 31.519541 
L 112.009831 171.019541 
L 115.780101 186.100622 
L 119.550372 171.019541 
L 119.550372 31.519541 
L 149.712534 31.519541 
L 149.712534 171.019541 
L 153.482804 186.100622 
L 157.253074 171.019541 
L 157.253074 31.519541 
z
" clip-path="url(#p109d5ca7cf)" style="fill: #e8f5e9; opacity: 0.7; stroke: #388e3c; stroke-width: 1.2; stroke-linejoin: miter"/>
   </g>
   <g id="matplotlib.axis_1">
    <g id="xtick_1">
     <g id="line2d_1">
      <defs>
       <path id="m66a4b05b1b" d="M 0 0 
L 0 3 
" style="stroke: #616161; stroke-width: 0.5"/>
      </defs>
      <g>
       <use xlink:href="#m66a4b05b1b" x="40.374696" y="174.789811" style="fill: #616161; stroke: #616161; stroke-width: 0.5"/>
      </g>
     </g>
     <g id="text_1">
      <!-- 0 -->
      <g style="fill: #616161" transform="translate(38.706415 184.084498) scale(0.06 -0.06)">
       <defs>
        <path id="ArialMT-30" d="M 266 2259 
Q 266 3072 433 3567 
Q 600 4063 929 4331 
Q 1259 4600 1759 4600 
Q 2128 4600 2406 4451 
Q 2684 4303 2865 4023 
Q 3047 3744 3150 3342 
Q 3253 2941 3253 2259 
Q 3253 1453 3087 958 
Q 2922 463 2592 192 
Q 2263 -78 1759 -78 
Q 1097 -78 719 397 
Q 266 969 266 2259 
z
M 844 2259 
Q 844 1131 1108 757 
Q 1372 384 1759 384 
Q 2147 384 2411 759 
Q 2675 1134 2675 2259 
Q 2675 3391 2411 3762 
Q 2147 4134 1753 4134 
Q 1366 4134 1134 3806 
Q 844 3388 844 2259 
z
" transform="scale(0.015625)"/>
       </defs>
       <use xlink:href="#ArialMT-30"/>
      </g>
     </g>
    </g>
    <g id="xtick_2">
     <g id="line2d_2">
      <g>
       <use xlink:href="#m66a4b05b1b" x="78.077399" y="174.789811" style="fill: #616161; stroke: #616161; stroke-width: 0.5"/>
      </g>
     </g>
     <g id="text_2">
      <!-- 200 -->
      <g style="fill: #616161" transform="translate(73.072555 184.084498) scale(0.06 -0.06)">
       <defs>
        <path id="ArialMT-32" d="M 3222 541 
L 3222 0 
L 194 0 
Q 188 203 259 391 
Q 375 700 629 1000 
Q 884 1300 1366 1694 
Q 2113 2306 2375 2664 
Q 2638 3022 2638 3341 
Q 2638 3675 2398 3904 
Q 2159 4134 1775 4134 
Q 1369 4134 1125 3890 
Q 881 3647 878 3216 
L 300 3275 
Q 359 3922 746 4261 
Q 1134 4600 1788 4600 
Q 2447 4600 2831 4234 
Q 3216 3869 3216 3328 
Q 3216 3053 3103 2787 
Q 2991 2522 2730 2228 
Q 2469 1934 1863 1422 
Q 1356 997 1212 845 
Q 1069 694 975 541 
L 3222 541 
z
" transform="scale(0.015625)"/>
       </defs>
       <use xlink:href="#ArialMT-32"/>
       <use xlink:href="#ArialMT-30" transform="translate(55.615234 0)"/>
       <use xlink:href="#ArialMT-30" transform="translate(111.230469 0)"/>
      </g>
     </g>
    </g>
    <g id="xtick_3">
     <g id="line2d_3">
      <g>
       <use xlink:href="#m66a4b05b1b" x="115.780101" y="174.789811" style="fill: #616161; stroke: #616161; stroke-width: 0.5"/>
      </g>
     </g>
     <g id="text_3">
      <!-- 400 -->
      <g style="fill: #616161" transform="translate(110.775258 184.084498) scale(0.06 -0.06)">
       <defs>
        <path id="ArialMT-34" d="M 2069 0 
L 2069 1097 
L 81 1097 
L 81 1613 
L 2172 4581 
L 2631 4581 
L 2631 1613 
L 3250 1613 
L 3250 1097 
L 2631 1097 
L 2631 0 
L 2069 0 
z
M 2069 1613 
L 2069 3678 
L 634 1613 
L 2069 1613 
z
" transform="scale(0.015625)"/>
       </defs>
       <use xlink:href="#ArialMT-34"/>
       <use xlink:href="#ArialMT-30" transform="translate(55.615234 0)"/>
       <use xlink:href="#ArialMT-30" transform="translate(111.230469 0)"/>
      </g>
     </g>
    </g>
    <g id="xtick_4">
     <g id="line2d_4">
      <g>
       <use xlink:href="#m66a4b05b1b" x="153.482804" y="174.789811" style="fill: #616161; stroke: #616161; stroke-width: 0.5"/>
      </g>
     </g>
     <g id="text_4">
      <!-- 600 -->
      <g style="fill: #616161" transform="translate(148.47796 184.084498) scale(0.06 -0.06)">
       <defs>
        <path id="ArialMT-36" d="M 3184 3459 
L 2625 3416 
Q 2550 3747 2413 3897 
Q 2184 4138 1850 4138 
Q 1581 4138 1378 3988 
Q 1113 3794 959 3422 
Q 806 3050 800 2363 
Q 1003 2672 1297 2822 
Q 1591 2972 1913 2972 
Q 2475 2972 2870 2558 
Q 3266 2144 3266 1488 
Q 3266 1056 3080 686 
Q 2894 316 2569 119 
Q 2244 -78 1831 -78 
Q 1128 -78 684 439 
Q 241 956 241 2144 
Q 241 3472 731 4075 
Q 1159 4600 1884 4600 
Q 2425 4600 2770 4297 
Q 3116 3994 3184 3459 
z
M 888 1484 
Q 888 1194 1011 928 
Q 1134 663 1356 523 
Q 1578 384 1822 384 
Q 2178 384 2434 671 
Q 2691 959 2691 1453 
Q 2691 1928 2437 2201 
Q 2184 2475 1800 2475 
Q 1419 2475 1153 2201 
Q 888 1928 888 1484 
z
" transform="scale(0.015625)"/>
       </defs>
       <use xlink:href="#ArialMT-36"/>
       <use xlink:href="#ArialMT-30" transform="translate(55.615234 0)"/>
       <use xlink:href="#ArialMT-30" transform="translate(111.230469 0)"/>
      </g>
     </g>
    </g>
    <g id="text_5">
     <!-- x (μm) -->
     <g style="fill: #616161" transform="translate(86.943359 192.37278) scale(0.07 -0.07)">
      <defs>
       <path id="ArialMT-78" d="M 47 0 
L 1259 1725 
L 138 3319 
L 841 3319 
L 1350 2541 
Q 1494 2319 1581 2169 
Q 1719 2375 1834 2534 
L 2394 3319 
L 3066 3319 
L 1919 1756 
L 3153 0 
L 2463 0 
L 1781 1031 
L 1600 1309 
L 728 0 
L 47 0 
z
" transform="scale(0.015625)"/>
       <path id="ArialMT-20" transform="scale(0.015625)"/>
       <path id="ArialMT-28" d="M 1497 -1347 
Q 1031 -759 709 28 
Q 388 816 388 1659 
Q 388 2403 628 3084 
Q 909 3875 1497 4659 
L 1900 4659 
Q 1522 4009 1400 3731 
Q 1209 3300 1100 2831 
Q 966 2247 966 1656 
Q 966 153 1900 -1347 
L 1497 -1347 
z
" transform="scale(0.015625)"/>
       <path id="ArialMT-3bc" d="M 3181 3319 
L 3181 0 
L 2678 0 
L 2678 394 
Q 2516 144 2356 50 
Q 2138 -78 1847 -78 
Q 1588 -78 1388 25 
Q 1238 103 1056 334 
L 1056 -1272 
L 500 -1272 
L 500 3319 
L 1056 3319 
L 1056 1913 
Q 1056 1147 1137 920 
Q 1219 694 1401 562 
Q 1584 431 1822 431 
Q 2072 431 2269 568 
Q 2466 706 2547 923 
Q 2628 1141 2628 1903 
L 2628 3319 
L 3181 3319 
z
" transform="scale(0.015625)"/>
       <path id="ArialMT-6d" d="M 422 0 
L 422 3319 
L 925 3319 
L 925 2853 
Q 1081 3097 1340 3245 
Q 1600 3394 1931 3394 
Q 2300 3394 2536 3241 
Q 2772 3088 2869 2813 
Q 3263 3394 3894 3394 
Q 4388 3394 4653 3120 
Q 4919 2847 4919 2278 
L 4919 0 
L 4359 0 
L 4359 2091 
Q 4359 2428 4304 2576 
Q 4250 2725 4106 2815 
Q 3963 2906 3769 2906 
Q 3419 2906 3187 2673 
Q 2956 2441 2956 1928 
L 2956 0 
L 2394 0 
L 2394 2156 
Q 2394 2531 2256 2718 
Q 2119 2906 1806 2906 
Q 1569 2906 1367 2781 
Q 1166 2656 1075 2415 
Q 984 2175 984 1722 
L 984 0 
L 422 0 
z
" transform="scale(0.015625)"/>
       <path id="ArialMT-29" d="M 791 -1347 
L 388 -1347 
Q 1322 153 1322 1656 
Q 1322 2244 1188 2822 
Q 1081 3291 891 3722 
Q 769 4003 388 4659 
L 791 4659 
Q 1378 3875 1659 3084 
Q 1900 2403 1900 1659 
Q 1900 816 1576 28 
Q 1253 -759 791 -1347 
z
" transform="scale(0.015625)"/>
      </defs>
      <use xlink:href="#ArialMT-78"/>
      <use xlink:href="#ArialMT-20" transform="translate(50 0)"/>
      <use xlink:href="#ArialMT-28" transform="translate(77.783203 0)"/>
      <use xlink:href="#ArialMT-3bc" transform="translate(111.083984 0)"/>
      <use xlink:href="#ArialMT-6d" transform="translate(168.701172 0)"/>
      <use xlink:href="#ArialMT-29" transform="translate(252.001953 0)"/>
     </g>
    </g>
   </g>
   <g id="matplotlib.axis_2">
    <g id="ytick_1">
     <g id="line2d_5">
      <defs>
       <path id="m8279c620e9" d="M 0 0 
L -3 0 
" style="stroke: #616161; stroke-width: 0.5"/>
      </defs>
      <g>
       <use xlink:href="#m8279c620e9" x="27.17875" y="167.24927" style="fill: #616161; stroke: #616161; stroke-width: 0.5"/>
      </g>
     </g>
     <g id="text_6">
      <!-- 0 -->
      <g style="fill: #616161" transform="translate(18.842188 169.396614) scale(0.06 -0.06)">
       <use xlink:href="#ArialMT-30"/>
      </g>
     </g>
    </g>
    <g id="ytick_2">
     <g id="line2d_6">
      <g>
       <use xlink:href="#m8279c620e9" x="27.17875" y="148.397919" style="fill: #616161; stroke: #616161; stroke-width: 0.5"/>
      </g>
     </g>
     <g id="text_7">
      <!-- 100 -->
      <g style="fill: #616161" transform="translate(12.169063 150.545263) scale(0.06 -0.06)">
       <defs>
        <path id="ArialMT-31" d="M 2384 0 
L 1822 0 
L 1822 3584 
Q 1619 3391 1289 3197 
Q 959 3003 697 2906 
L 697 3450 
Q 1169 3672 1522 3987 
Q 1875 4303 2022 4600 
L 2384 4600 
L 2384 0 
z
" transform="scale(0.015625)"/>
       </defs>
       <use xlink:href="#ArialMT-31"/>
       <use xlink:href="#ArialMT-30" transform="translate(55.615234 0)"/>
       <use xlink:href="#ArialMT-30" transform="translate(111.230469 0)"/>
      </g>
     </g>
    </g>
    <g id="ytick_3">
     <g id="line2d_7">
      <g>
       <use xlink:href="#m8279c620e9" x="27.17875" y="129.546568" style="fill: #616161; stroke: #616161; stroke-width: 0.5"/>
      </g>
     </g>
     <g id="text_8">
      <!-- 200 -->
      <g style="fill: #616161" transform="translate(12.169063 131.693911) scale(0.06 -0.06)">
       <use xlink:href="#ArialMT-32"/>
       <use xlink:href="#ArialMT-30" transform="translate(55.615234 0)"/>
       <use xlink:href="#ArialMT-30" transform="translate(111.230469 0)"/>
      </g>
     </g>
    </g>
    <g id="ytick_4">
     <g id="line2d_8">
      <g>
       <use xlink:href="#m8279c620e9" x="27.17875" y="110.695216" style="fill: #616161; stroke: #616161; stroke-width: 0.5"/>
      </g>
     </g>
     <g id="text_9">
      <!-- 300 -->
      <g style="fill: #616161" transform="translate(12.169063 112.84256) scale(0.06 -0.06)">
       <defs>
        <path id="ArialMT-33" d="M 269 1209 
L 831 1284 
Q 928 806 1161 595 
Q 1394 384 1728 384 
Q 2125 384 2398 659 
Q 2672 934 2672 1341 
Q 2672 1728 2419 1979 
Q 2166 2231 1775 2231 
Q 1616 2231 1378 2169 
L 1441 2663 
Q 1497 2656 1531 2656 
Q 1891 2656 2178 2843 
Q 2466 3031 2466 3422 
Q 2466 3731 2256 3934 
Q 2047 4138 1716 4138 
Q 1388 4138 1169 3931 
Q 950 3725 888 3313 
L 325 3413 
Q 428 3978 793 4289 
Q 1159 4600 1703 4600 
Q 2078 4600 2393 4439 
Q 2709 4278 2876 4000 
Q 3044 3722 3044 3409 
Q 3044 3113 2884 2869 
Q 2725 2625 2413 2481 
Q 2819 2388 3044 2092 
Q 3269 1797 3269 1353 
Q 3269 753 2831 336 
Q 2394 -81 1725 -81 
Q 1122 -81 723 278 
Q 325 638 269 1209 
z
" transform="scale(0.015625)"/>
       </defs>
       <use xlink:href="#ArialMT-33"/>
       <use xlink:href="#ArialMT-30" transform="translate(55.615234 0)"/>
       <use xlink:href="#ArialMT-30" transform="translate(111.230469 0)"/>
      </g>
     </g>
    </g>
    <g id="ytick_5">
     <g id="line2d_9">
      <g>
       <use xlink:href="#m8279c620e9" x="27.17875" y="91.843865" style="fill: #616161; stroke: #616161; stroke-width: 0.5"/>
      </g>
     </g>
     <g id="text_10">
      <!-- 400 -->
      <g style="fill: #616161" transform="translate(12.169063 93.991209) scale(0.06 -0.06)">
       <use xlink:href="#ArialMT-34"/>
       <use xlink:href="#ArialMT-30" transform="translate(55.615234 0)"/>
       <use xlink:href="#ArialMT-30" transform="translate(111.230469 0)"/>
      </g>
     </g>
    </g>
    <g id="ytick_6">
     <g id="line2d_10">
      <g>
       <use xlink:href="#m8279c620e9" x="27.17875" y="72.992514" style="fill: #616161; stroke: #616161; stroke-width: 0.5"/>
      </g>
     </g>
     <g id="text_11">
      <!-- 500 -->
      <g style="fill: #616161" transform="translate(12.169063 75.139857) scale(0.06 -0.06)">
       <defs>
        <path id="ArialMT-35" d="M 266 1200 
L 856 1250 
Q 922 819 1161 601 
Q 1400 384 1738 384 
Q 2144 384 2425 690 
Q 2706 997 2706 1503 
Q 2706 1984 2436 2262 
Q 2166 2541 1728 2541 
Q 1456 2541 1237 2417 
Q 1019 2294 894 2097 
L 366 2166 
L 809 4519 
L 3088 4519 
L 3088 3981 
L 1259 3981 
L 1013 2750 
Q 1425 3038 1878 3038 
Q 2478 3038 2890 2622 
Q 3303 2206 3303 1553 
Q 3303 931 2941 478 
Q 2500 -78 1738 -78 
Q 1113 -78 717 272 
Q 322 622 266 1200 
z
" transform="scale(0.015625)"/>
       </defs>
       <use xlink:href="#ArialMT-35"/>
       <use xlink:href="#ArialMT-30" transform="translate(55.615234 0)"/>
       <use xlink:href="#ArialMT-30" transform="translate(111.230469 0)"/>
      </g>
     </g>
    </g>
    <g id="ytick_7">
     <g id="line2d_11">
      <g>
       <use xlink:href="#m8279c620e9" x="27.17875" y="54.141162" style="fill: #616161; stroke: #616161; stroke-width: 0.5"/>
      </g>
     </g>
     <g id="text_12">
      <!-- 600 -->
      <g style="fill: #616161" transform="translate(12.169063 56.288506) scale(0.06 -0.06)">
       <use xlink:href="#ArialMT-36"/>
       <use xlink:href="#ArialMT-30" transform="translate(55.615234 0)"/>
       <use xlink:href="#ArialMT-30" transform="translate(111.230469 0)"/>
      </g>
     </g>
    </g>
    <g id="ytick_8">
     <g id="line2d_12">
      <g>
       <use xlink:href="#m8279c620e9" x="27.17875" y="35.289811" style="fill: #616161; stroke: #616161; stroke-width: 0.5"/>
      </g>
     </g>
     <g id="text_13">
      <!-- 700 -->
      <g style="fill: #616161" transform="translate(12.169063 37.437155) scale(0.06 -0.06)">
       <defs>
        <path id="ArialMT-37" d="M 303 3981 
L 303 4522 
L 3269 4522 
L 3269 4084 
Q 2831 3619 2401 2847 
Q 1972 2075 1738 1259 
Q 1569 684 1522 0 
L 944 0 
Q 953 541 1156 1306 
Q 1359 2072 1739 2783 
Q 2119 3494 2547 3981 
L 303 3981 
z
" transform="scale(0.015625)"/>
       </defs>
       <use xlink:href="#ArialMT-37"/>
       <use xlink:href="#ArialMT-30" transform="translate(55.615234 0)"/>
       <use xlink:href="#ArialMT-30" transform="translate(111.230469 0)"/>
      </g>
     </g>
    </g>
    <g id="text_14">
     <!-- y (μm) -->
     <g style="fill: #616161" transform="translate(8.695781 109.369796) rotate(-90) scale(0.07 -0.07)">
      <defs>
       <path id="ArialMT-79" d="M 397 -1278 
L 334 -750 
Q 519 -800 656 -800 
Q 844 -800 956 -737 
Q 1069 -675 1141 -563 
Q 1194 -478 1313 -144 
Q 1328 -97 1363 -6 
L 103 3319 
L 709 3319 
L 1400 1397 
Q 1534 1031 1641 628 
Q 1738 1016 1872 1384 
L 2581 3319 
L 3144 3319 
L 1881 -56 
Q 1678 -603 1566 -809 
Q 1416 -1088 1222 -1217 
Q 1028 -1347 759 -1347 
Q 597 -1347 397 -1278 
z
" transform="scale(0.015625)"/>
      </defs>
      <use xlink:href="#ArialMT-79"/>
      <use xlink:href="#ArialMT-20" transform="translate(50 0)"/>
      <use xlink:href="#ArialMT-28" transform="translate(77.783203 0)"/>
      <use xlink:href="#ArialMT-3bc" transform="translate(111.083984 0)"/>
      <use xlink:href="#ArialMT-6d" transform="translate(168.701172 0)"/>
      <use xlink:href="#ArialMT-29" transform="translate(252.001953 0)"/>
     </g>
    </g>
   </g>
   <g id="patch_4">
    <path d="M 40.374696 168.663122 
C 40.749654 168.663122 41.109305 168.514149 41.37444 168.249014 
C 41.639575 167.983879 41.788547 167.624228 41.788547 167.24927 
C 41.788547 166.874313 41.639575 166.514662 41.37444 166.249526 
C 41.109305 165.984391 40.749654 165.835419 40.374696 165.835419 
C 39.999738 165.835419 39.640087 165.984391 39.374952 166.249526 
C 39.109817 166.514662 38.960845 166.874313 38.960845 167.24927 
C 38.960845 167.624228 39.109817 167.983879 39.374952 168.249014 
C 39.640087 168.514149 39.999738 168.663122 40.374696 168.663122 
z
" clip-path="url(#p109d5ca7cf)" style="fill: #fce4ec; stroke: #c2185b; stroke-width: 0.4; stroke-linejoin: miter"/>
   </g>
   <g id="patch_5">
    <path d="M 40.374696 149.81177 
C 40.749654 149.81177 41.109305 149.662798 41.37444 149.397663 
C 41.639575 149.132528 41.788547 148.772877 41.788547 148.397919 
C 41.788547 148.022961 41.639575 147.66331 41.37444 147.398175 
C 41.109305 147.13304 40.749654 146.984068 40.374696 146.984068 
C 39.999738 146.984068 39.640087 147.13304 39.374952 147.398175 
C 39.109817 147.66331 38.960845 148.022961 38.960845 148.397919 
C 38.960845 148.772877 39.109817 149.132528 39.374952 149.397663 
C 39.640087 149.662798 39.999738 149.81177 40.374696 149.81177 
z
" clip-path="url(#p109d5ca7cf)" style="fill: #fce4ec; stroke: #c2185b; stroke-width: 0.4; stroke-linejoin: miter"/>
   </g>
   <g id="patch_6">
    <path d="M 40.374696 130.960419 
C 40.749654 130.960419 41.109305 130.811447 41.37444 130.546311 
C 41.639575 130.281176 41.788547 129.921525 41.788547 129.546568 
C 41.788547 129.17161 41.639575 128.811959 41.37444 128.546824 
C 41.109305 128.281689 40.749654 128.132716 40.374696 128.132716 
C 39.999738 128.132716 39.640087 128.281689 39.374952 128.546824 
C 39.109817 128.811959 38.960845 129.17161 38.960845 129.546568 
C 38.960845 129.921525 39.109817 130.281176 39.374952 130.546311 
C 39.640087 130.811447 39.999738 130.960419 40.374696 130.960419 
z
" clip-path="url(#p109d5ca7cf)" style="fill: #fce4ec; stroke: #c2185b; stroke-width: 0.4; stroke-linejoin: miter"/>
   </g>
   <g id="patch_7">
    <path d="M 40.374696 112.109068 
C 40.749654 112.109068 41.109305 111.960095 41.37444 111.69496 
C 41.639575 111.429825 41.788547 111.070174 41.788547 110.695216 
C 41.788547 110.320258 41.639575 109.960608 41.37444 109.695472 
C 41.109305 109.430337 40.749654 109.281365 40.374696 109.281365 
C 39.999738 109.281365 39.640087 109.430337 39.374952 109.695472 
C 39.109817 109.960608 38.960845 110.320258 38.960845 110.695216 
C 38.960845 111.070174 39.109817 111.429825 39.374952 111.69496 
C 39.640087 111.960095 39.999738 112.109068 40.374696 112.109068 
z
" clip-path="url(#p109d5ca7cf)" style="fill: #fce4ec; stroke: #c2185b; stroke-width: 0.4; stroke-linejoin: miter"/>
   </g>
   <g id="patch_8">
    <path d="M 40.374696 93.257716 
C 40.749654 93.257716 41.109305 93.108744 41.37444 92.843609 
C 41.639575 92.578474 41.788547 92.218823 41.788547 91.843865 
C 41.788547 91.468907 41.639575 91.109256 41.37444 90.844121 
C 41.109305 90.578986 40.749654 90.430014 40.374696 90.430014 
C 39.999738 90.430014 39.640087 90.578986 39.374952 90.844121 
C 39.109817 91.109256 38.960845 91.468907 38.960845 91.843865 
C 38.960845 92.218823 39.109817 92.578474 39.374952 92.843609 
C 39.640087 93.108744 39.999738 93.257716 40.374696 93.257716 
z
" clip-path="url(#p109d5ca7cf)" style="fill: #fce4ec; stroke: #c2185b; stroke-width: 0.4; stroke-linejoin: miter"/>
   </g>
   <g id="patch_9">
    <path d="M 40.374696 74.406365 
C 40.749654 74.406365 41.109305 74.257393 41.37444 73.992257 
C 41.639575 73.727122 41.788547 73.367471 41.788547 72.992514 
C 41.788547 72.617556 41.639575 72.257905 41.37444 71.99277 
C 41.109305 71.727634 40.749654 71.578662 40.374696 71.578662 
C 39.999738 71.578662 39.640087 71.727634 39.374952 71.99277 
C 39.109817 72.257905 38.960845 72.617556 38.960845 72.992514 
C 38.960845 73.367471 39.109817 73.727122 39.374952 73.992257 
C 39.640087 74.257393 39.999738 74.406365 40.374696 74.406365 
z
" clip-path="url(#p109d5ca7cf)" style="fill: #fce4ec; stroke: #c2185b; stroke-width: 0.4; stroke-linejoin: miter"/>
   </g>
   <g id="patch_10">
    <path d="M 40.374696 55.555014 
C 40.749654 55.555014 41.109305 55.406041 41.37444 55.140906 
C 41.639575 54.875771 41.788547 54.51612 41.788547 54.141162 
C 41.788547 53.766204 41.639575 53.406553 41.37444 53.141418 
C 41.109305 52.876283 40.749654 52.727311 40.374696 52.727311 
C 39.999738 52.727311 39.640087 52.876283 39.374952 53.141418 
C 39.109817 53.406553 38.960845 53.766204 38.960845 54.141162 
C 38.960845 54.51612 39.109817 54.875771 39.374952 55.140906 
C 39.640087 55.406041 39.999738 55.555014 40.374696 55.555014 
z
" clip-path="url(#p109d5ca7cf)" style="fill: #fce4ec; stroke: #c2185b; stroke-width: 0.4; stroke-linejoin: miter"/>
   </g>
   <g id="patch_11">
    <path d="M 40.374696 36.703662 
C 40.749654 36.703662 41.109305 36.55469 41.37444 36.289555 
C 41.639575 36.02442 41.788547 35.664769 41.788547 35.289811 
C 41.788547 34.914853 41.639575 34.555202 41.37444 34.290067 
C 41.109305 34.024932 40.749654 33.875959 40.374696 33.875959 
C 39.999738 33.875959 39.640087 34.024932 39.374952 34.290067 
C 39.109817 34.555202 38.960845 34.914853 38.960845 35.289811 
C 38.960845 35.664769 39.109817 36.02442 39.374952 36.289555 
C 39.640087 36.55469 39.999738 36.703662 40.374696 36.703662 
z
" clip-path="url(#p109d5ca7cf)" style="fill: #fce4ec; stroke: #c2185b; stroke-width: 0.4; stroke-linejoin: miter"/>
   </g>
   <g id="patch_12">
    <path d="M 78.077399 168.663122 
C 78.452356 168.663122 78.812007 168.514149 79.077143 168.249014 
C 79.342278 167.983879 79.49125 167.624228 79.49125 167.24927 
C 79.49125 166.874313 79.342278 166.514662 79.077143 166.249526 
C 78.812007 165.984391 78.452356 165.835419 78.077399 165.835419 
C 77.702441 165.835419 77.34279 165.984391 77.077655 166.249526 
C 76.81252 166.514662 76.663547 166.874313 76.663547 167.24927 
C 76.663547 167.624228 76.81252 167.983879 77.077655 168.249014 
C 77.34279 168.514149 77.702441 168.663122 78.077399 168.663122 
z
" clip-path="url(#p109d5ca7cf)" style="fill: #fce4ec; stroke: #c2185b; stroke-width: 0.4; stroke-linejoin: miter"/>
   </g>
   <g id="patch_13">
    <path d="M 78.077399 149.81177 
C 78.452356 149.81177 78.812007 149.662798 79.077143 149.397663 
C 79.342278 149.132528 79.49125 148.772877 79.49125 148.397919 
C 79.49125 148.022961 79.342278 147.66331 79.077143 147.398175 
C 78.812007 147.13304 78.452356 146.984068 78.077399 146.984068 
C 77.702441 146.984068 77.34279 147.13304 77.077655 147.398175 
C 76.81252 147.66331 76.663547 148.022961 76.663547 148.397919 
C 76.663547 148.772877 76.81252 149.132528 77.077655 149.397663 
C 77.34279 149.662798 77.702441 149.81177 78.077399 149.81177 
z
" clip-path="url(#p109d5ca7cf)" style="fill: #fce4ec; stroke: #c2185b; stroke-width: 0.4; stroke-linejoin: miter"/>
   </g>
   <g id="patch_14">
    <path d="M 78.077399 130.960419 
C 78.452356 130.960419 78.812007 130.811447 79.077143 130.546311 
C 79.342278 130.281176 79.49125 129.921525 79.49125 129.546568 
C 79.49125 129.17161 79.342278 128.811959 79.077143 128.546824 
C 78.812007 128.281689 78.452356 128.132716 78.077399 128.132716 
C 77.702441 128.132716 77.34279 128.281689 77.077655 128.546824 
C 76.81252 128.811959 76.663547 129.17161 76.663547 129.546568 
C 76.663547 129.921525 76.81252 130.281176 77.077655 130.546311 
C 77.34279 130.811447 77.702441 130.960419 78.077399 130.960419 
z
" clip-path="url(#p109d5ca7cf)" style="fill: #fce4ec; stroke: #c2185b; stroke-width: 0.4; stroke-linejoin: miter"/>
   </g>
   <g id="patch_15">
    <path d="M 78.077399 112.109068 
C 78.452356 112.109068 78.812007 111.960095 79.077143 111.69496 
C 79.342278 111.429825 79.49125 111.070174 79.49125 110.695216 
C 79.49125 110.320258 79.342278 109.960608 79.077143 109.695472 
C 78.812007 109.430337 78.452356 109.281365 78.077399 109.281365 
C 77.702441 109.281365 77.34279 109.430337 77.077655 109.695472 
C 76.81252 109.960608 76.663547 110.320258 76.663547 110.695216 
C 76.663547 111.070174 76.81252 111.429825 77.077655 111.69496 
C 77.34279 111.960095 77.702441 112.109068 78.077399 112.109068 
z
" clip-path="url(#p109d5ca7cf)" style="fill: #fce4ec; stroke: #c2185b; stroke-width: 0.4; stroke-linejoin: miter"/>
   </g>
   <g id="patch_16">
    <path d="M 78.077399 93.257716 
C 78.452356 93.257716 78.812007 93.108744 79.077143 92.843609 
C 79.342278 92.578474 79.49125 92.218823 79.49125 91.843865 
C 79.49125 91.468907 79.342278 91.109256 79.077143 90.844121 
C 78.812007 90.578986 78.452356 90.430014 78.077399 90.430014 
C 77.702441 90.430014 77.34279 90.578986 77.077655 90.844121 
C 76.81252 91.109256 76.663547 91.468907 76.663547 91.843865 
C 76.663547 92.218823 76.81252 92.578474 77.077655 92.843609 
C 77.34279 93.108744 77.702441 93.257716 78.077399 93.257716 
z
" clip-path="url(#p109d5ca7cf)" style="fill: #fce4ec; stroke: #c2185b; stroke-width: 0.4; stroke-linejoin: miter"/>
   </g>
   <g id="patch_17">
    <path d="M 78.077399 74.406365 
C 78.452356 74.406365 78.812007 74.257393 79.077143 73.992257 
C 79.342278 73.727122 79.49125 73.367471 79.49125 72.992514 
C 79.49125 72.617556 79.342278 72.257905 79.077143 71.99277 
C 78.812007 71.727634 78.452356 71.578662 78.077399 71.578662 
C 77.702441 71.578662 77.34279 71.727634 77.077655 71.99277 
C 76.81252 72.257905 76.663547 72.617556 76.663547 72.992514 
C 76.663547 73.367471 76.81252 73.727122 77.077655 73.992257 
C 77.34279 74.257393 77.702441 74.406365 78.077399 74.406365 
z
" clip-path="url(#p109d5ca7cf)" style="fill: #fce4ec; stroke: #c2185b; stroke-width: 0.4; stroke-linejoin: miter"/>
   </g>
   <g id="patch_18">
    <path d="M 78.077399 55.555014 
C 78.452356 55.555014 78.812007 55.406041 79.077143 55.140906 
C 79.342278 54.875771 79.49125 54.51612 79.49125 54.141162 
C 79.49125 53.766204 79.342278 53.406553 79.077143 53.141418 
C 78.812007 52.876283 78.452356 52.727311 78.077399 52.727311 
C 77.702441 52.727311 77.34279 52.876283 77.077655 53.141418 
C 76.81252 53.406553 76.663547 53.766204 76.663547 54.141162 
C 76.663547 54.51612 76.81252 54.875771 77.077655 55.140906 
C 77.34279 55.406041 77.702441 55.555014 78.077399 55.555014 
z
" clip-path="url(#p109d5ca7cf)" style="fill: #fce4ec; stroke: #c2185b; stroke-width: 0.4; stroke-linejoin: miter"/>
   </g>
   <g id="patch_19">
    <path d="M 78.077399 36.703662 
C 78.452356 36.703662 78.812007 36.55469 79.077143 36.289555 
C 79.342278 36.02442 79.49125 35.664769 79.49125 35.289811 
C 79.49125 34.914853 79.342278 34.555202 79.077143 34.290067 
C 78.812007 34.024932 78.452356 33.875959 78.077399 33.875959 
C 77.702441 33.875959 77.34279 34.024932 77.077655 34.290067 
C 76.81252 34.555202 76.663547 34.914853 76.663547 35.289811 
C 76.663547 35.664769 76.81252 36.02442 77.077655 36.289555 
C 77.34279 36.55469 77.702441 36.703662 78.077399 36.703662 
z
" clip-path="url(#p109d5ca7cf)" style="fill: #fce4ec; stroke: #c2185b; stroke-width: 0.4; stroke-linejoin: miter"/>
   </g>
   <g id="patch_20">
    <path d="M 115.780101 168.663122 
C 116.155059 168.663122 116.51471 168.514149 116.779845 168.249014 
C 117.04498 167.983879 117.193953 167.624228 117.193953 167.24927 
C 117.193953 166.874313 117.04498 166.514662 116.779845 166.249526 
C 116.51471 165.984391 116.155059 165.835419 115.780101 165.835419 
C 115.405144 165.835419 115.045493 165.984391 114.780357 166.249526 
C 114.515222 166.514662 114.36625 166.874313 114.36625 167.24927 
C 114.36625 167.624228 114.515222 167.983879 114.780357 168.249014 
C 115.045493 168.514149 115.405144 168.663122 115.780101 168.663122 
z
" clip-path="url(#p109d5ca7cf)" style="fill: #fce4ec; stroke: #c2185b; stroke-width: 0.4; stroke-linejoin: miter"/>
   </g>
   <g id="patch_21">
    <path d="M 115.780101 149.81177 
C 116.155059 149.81177 116.51471 149.662798 116.779845 149.397663 
C 117.04498 149.132528 117.193953 148.772877 117.193953 148.397919 
C 117.193953 148.022961 117.04498 147.66331 116.779845 147.398175 
C 116.51471 147.13304 116.155059 146.984068 115.780101 146.984068 
C 115.405144 146.984068 115.045493 147.13304 114.780357 147.398175 
C 114.515222 147.66331 114.36625 148.022961 114.36625 148.397919 
C 114.36625 148.772877 114.515222 149.132528 114.780357 149.397663 
C 115.045493 149.662798 115.405144 149.81177 115.780101 149.81177 
z
" clip-path="url(#p109d5ca7cf)" style="fill: #fce4ec; stroke: #c2185b; stroke-width: 0.4; stroke-linejoin: miter"/>
   </g>
   <g id="patch_22">
    <path d="M 115.780101 130.960419 
C 116.155059 130.960419 116.51471 130.811447 116.779845 130.546311 
C 117.04498 130.281176 117.193953 129.921525 117.193953 129.546568 
C 117.193953 129.17161 117.04498 128.811959 116.779845 128.546824 
C 116.51471 128.281689 116.155059 128.132716 115.780101 128.132716 
C 115.405144 128.132716 115.045493 128.281689 114.780357 128.546824 
C 114.515222 128.811959 114.36625 129.17161 114.36625 129.546568 
C 114.36625 129.921525 114.515222 130.281176 114.780357 130.546311 
C 115.045493 130.811447 115.405144 130.960419 115.780101 130.960419 
z
" clip-path="url(#p109d5ca7cf)" style="fill: #fce4ec; stroke: #c2185b; stroke-width: 0.4; stroke-linejoin: miter"/>
   </g>
   <g id="patch_23">
    <path d="M 115.780101 112.109068 
C 116.155059 112.109068 116.51471 111.960095 116.779845 111.69496 
C 117.04498 111.429825 117.193953 111.070174 117.193953 110.695216 
C 117.193953 110.320258 117.04498 109.960608 116.779845 109.695472 
C 116.51471 109.430337 116.155059 109.281365 115.780101 109.281365 
C 115.405144 109.281365 115.045493 109.430337 114.780357 109.695472 
C 114.515222 109.960608 114.36625 110.320258 114.36625 110.695216 
C 114.36625 111.070174 114.515222 111.429825 114.780357 111.69496 
C 115.045493 111.960095 115.405144 112.109068 115.780101 112.109068 
z
" clip-path="url(#p109d5ca7cf)" style="fill: #fce4ec; stroke: #c2185b; stroke-width: 0.4; stroke-linejoin: miter"/>
   </g>
   <g id="patch_24">
    <path d="M 115.780101 93.257716 
C 116.155059 93.257716 116.51471 93.108744 116.779845 92.843609 
C 117.04498 92.578474 117.193953 92.218823 117.193953 91.843865 
C 117.193953 91.468907 117.04498 91.109256 116.779845 90.844121 
C 116.51471 90.578986 116.155059 90.430014 115.780101 90.430014 
C 115.405144 90.430014 115.045493 90.578986 114.780357 90.844121 
C 114.515222 91.109256 114.36625 91.468907 114.36625 91.843865 
C 114.36625 92.218823 114.515222 92.578474 114.780357 92.843609 
C 115.045493 93.108744 115.405144 93.257716 115.780101 93.257716 
z
" clip-path="url(#p109d5ca7cf)" style="fill: #fce4ec; stroke: #c2185b; stroke-width: 0.4; stroke-linejoin: miter"/>
   </g>
   <g id="patch_25">
    <path d="M 115.780101 74.406365 
C 116.155059 74.406365 116.51471 74.257393 116.779845 73.992257 
C 117.04498 73.727122 117.193953 73.367471 117.193953 72.992514 
C 117.193953 72.617556 117.04498 72.257905 116.779845 71.99277 
C 116.51471 71.727634 116.155059 71.578662 115.780101 71.578662 
C 115.405144 71.578662 115.045493 71.727634 114.780357 71.99277 
C 114.515222 72.257905 114.36625 72.617556 114.36625 72.992514 
C 114.36625 73.367471 114.515222 73.727122 114.780357 73.992257 
C 115.045493 74.257393 115.405144 74.406365 115.780101 74.406365 
z
" clip-path="url(#p109d5ca7cf)" style="fill: #fce4ec; stroke: #c2185b; stroke-width: 0.4; stroke-linejoin: miter"/>
   </g>
   <g id="patch_26">
    <path d="M 115.780101 55.555014 
C 116.155059 55.555014 116.51471 55.406041 116.779845 55.140906 
C 117.04498 54.875771 117.193953 54.51612 117.193953 54.141162 
C 117.193953 53.766204 117.04498 53.406553 116.779845 53.141418 
C 116.51471 52.876283 116.155059 52.727311 115.780101 52.727311 
C 115.405144 52.727311 115.045493 52.876283 114.780357 53.141418 
C 114.515222 53.406553 114.36625 53.766204 114.36625 54.141162 
C 114.36625 54.51612 114.515222 54.875771 114.780357 55.140906 
C 115.045493 55.406041 115.405144 55.555014 115.780101 55.555014 
z
" clip-path="url(#p109d5ca7cf)" style="fill: #fce4ec; stroke: #c2185b; stroke-width: 0.4; stroke-linejoin: miter"/>
   </g>
   <g id="patch_27">
    <path d="M 115.780101 36.703662 
C 116.155059 36.703662 116.51471 36.55469 116.779845 36.289555 
C 117.04498 36.02442 117.193953 35.664769 117.193953 35.289811 
C 117.193953 34.914853 117.04498 34.555202 116.779845 34.290067 
C 116.51471 34.024932 116.155059 33.875959 115.780101 33.875959 
C 115.405144 33.875959 115.045493 34.024932 114.780357 34.290067 
C 114.515222 34.555202 114.36625 34.914853 114.36625 35.289811 
C 114.36625 35.664769 114.515222 36.02442 114.780357 36.289555 
C 115.045493 36.55469 115.405144 36.703662 115.780101 36.703662 
z
" clip-path="url(#p109d5ca7cf)" style="fill: #fce4ec; stroke: #c2185b; stroke-width: 0.4; stroke-linejoin: miter"/>
   </g>
   <g id="patch_28">
    <path d="M 153.482804 168.663122 
C 153.857762 168.663122 154.217413 168.514149 154.482548 168.249014 
C 154.747683 167.983879 154.896655 167.624228 154.896655 167.24927 
C 154.896655 166.874313 154.747683 166.514662 154.482548 166.249526 
C 154.217413 165.984391 153.857762 165.835419 153.482804 165.835419 
C 153.107846 165.835419 152.748195 165.984391 152.48306 166.249526 
C 152.217925 166.514662 152.068953 166.874313 152.068953 167.24927 
C 152.068953 167.624228 152.217925 167.983879 152.48306 168.249014 
C 152.748195 168.514149 153.107846 168.663122 153.482804 168.663122 
z
" clip-path="url(#p109d5ca7cf)" style="fill: #fce4ec; stroke: #c2185b; stroke-width: 0.4; stroke-linejoin: miter"/>
   </g>
   <g id="patch_29">
    <path d="M 153.482804 149.81177 
C 153.857762 149.81177 154.217413 149.662798 154.482548 149.397663 
C 154.747683 149.132528 154.896655 148.772877 154.896655 148.397919 
C 154.896655 148.022961 154.747683 147.66331 154.482548 147.398175 
C 154.217413 147.13304 153.857762 146.984068 153.482804 146.984068 
C 153.107846 146.984068 152.748195 147.13304 152.48306 147.398175 
C 152.217925 147.66331 152.068953 148.022961 152.068953 148.397919 
C 152.068953 148.772877 152.217925 149.132528 152.48306 149.397663 
C 152.748195 149.662798 153.107846 149.81177 153.482804 149.81177 
z
" clip-path="url(#p109d5ca7cf)" style="fill: #fce4ec; stroke: #c2185b; stroke-width: 0.4; stroke-linejoin: miter"/>
   </g>
   <g id="patch_30">
    <path d="M 153.482804 130.960419 
C 153.857762 130.960419 154.217413 130.811447 154.482548 130.546311 
C 154.747683 130.281176 154.896655 129.921525 154.896655 129.546568 
C 154.896655 129.17161 154.747683 128.811959 154.482548 128.546824 
C 154.217413 128.281689 153.857762 128.132716 153.482804 128.132716 
C 153.107846 128.132716 152.748195 128.281689 152.48306 128.546824 
C 152.217925 128.811959 152.068953 129.17161 152.068953 129.546568 
C 152.068953 129.921525 152.217925 130.281176 152.48306 130.546311 
C 152.748195 130.811447 153.107846 130.960419 153.482804 130.960419 
z
" clip-path="url(#p109d5ca7cf)" style="fill: #fce4ec; stroke: #c2185b; stroke-width: 0.4; stroke-linejoin: miter"/>
   </g>
   <g id="patch_31">
    <path d="M 153.482804 112.109068 
C 153.857762 112.109068 154.217413 111.960095 154.482548 111.69496 
C 154.747683 111.429825 154.896655 111.070174 154.896655 110.695216 
C 154.896655 110.320258 154.747683 109.960608 154.482548 109.695472 
C 154.217413 109.430337 153.857762 109.281365 153.482804 109.281365 
C 153.107846 109.281365 152.748195 109.430337 152.48306 109.695472 
C 152.217925 109.960608 152.068953 110.320258 152.068953 110.695216 
C 152.068953 111.070174 152.217925 111.429825 152.48306 111.69496 
C 152.748195 111.960095 153.107846 112.109068 153.482804 112.109068 
z
" clip-path="url(#p109d5ca7cf)" style="fill: #fce4ec; stroke: #c2185b; stroke-width: 0.4; stroke-linejoin: miter"/>
   </g>
   <g id="patch_32">
    <path d="M 153.482804 93.257716 
C 153.857762 93.257716 154.217413 93.108744 154.482548 92.843609 
C 154.747683 92.578474 154.896655 92.218823 154.896655 91.843865 
C 154.896655 91.468907 154.747683 91.109256 154.482548 90.844121 
C 154.217413 90.578986 153.857762 90.430014 153.482804 90.430014 
C 153.107846 90.430014 152.748195 90.578986 152.48306 90.844121 
C 152.217925 91.109256 152.068953 91.468907 152.068953 91.843865 
C 152.068953 92.218823 152.217925 92.578474 152.48306 92.843609 
C 152.748195 93.108744 153.107846 93.257716 153.482804 93.257716 
z
" clip-path="url(#p109d5ca7cf)" style="fill: #fce4ec; stroke: #c2185b; stroke-width: 0.4; stroke-linejoin: miter"/>
   </g>
   <g id="patch_33">
    <path d="M 153.482804 74.406365 
C 153.857762 74.406365 154.217413 74.257393 154.482548 73.992257 
C 154.747683 73.727122 154.896655 73.367471 154.896655 72.992514 
C 154.896655 72.617556 154.747683 72.257905 154.482548 71.99277 
C 154.217413 71.727634 153.857762 71.578662 153.482804 71.578662 
C 153.107846 71.578662 152.748195 71.727634 152.48306 71.99277 
C 152.217925 72.257905 152.068953 72.617556 152.068953 72.992514 
C 152.068953 73.367471 152.217925 73.727122 152.48306 73.992257 
C 152.748195 74.257393 153.107846 74.406365 153.482804 74.406365 
z
" clip-path="url(#p109d5ca7cf)" style="fill: #fce4ec; stroke: #c2185b; stroke-width: 0.4; stroke-linejoin: miter"/>
   </g>
   <g id="patch_34">
    <path d="M 153.482804 55.555014 
C 153.857762 55.555014 154.217413 55.406041 154.482548 55.140906 
C 154.747683 54.875771 154.896655 54.51612 154.896655 54.141162 
C 154.896655 53.766204 154.747683 53.406553 154.482548 53.141418 
C 154.217413 52.876283 153.857762 52.727311 153.482804 52.727311 
C 153.107846 52.727311 152.748195 52.876283 152.48306 53.141418 
C 152.217925 53.406553 152.068953 53.766204 152.068953 54.141162 
C 152.068953 54.51612 152.217925 54.875771 152.48306 55.140906 
C 152.748195 55.406041 153.107846 55.555014 153.482804 55.555014 
z
" clip-path="url(#p109d5ca7cf)" style="fill: #fce4ec; stroke: #c2185b; stroke-width: 0.4; stroke-linejoin: miter"/>
   </g>
   <g id="patch_35">
    <path d="M 153.482804 36.703662 
C 153.857762 36.703662 154.217413 36.55469 154.482548 36.289555 
C 154.747683 36.02442 154.896655 35.664769 154.896655 35.289811 
C 154.896655 34.914853 154.747683 34.555202 154.482548 34.290067 
C 154.217413 34.024932 153.857762 33.875959 153.482804 33.875959 
C 153.107846 33.875959 152.748195 34.024932 152.48306 34.290067 
C 152.217925 34.555202 152.068953 34.914853 152.068953 35.289811 
C 152.068953 35.664769 152.217925 36.02442 152.48306 36.289555 
C 152.748195 36.55469 153.107846 36.703662 153.482804 36.703662 
z
" clip-path="url(#p109d5ca7cf)" style="fill: #fce4ec; stroke: #c2185b; stroke-width: 0.4; stroke-linejoin: miter"/>
   </g>
   <g id="patch_36">
    <path d="M 27.17875 174.789811 
L 27.17875 23.979 
" style="fill: none; stroke: #616161; stroke-width: 0.6; stroke-linejoin: miter; stroke-linecap: square"/>
   </g>
   <g id="patch_37">
    <path d="M 27.17875 174.789811 
L 166.67875 174.789811 
" style="fill: none; stroke: #616161; stroke-width: 0.6; stroke-linejoin: miter; stroke-linecap: square"/>
   </g>
   <g id="text_15">
    <!-- 1 -->
    <g style="fill: #c2185b" transform="translate(38.984462 168.545364) scale(0.05 -0.05)">
     <defs>
      <path id="Arial-BoldMT-31" d="M 2519 0 
L 1641 0 
L 1641 3309 
Q 1159 2859 506 2644 
L 506 3441 
Q 850 3553 1253 3867 
Q 1656 4181 1806 4600 
L 2519 4600 
L 2519 0 
z
" transform="scale(0.015625)"/>
     </defs>
     <use xlink:href="#Arial-BoldMT-31"/>
    </g>
   </g>
   <g id="text_16">
    <!-- 8 -->
    <g style="fill: #c2185b" transform="translate(38.984462 149.694013) scale(0.05 -0.05)">
     <defs>
      <path id="Arial-BoldMT-38" d="M 1025 2472 
Q 684 2616 529 2867 
Q 375 3119 375 3419 
Q 375 3931 733 4265 
Q 1091 4600 1750 4600 
Q 2403 4600 2764 4265 
Q 3125 3931 3125 3419 
Q 3125 3100 2959 2851 
Q 2794 2603 2494 2472 
Q 2875 2319 3073 2025 
Q 3272 1731 3272 1347 
Q 3272 713 2867 316 
Q 2463 -81 1791 -81 
Q 1166 -81 750 247 
Q 259 634 259 1309 
Q 259 1681 443 1992 
Q 628 2303 1025 2472 
z
M 1206 3356 
Q 1206 3094 1354 2947 
Q 1503 2800 1750 2800 
Q 2000 2800 2150 2948 
Q 2300 3097 2300 3359 
Q 2300 3606 2151 3754 
Q 2003 3903 1759 3903 
Q 1506 3903 1356 3753 
Q 1206 3603 1206 3356 
z
M 1125 1394 
Q 1125 1031 1311 828 
Q 1497 625 1775 625 
Q 2047 625 2225 820 
Q 2403 1016 2403 1384 
Q 2403 1706 2222 1901 
Q 2041 2097 1763 2097 
Q 1441 2097 1283 1875 
Q 1125 1653 1125 1394 
z
" transform="scale(0.015625)"/>
     </defs>
     <use xlink:href="#Arial-BoldMT-38"/>
    </g>
   </g>
   <g id="text_17">
    <!-- 2 -->
    <g style="fill: #c2185b" transform="translate(38.984462 130.842661) scale(0.05 -0.05)">
     <defs>
      <path id="Arial-BoldMT-32" d="M 3238 816 
L 3238 0 
L 159 0 
Q 209 463 459 877 
Q 709 1291 1447 1975 
Q 2041 2528 2175 2725 
Q 2356 2997 2356 3263 
Q 2356 3556 2198 3714 
Q 2041 3872 1763 3872 
Q 1488 3872 1325 3706 
Q 1163 3541 1138 3156 
L 263 3244 
Q 341 3969 753 4284 
Q 1166 4600 1784 4600 
Q 2463 4600 2850 4234 
Q 3238 3869 3238 3325 
Q 3238 3016 3127 2736 
Q 3016 2456 2775 2150 
Q 2616 1947 2200 1565 
Q 1784 1184 1673 1059 
Q 1563 934 1494 816 
L 3238 816 
z
" transform="scale(0.015625)"/>
     </defs>
     <use xlink:href="#Arial-BoldMT-32"/>
    </g>
   </g>
   <g id="text_18">
    <!-- 7 -->
    <g style="fill: #c2185b" transform="translate(38.984462 111.99131) scale(0.05 -0.05)">
     <defs>
      <path id="Arial-BoldMT-37" d="M 272 3703 
L 272 4519 
L 3275 4519 
L 3275 3881 
Q 2903 3516 2518 2831 
Q 2134 2147 1932 1376 
Q 1731 606 1734 0 
L 888 0 
Q 909 950 1279 1937 
Q 1650 2925 2269 3703 
L 272 3703 
z
" transform="scale(0.015625)"/>
     </defs>
     <use xlink:href="#Arial-BoldMT-37"/>
    </g>
   </g>
   <g id="text_19">
    <!-- 3 -->
    <g style="fill: #c2185b" transform="translate(38.984462 93.139959) scale(0.05 -0.05)">
     <defs>
      <path id="Arial-BoldMT-33" d="M 241 1216 
L 1091 1319 
Q 1131 994 1309 822 
Q 1488 650 1741 650 
Q 2013 650 2198 856 
Q 2384 1063 2384 1413 
Q 2384 1744 2206 1937 
Q 2028 2131 1772 2131 
Q 1603 2131 1369 2066 
L 1466 2781 
Q 1822 2772 2009 2936 
Q 2197 3100 2197 3372 
Q 2197 3603 2059 3740 
Q 1922 3878 1694 3878 
Q 1469 3878 1309 3722 
Q 1150 3566 1116 3266 
L 306 3403 
Q 391 3819 561 4067 
Q 731 4316 1036 4458 
Q 1341 4600 1719 4600 
Q 2366 4600 2756 4188 
Q 3078 3850 3078 3425 
Q 3078 2822 2419 2463 
Q 2813 2378 3048 2084 
Q 3284 1791 3284 1375 
Q 3284 772 2843 347 
Q 2403 -78 1747 -78 
Q 1125 -78 715 280 
Q 306 638 241 1216 
z
" transform="scale(0.015625)"/>
     </defs>
     <use xlink:href="#Arial-BoldMT-33"/>
    </g>
   </g>
   <g id="text_20">
    <!-- 6 -->
    <g style="fill: #c2185b" transform="translate(38.984462 74.288607) scale(0.05 -0.05)">
     <defs>
      <path id="Arial-BoldMT-36" d="M 3247 3459 
L 2397 3366 
Q 2366 3628 2234 3753 
Q 2103 3878 1894 3878 
Q 1616 3878 1423 3628 
Q 1231 3378 1181 2588 
Q 1509 2975 1997 2975 
Q 2547 2975 2939 2556 
Q 3331 2138 3331 1475 
Q 3331 772 2918 347 
Q 2506 -78 1859 -78 
Q 1166 -78 719 461 
Q 272 1000 272 2228 
Q 272 3488 737 4044 
Q 1203 4600 1947 4600 
Q 2469 4600 2811 4308 
Q 3153 4016 3247 3459 
z
M 1256 1544 
Q 1256 1116 1453 883 
Q 1650 650 1903 650 
Q 2147 650 2309 840 
Q 2472 1031 2472 1466 
Q 2472 1913 2297 2120 
Q 2122 2328 1859 2328 
Q 1606 2328 1431 2129 
Q 1256 1931 1256 1544 
z
" transform="scale(0.015625)"/>
     </defs>
     <use xlink:href="#Arial-BoldMT-36"/>
    </g>
   </g>
   <g id="text_21">
    <!-- 4 -->
    <g style="fill: #c2185b" transform="translate(38.984462 55.437256) scale(0.05 -0.05)">
     <defs>
      <path id="Arial-BoldMT-34" d="M 1994 0 
L 1994 922 
L 119 922 
L 119 1691 
L 2106 4600 
L 2844 4600 
L 2844 1694 
L 3413 1694 
L 3413 922 
L 2844 922 
L 2844 0 
L 1994 0 
z
M 1994 1694 
L 1994 3259 
L 941 1694 
L 1994 1694 
z
" transform="scale(0.015625)"/>
     </defs>
     <use xlink:href="#Arial-BoldMT-34"/>
    </g>
   </g>
   <g id="text_22">
    <!-- 5 -->
    <g style="fill: #c2185b" transform="translate(38.984462 36.585905) scale(0.05 -0.05)">
     <defs>
      <path id="Arial-BoldMT-35" d="M 284 1178 
L 1159 1269 
Q 1197 972 1381 798 
Q 1566 625 1806 625 
Q 2081 625 2272 848 
Q 2463 1072 2463 1522 
Q 2463 1944 2273 2155 
Q 2084 2366 1781 2366 
Q 1403 2366 1103 2031 
L 391 2134 
L 841 4519 
L 3163 4519 
L 3163 3697 
L 1506 3697 
L 1369 2919 
Q 1663 3066 1969 3066 
Q 2553 3066 2959 2641 
Q 3366 2216 3366 1538 
Q 3366 972 3038 528 
Q 2591 -78 1797 -78 
Q 1163 -78 763 262 
Q 363 603 284 1178 
z
" transform="scale(0.015625)"/>
     </defs>
     <use xlink:href="#Arial-BoldMT-35"/>
    </g>
   </g>
   <g id="text_23">
    <!-- 9 -->
    <g style="fill: #c2185b" transform="translate(76.687164 168.545364) scale(0.05 -0.05)">
     <defs>
      <path id="Arial-BoldMT-39" d="M 291 1059 
L 1141 1153 
Q 1172 894 1303 769 
Q 1434 644 1650 644 
Q 1922 644 2112 894 
Q 2303 1144 2356 1931 
Q 2025 1547 1528 1547 
Q 988 1547 595 1964 
Q 203 2381 203 3050 
Q 203 3747 617 4173 
Q 1031 4600 1672 4600 
Q 2369 4600 2816 4061 
Q 3263 3522 3263 2288 
Q 3263 1031 2797 475 
Q 2331 -81 1584 -81 
Q 1047 -81 715 205 
Q 384 491 291 1059 
z
M 2278 2978 
Q 2278 3403 2083 3637 
Q 1888 3872 1631 3872 
Q 1388 3872 1227 3680 
Q 1066 3488 1066 3050 
Q 1066 2606 1241 2398 
Q 1416 2191 1678 2191 
Q 1931 2191 2104 2391 
Q 2278 2591 2278 2978 
z
" transform="scale(0.015625)"/>
     </defs>
     <use xlink:href="#Arial-BoldMT-39"/>
    </g>
   </g>
   <g id="text_24">
    <!-- 16 -->
    <g style="fill: #c2185b" transform="translate(75.29693 149.694013) scale(0.05 -0.05)">
     <use xlink:href="#Arial-BoldMT-31"/>
     <use xlink:href="#Arial-BoldMT-36" transform="translate(55.615234 0)"/>
    </g>
   </g>
   <g id="text_25">
    <!-- 10 -->
    <g style="fill: #c2185b" transform="translate(75.29693 130.842661) scale(0.05 -0.05)">
     <defs>
      <path id="Arial-BoldMT-30" d="M 1756 4600 
Q 2422 4600 2797 4125 
Q 3244 3563 3244 2259 
Q 3244 959 2794 391 
Q 2422 -78 1756 -78 
Q 1088 -78 678 436 
Q 269 950 269 2269 
Q 269 3563 719 4131 
Q 1091 4600 1756 4600 
z
M 1756 3872 
Q 1597 3872 1472 3770 
Q 1347 3669 1278 3406 
Q 1188 3066 1188 2259 
Q 1188 1453 1269 1151 
Q 1350 850 1473 750 
Q 1597 650 1756 650 
Q 1916 650 2041 751 
Q 2166 853 2234 1116 
Q 2325 1453 2325 2259 
Q 2325 3066 2244 3367 
Q 2163 3669 2039 3770 
Q 1916 3872 1756 3872 
z
" transform="scale(0.015625)"/>
     </defs>
     <use xlink:href="#Arial-BoldMT-31"/>
     <use xlink:href="#Arial-BoldMT-30" transform="translate(55.615234 0)"/>
    </g>
   </g>
   <g id="text_26">
    <!-- 15 -->
    <g style="fill: #c2185b" transform="translate(75.29693 111.99131) scale(0.05 -0.05)">
     <use xlink:href="#Arial-BoldMT-31"/>
     <use xlink:href="#Arial-BoldMT-35" transform="translate(55.615234 0)"/>
    </g>
   </g>
   <g id="text_27">
    <!-- 11 -->
    <g style="fill: #c2185b" transform="translate(75.43443 93.139959) scale(0.05 -0.05)">
     <use xlink:href="#Arial-BoldMT-31"/>
     <use xlink:href="#Arial-BoldMT-31" transform="translate(50.115234 0)"/>
    </g>
   </g>
   <g id="text_28">
    <!-- 14 -->
    <g style="fill: #c2185b" transform="translate(75.29693 74.288607) scale(0.05 -0.05)">
     <use xlink:href="#Arial-BoldMT-31"/>
     <use xlink:href="#Arial-BoldMT-34" transform="translate(55.615234 0)"/>
    </g>
   </g>
   <g id="text_29">
    <!-- 12 -->
    <g style="fill: #c2185b" transform="translate(75.29693 55.437256) scale(0.05 -0.05)">
     <use xlink:href="#Arial-BoldMT-31"/>
     <use xlink:href="#Arial-BoldMT-32" transform="translate(55.615234 0)"/>
    </g>
   </g>
   <g id="text_30">
    <!-- 13 -->
    <g style="fill: #c2185b" transform="translate(75.29693 36.585905) scale(0.05 -0.05)">
     <use xlink:href="#Arial-BoldMT-31"/>
     <use xlink:href="#Arial-BoldMT-33" transform="translate(55.615234 0)"/>
    </g>
   </g>
   <g id="text_31">
    <!-- 17 -->
    <g style="fill: #c2185b" transform="translate(112.999633 168.545364) scale(0.05 -0.05)">
     <use xlink:href="#Arial-BoldMT-31"/>
     <use xlink:href="#Arial-BoldMT-37" transform="translate(55.615234 0)"/>
    </g>
   </g>
   <g id="text_32">
    <!-- 24 -->
    <g style="fill: #c2185b" transform="translate(112.999633 149.694013) scale(0.05 -0.05)">
     <use xlink:href="#Arial-BoldMT-32"/>
     <use xlink:href="#Arial-BoldMT-34" transform="translate(55.615234 0)"/>
    </g>
   </g>
   <g id="text_33">
    <!-- 18 -->
    <g style="fill: #c2185b" transform="translate(112.999633 130.842661) scale(0.05 -0.05)">
     <use xlink:href="#Arial-BoldMT-31"/>
     <use xlink:href="#Arial-BoldMT-38" transform="translate(55.615234 0)"/>
    </g>
   </g>
   <g id="text_34">
    <!-- 23 -->
    <g style="fill: #c2185b" transform="translate(112.999633 111.99131) scale(0.05 -0.05)">
     <use xlink:href="#Arial-BoldMT-32"/>
     <use xlink:href="#Arial-BoldMT-33" transform="translate(55.615234 0)"/>
    </g>
   </g>
   <g id="text_35">
    <!-- 19 -->
    <g style="fill: #c2185b" transform="translate(112.999633 93.139959) scale(0.05 -0.05)">
     <use xlink:href="#Arial-BoldMT-31"/>
     <use xlink:href="#Arial-BoldMT-39" transform="translate(55.615234 0)"/>
    </g>
   </g>
   <g id="text_36">
    <!-- 22 -->
    <g style="fill: #c2185b" transform="translate(112.999633 74.288607) scale(0.05 -0.05)">
     <use xlink:href="#Arial-BoldMT-32"/>
     <use xlink:href="#Arial-BoldMT-32" transform="translate(55.615234 0)"/>
    </g>
   </g>
   <g id="text_37">
    <!-- 20 -->
    <g style="fill: #c2185b" transform="translate(112.999633 55.437256) scale(0.05 -0.05)">
     <use xlink:href="#Arial-BoldMT-32"/>
     <use xlink:href="#Arial-BoldMT-30" transform="translate(55.615234 0)"/>
    </g>
   </g>
   <g id="text_38">
    <!-- 21 -->
    <g style="fill: #c2185b" transform="translate(112.999633 36.585905) scale(0.05 -0.05)">
     <use xlink:href="#Arial-BoldMT-32"/>
     <use xlink:href="#Arial-BoldMT-31" transform="translate(55.615234 0)"/>
    </g>
   </g>
   <g id="text_39">
    <!-- 25 -->
    <g style="fill: #c2185b" transform="translate(150.702335 168.545364) scale(0.05 -0.05)">
     <use xlink:href="#Arial-BoldMT-32"/>
     <use xlink:href="#Arial-BoldMT-35" transform="translate(55.615234 0)"/>
    </g>
   </g>
   <g id="text_40">
    <!-- 32 -->
    <g style="fill: #c2185b" transform="translate(150.702335 149.694013) scale(0.05 -0.05)">
     <use xlink:href="#Arial-BoldMT-33"/>
     <use xlink:href="#Arial-BoldMT-32" transform="translate(55.615234 0)"/>
    </g>
   </g>
   <g id="text_41">
    <!-- 26 -->
    <g style="fill: #c2185b" transform="translate(150.702335 130.842661) scale(0.05 -0.05)">
     <use xlink:href="#Arial-BoldMT-32"/>
     <use xlink:href="#Arial-BoldMT-36" transform="translate(55.615234 0)"/>
    </g>
   </g>
   <g id="text_42">
    <!-- 31 -->
    <g style="fill: #c2185b" transform="translate(150.702335 111.99131) scale(0.05 -0.05)">
     <use xlink:href="#Arial-BoldMT-33"/>
     <use xlink:href="#Arial-BoldMT-31" transform="translate(55.615234 0)"/>
    </g>
   </g>
   <g id="text_43">
    <!-- 27 -->
    <g style="fill: #c2185b" transform="translate(150.702335 93.139959) scale(0.05 -0.05)">
     <use xlink:href="#Arial-BoldMT-32"/>
     <use xlink:href="#Arial-BoldMT-37" transform="translate(55.615234 0)"/>
    </g>
   </g>
   <g id="text_44">
    <!-- 30 -->
    <g style="fill: #c2185b" transform="translate(150.702335 74.288607) scale(0.05 -0.05)">
     <use xlink:href="#Arial-BoldMT-33"/>
     <use xlink:href="#Arial-BoldMT-30" transform="translate(55.615234 0)"/>
    </g>
   </g>
   <g id="text_45">
    <!-- 28 -->
    <g style="fill: #c2185b" transform="translate(150.702335 55.437256) scale(0.05 -0.05)">
     <use xlink:href="#Arial-BoldMT-32"/>
     <use xlink:href="#Arial-BoldMT-38" transform="translate(55.615234 0)"/>
    </g>
   </g>
   <g id="text_46">
    <!-- 29 -->
    <g style="fill: #c2185b" transform="translate(150.702335 36.585905) scale(0.05 -0.05)">
     <use xlink:href="#Arial-BoldMT-32"/>
     <use xlink:href="#Arial-BoldMT-39" transform="translate(55.615234 0)"/>
    </g>
   </g>
   <g id="text_47">
    <!-- A4x8 (NeuroNexus) -->
    <g style="fill: #212121" transform="translate(60.030625 9.42375) scale(0.08 -0.08)">
     <defs>
      <path id="Arial-BoldMT-41" d="M 4597 0 
L 3591 0 
L 3191 1041 
L 1359 1041 
L 981 0 
L 0 0 
L 1784 4581 
L 2763 4581 
L 4597 0 
z
M 2894 1813 
L 2263 3513 
L 1644 1813 
L 2894 1813 
z
" transform="scale(0.015625)"/>
      <path id="Arial-BoldMT-78" d="M 38 0 
L 1234 1709 
L 88 3319 
L 1159 3319 
L 1747 2406 
L 2366 3319 
L 3397 3319 
L 2272 1747 
L 3500 0 
L 2422 0 
L 1747 1028 
L 1066 0 
L 38 0 
z
" transform="scale(0.015625)"/>
      <path id="Arial-BoldMT-20" transform="scale(0.015625)"/>
      <path id="Arial-BoldMT-28" d="M 1916 -1347 
L 1313 -1347 
Q 834 -625 584 153 
Q 334 931 334 1659 
Q 334 2563 644 3369 
Q 913 4069 1325 4659 
L 1925 4659 
Q 1497 3713 1336 3048 
Q 1175 2384 1175 1641 
Q 1175 1128 1270 590 
Q 1366 53 1531 -431 
Q 1641 -750 1916 -1347 
z
" transform="scale(0.015625)"/>
      <path id="Arial-BoldMT-4e" d="M 475 0 
L 475 4581 
L 1375 4581 
L 3250 1522 
L 3250 4581 
L 4109 4581 
L 4109 0 
L 3181 0 
L 1334 2988 
L 1334 0 
L 475 0 
z
" transform="scale(0.015625)"/>
      <path id="Arial-BoldMT-65" d="M 2381 1056 
L 3256 909 
Q 3088 428 2723 176 
Q 2359 -75 1813 -75 
Q 947 -75 531 491 
Q 203 944 203 1634 
Q 203 2459 634 2926 
Q 1066 3394 1725 3394 
Q 2466 3394 2894 2905 
Q 3322 2416 3303 1406 
L 1103 1406 
Q 1113 1016 1316 798 
Q 1519 581 1822 581 
Q 2028 581 2168 693 
Q 2309 806 2381 1056 
z
M 2431 1944 
Q 2422 2325 2234 2523 
Q 2047 2722 1778 2722 
Q 1491 2722 1303 2513 
Q 1116 2303 1119 1944 
L 2431 1944 
z
" transform="scale(0.015625)"/>
      <path id="Arial-BoldMT-75" d="M 2644 0 
L 2644 497 
Q 2463 231 2167 78 
Q 1872 -75 1544 -75 
Q 1209 -75 943 72 
Q 678 219 559 484 
Q 441 750 441 1219 
L 441 3319 
L 1319 3319 
L 1319 1794 
Q 1319 1094 1367 936 
Q 1416 778 1544 686 
Q 1672 594 1869 594 
Q 2094 594 2272 717 
Q 2450 841 2515 1023 
Q 2581 1206 2581 1919 
L 2581 3319 
L 3459 3319 
L 3459 0 
L 2644 0 
z
" transform="scale(0.015625)"/>
      <path id="Arial-BoldMT-72" d="M 1300 0 
L 422 0 
L 422 3319 
L 1238 3319 
L 1238 2847 
Q 1447 3181 1614 3287 
Q 1781 3394 1994 3394 
Q 2294 3394 2572 3228 
L 2300 2463 
Q 2078 2606 1888 2606 
Q 1703 2606 1575 2504 
Q 1447 2403 1373 2137 
Q 1300 1872 1300 1025 
L 1300 0 
z
" transform="scale(0.015625)"/>
      <path id="Arial-BoldMT-6f" d="M 256 1706 
Q 256 2144 472 2553 
Q 688 2963 1083 3178 
Q 1478 3394 1966 3394 
Q 2719 3394 3200 2905 
Q 3681 2416 3681 1669 
Q 3681 916 3195 420 
Q 2709 -75 1972 -75 
Q 1516 -75 1102 131 
Q 688 338 472 736 
Q 256 1134 256 1706 
z
M 1156 1659 
Q 1156 1166 1390 903 
Q 1625 641 1969 641 
Q 2313 641 2545 903 
Q 2778 1166 2778 1666 
Q 2778 2153 2545 2415 
Q 2313 2678 1969 2678 
Q 1625 2678 1390 2415 
Q 1156 2153 1156 1659 
z
" transform="scale(0.015625)"/>
      <path id="Arial-BoldMT-73" d="M 150 947 
L 1031 1081 
Q 1088 825 1259 692 
Q 1431 559 1741 559 
Q 2081 559 2253 684 
Q 2369 772 2369 919 
Q 2369 1019 2306 1084 
Q 2241 1147 2013 1200 
Q 950 1434 666 1628 
Q 272 1897 272 2375 
Q 272 2806 612 3100 
Q 953 3394 1669 3394 
Q 2350 3394 2681 3172 
Q 3013 2950 3138 2516 
L 2309 2363 
Q 2256 2556 2107 2659 
Q 1959 2763 1684 2763 
Q 1338 2763 1188 2666 
Q 1088 2597 1088 2488 
Q 1088 2394 1175 2328 
Q 1294 2241 1995 2081 
Q 2697 1922 2975 1691 
Q 3250 1456 3250 1038 
Q 3250 581 2869 253 
Q 2488 -75 1741 -75 
Q 1063 -75 667 200 
Q 272 475 150 947 
z
" transform="scale(0.015625)"/>
      <path id="Arial-BoldMT-29" d="M 216 -1347 
Q 475 -791 581 -494 
Q 688 -197 778 190 
Q 869 578 912 926 
Q 956 1275 956 1641 
Q 956 2384 797 3048 
Q 638 3713 209 4659 
L 806 4659 
Q 1278 3988 1539 3234 
Q 1800 2481 1800 1706 
Q 1800 1053 1594 306 
Q 1359 -531 822 -1347 
L 216 -1347 
z
" transform="scale(0.015625)"/>
     </defs>
     <use xlink:href="#Arial-BoldMT-41"/>
     <use xlink:href="#Arial-BoldMT-34" transform="translate(72.216797 0)"/>
     <use xlink:href="#Arial-BoldMT-78" transform="translate(127.832031 0)"/>
     <use xlink:href="#Arial-BoldMT-38" transform="translate(183.447266 0)"/>
     <use xlink:href="#Arial-BoldMT-20" transform="translate(239.0625 0)"/>
     <use xlink:href="#Arial-BoldMT-28" transform="translate(266.845703 0)"/>
     <use xlink:href="#Arial-BoldMT-4e" transform="translate(300.146484 0)"/>
     <use xlink:href="#Arial-BoldMT-65" transform="translate(372.363281 0)"/>
     <use xlink:href="#Arial-BoldMT-75" transform="translate(427.978516 0)"/>
     <use xlink:href="#Arial-BoldMT-72" transform="translate(489.0625 0)"/>
     <use xlink:href="#Arial-BoldMT-6f" transform="translate(527.978516 0)"/>
     <use xlink:href="#Arial-BoldMT-4e" transform="translate(589.0625 0)"/>
     <use xlink:href="#Arial-BoldMT-65" transform="translate(661.279297 0)"/>
     <use xlink:href="#Arial-BoldMT-78" transform="translate(716.894531 0)"/>
     <use xlink:href="#Arial-BoldMT-75" transform="translate(772.509766 0)"/>
     <use xlink:href="#Arial-BoldMT-73" transform="translate(833.59375 0)"/>
     <use xlink:href="#Arial-BoldMT-29" transform="translate(889.208984 0)"/>
    </g>
    <!-- 32 ch · 4 shanks -->
    <g style="fill: #212121" transform="translate(66.248125 17.979) scale(0.08 -0.08)">
     <defs>
      <path id="Arial-BoldMT-63" d="M 3353 2338 
L 2488 2181 
Q 2444 2441 2289 2572 
Q 2134 2703 1888 2703 
Q 1559 2703 1364 2476 
Q 1169 2250 1169 1719 
Q 1169 1128 1367 884 
Q 1566 641 1900 641 
Q 2150 641 2309 783 
Q 2469 925 2534 1272 
L 3397 1125 
Q 3263 531 2881 228 
Q 2500 -75 1859 -75 
Q 1131 -75 698 384 
Q 266 844 266 1656 
Q 266 2478 700 2936 
Q 1134 3394 1875 3394 
Q 2481 3394 2839 3133 
Q 3197 2872 3353 2338 
z
" transform="scale(0.015625)"/>
      <path id="Arial-BoldMT-68" d="M 1334 4581 
L 1334 2897 
Q 1759 3394 2350 3394 
Q 2653 3394 2897 3281 
Q 3141 3169 3264 2994 
Q 3388 2819 3433 2606 
Q 3478 2394 3478 1947 
L 3478 0 
L 2600 0 
L 2600 1753 
Q 2600 2275 2550 2415 
Q 2500 2556 2373 2639 
Q 2247 2722 2056 2722 
Q 1838 2722 1666 2615 
Q 1494 2509 1414 2295 
Q 1334 2081 1334 1663 
L 1334 0 
L 456 0 
L 456 4581 
L 1334 4581 
z
" transform="scale(0.015625)"/>
      <path id="Arial-BoldMT-b7" d="M 459 1791 
L 459 2669 
L 1338 2669 
L 1338 1791 
L 459 1791 
z
" transform="scale(0.015625)"/>
      <path id="Arial-BoldMT-61" d="M 1116 2306 
L 319 2450 
Q 453 2931 781 3162 
Q 1109 3394 1756 3394 
Q 2344 3394 2631 3255 
Q 2919 3116 3036 2902 
Q 3153 2688 3153 2116 
L 3144 1091 
Q 3144 653 3186 445 
Q 3228 238 3344 0 
L 2475 0 
Q 2441 88 2391 259 
Q 2369 338 2359 363 
Q 2134 144 1878 34 
Q 1622 -75 1331 -75 
Q 819 -75 523 203 
Q 228 481 228 906 
Q 228 1188 362 1408 
Q 497 1628 739 1745 
Q 981 1863 1438 1950 
Q 2053 2066 2291 2166 
L 2291 2253 
Q 2291 2506 2166 2614 
Q 2041 2722 1694 2722 
Q 1459 2722 1328 2630 
Q 1197 2538 1116 2306 
z
M 2291 1594 
Q 2122 1538 1756 1459 
Q 1391 1381 1278 1306 
Q 1106 1184 1106 997 
Q 1106 813 1243 678 
Q 1381 544 1594 544 
Q 1831 544 2047 700 
Q 2206 819 2256 991 
Q 2291 1103 2291 1419 
L 2291 1594 
z
" transform="scale(0.015625)"/>
      <path id="Arial-BoldMT-6e" d="M 3478 0 
L 2600 0 
L 2600 1694 
Q 2600 2231 2544 2389 
Q 2488 2547 2361 2634 
Q 2234 2722 2056 2722 
Q 1828 2722 1647 2597 
Q 1466 2472 1398 2265 
Q 1331 2059 1331 1503 
L 1331 0 
L 453 0 
L 453 3319 
L 1269 3319 
L 1269 2831 
Q 1703 3394 2363 3394 
Q 2653 3394 2893 3289 
Q 3134 3184 3257 3021 
Q 3381 2859 3429 2653 
Q 3478 2447 3478 2063 
L 3478 0 
z
" transform="scale(0.015625)"/>
      <path id="Arial-BoldMT-6b" d="M 428 0 
L 428 4581 
L 1306 4581 
L 1306 2150 
L 2334 3319 
L 3416 3319 
L 2281 2106 
L 3497 0 
L 2550 0 
L 1716 1491 
L 1306 1063 
L 1306 0 
L 428 0 
z
" transform="scale(0.015625)"/>
     </defs>
     <use xlink:href="#Arial-BoldMT-33"/>
     <use xlink:href="#Arial-BoldMT-32" transform="translate(55.615234 0)"/>
     <use xlink:href="#Arial-BoldMT-20" transform="translate(111.230469 0)"/>
     <use xlink:href="#Arial-BoldMT-63" transform="translate(139.013672 0)"/>
     <use xlink:href="#Arial-BoldMT-68" transform="translate(194.628906 0)"/>
     <use xlink:href="#Arial-BoldMT-20" transform="translate(255.712891 0)"/>
     <use xlink:href="#Arial-BoldMT-b7" transform="translate(283.496094 0)"/>
     <use xlink:href="#Arial-BoldMT-20" transform="translate(311.279297 0)"/>
     <use xlink:href="#Arial-BoldMT-34" transform="translate(339.0625 0)"/>
     <use xlink:href="#Arial-BoldMT-20" transform="translate(394.677734 0)"/>
     <use xlink:href="#Arial-BoldMT-73" transform="translate(422.460938 0)"/>
     <use xlink:href="#Arial-BoldMT-68" transform="translate(478.076172 0)"/>
     <use xlink:href="#Arial-BoldMT-61" transform="translate(539.160156 0)"/>
     <use xlink:href="#Arial-BoldMT-6e" transform="translate(594.775391 0)"/>
     <use xlink:href="#Arial-BoldMT-6b" transform="translate(655.859375 0)"/>
     <use xlink:href="#Arial-BoldMT-73" transform="translate(711.474609 0)"/>
    </g>
   </g>
  </g>
 </g>
 <defs>
  <clipPath id="p109d5ca7cf">
   <rect x="27.17875" y="23.979" width="139.5" height="150.810811"/>
  </clipPath>
 </defs>
</svg>
