<?xml version="1.0" encoding="utf-8" standalone="no"?>
<!DOCTYPE svg PUBLIC "-//W3C//DTD SVG 1.1//EN"
  "http://www.w3.org/Graphics/SVG/1.1/DTD/svg11.dtd">
<svg xmlns:xlink="http://www.w3.org/1999/xlink" width="102.80875pt" height="240.47275pt" viewBox="0 0 102.80875 240.47275" xmlns="http://www.w3.org/2000/svg" version="1.1">
 <metadata>
  <rdf:RDF xmlns:dc="http://purl.org/dc/elements/1.1/" xmlns:cc="http://creativecommons.org/ns#" xmlns:rdf="http://www.w3.org/1999/02/22-rdf-syntax-ns#">
   <cc:Work>
    <dc:type rdf:resource="http://purl.org/dc/dcmitype/StillImage"/>
    <dc:date>2026-02-26T15:07:08.255621</dc:date>
    <dc:format>image/svg+xml</dc:format>
    <dc:creator>
     <cc:Agent>
      <dc:title>Matplotlib v3.10.8, https://matplotlib.org/</dc:title>
     </cc:Agent>
    </dc:creator>
   </cc:Work>
  </rdf:RDF>
 </metadata>
 <defs>
  <style type="text/css">*{stroke-linejoin: round; stroke-linecap: butt}</style>
 </defs>
 <g id="figure_1">
  <g id="patch_1">
   <path d="M 0 240.47275 
L 102.80875 240.47275 
L 102.80875 0 
L 0 0 
z
" style="fill: #ffffff"/>
  </g>
  <g id="axes_1">
   <g id="patch_2">
    <path d="M 27.17875 217.8165 
L 99.20875 217.8165 
L 99.20875 23.7765 
L 27.17875 23.7765 
z
" style="fill: #ffffff"/>
   </g>
   <g id="patch_3">
    <path d="M 44.81875 -274.6335 
L 44.81875 211.9365 
L 63.19375 258.9765 
L 81.56875 211.9365 
L 81.56875 -274.6335 
z
" clip-path="url(#pa04788d552)" style="fill: #e8f5e9; opacity: 0.7; stroke: #388e3c; stroke-width: 1.2; stroke-linejoin: miter"/>
   </g>
   <g id="matplotlib.axis_1">
    <g id="xtick_1">
     <g id="line2d_1">
      <defs>
       <path id="mcee0a08f2a" d="M 0 0 
L 0 3 
" style="stroke: #616161; stroke-width: 0.5"/>
      </defs>
      <g>
       <use xlink:href="#mcee0a08f2a" x="27.17875" y="217.8165" style="fill: #616161; stroke: #616161; stroke-width: 0.5"/>
      </g>
     </g>
     <g id="text_1">
      <!-- −50 -->
      <g style="fill: #616161" transform="translate(22.09 227.111187) scale(0.06 -0.06)">
       <defs>
        <path id="ArialMT-2212" d="M 3381 1997 
L 356 1997 
L 356 2522 
L 3381 2522 
L 3381 1997 
z
" transform="scale(0.015625)"/>
        <path id="ArialMT-35" d="M 266 1200 
L 856 1250 
Q 922 819 1161 601 
Q 1400 384 1738 384 
Q 2144 384 2425 690 
Q 2706 997 2706 1503 
Q 2706 1984 2436 2262 
Q 2166 2541 1728 2541 
Q 1456 2541 1237 2417 
Q 1019 2294 894 2097 
L 366 2166 
L 809 4519 
L 3088 4519 
L 3088 3981 
L 1259 3981 
L 1013 2750 
Q 1425 3038 1878 3038 
Q 2478 3038 2890 2622 
Q 3303 2206 3303 1553 
Q 3303 931 2941 478 
Q 2500 -78 1738 -78 
Q 1113 -78 717 272 
Q 322 622 266 1200 
z
" transform="scale(0.015625)"/>
        <path id="ArialMT-30" d="M 266 2259 
Q 266 3072 433 3567 
Q 600 4063 929 4331 
Q 1259 4600 1759 4600 
Q 2128 4600 2406 4451 
Q 2684 4303 2865 4023 
Q 3047 3744 3150 3342 
Q 3253 2941 3253 2259 
Q 3253 1453 3087 958 
Q 2922 463 2592 192 
Q 2263 -78 1759 -78 
Q 1097 -78 719 397 
Q 266 969 266 2259 
z
M 844 2259 
Q 844 1131 1108 757 
Q 1372 384 1759 384 
Q 2147 384 2411 759 
Q 2675 1134 2675 2259 
Q 2675 3391 2411 3762 
Q 2147 4134 1753 4134 
Q 1366 4134 1134 3806 
Q 844 3388 844 2259 
z
" transform="scale(0.015625)"/>
       </defs>
       <use xlink:href="#ArialMT-2212"/>
       <use xlink:href="#ArialMT-35" transform="translate(58.398438 0)"/>
       <use xlink:href="#ArialMT-30" transform="translate(114.013672 0)"/>
      </g>
     </g>
    </g>
    <g id="xtick_2">
     <g id="line2d_2">
      <g>
       <use xlink:href="#mcee0a08f2a" x="56.57875" y="217.8165" style="fill: #616161; stroke: #616161; stroke-width: 0.5"/>
      </g>
     </g>
     <g id="text_2">
      <!-- 0 -->
      <g style="fill: #616161" transform="translate(54.910469 227.111187) scale(0.06 -0.06)">
       <use xlink:href="#ArialMT-30"/>
      </g>
     </g>
    </g>
    <g id="xtick_3">
     <g id="line2d_3">
      <g>
       <use xlink:href="#mcee0a08f2a" x="85.97875" y="217.8165" style="fill: #616161; stroke: #616161; stroke-width: 0.5"/>
      </g>
     </g>
     <g id="text_3">
      <!-- 50 -->
      <g style="fill: #616161" transform="translate(82.642188 227.111187) scale(0.06 -0.06)">
       <use xlink:href="#ArialMT-35"/>
       <use xlink:href="#ArialMT-30" transform="translate(55.615234 0)"/>
      </g>
     </g>
    </g>
    <g id="text_4">
     <!-- x (μm) -->
     <g style="fill: #616161" transform="translate(53.208359 235.399469) scale(0.07 -0.07)">
      <defs>
       <path id="ArialMT-78" d="M 47 0 
L 1259 1725 
L 138 3319 
L 841 3319 
L 1350 2541 
Q 1494 2319 1581 2169 
Q 1719 2375 1834 2534 
L 2394 3319 
L 3066 3319 
L 1919 1756 
L 3153 0 
L 2463 0 
L 1781 1031 
L 1600 1309 
L 728 0 
L 47 0 
z
" transform="scale(0.015625)"/>
       <path id="ArialMT-20" transform="scale(0.015625)"/>
       <path id="ArialMT-28" d="M 1497 -1347 
Q 1031 -759 709 28 
Q 388 816 388 1659 
Q 388 2403 628 3084 
Q 909 3875 1497 4659 
L 1900 4659 
Q 1522 4009 1400 3731 
Q 1209 3300 1100 2831 
Q 966 2247 966 1656 
Q 966 153 1900 -1347 
L 1497 -1347 
z
" transform="scale(0.015625)"/>
       <path id="ArialMT-3bc" d="M 3181 3319 
L 3181 0 
L 2678 0 
L 2678 394 
Q 2516 144 2356 50 
Q 2138 -78 1847 -78 
Q 1588 -78 1388 25 
Q 1238 103 1056 334 
L 1056 -1272 
L 500 -1272 
L 500 3319 
L 1056 3319 
L 1056 1913 
Q 1056 1147 1137 920 
Q 1219 694 1401 562 
Q 1584 431 1822 431 
Q 2072 431 2269 568 
Q 2466 706 2547 923 
Q 2628 1141 2628 1903 
L 2628 3319 
L 3181 3319 
z
" transform="scale(0.015625)"/>
       <path id="ArialMT-6d" d="M 422 0 
L 422 3319 
L 925 3319 
L 925 2853 
Q 1081 3097 1340 3245 
Q 1600 3394 1931 3394 
Q 2300 3394 2536 3241 
Q 2772 3088 2869 2813 
Q 3263 3394 3894 3394 
Q 4388 3394 4653 3120 
Q 4919 2847 4919 2278 
L 4919 0 
L 4359 0 
L 4359 2091 
Q 4359 2428 4304 2576 
Q 4250 2725 4106 2815 
Q 3963 2906 3769 2906 
Q 3419 2906 3187 2673 
Q 2956 2441 2956 1928 
L 2956 0 
L 2394 0 
L 2394 2156 
Q 2394 2531 2256 2718 
Q 2119 2906 1806 2906 
Q 1569 2906 1367 2781 
Q 1166 2656 1075 2415 
Q 984 2175 984 1722 
L 984 0 
L 422 0 
z
" transform="scale(0.015625)"/>
       <path id="ArialMT-29" d="M 791 -1347 
L 388 -1347 
Q 1322 153 1322 1656 
Q 1322 2244 1188 2822 
Q 1081 3291 891 3722 
Q 769 4003 388 4659 
L 791 4659 
Q 1378 3875 1659 3084 
Q 1900 2403 1900 1659 
Q 1900 816 1576 28 
Q 1253 -759 791 -1347 
z
" transform="scale(0.015625)"/>
      </defs>
      <use xlink:href="#ArialMT-78"/>
      <use xlink:href="#ArialMT-20" transform="translate(50 0)"/>
      <use xlink:href="#ArialMT-28" transform="translate(77.783203 0)"/>
      <use xlink:href="#ArialMT-3bc" transform="translate(111.083984 0)"/>
      <use xlink:href="#ArialMT-6d" transform="translate(168.701172 0)"/>
      <use xlink:href="#ArialMT-29" transform="translate(252.001953 0)"/>
     </g>
    </g>
   </g>
   <g id="matplotlib.axis_2">
    <g id="ytick_1">
     <g id="line2d_4">
      <defs>
       <path id="mfce19cb6c2" d="M 0 0 
L -3 0 
" style="stroke: #616161; stroke-width: 0.5"/>
      </defs>
      <g>
       <use xlink:href="#mfce19cb6c2" x="27.17875" y="200.1765" style="fill: #616161; stroke: #616161; stroke-width: 0.5"/>
      </g>
     </g>
     <g id="text_5">
      <!-- 0 -->
      <g style="fill: #616161" transform="translate(18.842188 202.323844) scale(0.06 -0.06)">
       <use xlink:href="#ArialMT-30"/>
      </g>
     </g>
    </g>
    <g id="ytick_2">
     <g id="line2d_5">
      <g>
       <use xlink:href="#mfce19cb6c2" x="27.17875" y="170.7765" style="fill: #616161; stroke: #616161; stroke-width: 0.5"/>
      </g>
     </g>
     <g id="text_6">
      <!-- 50 -->
      <g style="fill: #616161" transform="translate(15.505625 172.923844) scale(0.06 -0.06)">
       <use xlink:href="#ArialMT-35"/>
       <use xlink:href="#ArialMT-30" transform="translate(55.615234 0)"/>
      </g>
     </g>
    </g>
    <g id="ytick_3">
     <g id="line2d_6">
      <g>
       <use xlink:href="#mfce19cb6c2" x="27.17875" y="141.3765" style="fill: #616161; stroke: #616161; stroke-width: 0.5"/>
      </g>
     </g>
     <g id="text_7">
      <!-- 100 -->
      <g style="fill: #616161" transform="translate(12.169063 143.523844) scale(0.06 -0.06)">
       <defs>
        <path id="ArialMT-31" d="M 2384 0 
L 1822 0 
L 1822 3584 
Q 1619 3391 1289 3197 
Q 959 3003 697 2906 
L 697 3450 
Q 1169 3672 1522 3987 
Q 1875 4303 2022 4600 
L 2384 4600 
L 2384 0 
z
" transform="scale(0.015625)"/>
       </defs>
       <use xlink:href="#ArialMT-31"/>
       <use xlink:href="#ArialMT-30" transform="translate(55.615234 0)"/>
       <use xlink:href="#ArialMT-30" transform="translate(111.230469 0)"/>
      </g>
     </g>
    </g>
    <g id="ytick_4">
     <g id="line2d_7">
      <g>
       <use xlink:href="#mfce19cb6c2" x="27.17875" y="111.9765" style="fill: #616161; stroke: #616161; stroke-width: 0.5"/>
      </g>
     </g>
     <g id="text_8">
      <!-- 150 -->
      <g style="fill: #616161" transform="translate(12.169063 114.123844) scale(0.06 -0.06)">
       <use xlink:href="#ArialMT-31"/>
       <use xlink:href="#ArialMT-35" transform="translate(55.615234 0)"/>
       <use xlink:href="#ArialMT-30" transform="translate(111.230469 0)"/>
      </g>
     </g>
    </g>
    <g id="ytick_5">
     <g id="line2d_8">
      <g>
       <use xlink:href="#mfce19cb6c2" x="27.17875" y="82.5765" style="fill: #616161; stroke: #616161; stroke-width: 0.5"/>
      </g>
     </g>
     <g id="text_9">
      <!-- 200 -->
      <g style="fill: #616161" transform="translate(12.169063 84.723844) scale(0.06 -0.06)">
       <defs>
        <path id="ArialMT-32" d="M 3222 541 
L 3222 0 
L 194 0 
Q 188 203 259 391 
Q 375 700 629 1000 
Q 884 1300 1366 1694 
Q 2113 2306 2375 2664 
Q 2638 3022 2638 3341 
Q 2638 3675 2398 3904 
Q 2159 4134 1775 4134 
Q 1369 4134 1125 3890 
Q 881 3647 878 3216 
L 300 3275 
Q 359 3922 746 4261 
Q 1134 4600 1788 4600 
Q 2447 4600 2831 4234 
Q 3216 3869 3216 3328 
Q 3216 3053 3103 2787 
Q 2991 2522 2730 2228 
Q 2469 1934 1863 1422 
Q 1356 997 1212 845 
Q 1069 694 975 541 
L 3222 541 
z
" transform="scale(0.015625)"/>
       </defs>
       <use xlink:href="#ArialMT-32"/>
       <use xlink:href="#ArialMT-30" transform="translate(55.615234 0)"/>
       <use xlink:href="#ArialMT-30" transform="translate(111.230469 0)"/>
      </g>
     </g>
    </g>
    <g id="ytick_6">
     <g id="line2d_9">
      <g>
       <use xlink:href="#mfce19cb6c2" x="27.17875" y="53.1765" style="fill: #616161; stroke: #616161; stroke-width: 0.5"/>
      </g>
     </g>
     <g id="text_10">
      <!-- 250 -->
      <g style="fill: #616161" transform="translate(12.169063 55.323844) scale(0.06 -0.06)">
       <use xlink:href="#ArialMT-32"/>
       <use xlink:href="#ArialMT-35" transform="translate(55.615234 0)"/>
       <use xlink:href="#ArialMT-30" transform="translate(111.230469 0)"/>
      </g>
     </g>
    </g>
    <g id="ytick_7">
     <g id="line2d_10">
      <g>
       <use xlink:href="#mfce19cb6c2" x="27.17875" y="23.7765" style="fill: #616161; stroke: #616161; stroke-width: 0.5"/>
      </g>
     </g>
     <g id="text_11">
      <!-- 300 -->
      <g style="fill: #616161" transform="translate(12.169063 25.923844) scale(0.06 -0.06)">
       <defs>
        <path id="ArialMT-33" d="M 269 1209 
L 831 1284 
Q 928 806 1161 595 
Q 1394 384 1728 384 
Q 2125 384 2398 659 
Q 2672 934 2672 1341 
Q 2672 1728 2419 1979 
Q 2166 2231 1775 2231 
Q 1616 2231 1378 2169 
L 1441 2663 
Q 1497 2656 1531 2656 
Q 1891 2656 2178 2843 
Q 2466 3031 2466 3422 
Q 2466 3731 2256 3934 
Q 2047 4138 1716 4138 
Q 1388 4138 1169 3931 
Q 950 3725 888 3313 
L 325 3413 
Q 428 3978 793 4289 
Q 1159 4600 1703 4600 
Q 2078 4600 2393 4439 
Q 2709 4278 2876 4000 
Q 3044 3722 3044 3409 
Q 3044 3113 2884 2869 
Q 2725 2625 2413 2481 
Q 2819 2388 3044 2092 
Q 3269 1797 3269 1353 
Q 3269 753 2831 336 
Q 2394 -81 1725 -81 
Q 1122 -81 723 278 
Q 325 638 269 1209 
z
" transform="scale(0.015625)"/>
       </defs>
       <use xlink:href="#ArialMT-33"/>
       <use xlink:href="#ArialMT-30" transform="translate(55.615234 0)"/>
       <use xlink:href="#ArialMT-30" transform="translate(111.230469 0)"/>
      </g>
     </g>
    </g>
    <g id="text_12">
     <!-- y (μm) -->
     <g style="fill: #616161" transform="translate(8.695781 130.781891) rotate(-90) scale(0.07 -0.07)">
      <defs>
       <path id="ArialMT-79" d="M 397 -1278 
L 334 -750 
Q 519 -800 656 -800 
Q 844 -800 956 -737 
Q 1069 -675 1141 -563 
Q 1194 -478 1313 -144 
Q 1328 -97 1363 -6 
L 103 3319 
L 709 3319 
L 1400 1397 
Q 1534 1031 1641 628 
Q 1738 1016 1872 1384 
L 2581 3319 
L 3144 3319 
L 1881 -56 
Q 1678 -603 1566 -809 
Q 1416 -1088 1222 -1217 
Q 1028 -1347 759 -1347 
Q 597 -1347 397 -1278 
z
" transform="scale(0.015625)"/>
      </defs>
      <use xlink:href="#ArialMT-79"/>
      <use xlink:href="#ArialMT-20" transform="translate(50 0)"/>
      <use xlink:href="#ArialMT-28" transform="translate(77.783203 0)"/>
      <use xlink:href="#ArialMT-3bc" transform="translate(111.083984 0)"/>
      <use xlink:href="#ArialMT-6d" transform="translate(168.701172 0)"/>
      <use xlink:href="#ArialMT-29" transform="translate(252.001953 0)"/>
     </g>
    </g>
   </g>
   <g id="patch_4">
    <path d="M 53.34475 -15.9135 
L 59.81275 -15.9135 
L 59.81275 -24.7335 
L 53.34475 -24.7335 
z
" clip-path="url(#pa04788d552)" style="fill: #fce4ec; stroke: #c2185b; stroke-width: 0.4; stroke-linejoin: miter"/>
   </g>
   <g id="patch_5">
    <path d="M 66.57475 -52.6635 
L 73.04275 -52.6635 
L 73.04275 -61.4835 
L 66.57475 -61.4835 
z
" clip-path="url(#pa04788d552)" style="fill: #fce4ec; stroke: #c2185b; stroke-width: 0.4; stroke-linejoin: miter"/>
   </g>
   <g id="patch_6">
    <path d="M 66.57475 -258.4635 
L 73.04275 -258.4635 
L 73.04275 -267.2835 
L 66.57475 -267.2835 
z
" clip-path="url(#pa04788d552)" style="fill: #fce4ec; stroke: #c2185b; stroke-width: 0.4; stroke-linejoin: miter"/>
   </g>
   <g id="patch_7">
    <path d="M 66.57475 -67.3635 
L 73.04275 -67.3635 
L 73.04275 -76.1835 
L 66.57475 -76.1835 
z
" clip-path="url(#pa04788d552)" style="fill: #fce4ec; stroke: #c2185b; stroke-width: 0.4; stroke-linejoin: miter"/>
   </g>
   <g id="patch_8">
    <path d="M 66.57475 -243.7635 
L 73.04275 -243.7635 
L 73.04275 -252.5835 
L 66.57475 -252.5835 
z
" clip-path="url(#pa04788d552)" style="fill: #fce4ec; stroke: #c2185b; stroke-width: 0.4; stroke-linejoin: miter"/>
   </g>
   <g id="patch_9">
    <path d="M 66.57475 -82.0635 
L 73.04275 -82.0635 
L 73.04275 -90.8835 
L 66.57475 -90.8835 
z
" clip-path="url(#pa04788d552)" style="fill: #fce4ec; stroke: #c2185b; stroke-width: 0.4; stroke-linejoin: miter"/>
   </g>
   <g id="patch_10">
    <path d="M 66.57475 -229.0635 
L 73.04275 -229.0635 
L 73.04275 -237.8835 
L 66.57475 -237.8835 
z
" clip-path="url(#pa04788d552)" style="fill: #fce4ec; stroke: #c2185b; stroke-width: 0.4; stroke-linejoin: miter"/>
   </g>
   <g id="patch_11">
    <path d="M 66.57475 -96.7635 
L 73.04275 -96.7635 
L 73.04275 -105.5835 
L 66.57475 -105.5835 
z
" clip-path="url(#pa04788d552)" style="fill: #fce4ec; stroke: #c2185b; stroke-width: 0.4; stroke-linejoin: miter"/>
   </g>
   <g id="patch_12">
    <path d="M 66.57475 -214.3635 
L 73.04275 -214.3635 
L 73.04275 -223.1835 
L 66.57475 -223.1835 
z
" clip-path="url(#pa04788d552)" style="fill: #fce4ec; stroke: #c2185b; stroke-width: 0.4; stroke-linejoin: miter"/>
   </g>
   <g id="patch_13">
    <path d="M 66.57475 -111.4635 
L 73.04275 -111.4635 
L 73.04275 -120.2835 
L 66.57475 -120.2835 
z
" clip-path="url(#pa04788d552)" style="fill: #fce4ec; stroke: #c2185b; stroke-width: 0.4; stroke-linejoin: miter"/>
   </g>
   <g id="patch_14">
    <path d="M 66.57475 -199.6635 
L 73.04275 -199.6635 
L 73.04275 -208.4835 
L 66.57475 -208.4835 
z
" clip-path="url(#pa04788d552)" style="fill: #fce4ec; stroke: #c2185b; stroke-width: 0.4; stroke-linejoin: miter"/>
   </g>
   <g id="patch_15">
    <path d="M 66.57475 -126.1635 
L 73.04275 -126.1635 
L 73.04275 -134.9835 
L 66.57475 -134.9835 
z
" clip-path="url(#pa04788d552)" style="fill: #fce4ec; stroke: #c2185b; stroke-width: 0.4; stroke-linejoin: miter"/>
   </g>
   <g id="patch_16">
    <path d="M 66.57475 -184.9635 
L 73.04275 -184.9635 
L 73.04275 -193.7835 
L 66.57475 -193.7835 
z
" clip-path="url(#pa04788d552)" style="fill: #fce4ec; stroke: #c2185b; stroke-width: 0.4; stroke-linejoin: miter"/>
   </g>
   <g id="patch_17">
    <path d="M 66.57475 -140.8635 
L 73.04275 -140.8635 
L 73.04275 -149.6835 
L 66.57475 -149.6835 
z
" clip-path="url(#pa04788d552)" style="fill: #fce4ec; stroke: #c2185b; stroke-width: 0.4; stroke-linejoin: miter"/>
   </g>
   <g id="patch_18">
    <path d="M 66.57475 -170.2635 
L 73.04275 -170.2635 
L 73.04275 -179.0835 
L 66.57475 -179.0835 
z
" clip-path="url(#pa04788d552)" style="fill: #fce4ec; stroke: #c2185b; stroke-width: 0.4; stroke-linejoin: miter"/>
   </g>
   <g id="patch_19">
    <path d="M 53.34475 -177.6135 
L 59.81275 -177.6135 
L 59.81275 -186.4335 
L 53.34475 -186.4335 
z
" clip-path="url(#pa04788d552)" style="fill: #fce4ec; stroke: #c2185b; stroke-width: 0.4; stroke-linejoin: miter"/>
   </g>
   <g id="patch_20">
    <path d="M 53.34475 -104.1135 
L 59.81275 -104.1135 
L 59.81275 -112.9335 
L 53.34475 -112.9335 
z
" clip-path="url(#pa04788d552)" style="fill: #fce4ec; stroke: #c2185b; stroke-width: 0.4; stroke-linejoin: miter"/>
   </g>
   <g id="patch_21">
    <path d="M 53.34475 -162.9135 
L 59.81275 -162.9135 
L 59.81275 -171.7335 
L 53.34475 -171.7335 
z
" clip-path="url(#pa04788d552)" style="fill: #fce4ec; stroke: #c2185b; stroke-width: 0.4; stroke-linejoin: miter"/>
   </g>
   <g id="patch_22">
    <path d="M 53.34475 -118.8135 
L 59.81275 -118.8135 
L 59.81275 -127.6335 
L 53.34475 -127.6335 
z
" clip-path="url(#pa04788d552)" style="fill: #fce4ec; stroke: #c2185b; stroke-width: 0.4; stroke-linejoin: miter"/>
   </g>
   <g id="patch_23">
    <path d="M 53.34475 -148.2135 
L 59.81275 -148.2135 
L 59.81275 -157.0335 
L 53.34475 -157.0335 
z
" clip-path="url(#pa04788d552)" style="fill: #fce4ec; stroke: #c2185b; stroke-width: 0.4; stroke-linejoin: miter"/>
   </g>
   <g id="patch_24">
    <path d="M 53.34475 -251.1135 
L 59.81275 -251.1135 
L 59.81275 -259.9335 
L 53.34475 -259.9335 
z
" clip-path="url(#pa04788d552)" style="fill: #fce4ec; stroke: #c2185b; stroke-width: 0.4; stroke-linejoin: miter"/>
   </g>
   <g id="patch_25">
    <path d="M 53.34475 -30.6135 
L 59.81275 -30.6135 
L 59.81275 -39.4335 
L 53.34475 -39.4335 
z
" clip-path="url(#pa04788d552)" style="fill: #fce4ec; stroke: #c2185b; stroke-width: 0.4; stroke-linejoin: miter"/>
   </g>
   <g id="patch_26">
    <path d="M 53.34475 -236.4135 
L 59.81275 -236.4135 
L 59.81275 -245.2335 
L 53.34475 -245.2335 
z
" clip-path="url(#pa04788d552)" style="fill: #fce4ec; stroke: #c2185b; stroke-width: 0.4; stroke-linejoin: miter"/>
   </g>
   <g id="patch_27">
    <path d="M 53.34475 -221.7135 
L 59.81275 -221.7135 
L 59.81275 -230.5335 
L 53.34475 -230.5335 
z
" clip-path="url(#pa04788d552)" style="fill: #fce4ec; stroke: #c2185b; stroke-width: 0.4; stroke-linejoin: miter"/>
   </g>
   <g id="patch_28">
    <path d="M 53.34475 -89.4135 
L 59.81275 -89.4135 
L 59.81275 -98.2335 
L 53.34475 -98.2335 
z
" clip-path="url(#pa04788d552)" style="fill: #fce4ec; stroke: #c2185b; stroke-width: 0.4; stroke-linejoin: miter"/>
   </g>
   <g id="patch_29">
    <path d="M 53.34475 -74.7135 
L 59.81275 -74.7135 
L 59.81275 -83.5335 
L 53.34475 -83.5335 
z
" clip-path="url(#pa04788d552)" style="fill: #fce4ec; stroke: #c2185b; stroke-width: 0.4; stroke-linejoin: miter"/>
   </g>
   <g id="patch_30">
    <path d="M 53.34475 -133.5135 
L 59.81275 -133.5135 
L 59.81275 -142.3335 
L 53.34475 -142.3335 
z
" clip-path="url(#pa04788d552)" style="fill: #fce4ec; stroke: #c2185b; stroke-width: 0.4; stroke-linejoin: miter"/>
   </g>
   <g id="patch_31">
    <path d="M 53.34475 -45.3135 
L 59.81275 -45.3135 
L 59.81275 -54.1335 
L 53.34475 -54.1335 
z
" clip-path="url(#pa04788d552)" style="fill: #fce4ec; stroke: #c2185b; stroke-width: 0.4; stroke-linejoin: miter"/>
   </g>
   <g id="patch_32">
    <path d="M 53.34475 -192.3135 
L 59.81275 -192.3135 
L 59.81275 -201.1335 
L 53.34475 -201.1335 
z
" clip-path="url(#pa04788d552)" style="fill: #fce4ec; stroke: #c2185b; stroke-width: 0.4; stroke-linejoin: miter"/>
   </g>
   <g id="patch_33">
    <path d="M 53.34475 -207.0135 
L 59.81275 -207.0135 
L 59.81275 -215.8335 
L 53.34475 -215.8335 
z
" clip-path="url(#pa04788d552)" style="fill: #fce4ec; stroke: #c2185b; stroke-width: 0.4; stroke-linejoin: miter"/>
   </g>
   <g id="patch_34">
    <path d="M 66.57475 -155.5635 
L 73.04275 -155.5635 
L 73.04275 -164.3835 
L 66.57475 -164.3835 
z
" clip-path="url(#pa04788d552)" style="fill: #fce4ec; stroke: #c2185b; stroke-width: 0.4; stroke-linejoin: miter"/>
   </g>
   <g id="patch_35">
    <path d="M 53.34475 -60.0135 
L 59.81275 -60.0135 
L 59.81275 -68.8335 
L 53.34475 -68.8335 
z
" clip-path="url(#pa04788d552)" style="fill: #fce4ec; stroke: #c2185b; stroke-width: 0.4; stroke-linejoin: miter"/>
   </g>
   <g id="patch_36">
    <path d="M 53.34475 189.8865 
L 59.81275 189.8865 
L 59.81275 181.0665 
L 53.34475 181.0665 
z
" clip-path="url(#pa04788d552)" style="fill: #fce4ec; stroke: #c2185b; stroke-width: 0.4; stroke-linejoin: miter"/>
   </g>
   <g id="patch_37">
    <path d="M 66.57475 35.5365 
L 73.04275 35.5365 
L 73.04275 26.7165 
L 66.57475 26.7165 
z
" clip-path="url(#pa04788d552)" style="fill: #fce4ec; stroke: #c2185b; stroke-width: 0.4; stroke-linejoin: miter"/>
   </g>
   <g id="patch_38">
    <path d="M 53.34475 116.3865 
L 59.81275 116.3865 
L 59.81275 107.5665 
L 53.34475 107.5665 
z
" clip-path="url(#pa04788d552)" style="fill: #fce4ec; stroke: #c2185b; stroke-width: 0.4; stroke-linejoin: miter"/>
   </g>
   <g id="patch_39">
    <path d="M 66.57475 123.7365 
L 73.04275 123.7365 
L 73.04275 114.9165 
L 66.57475 114.9165 
z
" clip-path="url(#pa04788d552)" style="fill: #fce4ec; stroke: #c2185b; stroke-width: 0.4; stroke-linejoin: miter"/>
   </g>
   <g id="patch_40">
    <path d="M 66.57475 197.2365 
L 73.04275 197.2365 
L 73.04275 188.4165 
L 66.57475 188.4165 
z
" clip-path="url(#pa04788d552)" style="fill: #fce4ec; stroke: #c2185b; stroke-width: 0.4; stroke-linejoin: miter"/>
   </g>
   <g id="patch_41">
    <path d="M 66.57475 153.1365 
L 73.04275 153.1365 
L 73.04275 144.3165 
L 66.57475 144.3165 
z
" clip-path="url(#pa04788d552)" style="fill: #fce4ec; stroke: #c2185b; stroke-width: 0.4; stroke-linejoin: miter"/>
   </g>
   <g id="patch_42">
    <path d="M 66.57475 182.5365 
L 73.04275 182.5365 
L 73.04275 173.7165 
L 66.57475 173.7165 
z
" clip-path="url(#pa04788d552)" style="fill: #fce4ec; stroke: #c2185b; stroke-width: 0.4; stroke-linejoin: miter"/>
   </g>
   <g id="patch_43">
    <path d="M 53.34475 175.1865 
L 59.81275 175.1865 
L 59.81275 166.3665 
L 53.34475 166.3665 
z
" clip-path="url(#pa04788d552)" style="fill: #fce4ec; stroke: #c2185b; stroke-width: 0.4; stroke-linejoin: miter"/>
   </g>
   <g id="patch_44">
    <path d="M 66.57475 109.0365 
L 73.04275 109.0365 
L 73.04275 100.2165 
L 66.57475 100.2165 
z
" clip-path="url(#pa04788d552)" style="fill: #fce4ec; stroke: #c2185b; stroke-width: 0.4; stroke-linejoin: miter"/>
   </g>
   <g id="patch_45">
    <path d="M 53.34475 101.6865 
L 59.81275 101.6865 
L 59.81275 92.8665 
L 53.34475 92.8665 
z
" clip-path="url(#pa04788d552)" style="fill: #fce4ec; stroke: #c2185b; stroke-width: 0.4; stroke-linejoin: miter"/>
   </g>
   <g id="patch_46">
    <path d="M 53.34475 204.5865 
L 59.81275 204.5865 
L 59.81275 195.7665 
L 53.34475 195.7665 
z
" clip-path="url(#pa04788d552)" style="fill: #fce4ec; stroke: #c2185b; stroke-width: 0.4; stroke-linejoin: miter"/>
   </g>
   <g id="patch_47">
    <path d="M 66.57475 94.3365 
L 73.04275 94.3365 
L 73.04275 85.5165 
L 66.57475 85.5165 
z
" clip-path="url(#pa04788d552)" style="fill: #fce4ec; stroke: #c2185b; stroke-width: 0.4; stroke-linejoin: miter"/>
   </g>
   <g id="patch_48">
    <path d="M 53.34475 145.7865 
L 59.81275 145.7865 
L 59.81275 136.9665 
L 53.34475 136.9665 
z
" clip-path="url(#pa04788d552)" style="fill: #fce4ec; stroke: #c2185b; stroke-width: 0.4; stroke-linejoin: miter"/>
   </g>
   <g id="patch_49">
    <path d="M 53.34475 160.4865 
L 59.81275 160.4865 
L 59.81275 151.6665 
L 53.34475 151.6665 
z
" clip-path="url(#pa04788d552)" style="fill: #fce4ec; stroke: #c2185b; stroke-width: 0.4; stroke-linejoin: miter"/>
   </g>
   <g id="patch_50">
    <path d="M 66.57475 138.4365 
L 73.04275 138.4365 
L 73.04275 129.6165 
L 66.57475 129.6165 
z
" clip-path="url(#pa04788d552)" style="fill: #fce4ec; stroke: #c2185b; stroke-width: 0.4; stroke-linejoin: miter"/>
   </g>
   <g id="patch_51">
    <path d="M 66.57475 167.8365 
L 73.04275 167.8365 
L 73.04275 159.0165 
L 66.57475 159.0165 
z
" clip-path="url(#pa04788d552)" style="fill: #fce4ec; stroke: #c2185b; stroke-width: 0.4; stroke-linejoin: miter"/>
   </g>
   <g id="patch_52">
    <path d="M 53.34475 131.0865 
L 59.81275 131.0865 
L 59.81275 122.2665 
L 53.34475 122.2665 
z
" clip-path="url(#pa04788d552)" style="fill: #fce4ec; stroke: #c2185b; stroke-width: 0.4; stroke-linejoin: miter"/>
   </g>
   <g id="patch_53">
    <path d="M 53.34475 28.1865 
L 59.81275 28.1865 
L 59.81275 19.3665 
L 53.34475 19.3665 
z
" clip-path="url(#pa04788d552)" style="fill: #fce4ec; stroke: #c2185b; stroke-width: 0.4; stroke-linejoin: miter"/>
   </g>
   <g id="patch_54">
    <path d="M 53.34475 42.8865 
L 59.81275 42.8865 
L 59.81275 34.0665 
L 53.34475 34.0665 
z
" clip-path="url(#pa04788d552)" style="fill: #fce4ec; stroke: #c2185b; stroke-width: 0.4; stroke-linejoin: miter"/>
   </g>
   <g id="patch_55">
    <path d="M 66.57475 20.8365 
L 73.04275 20.8365 
L 73.04275 12.0165 
L 66.57475 12.0165 
z
" clip-path="url(#pa04788d552)" style="fill: #fce4ec; stroke: #c2185b; stroke-width: 0.4; stroke-linejoin: miter"/>
   </g>
   <g id="patch_56">
    <path d="M 66.57475 50.2365 
L 73.04275 50.2365 
L 73.04275 41.4165 
L 66.57475 41.4165 
z
" clip-path="url(#pa04788d552)" style="fill: #fce4ec; stroke: #c2185b; stroke-width: 0.4; stroke-linejoin: miter"/>
   </g>
   <g id="patch_57">
    <path d="M 53.34475 13.4865 
L 59.81275 13.4865 
L 59.81275 4.6665 
L 53.34475 4.6665 
z
" clip-path="url(#pa04788d552)" style="fill: #fce4ec; stroke: #c2185b; stroke-width: 0.4; stroke-linejoin: miter"/>
   </g>
   <g id="patch_58">
    <path d="M 53.34475 57.5865 
L 59.81275 57.5865 
L 59.81275 48.7665 
L 53.34475 48.7665 
z
" clip-path="url(#pa04788d552)" style="fill: #fce4ec; stroke: #c2185b; stroke-width: 0.4; stroke-linejoin: miter"/>
   </g>
   <g id="patch_59">
    <path d="M 66.57475 6.1365 
L 73.04275 6.1365 
L 73.04275 -2.6835 
L 66.57475 -2.6835 
z
" clip-path="url(#pa04788d552)" style="fill: #fce4ec; stroke: #c2185b; stroke-width: 0.4; stroke-linejoin: miter"/>
   </g>
   <g id="patch_60">
    <path d="M 66.57475 64.9365 
L 73.04275 64.9365 
L 73.04275 56.1165 
L 66.57475 56.1165 
z
" clip-path="url(#pa04788d552)" style="fill: #fce4ec; stroke: #c2185b; stroke-width: 0.4; stroke-linejoin: miter"/>
   </g>
   <g id="patch_61">
    <path d="M 53.34475 -1.2135 
L 59.81275 -1.2135 
L 59.81275 -10.0335 
L 53.34475 -10.0335 
z
" clip-path="url(#pa04788d552)" style="fill: #fce4ec; stroke: #c2185b; stroke-width: 0.4; stroke-linejoin: miter"/>
   </g>
   <g id="patch_62">
    <path d="M 53.34475 72.2865 
L 59.81275 72.2865 
L 59.81275 63.4665 
L 53.34475 63.4665 
z
" clip-path="url(#pa04788d552)" style="fill: #fce4ec; stroke: #c2185b; stroke-width: 0.4; stroke-linejoin: miter"/>
   </g>
   <g id="patch_63">
    <path d="M 66.57475 -8.5635 
L 73.04275 -8.5635 
L 73.04275 -17.3835 
L 66.57475 -17.3835 
z
" clip-path="url(#pa04788d552)" style="fill: #fce4ec; stroke: #c2185b; stroke-width: 0.4; stroke-linejoin: miter"/>
   </g>
   <g id="patch_64">
    <path d="M 66.57475 79.6365 
L 73.04275 79.6365 
L 73.04275 70.8165 
L 66.57475 70.8165 
z
" clip-path="url(#pa04788d552)" style="fill: #fce4ec; stroke: #c2185b; stroke-width: 0.4; stroke-linejoin: miter"/>
   </g>
   <g id="patch_65">
    <path d="M 66.57475 -23.2635 
L 73.04275 -23.2635 
L 73.04275 -32.0835 
L 66.57475 -32.0835 
z
" clip-path="url(#pa04788d552)" style="fill: #fce4ec; stroke: #c2185b; stroke-width: 0.4; stroke-linejoin: miter"/>
   </g>
   <g id="patch_66">
    <path d="M 53.34475 86.9865 
L 59.81275 86.9865 
L 59.81275 78.1665 
L 53.34475 78.1665 
z
" clip-path="url(#pa04788d552)" style="fill: #fce4ec; stroke: #c2185b; stroke-width: 0.4; stroke-linejoin: miter"/>
   </g>
   <g id="patch_67">
    <path d="M 66.57475 -37.9635 
L 73.04275 -37.9635 
L 73.04275 -46.7835 
L 66.57475 -46.7835 
z
" clip-path="url(#pa04788d552)" style="fill: #fce4ec; stroke: #c2185b; stroke-width: 0.4; stroke-linejoin: miter"/>
   </g>
   <g id="patch_68">
    <path d="M 27.17875 217.8165 
L 27.17875 23.7765 
" style="fill: none; stroke: #616161; stroke-width: 0.6; stroke-linejoin: miter; stroke-linecap: square"/>
   </g>
   <g id="patch_69">
    <path d="M 27.17875 217.8165 
L 99.20875 217.8165 
" style="fill: none; stroke: #616161; stroke-width: 0.6; stroke-linejoin: miter; stroke-linecap: square"/>
   </g>
   <g id="text_13">
    <!-- ASSY-77-H5 -->
    <g style="fill: #212121" transform="translate(40.295 9.32625) scale(0.08 -0.08)">
     <defs>
      <path id="Arial-BoldMT-41" d="M 4597 0 
L 3591 0 
L 3191 1041 
L 1359 1041 
L 981 0 
L 0 0 
L 1784 4581 
L 2763 4581 
L 4597 0 
z
M 2894 1813 
L 2263 3513 
L 1644 1813 
L 2894 1813 
z
" transform="scale(0.015625)"/>
      <path id="Arial-BoldMT-53" d="M 231 1491 
L 1131 1578 
Q 1213 1125 1461 912 
Q 1709 700 2131 700 
Q 2578 700 2804 889 
Q 3031 1078 3031 1331 
Q 3031 1494 2936 1608 
Q 2841 1722 2603 1806 
Q 2441 1863 1863 2006 
Q 1119 2191 819 2459 
Q 397 2838 397 3381 
Q 397 3731 595 4036 
Q 794 4341 1167 4500 
Q 1541 4659 2069 4659 
Q 2931 4659 3367 4281 
Q 3803 3903 3825 3272 
L 2900 3231 
Q 2841 3584 2645 3739 
Q 2450 3894 2059 3894 
Q 1656 3894 1428 3728 
Q 1281 3622 1281 3444 
Q 1281 3281 1419 3166 
Q 1594 3019 2269 2859 
Q 2944 2700 3267 2529 
Q 3591 2359 3773 2064 
Q 3956 1769 3956 1334 
Q 3956 941 3737 597 
Q 3519 253 3119 86 
Q 2719 -81 2122 -81 
Q 1253 -81 787 320 
Q 322 722 231 1491 
z
" transform="scale(0.015625)"/>
      <path id="Arial-BoldMT-59" d="M 1669 0 
L 1669 1928 
L -9 4581 
L 1075 4581 
L 2153 2769 
L 3209 4581 
L 4275 4581 
L 2591 1922 
L 2591 0 
L 1669 0 
z
" transform="scale(0.015625)"/>
      <path id="Arial-BoldMT-2d" d="M 359 1222 
L 359 2100 
L 2084 2100 
L 2084 1222 
L 359 1222 
z
" transform="scale(0.015625)"/>
      <path id="Arial-BoldMT-37" d="M 272 3703 
L 272 4519 
L 3275 4519 
L 3275 3881 
Q 2903 3516 2518 2831 
Q 2134 2147 1932 1376 
Q 1731 606 1734 0 
L 888 0 
Q 909 950 1279 1937 
Q 1650 2925 2269 3703 
L 272 3703 
z
" transform="scale(0.015625)"/>
      <path id="Arial-BoldMT-48" d="M 469 0 
L 469 4581 
L 1394 4581 
L 1394 2778 
L 3206 2778 
L 3206 4581 
L 4131 4581 
L 4131 0 
L 3206 0 
L 3206 2003 
L 1394 2003 
L 1394 0 
L 469 0 
z
" transform="scale(0.015625)"/>
      <path id="Arial-BoldMT-35" d="M 284 1178 
L 1159 1269 
Q 1197 972 1381 798 
Q 1566 625 1806 625 
Q 2081 625 2272 848 
Q 2463 1072 2463 1522 
Q 2463 1944 2273 2155 
Q 2084 2366 1781 2366 
Q 1403 2366 1103 2031 
L 391 2134 
L 841 4519 
L 3163 4519 
L 3163 3697 
L 1506 3697 
L 1369 2919 
Q 1663 3066 1969 3066 
Q 2553 3066 2959 2641 
Q 3366 2216 3366 1538 
Q 3366 972 3038 528 
Q 2591 -78 1797 -78 
Q 1163 -78 763 262 
Q 363 603 284 1178 
z
" transform="scale(0.015625)"/>
     </defs>
     <use xlink:href="#Arial-BoldMT-41"/>
     <use xlink:href="#Arial-BoldMT-53" transform="translate(72.216797 0)"/>
     <use xlink:href="#Arial-BoldMT-53" transform="translate(138.916016 0)"/>
     <use xlink:href="#Arial-BoldMT-59" transform="translate(205.615234 0)"/>
     <use xlink:href="#Arial-BoldMT-2d" transform="translate(266.814453 0)"/>
     <use xlink:href="#Arial-BoldMT-37" transform="translate(300.115234 0)"/>
     <use xlink:href="#Arial-BoldMT-37" transform="translate(355.730469 0)"/>
     <use xlink:href="#Arial-BoldMT-2d" transform="translate(411.345703 0)"/>
     <use xlink:href="#Arial-BoldMT-48" transform="translate(444.646484 0)"/>
     <use xlink:href="#Arial-BoldMT-35" transform="translate(516.863281 0)"/>
    </g>
    <!-- 64 ch · linear -->
    <g style="fill: #212121" transform="translate(38.96125 17.7765) scale(0.08 -0.08)">
     <defs>
      <path id="Arial-BoldMT-36" d="M 3247 3459 
L 2397 3366 
Q 2366 3628 2234 3753 
Q 2103 3878 1894 3878 
Q 1616 3878 1423 3628 
Q 1231 3378 1181 2588 
Q 1509 2975 1997 2975 
Q 2547 2975 2939 2556 
Q 3331 2138 3331 1475 
Q 3331 772 2918 347 
Q 2506 -78 1859 -78 
Q 1166 -78 719 461 
Q 272 1000 272 2228 
Q 272 3488 737 4044 
Q 1203 4600 1947 4600 
Q 2469 4600 2811 4308 
Q 3153 4016 3247 3459 
z
M 1256 1544 
Q 1256 1116 1453 883 
Q 1650 650 1903 650 
Q 2147 650 2309 840 
Q 2472 1031 2472 1466 
Q 2472 1913 2297 2120 
Q 2122 2328 1859 2328 
Q 1606 2328 1431 2129 
Q 1256 1931 1256 1544 
z
" transform="scale(0.015625)"/>
      <path id="Arial-BoldMT-34" d="M 1994 0 
L 1994 922 
L 119 922 
L 119 1691 
L 2106 4600 
L 2844 4600 
L 2844 1694 
L 3413 1694 
L 3413 922 
L 2844 922 
L 2844 0 
L 1994 0 
z
M 1994 1694 
L 1994 3259 
L 941 1694 
L 1994 1694 
z
" transform="scale(0.015625)"/>
      <path id="Arial-BoldMT-20" transform="scale(0.015625)"/>
      <path id="Arial-BoldMT-63" d="M 3353 2338 
L 2488 2181 
Q 2444 2441 2289 2572 
Q 2134 2703 1888 2703 
Q 1559 2703 1364 2476 
Q 1169 2250 1169 1719 
Q 1169 1128 1367 884 
Q 1566 641 1900 641 
Q 2150 641 2309 783 
Q 2469 925 2534 1272 
L 3397 1125 
Q 3263 531 2881 228 
Q 2500 -75 1859 -75 
Q 1131 -75 698 384 
Q 266 844 266 1656 
Q 266 2478 700 2936 
Q 1134 3394 1875 3394 
Q 2481 3394 2839 3133 
Q 3197 2872 3353 2338 
z
" transform="scale(0.015625)"/>
      <path id="Arial-BoldMT-68" d="M 1334 4581 
L 1334 2897 
Q 1759 3394 2350 3394 
Q 2653 3394 2897 3281 
Q 3141 3169 3264 2994 
Q 3388 2819 3433 2606 
Q 3478 2394 3478 1947 
L 3478 0 
L 2600 0 
L 2600 1753 
Q 2600 2275 2550 2415 
Q 2500 2556 2373 2639 
Q 2247 2722 2056 2722 
Q 1838 2722 1666 2615 
Q 1494 2509 1414 2295 
Q 1334 2081 1334 1663 
L 1334 0 
L 456 0 
L 456 4581 
L 1334 4581 
z
" transform="scale(0.015625)"/>
      <path id="Arial-BoldMT-b7" d="M 459 1791 
L 459 2669 
L 1338 2669 
L 1338 1791 
L 459 1791 
z
" transform="scale(0.015625)"/>
      <path id="Arial-BoldMT-6c" d="M 459 0 
L 459 4581 
L 1338 4581 
L 1338 0 
L 459 0 
z
" transform="scale(0.015625)"/>
      <path id="Arial-BoldMT-69" d="M 459 3769 
L 459 4581 
L 1338 4581 
L 1338 3769 
L 459 3769 
z
M 459 0 
L 459 3319 
L 1338 3319 
L 1338 0 
L 459 0 
z
" transform="scale(0.015625)"/>
      <path id="Arial-BoldMT-6e" d="M 3478 0 
L 2600 0 
L 2600 1694 
Q 2600 2231 2544 2389 
Q 2488 2547 2361 2634 
Q 2234 2722 2056 2722 
Q 1828 2722 1647 2597 
Q 1466 2472 1398 2265 
Q 1331 2059 1331 1503 
L 1331 0 
L 453 0 
L 453 3319 
L 1269 3319 
L 1269 2831 
Q 1703 3394 2363 3394 
Q 2653 3394 2893 3289 
Q 3134 3184 3257 3021 
Q 3381 2859 3429 2653 
Q 3478 2447 3478 2063 
L 3478 0 
z
" transform="scale(0.015625)"/>
      <path id="Arial-BoldMT-65" d="M 2381 1056 
L 3256 909 
Q 3088 428 2723 176 
Q 2359 -75 1813 -75 
Q 947 -75 531 491 
Q 203 944 203 1634 
Q 203 2459 634 2926 
Q 1066 3394 1725 3394 
Q 2466 3394 2894 2905 
Q 3322 2416 3303 1406 
L 1103 1406 
Q 1113 1016 1316 798 
Q 1519 581 1822 581 
Q 2028 581 2168 693 
Q 2309 806 2381 1056 
z
M 2431 1944 
Q 2422 2325 2234 2523 
Q 2047 2722 1778 2722 
Q 1491 2722 1303 2513 
Q 1116 2303 1119 1944 
L 2431 1944 
z
" transform="scale(0.015625)"/>
      <path id="Arial-BoldMT-61" d="M 1116 2306 
L 319 2450 
Q 453 2931 781 3162 
Q 1109 3394 1756 3394 
Q 2344 3394 2631 3255 
Q 2919 3116 3036 2902 
Q 3153 2688 3153 2116 
L 3144 1091 
Q 3144 653 3186 445 
Q 3228 238 3344 0 
L 2475 0 
Q 2441 88 2391 259 
Q 2369 338 2359 363 
Q 2134 144 1878 34 
Q 1622 -75 1331 -75 
Q 819 -75 523 203 
Q 228 481 228 906 
Q 228 1188 362 1408 
Q 497 1628 739 1745 
Q 981 1863 1438 1950 
Q 2053 2066 2291 2166 
L 2291 2253 
Q 2291 2506 2166 2614 
Q 2041 2722 1694 2722 
Q 1459 2722 1328 2630 
Q 1197 2538 1116 2306 
z
M 2291 1594 
Q 2122 1538 1756 1459 
Q 1391 1381 1278 1306 
Q 1106 1184 1106 997 
Q 1106 813 1243 678 
Q 1381 544 1594 544 
Q 1831 544 2047 700 
Q 2206 819 2256 991 
Q 2291 1103 2291 1419 
L 2291 1594 
z
" transform="scale(0.015625)"/>
      <path id="Arial-BoldMT-72" d="M 1300 0 
L 422 0 
L 422 3319 
L 1238 3319 
L 1238 2847 
Q 1447 3181 1614 3287 
Q 1781 3394 1994 3394 
Q 2294 3394 2572 3228 
L 2300 2463 
Q 2078 2606 1888 2606 
Q 1703 2606 1575 2504 
Q 1447 2403 1373 2137 
Q 1300 1872 1300 1025 
L 1300 0 
z
" transform="scale(0.015625)"/>
     </defs>
     <use xlink:href="#Arial-BoldMT-36"/>
     <use xlink:href="#Arial-BoldMT-34" transform="translate(55.615234 0)"/>
     <use xlink:href="#Arial-BoldMT-20" transform="translate(111.230469 0)"/>
     <use xlink:href="#Arial-BoldMT-63" transform="translate(139.013672 0)"/>
     <use xlink:href="#Arial-BoldMT-68" transform="translate(194.628906 0)"/>
     <use xlink:href="#Arial-BoldMT-20" transform="translate(255.712891 0)"/>
     <use xlink:href="#Arial-BoldMT-b7" transform="translate(283.496094 0)"/>
     <use xlink:href="#Arial-BoldMT-20" transform="translate(311.279297 0)"/>
     <use xlink:href="#Arial-BoldMT-6c" transform="translate(339.0625 0)"/>
     <use xlink:href="#Arial-BoldMT-69" transform="translate(366.845703 0)"/>
     <use xlink:href="#Arial-BoldMT-6e" transform="translate(394.628906 0)"/>
     <use xlink:href="#Arial-BoldMT-65" transform="translate(455.712891 0)"/>
     <use xlink:href="#Arial-BoldMT-61" transform="translate(511.328125 0)"/>
     <use xlink:href="#Arial-BoldMT-72" transform="translate(566.943359 0)"/>
    </g>
   </g>
  </g>
 </g>
 <defs>
  <clipPath id="pa04788d552">
   <rect x="27.17875" y="23.7765" width="72.03" height="194.04"/>
  </clipPath>
 </defs>
</svg>
