<?xml version="1.0" encoding="utf-8" standalone="no"?>
<!DOCTYPE svg PUBLIC "-//W3C//DTD SVG 1.1//EN"
  "http://www.w3.org/Graphics/SVG/1.1/DTD/svg11.dtd">
<svg xmlns:xlink="http://www.w3.org/1999/xlink" width="55.8pt" height="94.477888pt" viewBox="0 0 55.8 94.477888" xmlns="http://www.w3.org/2000/svg" version="1.1">
 <metadata>
  <rdf:RDF xmlns:dc="http://purl.org/dc/elements/1.1/" xmlns:cc="http://creativecommons.org/ns#" xmlns:rdf="http://www.w3.org/1999/02/22-rdf-syntax-ns#">
   <cc:Work>
    <dc:type rdf:resource="http://purl.org/dc/dcmitype/StillImage"/>
    <dc:date>2026-02-26T13:23:12.836098</dc:date>
    <dc:format>image/svg+xml</dc:format>
    <dc:creator>
     <cc:Agent>
      <dc:title>Matplotlib v3.10.8, https://matplotlib.org/</dc:title>
     </cc:Agent>
    </dc:creator>
   </cc:Work>
  </rdf:RDF>
 </metadata>
 <defs>
  <style type="text/css">*{stroke-linejoin: round; stroke-linecap: butt}</style>
 </defs>
 <g id="figure_1">
  <g id="patch_1">
   <path d="M 0 94.477888 
L 55.8 94.477888 
L 55.8 0 
L 0 0 
L 0 94.477888 
z
" style="fill: none"/>
  </g>
  <g id="axes_1">
   <g id="PolyCollection_1">
    <path d="M 33.948 27.9 
L 33.947653 27.860308 
L 33.946611 27.820628 
L 33.944874 27.780972 
L 33.942444 27.741352 
L 33.939321 27.701782 
L 33.935506 27.662272 
L 33.931 27.622834 
L 33.925805 27.583482 
L 33.919922 27.544227 
L 33.913352 27.50508 
L 33.906099 27.466055 
L 33.898163 27.427162 
L 33.889548 27.388414 
L 33.880257 27.349823 
L 33.870291 27.311401 
L 33.859655 27.273159 
L 33.84835 27.235109 
L 33.836382 27.197262 
L 33.823753 27.159631 
L 33.810468 27.122226 
L 33.79653 27.08506 
L 33.781943 27.048144 
L 33.766713 27.011488 
L 33.750843 26.975104 
L 33.73434 26.939004 
L 33.717207 26.903198 
L 33.699449 26.867698 
L 33.681074 26.832514 
L 33.662085 26.797656 
L 33.64249 26.763137 
L 33.622293 26.728965 
L 33.601501 26.695152 
L 33.580121 26.661709 
L 33.558158 26.628644 
L 33.535621 26.595969 
L 33.512515 26.563694 
L 33.488847 26.531828 
L 33.464626 26.50038 
L 33.439858 26.469362 
L 33.414551 26.438782 
L 33.388712 26.408649 
L 33.36235 26.378973 
L 33.335473 26.349764 
L 33.308089 26.321029 
L 33.280206 26.292777 
L 33.251833 26.265018 
L 33.222978 26.23776 
L 33.193651 26.211011 
L 33.16386 26.184779 
L 33.133615 26.159073 
L 33.102924 26.133899 
L 33.071798 26.109267 
L 33.040245 26.085184 
L 33.008275 26.061656 
L 32.975899 26.038691 
L 32.943126 26.016297 
L 32.909966 25.994479 
L 32.876429 25.973246 
L 32.842525 25.952602 
L 32.808266 25.932555 
L 32.773661 25.91311 
L 32.738721 25.894275 
L 32.703456 25.876053 
L 32.667878 25.858451 
L 32.631998 25.841475 
L 32.595826 25.82513 
L 32.559373 25.80942 
L 32.522651 25.79435 
L 32.485671 25.779925 
L 32.448444 25.76615 
L 32.410982 25.753028 
L 32.373296 25.740564 
L 32.335397 25.728761 
L 32.297298 25.717624 
L 32.25901 25.707154 
L 32.220544 25.697357 
L 32.181913 25.688234 
L 32.143128 25.679789 
L 32.104201 25.672024 
L 32.065144 25.664941 
L 32.025969 25.658543 
L 31.986689 25.652832 
L 31.947314 25.647808 
L 31.907857 25.643475 
L 31.868331 25.639833 
L 31.828747 25.636883 
L 31.789117 25.634626 
L 31.749454 25.633064 
L 31.70977 25.632195 
L 31.670076 25.632022 
L 31.630386 25.632543 
L 31.590711 25.633758 
L 31.551063 25.635668 
L 31.511455 25.638271 
L 31.471898 25.641567 
L 31.432405 25.645555 
L 31.392988 25.650234 
L 31.353659 25.655601 
L 31.314429 25.661656 
L 31.275312 25.668397 
L 31.236319 25.675821 
L 31.197461 25.683927 
L 31.158752 25.692711 
L 31.120202 25.702172 
L 31.081823 25.712305 
L 31.043628 25.723109 
L 31.005627 25.73458 
L 30.967834 25.746713 
L 30.930258 25.759507 
L 30.892912 25.772956 
L 30.855807 25.787056 
L 30.818955 25.801804 
L 30.782366 25.817195 
L 30.746052 25.833223 
L 30.710025 25.849885 
L 30.674294 25.867174 
L 30.638872 25.885087 
L 30.603768 25.903616 
L 30.568994 25.922757 
L 30.534561 25.942503 
L 30.500478 25.96285 
L 30.466756 25.983789 
L 30.433407 26.005316 
L 30.400439 26.027422 
L 30.367863 26.050103 
L 30.335688 26.07335 
L 30.303926 26.097157 
L 30.272585 26.121515 
L 30.241676 26.146419 
L 30.211206 26.17186 
L 30.181187 26.19783 
L 30.151627 26.224321 
L 30.122535 26.251326 
L 30.09392 26.278836 
L 30.065791 26.306842 
L 30.038156 26.335336 
L 30.011024 26.36431 
L 29.984404 26.393754 
L 29.958303 26.423659 
L 29.932729 26.454017 
L 29.90769 26.484817 
L 29.883195 26.516051 
L 29.859249 26.547709 
L 29.835862 26.579781 
L 29.813039 26.612257 
L 29.790788 26.645128 
L 29.769116 26.678384 
L 29.748029 26.712013 
L 29.727534 26.746007 
L 29.707637 26.780353 
L 29.688344 26.815043 
L 29.669661 26.850065 
L 29.651594 26.885409 
L 29.634149 26.921064 
L 29.61733 26.957018 
L 29.601142 26.993261 
L 29.585592 27.029782 
L 29.570683 27.06657 
L 29.55642 27.103613 
L 29.542808 27.1409 
L 29.52985 27.178419 
L 29.517551 27.216159 
L 29.505914 27.254109 
L 29.494943 27.292257 
L 29.484642 27.33059 
L 29.475013 27.369099 
L 29.466059 27.407769 
L 29.457784 27.446591 
L 29.450189 27.485552 
L 29.443277 27.524639 
L 29.437051 27.563841 
L 29.431511 27.603147 
L 29.42666 27.642543 
L 29.4225 27.682018 
L 29.41903 27.72156 
L 29.416254 27.761157 
L 29.414171 27.800796 
L 29.412782 27.840465 
L 29.412087 27.880153 
L 29.412087 27.919847 
L 29.412782 27.959535 
L 29.414171 27.999204 
L 29.416254 28.038843 
L 29.41903 28.07844 
L 29.4225 28.117982 
L 29.42666 28.157457 
L 29.431511 28.196853 
L 29.437051 28.236159 
L 29.443277 28.275361 
L 29.450189 28.314448 
L 29.457784 28.353409 
L 29.466059 28.392231 
L 29.475013 28.430901 
L 29.484642 28.46941 
L 29.494943 28.507743 
L 29.505914 28.545891 
L 29.517551 28.583841 
L 29.52985 28.621581 
L 29.542808 28.6591 
L 29.55642 28.696387 
L 29.570683 28.73343 
L 29.585592 28.770218 
L 29.601142 28.806739 
L 29.61733 28.842982 
L 29.634149 28.878936 
L 29.651594 28.914591 
L 29.669661 28.949935 
L 29.688344 28.984957 
L 29.707637 29.019647 
L 29.727534 29.053993 
L 29.748029 29.087987 
L 29.769116 29.121616 
L 29.790788 29.154872 
L 29.813039 29.187743 
L 29.835862 29.220219 
L 29.859249 29.252291 
L 29.883195 29.283949 
L 29.90769 29.315183 
L 29.932729 29.345983 
L 29.958303 29.376341 
L 29.984404 29.406246 
L 30.011024 29.43569 
L 30.038156 29.464664 
L 30.065791 29.493158 
L 30.09392 29.521164 
L 30.122535 29.548674 
L 30.151627 29.575679 
L 30.181187 29.60217 
L 30.211206 29.62814 
L 30.241676 29.653581 
L 30.272585 29.678485 
L 30.303926 29.702843 
L 30.335688 29.72665 
L 30.367863 29.749897 
L 30.400439 29.772578 
L 30.433407 29.794684 
L 30.466756 29.816211 
L 30.500478 29.83715 
L 30.534561 29.857497 
L 30.568994 29.877243 
L 30.603768 29.896384 
L 30.638872 29.914913 
L 30.674294 29.932826 
L 30.710025 29.950115 
L 30.746052 29.966777 
L 30.782366 29.982805 
L 30.818955 29.998196 
L 30.855807 30.012944 
L 30.892912 30.027044 
L 30.930258 30.040493 
L 30.967834 30.053287 
L 31.005627 30.06542 
L 31.043628 30.076891 
L 31.081823 30.087695 
L 31.120202 30.097828 
L 31.158752 30.107289 
L 31.197461 30.116073 
L 31.236319 30.124179 
L 31.275312 30.131603 
L 31.314429 30.138344 
L 31.353659 30.144399 
L 31.392988 30.149766 
L 31.432405 30.154445 
L 31.471898 30.158433 
L 31.511455 30.161729 
L 31.551063 30.164332 
L 31.590711 30.166242 
L 31.630386 30.167457 
L 31.670076 30.167978 
L 31.70977 30.167805 
L 31.749454 30.166936 
L 31.789117 30.165374 
L 31.828747 30.163117 
L 31.868331 30.160167 
L 31.907857 30.156525 
L 31.947314 30.152192 
L 31.986689 30.147168 
L 32.025969 30.141457 
L 32.065144 30.135059 
L 32.104201 30.127976 
L 32.143128 30.120211 
L 32.181913 30.111766 
L 32.220544 30.102643 
L 32.25901 30.092846 
L 32.297298 30.082376 
L 32.335397 30.071239 
L 32.373296 30.059436 
L 32.410982 30.046972 
L 32.448444 30.03385 
L 32.485671 30.020075 
L 32.522651 30.00565 
L 32.559373 29.99058 
L 32.595826 29.97487 
L 32.631998 29.958525 
L 32.667878 29.941549 
L 32.703456 29.923947 
L 32.738721 29.905725 
L 32.773661 29.88689 
L 32.808266 29.867445 
L 32.842525 29.847398 
L 32.876429 29.826754 
L 32.909966 29.805521 
L 32.943126 29.783703 
L 32.975899 29.761309 
L 33.008275 29.738344 
L 33.040245 29.714816 
L 33.071798 29.690733 
L 33.102924 29.666101 
L 33.133615 29.640927 
L 33.16386 29.615221 
L 33.193651 29.588989 
L 33.222978 29.56224 
L 33.251833 29.534982 
L 33.280206 29.507223 
L 33.308089 29.478971 
L 33.335473 29.450236 
L 33.36235 29.421027 
L 33.388712 29.391351 
L 33.414551 29.361218 
L 33.439858 29.330638 
L 33.464626 29.29962 
L 33.488847 29.268172 
L 33.512515 29.236306 
L 33.535621 29.204031 
L 33.558158 29.171356 
L 33.580121 29.138291 
L 33.601501 29.104848 
L 33.622293 29.071035 
L 33.64249 29.036863 
L 33.662085 29.002344 
L 33.681074 28.967486 
L 33.699449 28.932302 
L 33.717207 28.896802 
L 33.73434 28.860996 
L 33.750843 28.824896 
L 33.766713 28.788512 
L 33.781943 28.751856 
L 33.79653 28.71494 
L 33.810468 28.677774 
L 33.823753 28.640369 
L 33.836382 28.602738 
L 33.84835 28.564891 
L 33.859655 28.526841 
L 33.870291 28.488599 
L 33.880257 28.450177 
L 33.889548 28.411586 
L 33.898163 28.372838 
L 33.906099 28.333945 
L 33.913352 28.29492 
L 33.919922 28.255773 
L 33.925805 28.216518 
L 33.931 28.177166 
L 33.935506 28.137728 
L 33.939321 28.098218 
L 33.942444 28.058648 
L 33.944874 28.019028 
L 33.946611 27.979372 
L 33.947653 27.939692 
L 33.948 27.9 
z
" clip-path="url(#p184359e32c)" style="fill: #546e7a; stroke: #37474f; stroke-width: 0.3"/>
    <path d="M 30.168 24.12 
L 30.167653 24.080308 
L 30.166611 24.040628 
L 30.164874 24.000972 
L 30.162444 23.961352 
L 30.159321 23.921782 
L 30.155506 23.882272 
L 30.151 23.842834 
L 30.145805 23.803482 
L 30.139922 23.764227 
L 30.133352 23.72508 
L 30.126099 23.686055 
L 30.118163 23.647162 
L 30.109548 23.608414 
L 30.100257 23.569823 
L 30.090291 23.531401 
L 30.079655 23.493159 
L 30.06835 23.455109 
L 30.056382 23.417262 
L 30.043753 23.379631 
L 30.030468 23.342226 
L 30.01653 23.30506 
L 30.001943 23.268144 
L 29.986713 23.231488 
L 29.970843 23.195104 
L 29.95434 23.159004 
L 29.937207 23.123198 
L 29.919449 23.087698 
L 29.901074 23.052514 
L 29.882085 23.017656 
L 29.86249 22.983137 
L 29.842293 22.948965 
L 29.821501 22.915152 
L 29.800121 22.881709 
L 29.778158 22.848644 
L 29.755621 22.815969 
L 29.732515 22.783694 
L 29.708847 22.751828 
L 29.684626 22.72038 
L 29.659858 22.689362 
L 29.634551 22.658782 
L 29.608712 22.628649 
L 29.58235 22.598973 
L 29.555473 22.569764 
L 29.528089 22.541029 
L 29.500206 22.512777 
L 29.471833 22.485018 
L 29.442978 22.45776 
L 29.413651 22.431011 
L 29.38386 22.404779 
L 29.353615 22.379073 
L 29.322924 22.353899 
L 29.291798 22.329267 
L 29.260245 22.305184 
L 29.228275 22.281656 
L 29.195899 22.258691 
L 29.163126 22.236297 
L 29.129966 22.214479 
L 29.096429 22.193246 
L 29.062525 22.172602 
L 29.028266 22.152555 
L 28.993661 22.13311 
L 28.958721 22.114275 
L 28.923456 22.096053 
L 28.887878 22.078451 
L 28.851998 22.061475 
L 28.815826 22.04513 
L 28.779373 22.02942 
L 28.742651 22.01435 
L 28.705671 21.999925 
L 28.668444 21.98615 
L 28.630982 21.973028 
L 28.593296 21.960564 
L 28.555397 21.948761 
L 28.517298 21.937624 
L 28.47901 21.927154 
L 28.440544 21.917357 
L 28.401913 21.908234 
L 28.363128 21.899789 
L 28.324201 21.892024 
L 28.285144 21.884941 
L 28.245969 21.878543 
L 28.206689 21.872832 
L 28.167314 21.867808 
L 28.127857 21.863475 
L 28.088331 21.859833 
L 28.048747 21.856883 
L 28.009117 21.854626 
L 27.969454 21.853064 
L 27.92977 21.852195 
L 27.890076 21.852022 
L 27.850386 21.852543 
L 27.810711 21.853758 
L 27.771063 21.855668 
L 27.731455 21.858271 
L 27.691898 21.861567 
L 27.652405 21.865555 
L 27.612988 21.870234 
L 27.573659 21.875601 
L 27.534429 21.881656 
L 27.495312 21.888397 
L 27.456319 21.895821 
L 27.417461 21.903927 
L 27.378752 21.912711 
L 27.340202 21.922172 
L 27.301823 21.932305 
L 27.263628 21.943109 
L 27.225627 21.95458 
L 27.187834 21.966713 
L 27.150258 21.979507 
L 27.112912 21.992956 
L 27.075807 22.007056 
L 27.038955 22.021804 
L 27.002366 22.037195 
L 26.966052 22.053223 
L 26.930025 22.069885 
L 26.894294 22.087174 
L 26.858872 22.105087 
L 26.823768 22.123616 
L 26.788994 22.142757 
L 26.754561 22.162503 
L 26.720478 22.18285 
L 26.686756 22.203789 
L 26.653407 22.225316 
L 26.620439 22.247422 
L 26.587863 22.270103 
L 26.555688 22.29335 
L 26.523926 22.317157 
L 26.492585 22.341515 
L 26.461676 22.366419 
L 26.431206 22.39186 
L 26.401187 22.41783 
L 26.371627 22.444321 
L 26.342535 22.471326 
L 26.31392 22.498836 
L 26.285791 22.526842 
L 26.258156 22.555336 
L 26.231024 22.58431 
L 26.204404 22.613754 
L 26.178303 22.643659 
L 26.152729 22.674017 
L 26.12769 22.704817 
L 26.103195 22.736051 
L 26.079249 22.767709 
L 26.055862 22.799781 
L 26.033039 22.832257 
L 26.010788 22.865128 
L 25.989116 22.898384 
L 25.968029 22.932013 
L 25.947534 22.966007 
L 25.927637 23.000353 
L 25.908344 23.035043 
L 25.889661 23.070065 
L 25.871594 23.105409 
L 25.854149 23.141064 
L 25.83733 23.177018 
L 25.821142 23.213261 
L 25.805592 23.249782 
L 25.790683 23.28657 
L 25.77642 23.323613 
L 25.762808 23.3609 
L 25.74985 23.398419 
L 25.737551 23.436159 
L 25.725914 23.474109 
L 25.714943 23.512257 
L 25.704642 23.55059 
L 25.695013 23.589099 
L 25.686059 23.627769 
L 25.677784 23.666591 
L 25.670189 23.705552 
L 25.663277 23.744639 
L 25.657051 23.783841 
L 25.651511 23.823147 
L 25.64666 23.862543 
L 25.6425 23.902018 
L 25.63903 23.94156 
L 25.636254 23.981157 
L 25.634171 24.020796 
L 25.632782 24.060465 
L 25.632087 24.100153 
L 25.632087 24.139847 
L 25.632782 24.179535 
L 25.634171 24.219204 
L 25.636254 24.258843 
L 25.63903 24.29844 
L 25.6425 24.337982 
L 25.64666 24.377457 
L 25.651511 24.416853 
L 25.657051 24.456159 
L 25.663277 24.495361 
L 25.670189 24.534448 
L 25.677784 24.573409 
L 25.686059 24.612231 
L 25.695013 24.650901 
L 25.704642 24.68941 
L 25.714943 24.727743 
L 25.725914 24.765891 
L 25.737551 24.803841 
L 25.74985 24.841581 
L 25.762808 24.8791 
L 25.77642 24.916387 
L 25.790683 24.95343 
L 25.805592 24.990218 
L 25.821142 25.026739 
L 25.83733 25.062982 
L 25.854149 25.098936 
L 25.871594 25.134591 
L 25.889661 25.169935 
L 25.908344 25.204957 
L 25.927637 25.239647 
L 25.947534 25.273993 
L 25.968029 25.307987 
L 25.989116 25.341616 
L 26.010788 25.374872 
L 26.033039 25.407743 
L 26.055862 25.440219 
L 26.079249 25.472291 
L 26.103195 25.503949 
L 26.12769 25.535183 
L 26.152729 25.565983 
L 26.178303 25.596341 
L 26.204404 25.626246 
L 26.231024 25.65569 
L 26.258156 25.684664 
L 26.285791 25.713158 
L 26.31392 25.741164 
L 26.342535 25.768674 
L 26.371627 25.795679 
L 26.401187 25.82217 
L 26.431206 25.84814 
L 26.461676 25.873581 
L 26.492585 25.898485 
L 26.523926 25.922843 
L 26.555688 25.94665 
L 26.587863 25.969897 
L 26.620439 25.992578 
L 26.653407 26.014684 
L 26.686756 26.036211 
L 26.720478 26.05715 
L 26.754561 26.077497 
L 26.788994 26.097243 
L 26.823768 26.116384 
L 26.858872 26.134913 
L 26.894294 26.152826 
L 26.930025 26.170115 
L 26.966052 26.186777 
L 27.002366 26.202805 
L 27.038955 26.218196 
L 27.075807 26.232944 
L 27.112912 26.247044 
L 27.150258 26.260493 
L 27.187834 26.273287 
L 27.225627 26.28542 
L 27.263628 26.296891 
L 27.301823 26.307695 
L 27.340202 26.317828 
L 27.378752 26.327289 
L 27.417461 26.336073 
L 27.456319 26.344179 
L 27.495312 26.351603 
L 27.534429 26.358344 
L 27.573659 26.364399 
L 27.612988 26.369766 
L 27.652405 26.374445 
L 27.691898 26.378433 
L 27.731455 26.381729 
L 27.771063 26.384332 
L 27.810711 26.386242 
L 27.850386 26.387457 
L 27.890076 26.387978 
L 27.92977 26.387805 
L 27.969454 26.386936 
L 28.009117 26.385374 
L 28.048747 26.383117 
L 28.088331 26.380167 
L 28.127857 26.376525 
L 28.167314 26.372192 
L 28.206689 26.367168 
L 28.245969 26.361457 
L 28.285144 26.355059 
L 28.324201 26.347976 
L 28.363128 26.340211 
L 28.401913 26.331766 
L 28.440544 26.322643 
L 28.47901 26.312846 
L 28.517298 26.302376 
L 28.555397 26.291239 
L 28.593296 26.279436 
L 28.630982 26.266972 
L 28.668444 26.25385 
L 28.705671 26.240075 
L 28.742651 26.22565 
L 28.779373 26.21058 
L 28.815826 26.19487 
L 28.851998 26.178525 
L 28.887878 26.161549 
L 28.923456 26.143947 
L 28.958721 26.125725 
L 28.993661 26.10689 
L 29.028266 26.087445 
L 29.062525 26.067398 
L 29.096429 26.046754 
L 29.129966 26.025521 
L 29.163126 26.003703 
L 29.195899 25.981309 
L 29.228275 25.958344 
L 29.260245 25.934816 
L 29.291798 25.910733 
L 29.322924 25.886101 
L 29.353615 25.860927 
L 29.38386 25.835221 
L 29.413651 25.808989 
L 29.442978 25.78224 
L 29.471833 25.754982 
L 29.500206 25.727223 
L 29.528089 25.698971 
L 29.555473 25.670236 
L 29.58235 25.641027 
L 29.608712 25.611351 
L 29.634551 25.581218 
L 29.659858 25.550638 
L 29.684626 25.51962 
L 29.708847 25.488172 
L 29.732515 25.456306 
L 29.755621 25.424031 
L 29.778158 25.391356 
L 29.800121 25.358291 
L 29.821501 25.324848 
L 29.842293 25.291035 
L 29.86249 25.256863 
L 29.882085 25.222344 
L 29.901074 25.187486 
L 29.919449 25.152302 
L 29.937207 25.116802 
L 29.95434 25.080996 
L 29.970843 25.044896 
L 29.986713 25.008512 
L 30.001943 24.971856 
L 30.01653 24.93494 
L 30.030468 24.897774 
L 30.043753 24.860369 
L 30.056382 24.822738 
L 30.06835 24.784891 
L 30.079655 24.746841 
L 30.090291 24.708599 
L 30.100257 24.670177 
L 30.109548 24.631586 
L 30.118163 24.592838 
L 30.126099 24.553945 
L 30.133352 24.51492 
L 30.139922 24.475773 
L 30.145805 24.436518 
L 30.151 24.397166 
L 30.155506 24.357728 
L 30.159321 24.318218 
L 30.162444 24.278648 
L 30.164874 24.239028 
L 30.166611 24.199372 
L 30.167653 24.159692 
L 30.168 24.12 
z
" clip-path="url(#p184359e32c)" style="fill: #546e7a; stroke: #37474f; stroke-width: 0.3"/>
    <path d="M 26.388 27.9 
L 26.387653 27.860308 
L 26.386611 27.820628 
L 26.384874 27.780972 
L 26.382444 27.741352 
L 26.379321 27.701782 
L 26.375506 27.662272 
L 26.371 27.622834 
L 26.365805 27.583482 
L 26.359922 27.544227 
L 26.353352 27.50508 
L 26.346099 27.466055 
L 26.338163 27.427162 
L 26.329548 27.388414 
L 26.320257 27.349823 
L 26.310291 27.311401 
L 26.299655 27.273159 
L 26.28835 27.235109 
L 26.276382 27.197262 
L 26.263753 27.159631 
L 26.250468 27.122226 
L 26.23653 27.08506 
L 26.221943 27.048144 
L 26.206713 27.011488 
L 26.190843 26.975104 
L 26.17434 26.939004 
L 26.157207 26.903198 
L 26.139449 26.867698 
L 26.121074 26.832514 
L 26.102085 26.797656 
L 26.08249 26.763137 
L 26.062293 26.728965 
L 26.041501 26.695152 
L 26.020121 26.661709 
L 25.998158 26.628644 
L 25.975621 26.595969 
L 25.952515 26.563694 
L 25.928847 26.531828 
L 25.904626 26.50038 
L 25.879858 26.469362 
L 25.854551 26.438782 
L 25.828712 26.408649 
L 25.80235 26.378973 
L 25.775473 26.349764 
L 25.748089 26.321029 
L 25.720206 26.292777 
L 25.691833 26.265018 
L 25.662978 26.23776 
L 25.633651 26.211011 
L 25.60386 26.184779 
L 25.573615 26.159073 
L 25.542924 26.133899 
L 25.511798 26.109267 
L 25.480245 26.085184 
L 25.448275 26.061656 
L 25.415899 26.038691 
L 25.383126 26.016297 
L 25.349966 25.994479 
L 25.316429 25.973246 
L 25.282525 25.952602 
L 25.248266 25.932555 
L 25.213661 25.91311 
L 25.178721 25.894275 
L 25.143456 25.876053 
L 25.107878 25.858451 
L 25.071998 25.841475 
L 25.035826 25.82513 
L 24.999373 25.80942 
L 24.962651 25.79435 
L 24.925671 25.779925 
L 24.888444 25.76615 
L 24.850982 25.753028 
L 24.813296 25.740564 
L 24.775397 25.728761 
L 24.737298 25.717624 
L 24.69901 25.707154 
L 24.660544 25.697357 
L 24.621913 25.688234 
L 24.583128 25.679789 
L 24.544201 25.672024 
L 24.505144 25.664941 
L 24.465969 25.658543 
L 24.426689 25.652832 
L 24.387314 25.647808 
L 24.347857 25.643475 
L 24.308331 25.639833 
L 24.268747 25.636883 
L 24.229117 25.634626 
L 24.189454 25.633064 
L 24.14977 25.632195 
L 24.110076 25.632022 
L 24.070386 25.632543 
L 24.030711 25.633758 
L 23.991063 25.635668 
L 23.951455 25.638271 
L 23.911898 25.641567 
L 23.872405 25.645555 
L 23.832988 25.650234 
L 23.793659 25.655601 
L 23.754429 25.661656 
L 23.715312 25.668397 
L 23.676319 25.675821 
L 23.637461 25.683927 
L 23.598752 25.692711 
L 23.560202 25.702172 
L 23.521823 25.712305 
L 23.483628 25.723109 
L 23.445627 25.73458 
L 23.407834 25.746713 
L 23.370258 25.759507 
L 23.332912 25.772956 
L 23.295807 25.787056 
L 23.258955 25.801804 
L 23.222366 25.817195 
L 23.186052 25.833223 
L 23.150025 25.849885 
L 23.114294 25.867174 
L 23.078872 25.885087 
L 23.043768 25.903616 
L 23.008994 25.922757 
L 22.974561 25.942503 
L 22.940478 25.96285 
L 22.906756 25.983789 
L 22.873407 26.005316 
L 22.840439 26.027422 
L 22.807863 26.050103 
L 22.775688 26.07335 
L 22.743926 26.097157 
L 22.712585 26.121515 
L 22.681676 26.146419 
L 22.651206 26.17186 
L 22.621187 26.19783 
L 22.591627 26.224321 
L 22.562535 26.251326 
L 22.53392 26.278836 
L 22.505791 26.306842 
L 22.478156 26.335336 
L 22.451024 26.36431 
L 22.424404 26.393754 
L 22.398303 26.423659 
L 22.372729 26.454017 
L 22.34769 26.484817 
L 22.323195 26.516051 
L 22.299249 26.547709 
L 22.275862 26.579781 
L 22.253039 26.612257 
L 22.230788 26.645128 
L 22.209116 26.678384 
L 22.188029 26.712013 
L 22.167534 26.746007 
L 22.147637 26.780353 
L 22.128344 26.815043 
L 22.109661 26.850065 
L 22.091594 26.885409 
L 22.074149 26.921064 
L 22.05733 26.957018 
L 22.041142 26.993261 
L 22.025592 27.029782 
L 22.010683 27.06657 
L 21.99642 27.103613 
L 21.982808 27.1409 
L 21.96985 27.178419 
L 21.957551 27.216159 
L 21.945914 27.254109 
L 21.934943 27.292257 
L 21.924642 27.33059 
L 21.915013 27.369099 
L 21.906059 27.407769 
L 21.897784 27.446591 
L 21.890189 27.485552 
L 21.883277 27.524639 
L 21.877051 27.563841 
L 21.871511 27.603147 
L 21.86666 27.642543 
L 21.8625 27.682018 
L 21.85903 27.72156 
L 21.856254 27.761157 
L 21.854171 27.800796 
L 21.852782 27.840465 
L 21.852087 27.880153 
L 21.852087 27.919847 
L 21.852782 27.959535 
L 21.854171 27.999204 
L 21.856254 28.038843 
L 21.85903 28.07844 
L 21.8625 28.117982 
L 21.86666 28.157457 
L 21.871511 28.196853 
L 21.877051 28.236159 
L 21.883277 28.275361 
L 21.890189 28.314448 
L 21.897784 28.353409 
L 21.906059 28.392231 
L 21.915013 28.430901 
L 21.924642 28.46941 
L 21.934943 28.507743 
L 21.945914 28.545891 
L 21.957551 28.583841 
L 21.96985 28.621581 
L 21.982808 28.6591 
L 21.99642 28.696387 
L 22.010683 28.73343 
L 22.025592 28.770218 
L 22.041142 28.806739 
L 22.05733 28.842982 
L 22.074149 28.878936 
L 22.091594 28.914591 
L 22.109661 28.949935 
L 22.128344 28.984957 
L 22.147637 29.019647 
L 22.167534 29.053993 
L 22.188029 29.087987 
L 22.209116 29.121616 
L 22.230788 29.154872 
L 22.253039 29.187743 
L 22.275862 29.220219 
L 22.299249 29.252291 
L 22.323195 29.283949 
L 22.34769 29.315183 
L 22.372729 29.345983 
L 22.398303 29.376341 
L 22.424404 29.406246 
L 22.451024 29.43569 
L 22.478156 29.464664 
L 22.505791 29.493158 
L 22.53392 29.521164 
L 22.562535 29.548674 
L 22.591627 29.575679 
L 22.621187 29.60217 
L 22.651206 29.62814 
L 22.681676 29.653581 
L 22.712585 29.678485 
L 22.743926 29.702843 
L 22.775688 29.72665 
L 22.807863 29.749897 
L 22.840439 29.772578 
L 22.873407 29.794684 
L 22.906756 29.816211 
L 22.940478 29.83715 
L 22.974561 29.857497 
L 23.008994 29.877243 
L 23.043768 29.896384 
L 23.078872 29.914913 
L 23.114294 29.932826 
L 23.150025 29.950115 
L 23.186052 29.966777 
L 23.222366 29.982805 
L 23.258955 29.998196 
L 23.295807 30.012944 
L 23.332912 30.027044 
L 23.370258 30.040493 
L 23.407834 30.053287 
L 23.445627 30.06542 
L 23.483628 30.076891 
L 23.521823 30.087695 
L 23.560202 30.097828 
L 23.598752 30.107289 
L 23.637461 30.116073 
L 23.676319 30.124179 
L 23.715312 30.131603 
L 23.754429 30.138344 
L 23.793659 30.144399 
L 23.832988 30.149766 
L 23.872405 30.154445 
L 23.911898 30.158433 
L 23.951455 30.161729 
L 23.991063 30.164332 
L 24.030711 30.166242 
L 24.070386 30.167457 
L 24.110076 30.167978 
L 24.14977 30.167805 
L 24.189454 30.166936 
L 24.229117 30.165374 
L 24.268747 30.163117 
L 24.308331 30.160167 
L 24.347857 30.156525 
L 24.387314 30.152192 
L 24.426689 30.147168 
L 24.465969 30.141457 
L 24.505144 30.135059 
L 24.544201 30.127976 
L 24.583128 30.120211 
L 24.621913 30.111766 
L 24.660544 30.102643 
L 24.69901 30.092846 
L 24.737298 30.082376 
L 24.775397 30.071239 
L 24.813296 30.059436 
L 24.850982 30.046972 
L 24.888444 30.03385 
L 24.925671 30.020075 
L 24.962651 30.00565 
L 24.999373 29.99058 
L 25.035826 29.97487 
L 25.071998 29.958525 
L 25.107878 29.941549 
L 25.143456 29.923947 
L 25.178721 29.905725 
L 25.213661 29.88689 
L 25.248266 29.867445 
L 25.282525 29.847398 
L 25.316429 29.826754 
L 25.349966 29.805521 
L 25.383126 29.783703 
L 25.415899 29.761309 
L 25.448275 29.738344 
L 25.480245 29.714816 
L 25.511798 29.690733 
L 25.542924 29.666101 
L 25.573615 29.640927 
L 25.60386 29.615221 
L 25.633651 29.588989 
L 25.662978 29.56224 
L 25.691833 29.534982 
L 25.720206 29.507223 
L 25.748089 29.478971 
L 25.775473 29.450236 
L 25.80235 29.421027 
L 25.828712 29.391351 
L 25.854551 29.361218 
L 25.879858 29.330638 
L 25.904626 29.29962 
L 25.928847 29.268172 
L 25.952515 29.236306 
L 25.975621 29.204031 
L 25.998158 29.171356 
L 26.020121 29.138291 
L 26.041501 29.104848 
L 26.062293 29.071035 
L 26.08249 29.036863 
L 26.102085 29.002344 
L 26.121074 28.967486 
L 26.139449 28.932302 
L 26.157207 28.896802 
L 26.17434 28.860996 
L 26.190843 28.824896 
L 26.206713 28.788512 
L 26.221943 28.751856 
L 26.23653 28.71494 
L 26.250468 28.677774 
L 26.263753 28.640369 
L 26.276382 28.602738 
L 26.28835 28.564891 
L 26.299655 28.526841 
L 26.310291 28.488599 
L 26.320257 28.450177 
L 26.329548 28.411586 
L 26.338163 28.372838 
L 26.346099 28.333945 
L 26.353352 28.29492 
L 26.359922 28.255773 
L 26.365805 28.216518 
L 26.371 28.177166 
L 26.375506 28.137728 
L 26.379321 28.098218 
L 26.382444 28.058648 
L 26.384874 28.019028 
L 26.386611 27.979372 
L 26.387653 27.939692 
L 26.388 27.9 
z
" clip-path="url(#p184359e32c)" style="fill: #546e7a; stroke: #37474f; stroke-width: 0.3"/>
    <path d="M 30.168 31.68 
L 30.167653 31.640308 
L 30.166611 31.600628 
L 30.164874 31.560972 
L 30.162444 31.521352 
L 30.159321 31.481782 
L 30.155506 31.442272 
L 30.151 31.402834 
L 30.145805 31.363482 
L 30.139922 31.324227 
L 30.133352 31.28508 
L 30.126099 31.246055 
L 30.118163 31.207162 
L 30.109548 31.168414 
L 30.100257 31.129823 
L 30.090291 31.091401 
L 30.079655 31.053159 
L 30.06835 31.015109 
L 30.056382 30.977262 
L 30.043753 30.939631 
L 30.030468 30.902226 
L 30.01653 30.86506 
L 30.001943 30.828144 
L 29.986713 30.791488 
L 29.970843 30.755104 
L 29.95434 30.719004 
L 29.937207 30.683198 
L 29.919449 30.647698 
L 29.901074 30.612514 
L 29.882085 30.577656 
L 29.86249 30.543137 
L 29.842293 30.508965 
L 29.821501 30.475152 
L 29.800121 30.441709 
L 29.778158 30.408644 
L 29.755621 30.375969 
L 29.732515 30.343694 
L 29.708847 30.311828 
L 29.684626 30.28038 
L 29.659858 30.249362 
L 29.634551 30.218782 
L 29.608712 30.188649 
L 29.58235 30.158973 
L 29.555473 30.129764 
L 29.528089 30.101029 
L 29.500206 30.072777 
L 29.471833 30.045018 
L 29.442978 30.01776 
L 29.413651 29.991011 
L 29.38386 29.964779 
L 29.353615 29.939073 
L 29.322924 29.913899 
L 29.291798 29.889267 
L 29.260245 29.865184 
L 29.228275 29.841656 
L 29.195899 29.818691 
L 29.163126 29.796297 
L 29.129966 29.774479 
L 29.096429 29.753246 
L 29.062525 29.732602 
L 29.028266 29.712555 
L 28.993661 29.69311 
L 28.958721 29.674275 
L 28.923456 29.656053 
L 28.887878 29.638451 
L 28.851998 29.621475 
L 28.815826 29.60513 
L 28.779373 29.58942 
L 28.742651 29.57435 
L 28.705671 29.559925 
L 28.668444 29.54615 
L 28.630982 29.533028 
L 28.593296 29.520564 
L 28.555397 29.508761 
L 28.517298 29.497624 
L 28.47901 29.487154 
L 28.440544 29.477357 
L 28.401913 29.468234 
L 28.363128 29.459789 
L 28.324201 29.452024 
L 28.285144 29.444941 
L 28.245969 29.438543 
L 28.206689 29.432832 
L 28.167314 29.427808 
L 28.127857 29.423475 
L 28.088331 29.419833 
L 28.048747 29.416883 
L 28.009117 29.414626 
L 27.969454 29.413064 
L 27.92977 29.412195 
L 27.890076 29.412022 
L 27.850386 29.412543 
L 27.810711 29.413758 
L 27.771063 29.415668 
L 27.731455 29.418271 
L 27.691898 29.421567 
L 27.652405 29.425555 
L 27.612988 29.430234 
L 27.573659 29.435601 
L 27.534429 29.441656 
L 27.495312 29.448397 
L 27.456319 29.455821 
L 27.417461 29.463927 
L 27.378752 29.472711 
L 27.340202 29.482172 
L 27.301823 29.492305 
L 27.263628 29.503109 
L 27.225627 29.51458 
L 27.187834 29.526713 
L 27.150258 29.539507 
L 27.112912 29.552956 
L 27.075807 29.567056 
L 27.038955 29.581804 
L 27.002366 29.597195 
L 26.966052 29.613223 
L 26.930025 29.629885 
L 26.894294 29.647174 
L 26.858872 29.665087 
L 26.823768 29.683616 
L 26.788994 29.702757 
L 26.754561 29.722503 
L 26.720478 29.74285 
L 26.686756 29.763789 
L 26.653407 29.785316 
L 26.620439 29.807422 
L 26.587863 29.830103 
L 26.555688 29.85335 
L 26.523926 29.877157 
L 26.492585 29.901515 
L 26.461676 29.926419 
L 26.431206 29.95186 
L 26.401187 29.97783 
L 26.371627 30.004321 
L 26.342535 30.031326 
L 26.31392 30.058836 
L 26.285791 30.086842 
L 26.258156 30.115336 
L 26.231024 30.14431 
L 26.204404 30.173754 
L 26.178303 30.203659 
L 26.152729 30.234017 
L 26.12769 30.264817 
L 26.103195 30.296051 
L 26.079249 30.327709 
L 26.055862 30.359781 
L 26.033039 30.392257 
L 26.010788 30.425128 
L 25.989116 30.458384 
L 25.968029 30.492013 
L 25.947534 30.526007 
L 25.927637 30.560353 
L 25.908344 30.595043 
L 25.889661 30.630065 
L 25.871594 30.665409 
L 25.854149 30.701064 
L 25.83733 30.737018 
L 25.821142 30.773261 
L 25.805592 30.809782 
L 25.790683 30.84657 
L 25.77642 30.883613 
L 25.762808 30.9209 
L 25.74985 30.958419 
L 25.737551 30.996159 
L 25.725914 31.034109 
L 25.714943 31.072257 
L 25.704642 31.11059 
L 25.695013 31.149099 
L 25.686059 31.187769 
L 25.677784 31.226591 
L 25.670189 31.265552 
L 25.663277 31.304639 
L 25.657051 31.343841 
L 25.651511 31.383147 
L 25.64666 31.422543 
L 25.6425 31.462018 
L 25.63903 31.50156 
L 25.636254 31.541157 
L 25.634171 31.580796 
L 25.632782 31.620465 
L 25.632087 31.660153 
L 25.632087 31.699847 
L 25.632782 31.739535 
L 25.634171 31.779204 
L 25.636254 31.818843 
L 25.63903 31.85844 
L 25.6425 31.897982 
L 25.64666 31.937457 
L 25.651511 31.976853 
L 25.657051 32.016159 
L 25.663277 32.055361 
L 25.670189 32.094448 
L 25.677784 32.133409 
L 25.686059 32.172231 
L 25.695013 32.210901 
L 25.704642 32.24941 
L 25.714943 32.287743 
L 25.725914 32.325891 
L 25.737551 32.363841 
L 25.74985 32.401581 
L 25.762808 32.4391 
L 25.77642 32.476387 
L 25.790683 32.51343 
L 25.805592 32.550218 
L 25.821142 32.586739 
L 25.83733 32.622982 
L 25.854149 32.658936 
L 25.871594 32.694591 
L 25.889661 32.729935 
L 25.908344 32.764957 
L 25.927637 32.799647 
L 25.947534 32.833993 
L 25.968029 32.867987 
L 25.989116 32.901616 
L 26.010788 32.934872 
L 26.033039 32.967743 
L 26.055862 33.000219 
L 26.079249 33.032291 
L 26.103195 33.063949 
L 26.12769 33.095183 
L 26.152729 33.125983 
L 26.178303 33.156341 
L 26.204404 33.186246 
L 26.231024 33.21569 
L 26.258156 33.244664 
L 26.285791 33.273158 
L 26.31392 33.301164 
L 26.342535 33.328674 
L 26.371627 33.355679 
L 26.401187 33.38217 
L 26.431206 33.40814 
L 26.461676 33.433581 
L 26.492585 33.458485 
L 26.523926 33.482843 
L 26.555688 33.50665 
L 26.587863 33.529897 
L 26.620439 33.552578 
L 26.653407 33.574684 
L 26.686756 33.596211 
L 26.720478 33.61715 
L 26.754561 33.637497 
L 26.788994 33.657243 
L 26.823768 33.676384 
L 26.858872 33.694913 
L 26.894294 33.712826 
L 26.930025 33.730115 
L 26.966052 33.746777 
L 27.002366 33.762805 
L 27.038955 33.778196 
L 27.075807 33.792944 
L 27.112912 33.807044 
L 27.150258 33.820493 
L 27.187834 33.833287 
L 27.225627 33.84542 
L 27.263628 33.856891 
L 27.301823 33.867695 
L 27.340202 33.877828 
L 27.378752 33.887289 
L 27.417461 33.896073 
L 27.456319 33.904179 
L 27.495312 33.911603 
L 27.534429 33.918344 
L 27.573659 33.924399 
L 27.612988 33.929766 
L 27.652405 33.934445 
L 27.691898 33.938433 
L 27.731455 33.941729 
L 27.771063 33.944332 
L 27.810711 33.946242 
L 27.850386 33.947457 
L 27.890076 33.947978 
L 27.92977 33.947805 
L 27.969454 33.946936 
L 28.009117 33.945374 
L 28.048747 33.943117 
L 28.088331 33.940167 
L 28.127857 33.936525 
L 28.167314 33.932192 
L 28.206689 33.927168 
L 28.245969 33.921457 
L 28.285144 33.915059 
L 28.324201 33.907976 
L 28.363128 33.900211 
L 28.401913 33.891766 
L 28.440544 33.882643 
L 28.47901 33.872846 
L 28.517298 33.862376 
L 28.555397 33.851239 
L 28.593296 33.839436 
L 28.630982 33.826972 
L 28.668444 33.81385 
L 28.705671 33.800075 
L 28.742651 33.78565 
L 28.779373 33.77058 
L 28.815826 33.75487 
L 28.851998 33.738525 
L 28.887878 33.721549 
L 28.923456 33.703947 
L 28.958721 33.685725 
L 28.993661 33.66689 
L 29.028266 33.647445 
L 29.062525 33.627398 
L 29.096429 33.606754 
L 29.129966 33.585521 
L 29.163126 33.563703 
L 29.195899 33.541309 
L 29.228275 33.518344 
L 29.260245 33.494816 
L 29.291798 33.470733 
L 29.322924 33.446101 
L 29.353615 33.420927 
L 29.38386 33.395221 
L 29.413651 33.368989 
L 29.442978 33.34224 
L 29.471833 33.314982 
L 29.500206 33.287223 
L 29.528089 33.258971 
L 29.555473 33.230236 
L 29.58235 33.201027 
L 29.608712 33.171351 
L 29.634551 33.141218 
L 29.659858 33.110638 
L 29.684626 33.07962 
L 29.708847 33.048172 
L 29.732515 33.016306 
L 29.755621 32.984031 
L 29.778158 32.951356 
L 29.800121 32.918291 
L 29.821501 32.884848 
L 29.842293 32.851035 
L 29.86249 32.816863 
L 29.882085 32.782344 
L 29.901074 32.747486 
L 29.919449 32.712302 
L 29.937207 32.676802 
L 29.95434 32.640996 
L 29.970843 32.604896 
L 29.986713 32.568512 
L 30.001943 32.531856 
L 30.01653 32.49494 
L 30.030468 32.457774 
L 30.043753 32.420369 
L 30.056382 32.382738 
L 30.06835 32.344891 
L 30.079655 32.306841 
L 30.090291 32.268599 
L 30.100257 32.230177 
L 30.109548 32.191586 
L 30.118163 32.152838 
L 30.126099 32.113945 
L 30.133352 32.07492 
L 30.139922 32.035773 
L 30.145805 31.996518 
L 30.151 31.957166 
L 30.155506 31.917728 
L 30.159321 31.878218 
L 30.162444 31.838648 
L 30.164874 31.799028 
L 30.166611 31.759372 
L 30.167653 31.719692 
L 30.168 31.68 
z
" clip-path="url(#p184359e32c)" style="fill: #546e7a; stroke: #37474f; stroke-width: 0.3"/>
   </g>
   <g id="PolyCollection_2">
    <defs>
     <path id="ma06370f76d" d="M 16.56 -77.917888 
L 16.56 -55.237887 
L 27.9 -24.997887 
L 39.24 -55.237887 
L 39.24 -77.917888 
z
" style="stroke: #90a4ae; stroke-opacity: 0.5; stroke-width: 0.8"/>
    </defs>
    <g clip-path="url(#p184359e32c)">
     <use xlink:href="#ma06370f76d" x="0" y="94.477888" style="fill: #eceff1; fill-opacity: 0.5; stroke: #90a4ae; stroke-opacity: 0.5; stroke-width: 0.8"/>
    </g>
   </g>
   <g id="text_1">
    <!-- Tetrode -->
    <g style="fill: #37474f" transform="translate(14.71375 91.582106) scale(0.07 -0.07)">
     <defs>
      <path id="DejaVuSans-Oblique-54" d="M 378 4666 
L 4325 4666 
L 4225 4134 
L 2559 4134 
L 1759 0 
L 1125 0 
L 1925 4134 
L 275 4134 
L 378 4666 
z
" transform="scale(0.015625)"/>
      <path id="DejaVuSans-Oblique-65" d="M 3078 2063 
Q 3088 2113 3092 2166 
Q 3097 2219 3097 2272 
Q 3097 2653 2873 2875 
Q 2650 3097 2266 3097 
Q 1838 3097 1509 2826 
Q 1181 2556 1013 2059 
L 3078 2063 
z
M 3578 1613 
L 903 1613 
Q 884 1494 878 1425 
Q 872 1356 872 1306 
Q 872 872 1139 634 
Q 1406 397 1894 397 
Q 2269 397 2603 481 
Q 2938 566 3225 728 
L 3116 159 
Q 2806 34 2476 -28 
Q 2147 -91 1806 -91 
Q 1078 -91 686 257 
Q 294 606 294 1247 
Q 294 1794 489 2264 
Q 684 2734 1063 3103 
Q 1306 3334 1642 3459 
Q 1978 3584 2356 3584 
Q 2950 3584 3301 3228 
Q 3653 2872 3653 2272 
Q 3653 2128 3634 1964 
Q 3616 1800 3578 1613 
z
" transform="scale(0.015625)"/>
      <path id="DejaVuSans-Oblique-74" d="M 2706 3500 
L 2619 3053 
L 1472 3053 
L 1100 1153 
Q 1081 1047 1072 975 
Q 1063 903 1063 863 
Q 1063 663 1183 572 
Q 1303 481 1569 481 
L 2150 481 
L 2053 0 
L 1503 0 
Q 991 0 739 200 
Q 488 400 488 806 
Q 488 878 497 964 
Q 506 1050 525 1153 
L 897 3053 
L 409 3053 
L 500 3500 
L 978 3500 
L 1172 4494 
L 1747 4494 
L 1556 3500 
L 2706 3500 
z
" transform="scale(0.015625)"/>
      <path id="DejaVuSans-Oblique-72" d="M 2853 2969 
Q 2766 3016 2653 3041 
Q 2541 3066 2413 3066 
Q 1953 3066 1609 2717 
Q 1266 2369 1153 1784 
L 800 0 
L 225 0 
L 909 3500 
L 1484 3500 
L 1375 2956 
Q 1603 3259 1920 3421 
Q 2238 3584 2597 3584 
Q 2691 3584 2781 3573 
Q 2872 3563 2963 3538 
L 2853 2969 
z
" transform="scale(0.015625)"/>
      <path id="DejaVuSans-Oblique-6f" d="M 1625 -91 
Q 1009 -91 651 289 
Q 294 669 294 1325 
Q 294 1706 417 2101 
Q 541 2497 738 2766 
Q 1047 3184 1428 3384 
Q 1809 3584 2291 3584 
Q 2888 3584 3255 3212 
Q 3622 2841 3622 2241 
Q 3622 1825 3500 1412 
Q 3378 1000 3181 728 
Q 2875 309 2494 109 
Q 2113 -91 1625 -91 
z
M 891 1344 
Q 891 869 1089 633 
Q 1288 397 1691 397 
Q 2269 397 2648 901 
Q 3028 1406 3028 2181 
Q 3028 2634 2825 2865 
Q 2622 3097 2228 3097 
Q 1903 3097 1650 2945 
Q 1397 2794 1197 2484 
Q 1050 2253 970 1956 
Q 891 1659 891 1344 
z
" transform="scale(0.015625)"/>
      <path id="DejaVuSans-Oblique-64" d="M 2675 525 
Q 2444 222 2128 65 
Q 1813 -91 1428 -91 
Q 903 -91 598 267 
Q 294 625 294 1247 
Q 294 1766 478 2236 
Q 663 2706 1013 3078 
Q 1244 3325 1534 3454 
Q 1825 3584 2144 3584 
Q 2481 3584 2739 3421 
Q 2997 3259 3138 2956 
L 3513 4863 
L 4091 4863 
L 3144 0 
L 2566 0 
L 2675 525 
z
M 891 1350 
Q 891 897 1095 644 
Q 1300 391 1663 391 
Q 1931 391 2161 520 
Q 2391 650 2566 903 
Q 2750 1166 2856 1509 
Q 2963 1853 2963 2188 
Q 2963 2622 2758 2865 
Q 2553 3109 2194 3109 
Q 1922 3109 1687 2981 
Q 1453 2853 1288 2613 
Q 1106 2353 998 2009 
Q 891 1666 891 1350 
z
" transform="scale(0.015625)"/>
     </defs>
     <use xlink:href="#DejaVuSans-Oblique-54"/>
     <use xlink:href="#DejaVuSans-Oblique-65" transform="translate(48.708984 0)"/>
     <use xlink:href="#DejaVuSans-Oblique-74" transform="translate(110.232422 0)"/>
     <use xlink:href="#DejaVuSans-Oblique-72" transform="translate(149.441406 0)"/>
     <use xlink:href="#DejaVuSans-Oblique-6f" transform="translate(190.554688 0)"/>
     <use xlink:href="#DejaVuSans-Oblique-64" transform="translate(251.736328 0)"/>
     <use xlink:href="#DejaVuSans-Oblique-65" transform="translate(315.212891 0)"/>
    </g>
   </g>
  </g>
 </g>
 <defs>
  <clipPath id="p184359e32c">
   <rect x="1.44" y="1.44" width="52.92" height="83.16"/>
  </clipPath>
 </defs>
</svg>
