<?xml version="1.0" encoding="utf-8" standalone="no"?>
<!DOCTYPE svg PUBLIC "-//W3C//DTD SVG 1.1//EN"
  "http://www.w3.org/Graphics/SVG/1.1/DTD/svg11.dtd">
<svg xmlns:xlink="http://www.w3.org/1999/xlink" width="46.22556pt" height="293.2pt" viewBox="0 0 46.22556 293.2" xmlns="http://www.w3.org/2000/svg" version="1.1">
 <metadata>
  <rdf:RDF xmlns:dc="http://purl.org/dc/elements/1.1/" xmlns:cc="http://creativecommons.org/ns#" xmlns:rdf="http://www.w3.org/1999/02/22-rdf-syntax-ns#">
   <cc:Work>
    <dc:type rdf:resource="http://purl.org/dc/dcmitype/StillImage"/>
    <dc:date>2026-02-09T09:53:42.650883</dc:date>
    <dc:format>image/svg+xml</dc:format>
    <dc:creator>
     <cc:Agent>
      <dc:title>Matplotlib v3.10.7, https://matplotlib.org/</dc:title>
     </cc:Agent>
    </dc:creator>
   </cc:Work>
  </rdf:RDF>
 </metadata>
 <defs>
  <style type="text/css">*{stroke-linejoin: round; stroke-linecap: butt}</style>
 </defs>
 <g id="figure_1">
  <g id="patch_1">
   <path d="M 0 293.2 
L 46.22556 293.2 
L 46.22556 0 
L 0 0 
L 0 293.2 
z
" style="fill: none"/>
  </g>
  <g id="axes_1">
   <g id="PolyCollection_1">
    <path d="M 28.994731 278.465906 
L 28.994731 277.791113 
L 29.489579 277.791113 
L 29.489579 278.465906 
z
" clip-path="url(#pdedd096649)" style="fill: #ffc107; fill-opacity: 0.7; stroke: #4c4c4c; stroke-opacity: 0.7; stroke-width: 0.5"/>
    <path d="M 27.98254 282.402202 
L 27.98254 281.727409 
L 28.477389 281.727409 
L 28.477389 282.402202 
z
" clip-path="url(#pdedd096649)" style="fill: #ffc107; fill-opacity: 0.7; stroke: #4c4c4c; stroke-opacity: 0.7; stroke-width: 0.5"/>
    <path d="M 28.994731 276.216595 
L 28.994731 275.541801 
L 29.489579 275.541801 
L 29.489579 276.216595 
z
" clip-path="url(#pdedd096649)" style="fill: #ffc107; fill-opacity: 0.7; stroke: #4c4c4c; stroke-opacity: 0.7; stroke-width: 0.5"/>
    <path d="M 27.98254 279.028234 
L 27.98254 278.353441 
L 28.477389 278.353441 
L 28.477389 279.028234 
z
" clip-path="url(#pdedd096649)" style="fill: #ffc107; fill-opacity: 0.7; stroke: #4c4c4c; stroke-opacity: 0.7; stroke-width: 0.5"/>
    <path d="M 40.24129 279.590562 
L 40.24129 278.915769 
L 40.736138 278.915769 
L 40.736138 279.590562 
z
" clip-path="url(#pdedd096649)" style="fill: #ffc107; fill-opacity: 0.7; stroke: #4c4c4c; stroke-opacity: 0.7; stroke-width: 0.5"/>
    <path d="M 40.24129 276.216595 
L 40.24129 275.541801 
L 40.736138 275.541801 
L 40.736138 276.216595 
z
" clip-path="url(#pdedd096649)" style="fill: #ffc107; fill-opacity: 0.7; stroke: #4c4c4c; stroke-opacity: 0.7; stroke-width: 0.5"/>
    <path d="M 39.229099 283.526858 
L 39.229099 282.852064 
L 39.723948 282.852064 
L 39.723948 283.526858 
z
" clip-path="url(#pdedd096649)" style="fill: #ffc107; fill-opacity: 0.7; stroke: #4c4c4c; stroke-opacity: 0.7; stroke-width: 0.5"/>
    <path d="M 39.229099 276.778923 
L 39.229099 276.104129 
L 39.723948 276.104129 
L 39.723948 276.778923 
z
" clip-path="url(#pdedd096649)" style="fill: #ffc107; fill-opacity: 0.7; stroke: #4c4c4c; stroke-opacity: 0.7; stroke-width: 0.5"/>
    <path d="M 40.24129 281.839874 
L 40.24129 281.165081 
L 40.736138 281.165081 
L 40.736138 281.839874 
z
" clip-path="url(#pdedd096649)" style="fill: #ffc107; fill-opacity: 0.7; stroke: #4c4c4c; stroke-opacity: 0.7; stroke-width: 0.5"/>
    <path d="M 39.229099 280.15289 
L 39.229099 279.478097 
L 39.723948 279.478097 
L 39.723948 280.15289 
z
" clip-path="url(#pdedd096649)" style="fill: #ffc107; fill-opacity: 0.7; stroke: #4c4c4c; stroke-opacity: 0.7; stroke-width: 0.5"/>
    <path d="M 39.229099 284.651514 
L 39.229099 283.97672 
L 39.723948 283.97672 
L 39.723948 284.651514 
z
" clip-path="url(#pdedd096649)" style="fill: #ffc107; fill-opacity: 0.7; stroke: #4c4c4c; stroke-opacity: 0.7; stroke-width: 0.5"/>
    <path d="M 27.98254 276.778923 
L 27.98254 276.104129 
L 28.477389 276.104129 
L 28.477389 276.778923 
z
" clip-path="url(#pdedd096649)" style="fill: #ffc107; fill-opacity: 0.7; stroke: #4c4c4c; stroke-opacity: 0.7; stroke-width: 0.5"/>
    <path d="M 27.98254 283.526858 
L 27.98254 282.852064 
L 28.477389 282.852064 
L 28.477389 283.526858 
z
" clip-path="url(#pdedd096649)" style="fill: #ffc107; fill-opacity: 0.7; stroke: #4c4c4c; stroke-opacity: 0.7; stroke-width: 0.5"/>
    <path d="M 27.98254 280.15289 
L 27.98254 279.478097 
L 28.477389 279.478097 
L 28.477389 280.15289 
z
" clip-path="url(#pdedd096649)" style="fill: #ffc107; fill-opacity: 0.7; stroke: #4c4c4c; stroke-opacity: 0.7; stroke-width: 0.5"/>
    <path d="M 28.994731 277.34125 
L 28.994731 276.666457 
L 29.489579 276.666457 
L 29.489579 277.34125 
z
" clip-path="url(#pdedd096649)" style="fill: #ffc107; fill-opacity: 0.7; stroke: #4c4c4c; stroke-opacity: 0.7; stroke-width: 0.5"/>
    <path d="M 28.994731 281.839874 
L 28.994731 281.165081 
L 29.489579 281.165081 
L 29.489579 281.839874 
z
" clip-path="url(#pdedd096649)" style="fill: #ffc107; fill-opacity: 0.7; stroke: #4c4c4c; stroke-opacity: 0.7; stroke-width: 0.5"/>
    <path d="M 17.748171 277.34125 
L 17.748171 276.666457 
L 18.24302 276.666457 
L 18.24302 277.34125 
z
" clip-path="url(#pdedd096649)" style="fill: #ffc107; fill-opacity: 0.7; stroke: #4c4c4c; stroke-opacity: 0.7; stroke-width: 0.5"/>
    <path d="M 17.748171 281.839874 
L 17.748171 281.165081 
L 18.24302 281.165081 
L 18.24302 281.839874 
z
" clip-path="url(#pdedd096649)" style="fill: #ffc107; fill-opacity: 0.7; stroke: #4c4c4c; stroke-opacity: 0.7; stroke-width: 0.5"/>
    <path d="M 16.735981 283.526858 
L 16.735981 282.852064 
L 17.23083 282.852064 
L 17.23083 283.526858 
z
" clip-path="url(#pdedd096649)" style="fill: #ffc107; fill-opacity: 0.7; stroke: #4c4c4c; stroke-opacity: 0.7; stroke-width: 0.5"/>
    <path d="M 16.735981 280.15289 
L 16.735981 279.478097 
L 17.23083 279.478097 
L 17.23083 280.15289 
z
" clip-path="url(#pdedd096649)" style="fill: #ffc107; fill-opacity: 0.7; stroke: #4c4c4c; stroke-opacity: 0.7; stroke-width: 0.5"/>
    <path d="M 5.489422 284.651514 
L 5.489422 283.97672 
L 5.984271 283.97672 
L 5.984271 284.651514 
z
" clip-path="url(#pdedd096649)" style="fill: #ffc107; fill-opacity: 0.7; stroke: #4c4c4c; stroke-opacity: 0.7; stroke-width: 0.5"/>
    <path d="M 16.735981 276.778923 
L 16.735981 276.104129 
L 17.23083 276.104129 
L 17.23083 276.778923 
z
" clip-path="url(#pdedd096649)" style="fill: #ffc107; fill-opacity: 0.7; stroke: #4c4c4c; stroke-opacity: 0.7; stroke-width: 0.5"/>
    <path d="M 6.501612 281.839874 
L 6.501612 281.165081 
L 6.996461 281.165081 
L 6.996461 281.839874 
z
" clip-path="url(#pdedd096649)" style="fill: #ffc107; fill-opacity: 0.7; stroke: #4c4c4c; stroke-opacity: 0.7; stroke-width: 0.5"/>
    <path d="M 5.489422 280.15289 
L 5.489422 279.478097 
L 5.984271 279.478097 
L 5.984271 280.15289 
z
" clip-path="url(#pdedd096649)" style="fill: #ffc107; fill-opacity: 0.7; stroke: #4c4c4c; stroke-opacity: 0.7; stroke-width: 0.5"/>
    <path d="M 5.489422 283.526858 
L 5.489422 282.852064 
L 5.984271 282.852064 
L 5.984271 283.526858 
z
" clip-path="url(#pdedd096649)" style="fill: #ffc107; fill-opacity: 0.7; stroke: #4c4c4c; stroke-opacity: 0.7; stroke-width: 0.5"/>
    <path d="M 5.489422 276.778923 
L 5.489422 276.104129 
L 5.984271 276.104129 
L 5.984271 276.778923 
z
" clip-path="url(#pdedd096649)" style="fill: #ffc107; fill-opacity: 0.7; stroke: #4c4c4c; stroke-opacity: 0.7; stroke-width: 0.5"/>
    <path d="M 6.501612 279.590562 
L 6.501612 278.915769 
L 6.996461 278.915769 
L 6.996461 279.590562 
z
" clip-path="url(#pdedd096649)" style="fill: #ffc107; fill-opacity: 0.7; stroke: #4c4c4c; stroke-opacity: 0.7; stroke-width: 0.5"/>
    <path d="M 6.501612 276.216595 
L 6.501612 275.541801 
L 6.996461 275.541801 
L 6.996461 276.216595 
z
" clip-path="url(#pdedd096649)" style="fill: #ffc107; fill-opacity: 0.7; stroke: #4c4c4c; stroke-opacity: 0.7; stroke-width: 0.5"/>
    <path d="M 17.748171 276.216595 
L 17.748171 275.541801 
L 18.24302 275.541801 
L 18.24302 276.216595 
z
" clip-path="url(#pdedd096649)" style="fill: #ffc107; fill-opacity: 0.7; stroke: #4c4c4c; stroke-opacity: 0.7; stroke-width: 0.5"/>
    <path d="M 16.735981 279.028234 
L 16.735981 278.353441 
L 17.23083 278.353441 
L 17.23083 279.028234 
z
" clip-path="url(#pdedd096649)" style="fill: #ffc107; fill-opacity: 0.7; stroke: #4c4c4c; stroke-opacity: 0.7; stroke-width: 0.5"/>
    <path d="M 28.994731 279.590562 
L 28.994731 278.915769 
L 29.489579 278.915769 
L 29.489579 279.590562 
z
" clip-path="url(#pdedd096649)" style="fill: #ffc107; fill-opacity: 0.7; stroke: #4c4c4c; stroke-opacity: 0.7; stroke-width: 0.5"/>
    <path d="M 16.735981 282.402202 
L 16.735981 281.727409 
L 17.23083 281.727409 
L 17.23083 282.402202 
z
" clip-path="url(#pdedd096649)" style="fill: #ffc107; fill-opacity: 0.7; stroke: #4c4c4c; stroke-opacity: 0.7; stroke-width: 0.5"/>
    <path d="M 5.489422 279.028234 
L 5.489422 278.353441 
L 5.984271 278.353441 
L 5.984271 279.028234 
z
" clip-path="url(#pdedd096649)" style="fill: #ffc107; fill-opacity: 0.7; stroke: #4c4c4c; stroke-opacity: 0.7; stroke-width: 0.5"/>
    <path d="M 6.501612 284.089186 
L 6.501612 283.414392 
L 6.996461 283.414392 
L 6.996461 284.089186 
z
" clip-path="url(#pdedd096649)" style="fill: #ffc107; fill-opacity: 0.7; stroke: #4c4c4c; stroke-opacity: 0.7; stroke-width: 0.5"/>
    <path d="M 5.489422 277.903578 
L 5.489422 277.228785 
L 5.984271 277.228785 
L 5.984271 277.903578 
z
" clip-path="url(#pdedd096649)" style="fill: #ffc107; fill-opacity: 0.7; stroke: #4c4c4c; stroke-opacity: 0.7; stroke-width: 0.5"/>
    <path d="M 5.489422 282.402202 
L 5.489422 281.727409 
L 5.984271 281.727409 
L 5.984271 282.402202 
z
" clip-path="url(#pdedd096649)" style="fill: #ffc107; fill-opacity: 0.7; stroke: #4c4c4c; stroke-opacity: 0.7; stroke-width: 0.5"/>
    <path d="M 5.489422 281.277546 
L 5.489422 280.602753 
L 5.984271 280.602753 
L 5.984271 281.277546 
z
" clip-path="url(#pdedd096649)" style="fill: #ffc107; fill-opacity: 0.7; stroke: #4c4c4c; stroke-opacity: 0.7; stroke-width: 0.5"/>
    <path d="M 6.501612 282.96453 
L 6.501612 282.289737 
L 6.996461 282.289737 
L 6.996461 282.96453 
z
" clip-path="url(#pdedd096649)" style="fill: #ffc107; fill-opacity: 0.7; stroke: #4c4c4c; stroke-opacity: 0.7; stroke-width: 0.5"/>
    <path d="M 6.501612 278.465906 
L 6.501612 277.791113 
L 6.996461 277.791113 
L 6.996461 278.465906 
z
" clip-path="url(#pdedd096649)" style="fill: #ffc107; fill-opacity: 0.7; stroke: #4c4c4c; stroke-opacity: 0.7; stroke-width: 0.5"/>
    <path d="M 6.501612 280.715218 
L 6.501612 280.040425 
L 6.996461 280.040425 
L 6.996461 280.715218 
z
" clip-path="url(#pdedd096649)" style="fill: #ffc107; fill-opacity: 0.7; stroke: #4c4c4c; stroke-opacity: 0.7; stroke-width: 0.5"/>
    <path d="M 6.501612 277.34125 
L 6.501612 276.666457 
L 6.996461 276.666457 
L 6.996461 277.34125 
z
" clip-path="url(#pdedd096649)" style="fill: #ffc107; fill-opacity: 0.7; stroke: #4c4c4c; stroke-opacity: 0.7; stroke-width: 0.5"/>
    <path d="M 17.748171 284.089186 
L 17.748171 283.414392 
L 18.24302 283.414392 
L 18.24302 284.089186 
z
" clip-path="url(#pdedd096649)" style="fill: #ffc107; fill-opacity: 0.7; stroke: #4c4c4c; stroke-opacity: 0.7; stroke-width: 0.5"/>
    <path d="M 16.735981 277.903578 
L 16.735981 277.228785 
L 17.23083 277.228785 
L 17.23083 277.903578 
z
" clip-path="url(#pdedd096649)" style="fill: #ffc107; fill-opacity: 0.7; stroke: #4c4c4c; stroke-opacity: 0.7; stroke-width: 0.5"/>
    <path d="M 16.735981 284.651514 
L 16.735981 283.97672 
L 17.23083 283.97672 
L 17.23083 284.651514 
z
" clip-path="url(#pdedd096649)" style="fill: #ffc107; fill-opacity: 0.7; stroke: #4c4c4c; stroke-opacity: 0.7; stroke-width: 0.5"/>
    <path d="M 16.735981 281.277546 
L 16.735981 280.602753 
L 17.23083 280.602753 
L 17.23083 281.277546 
z
" clip-path="url(#pdedd096649)" style="fill: #ffc107; fill-opacity: 0.7; stroke: #4c4c4c; stroke-opacity: 0.7; stroke-width: 0.5"/>
    <path d="M 17.748171 282.96453 
L 17.748171 282.289737 
L 18.24302 282.289737 
L 18.24302 282.96453 
z
" clip-path="url(#pdedd096649)" style="fill: #ffc107; fill-opacity: 0.7; stroke: #4c4c4c; stroke-opacity: 0.7; stroke-width: 0.5"/>
    <path d="M 17.748171 280.715218 
L 17.748171 280.040425 
L 18.24302 280.040425 
L 18.24302 280.715218 
z
" clip-path="url(#pdedd096649)" style="fill: #ffc107; fill-opacity: 0.7; stroke: #4c4c4c; stroke-opacity: 0.7; stroke-width: 0.5"/>
    <path d="M 17.748171 279.590562 
L 17.748171 278.915769 
L 18.24302 278.915769 
L 18.24302 279.590562 
z
" clip-path="url(#pdedd096649)" style="fill: #ffc107; fill-opacity: 0.7; stroke: #4c4c4c; stroke-opacity: 0.7; stroke-width: 0.5"/>
    <path d="M 28.994731 280.715218 
L 28.994731 280.040425 
L 29.489579 280.040425 
L 29.489579 280.715218 
z
" clip-path="url(#pdedd096649)" style="fill: #ffc107; fill-opacity: 0.7; stroke: #4c4c4c; stroke-opacity: 0.7; stroke-width: 0.5"/>
    <path d="M 17.748171 278.465906 
L 17.748171 277.791113 
L 18.24302 277.791113 
L 18.24302 278.465906 
z
" clip-path="url(#pdedd096649)" style="fill: #ffc107; fill-opacity: 0.7; stroke: #4c4c4c; stroke-opacity: 0.7; stroke-width: 0.5"/>
    <path d="M 27.98254 281.277546 
L 27.98254 280.602753 
L 28.477389 280.602753 
L 28.477389 281.277546 
z
" clip-path="url(#pdedd096649)" style="fill: #ffc107; fill-opacity: 0.7; stroke: #4c4c4c; stroke-opacity: 0.7; stroke-width: 0.5"/>
    <path d="M 28.994731 282.96453 
L 28.994731 282.289737 
L 29.489579 282.289737 
L 29.489579 282.96453 
z
" clip-path="url(#pdedd096649)" style="fill: #ffc107; fill-opacity: 0.7; stroke: #4c4c4c; stroke-opacity: 0.7; stroke-width: 0.5"/>
    <path d="M 27.98254 277.903578 
L 27.98254 277.228785 
L 28.477389 277.228785 
L 28.477389 277.903578 
z
" clip-path="url(#pdedd096649)" style="fill: #ffc107; fill-opacity: 0.7; stroke: #4c4c4c; stroke-opacity: 0.7; stroke-width: 0.5"/>
    <path d="M 27.98254 284.651514 
L 27.98254 283.97672 
L 28.477389 283.97672 
L 28.477389 284.651514 
z
" clip-path="url(#pdedd096649)" style="fill: #ffc107; fill-opacity: 0.7; stroke: #4c4c4c; stroke-opacity: 0.7; stroke-width: 0.5"/>
    <path d="M 40.24129 277.34125 
L 40.24129 276.666457 
L 40.736138 276.666457 
L 40.736138 277.34125 
z
" clip-path="url(#pdedd096649)" style="fill: #ffc107; fill-opacity: 0.7; stroke: #4c4c4c; stroke-opacity: 0.7; stroke-width: 0.5"/>
    <path d="M 28.994731 284.089186 
L 28.994731 283.414392 
L 29.489579 283.414392 
L 29.489579 284.089186 
z
" clip-path="url(#pdedd096649)" style="fill: #ffc107; fill-opacity: 0.7; stroke: #4c4c4c; stroke-opacity: 0.7; stroke-width: 0.5"/>
    <path d="M 40.24129 278.465906 
L 40.24129 277.791113 
L 40.736138 277.791113 
L 40.736138 278.465906 
z
" clip-path="url(#pdedd096649)" style="fill: #ffc107; fill-opacity: 0.7; stroke: #4c4c4c; stroke-opacity: 0.7; stroke-width: 0.5"/>
    <path d="M 40.24129 280.715218 
L 40.24129 280.040425 
L 40.736138 280.040425 
L 40.736138 280.715218 
z
" clip-path="url(#pdedd096649)" style="fill: #ffc107; fill-opacity: 0.7; stroke: #4c4c4c; stroke-opacity: 0.7; stroke-width: 0.5"/>
    <path d="M 39.229099 281.277546 
L 39.229099 280.602753 
L 39.723948 280.602753 
L 39.723948 281.277546 
z
" clip-path="url(#pdedd096649)" style="fill: #ffc107; fill-opacity: 0.7; stroke: #4c4c4c; stroke-opacity: 0.7; stroke-width: 0.5"/>
    <path d="M 40.24129 282.96453 
L 40.24129 282.289737 
L 40.736138 282.289737 
L 40.736138 282.96453 
z
" clip-path="url(#pdedd096649)" style="fill: #ffc107; fill-opacity: 0.7; stroke: #4c4c4c; stroke-opacity: 0.7; stroke-width: 0.5"/>
    <path d="M 39.229099 277.903578 
L 39.229099 277.228785 
L 39.723948 277.228785 
L 39.723948 277.903578 
z
" clip-path="url(#pdedd096649)" style="fill: #ffc107; fill-opacity: 0.7; stroke: #4c4c4c; stroke-opacity: 0.7; stroke-width: 0.5"/>
    <path d="M 39.229099 282.402202 
L 39.229099 281.727409 
L 39.723948 281.727409 
L 39.723948 282.402202 
z
" clip-path="url(#pdedd096649)" style="fill: #ffc107; fill-opacity: 0.7; stroke: #4c4c4c; stroke-opacity: 0.7; stroke-width: 0.5"/>
    <path d="M 39.229099 279.028234 
L 39.229099 278.353441 
L 39.723948 278.353441 
L 39.723948 279.028234 
z
" clip-path="url(#pdedd096649)" style="fill: #ffc107; fill-opacity: 0.7; stroke: #4c4c4c; stroke-opacity: 0.7; stroke-width: 0.5"/>
    <path d="M 40.24129 284.089186 
L 40.24129 283.414392 
L 40.736138 283.414392 
L 40.736138 284.089186 
z
" clip-path="url(#pdedd096649)" style="fill: #ffc107; fill-opacity: 0.7; stroke: #4c4c4c; stroke-opacity: 0.7; stroke-width: 0.5"/>
   </g>
   <g id="PolyCollection_2">
    <defs>
     <path id="m83cd780a59" d="M 5.399449 -287.800551 
L 5.399449 -278.803303 
L 5.399449 -8.43602 
L 6.242941 -5.399449 
L 7.086433 -8.43602 
L 7.086433 -278.803303 
L 16.646009 -278.803303 
L 16.646009 -8.43602 
L 17.489501 -5.399449 
L 18.332993 -8.43602 
L 18.332993 -278.803303 
L 27.892568 -278.803303 
L 27.892568 -8.43602 
L 28.73606 -5.399449 
L 29.579552 -8.43602 
L 29.579552 -278.803303 
L 39.139127 -278.803303 
L 39.139127 -8.43602 
L 39.982619 -5.399449 
L 40.826111 -8.43602 
L 40.826111 -278.803303 
L 40.826111 -287.800551 
z
" style="stroke: #90a4ae; stroke-opacity: 0.3"/>
    </defs>
    <g clip-path="url(#pdedd096649)">
     <use xlink:href="#m83cd780a59" x="0" y="293.2" style="fill: #cfd8dc; fill-opacity: 0.3; stroke: #90a4ae; stroke-opacity: 0.3"/>
    </g>
   </g>
  </g>
 </g>
 <defs>
  <clipPath id="pdedd096649">
   <rect x="3.6" y="3.6" width="39.02556" height="286"/>
  </clipPath>
 </defs>
</svg>
